<?xml version="1.0" encoding="UTF-8" standalone="no"?>
<svg xmlns="http://www.w3.org/2000/svg"
     xmlns:xlink="http://www.w3.org/1999/xlink"
     width="20px" height="20px" viewBox="0 0 20 20"
     style="stroke:none">
<title>Graphic window number 0</title>
<desc>
Creator: GL2PS 1.3.2, (C) 1999-2006 Christophe Geuzaine (geuz@geuz.org)
For: Scilab
CreationDate: Thu Feb 24 14:18:15 2011
</desc>
<defs>
</defs>
<polygon fill="#ffffff" points="0,0 20,0 20,20 0,20"/>
<g>
<polygon fill="#ffffff" points="0.200195,19.7998 0.200195,0.200195 0.200195,0.200195"/>
<polygon fill="#ffffff" points="0.200195,19.7998 0.200195,0.200195 0.200195,19.7998"/>
<polygon fill="#ffffff" points="0.200195,19.7998 19.7998,19.7998 19.7998,19.7998"/>
<polygon fill="#ffffff" points="0.200195,19.7998 19.7998,19.7998 0.200195,19.7998"/>
<polygon fill="#ffffff" points="0.200195,19.7998 19.7998,19.7998 19.7998,0.200195"/>
<polygon fill="#ffffff" points="0.200195,19.7998 19.7998,0.200195 0.200195,0.200195"/>
<polygon fill="#0000bf" points="0.200195,1.1333 18.8667,10.4668 0.200195,19.7998"/>
<polyline fill="none" stroke="#0000bf" stroke-width="1" points="0.200195,1.1333 18.8667,10.4668 0.200195,19.7998 0.200195,1.1333"/>
</g>
</svg>
