<?xml version="1.0" encoding="UTF-8" standalone="no"?>
<svg xmlns="http://www.w3.org/2000/svg"
     xmlns:xlink="http://www.w3.org/1999/xlink"
     width="20px" height="20px" viewBox="0 0 20 20"
     style="stroke:none">
<title>Graphic window number 0</title>
<desc>
Creator: GL2PS 1.3.2, (C) 1999-2006 Christophe Geuzaine (geuz@geuz.org)
For: Scilab
CreationDate: Thu Feb 24 14:18:15 2011
</desc>
<defs>
</defs>
<polygon fill="#ffffff" points="0,0 20,0 20,20 0,20"/>
<g>
<polygon fill="#ffffff" points="0.200195,19.7998 0.200195,0.200195 0.200195,0.200195"/>
<polygon fill="#ffffff" points="0.200195,19.7998 0.200195,0.200195 0.200195,19.7998"/>
<polygon fill="#ffffff" points="0.200195,19.7998 19.7998,19.7998 19.7998,19.7998"/>
<polygon fill="#ffffff" points="0.200195,19.7998 19.7998,19.7998 0.200195,19.7998"/>
<polygon fill="#ffffff" points="0.200195,19.7998 19.7998,19.7998 19.7998,0.200195"/>
<polygon fill="#ffffff" points="0.200195,19.7998 19.7998,0.200195 0.200195,0.200195"/>
<polygon fill="#000000" points="0,11.2256 1.51758,10.4668 0,9.70801"/>
<polyline fill="none" stroke="#000000" stroke-width="0.125" points="0,11.2256 1.51758,10.4668 0,9.70801"/>
<polygon fill="#ffffff" points="17.5488,0 17.5488,20 20,20"/>
<polygon fill="#ffffff" points="17.5488,0 20,20 20,0"/>
<polyline fill="none" stroke="#0000bf" stroke-width="0.125" points="17.5488,0 17.5488,20"/>
<polygon fill="#0000bf" points="0.200195,1.1333 18.8667,10.4668 0.200195,19.7998"/>
<polyline fill="none" stroke="#0000bf" stroke-width="0.125" points="0.200195,1.1333 18.8667,10.4668 0.200195,19.7998 0.200195,1.1333"/>
<text fill="#ffffff" style="stroke:none" x="5" y="11" transform="rotate(0, 5, 11)" font-size="2" font-family="SansSerif" font-style="normal" font-weight="normal">2</text>
</g>
</svg>
