<?xml version="1.0" encoding="utf-8"?>
<!-- Generator: Adobe Illustrator 14.0.0, SVG Export Plug-In . SVG Version: 6.00 Build 43363)  -->
<!DOCTYPE svg PUBLIC "-//W3C//DTD SVG 1.1//EN" "http://www.w3.org/Graphics/SVG/1.1/DTD/svg11.dtd">
<svg version="1.1" id="Calque_1" xmlns="http://www.w3.org/2000/svg" xmlns:xlink="http://www.w3.org/1999/xlink" x="0px" y="0px"
	 width="40px" height="40px" viewBox="0 0 40 40" enable-background="new 0 0 40 40" xml:space="preserve">
<title>Graphic window number 0</title>
<desc>Creator: GL2PS 1.3.2, (C) 1999-2006 Christophe Geuzaine (geuz@geuz.org)
For: Scilab
CreationDate: Fri Sep 16 15:16:33 2011</desc>
<g>
	<polygon fill="#C0C0C0" points="18.432,6.672 21.568,6.672 20,2.36 	"/>
	<polyline fill="none" stroke="#C0C0C0" stroke-width="0.125" points="20,2.36 18.432,6.672 21.568,6.672 20,2.36 	"/>
	<line fill="none" stroke="#C0C0C0" stroke-width="0.125" x1="20" y1="35.68" x2="20" y2="6.672"/>
	<line fill="none" stroke="#C0C0C0" stroke-width="0.125" x1="2.36" y1="20" x2="33.328" y2="20"/>
	<polygon fill="#C0C0C0" points="33.328,21.568 37.641,20 33.328,18.432 	"/>
	<polyline fill="none" stroke="#C0C0C0" stroke-width="0.125" points="37.641,20 33.328,18.432 33.328,21.568 37.641,20 	"/>
	<polyline fill="none" stroke="#000000" stroke-width="0.125" points="4.32,26.84 10.964,26.154 14.238,25.312 16.413,24.214 
		17.981,22.842 19.602,20.621 21.562,17.727 23.038,16.198 24.763,15.1 27.645,14.12 32.172,13.434 35.68,13.16 	"/>
	<polyline fill="none" stroke="#000000" stroke-width="0.125" points="4.32,11.161 11.003,10.455 14.296,9.632 16.453,8.514 
		18.001,7.103 19.643,4.869 20,4.32 	"/>
	<polyline fill="none" stroke="#000000" stroke-width="0.125" points="20,35.68 21.75,33.172 23.352,31.623 25.351,30.506 
		28.252,29.683 33.7,28.977 35.68,28.84 	"/>
	<text transform="matrix(1 0 0 1 4 36)" fill="#C0C0C0" font-family="'ArialMT'" font-size="4">atan2</text>
</g>
</svg>
