<?xml version="1.0" encoding="UTF-8" standalone="no"?>
<svg xmlns="http://www.w3.org/2000/svg"
     xmlns:xlink="http://www.w3.org/1999/xlink"
     width="40px" height="40px" viewBox="0 0 40 40"
     style="stroke:none">
<title>Graphic window number 0</title>
<desc>
Creator: GL2PS 1.3.2, (C) 1999-2006 Christophe Geuzaine (geuz@geuz.org)
For: Scilab
CreationDate: Mon Mar  7 11:40:48 2011
</desc>
<defs>
</defs>
<polygon fill="#ffffff" points="0,0 40,0 40,40 0,40"/>
<g>
<polygon fill="#ffffff" points="0.399902,39.6001 0.399902,0.399902 0.399902,0.399902"/>
<polygon fill="#ffffff" points="0.399902,39.6001 0.399902,0.399902 0.399902,39.6001"/>
<polygon fill="#ffffff" points="0.399902,39.6001 39.6001,39.6001 39.6001,39.6001"/>
<polygon fill="#ffffff" points="0.399902,39.6001 39.6001,39.6001 0.399902,39.6001"/>
<polygon fill="#ffffff" points="0.399902,39.6001 39.6001,39.6001 39.6001,0.399902"/>
<polygon fill="#ffffff" points="0.399902,39.6001 39.6001,0.399902 0.399902,0.399902"/>
<polygon fill="#0000bf" points="0,8.90137 1.32227,8.24023 0,7.57861"/>
<polyline fill="none" stroke="#0000bf" stroke-width="0.125" points="0,8.90137 1.32227,8.24023 0,7.57861"/>
<polygon fill="#0000bf" points="0,32.4214 1.32227,31.7598 0,31.0986"/>
<polyline fill="none" stroke="#0000bf" stroke-width="0.125" points="0,32.4214 1.32227,31.7598 0,31.0986"/>
<polygon fill="#0000bf" points="0,20.6611 1.32227,20 0,19.3389"/>
<polyline fill="none" stroke="#0000bf" stroke-width="0.125" points="0,20.6611 1.32227,20 0,19.3389"/>
<polygon fill="#ffffff" points="38.6777,0 38.6777,40 40,40"/>
<polygon fill="#ffffff" points="38.6777,0 40,40 40,0"/>
<polyline fill="none" stroke="#0000bf" stroke-width="0.125" points="38.6777,0 38.6777,40"/>
<polygon fill="#ffffff" points="0.399902,0.399902 0.399902,39.6001 39.6001,39.6001"/>
<polygon fill="#ffffff" points="0.399902,0.399902 39.6001,39.6001 39.6001,0.399902"/>
<polyline fill="none" stroke="#0000bf" stroke-width="0.125" points="0.399902,0.399902 0.399902,39.6001 39.6001,39.6001 39.6001,0.399902 0.399902,0.399902"/>
<text fill="#000000" style="stroke:none" x="8" y="8" transform="rotate(0, 8, 8)" font-size="5" font-family="SansSerif" font-style="normal" font-weight="normal">1</text>
<text fill="#000000" style="stroke:none" x="8" y="22" transform="rotate(0, 8, 22)" font-size="5" font-family="SansSerif" font-style="normal" font-weight="normal">1</text>
<text fill="#000000" style="stroke:none" x="8" y="36" transform="rotate(0, 8, 36)" font-size="6" font-family="SansSerif" font-style="normal" font-weight="normal">1</text>
<text fill="#000000" style="stroke:none" x="24" y="27" transform="rotate(0, 24, 27)" font-size="18" font-family="SansSerif" font-style="normal" font-weight="normal">+</text>
</g>
</svg>
