<?xml version="1.0" encoding="UTF-8" standalone="no"?>
<svg xmlns="http://www.w3.org/2000/svg"
     xmlns:xlink="http://www.w3.org/1999/xlink"
     width="40px" height="40px" viewBox="0 0 40 40"
     style="stroke:none">
<title>Graphic window number 0</title>
<desc>
Creator: GL2PS 1.3.2, (C) 1999-2006 Christophe Geuzaine (geuz@geuz.org)
For: Scilab
CreationDate: Mon Mar  7 11:40:47 2011
</desc>
<defs>
</defs>
<polygon fill="#ffffff" points="0,0 40,0 40,40 0,40"/>
<g>
<polygon fill="#ffffff" points="0.399902,39.6001 0.399902,0.399902 0.399902,0.399902"/>
<polygon fill="#ffffff" points="0.399902,39.6001 0.399902,0.399902 0.399902,39.6001"/>
<polygon fill="#ffffff" points="0.399902,39.6001 39.6001,39.6001 39.6001,39.6001"/>
<polygon fill="#ffffff" points="0.399902,39.6001 39.6001,39.6001 0.399902,39.6001"/>
<polygon fill="#ffffff" points="0.399902,39.6001 39.6001,39.6001 39.6001,0.399902"/>
<polygon fill="#ffffff" points="0.399902,39.6001 39.6001,0.399902 0.399902,0.399902"/>
<polygon fill="#0000bf" points="0,8.90137 1.32227,8.24023 0,7.57861"/>
<polyline fill="none" stroke="#0000bf" stroke-width="0.125" points="0,8.90137 1.32227,8.24023 0,7.57861"/>
<polygon fill="#0000bf" points="0,32.4214 1.32227,31.7598 0,31.0986"/>
<polyline fill="none" stroke="#0000bf" stroke-width="0.125" points="0,32.4214 1.32227,31.7598 0,31.0986"/>
<polygon fill="#ffffff" points="38.6777,0 38.6777,40 40,40"/>
<polygon fill="#ffffff" points="38.6777,0 40,40 40,0"/>
<polyline fill="none" stroke="#0000bf" stroke-width="0.125" points="38.6777,0 38.6777,40"/>
<polygon fill="#ffffff" points="0.399902,0.399902 0.399902,39.6001 39.6001,39.6001"/>
<polygon fill="#ffffff" points="0.399902,0.399902 39.6001,39.6001 39.6001,0.399902"/>
<polyline fill="none" stroke="#0000bf" stroke-width="0.125" points="0.399902,0.399902 0.399902,39.6001 39.6001,39.6001 39.6001,0.399902 0.399902,0.399902"/>
<polygon fill="#c0c0c0" points="18.4321,6.67188 21.5679,6.67188 20,2.35986"/>
<polyline fill="none" stroke="#c0c0c0" stroke-width="0.125" points="20,2.35986 18.4321,6.67188 21.5679,6.67188 20,2.35986"/>
<polyline fill="none" stroke="#c0c0c0" stroke-width="0.125" points="20,35.6802 20,6.67188"/>
<polyline fill="none" stroke="#c0c0c0" stroke-width="0.125" points="2.35986,20 33.3281,20"/>
<polygon fill="#c0c0c0" points="33.3281,21.5679 37.6401,20 33.3281,18.4321"/>
<polyline fill="none" stroke="#c0c0c0" stroke-width="0.125" points="37.6401,20 33.3281,18.4321 33.3281,21.5679 37.6401,20"/>
<polyline fill="none" stroke="#000000" stroke-width="0.125" points="4.31982,26.8403 10.9644,26.1543 14.2378,25.3115 16.4131,24.2139 17.9814,22.8418 19.6021,20.6211 21.562,17.7266 23.0381,16.1978 24.7627,15.1001 27.644,14.1201 32.1714,13.4341 35.6802,13.1597"/>
<polyline fill="none" stroke="#000000" stroke-width="0.125" points="4.31982,11.1606 11.0034,10.4546 14.2964,9.63184 16.4526,8.51416 18.001,7.10303 19.6431,4.86865 20,4.31982"/>
<polyline fill="none" stroke="#000000" stroke-width="0.125" points="20,35.6802 21.7505,33.1714 23.3516,31.6226 25.3506,30.5054 28.2515,29.6826 33.7002,28.9766 35.6802,28.8394"/>
<text fill="#000000" style="stroke:none" x="4" y="36" transform="rotate(0, 4, 36)" font-size="4" font-family="SansSerif" font-style="normal" font-weight="normal">atan2</text>
</g>
</svg>
