<?xml version="1.0" encoding="utf-8"?>
<!-- Generator: Adobe Illustrator 14.0.0, SVG Export Plug-In . SVG Version: 6.00 Build 43363)  -->
<!DOCTYPE svg PUBLIC "-//W3C//DTD SVG 1.1//EN" "http://www.w3.org/Graphics/SVG/1.1/DTD/svg11.dtd">
<svg version="1.1" id="Calque_1" xmlns="http://www.w3.org/2000/svg" xmlns:xlink="http://www.w3.org/1999/xlink" x="0px" y="0px"
	 width="40px" height="40px" viewBox="0 0 40 40" enable-background="new 0 0 40 40" xml:space="preserve">
<g>
	<polyline fill="none" stroke="#00007F" stroke-width="1.125" points="0.8,8.24 12.559,8.24 14.519,12.16 	"/>
	<polyline fill="none" stroke="#00007F" stroke-width="1.125" points="0.8,31.76 12.559,31.76 14.519,27.84 	"/>
	<line fill="none" stroke="#00007F" stroke-width="1.125" x1="30.199" y1="20" x2="40" y2="20"/>
</g>
<circle fill="none" stroke="#00007F" stroke-width="1.125" cx="20.274" cy="20" r="7.708"/>
<path fill="none" stroke="#00007F" stroke-width="1.125" d="M30.107,19.876c0,5.382-4.366,9.75-9.75,9.75
	c-5.385,0-9.75-4.368-9.75-9.75c0-5.386,4.365-9.75,9.75-9.75C25.741,10.125,30.107,14.49,30.107,19.876z"/>
<g enable-background="new    ">
	<path d="M22.677,17.299l-1.711,2.251v0.036l2.719-0.36v1.225l-2.719-0.324v0.036l1.729,2.16l-1.134,0.648l-1.081-2.521h-0.036
		l-1.17,2.538l-1.026-0.647l1.71-2.197v-0.036l-2.665,0.343v-1.225l2.647,0.342v-0.036l-1.692-2.196l1.098-0.63l1.116,2.503h0.036
		l1.099-2.521L22.677,17.299z"/>
</g>
</svg>
