<?xml version="1.0" encoding="utf-8"?>
<!-- Generator: Adobe Illustrator 14.0.0, SVG Export Plug-In . SVG Version: 6.00 Build 43363)  -->
<!DOCTYPE svg PUBLIC "-//W3C//DTD SVG 1.1//EN" "http://www.w3.org/Graphics/SVG/1.1/DTD/svg11.dtd">
<svg version="1.1" id="Calque_1" xmlns="http://www.w3.org/2000/svg" xmlns:xlink="http://www.w3.org/1999/xlink" x="0px" y="0px"
	 width="40px" height="40px" viewBox="0 0 40 40" enable-background="new 0 0 40 40" xml:space="preserve">
<g>
	<polyline fill="none" stroke="#00007F" stroke-width="1.125" points="0.8,8.715 12.559,8.715 14.519,12.635 	"/>
	<polyline fill="none" stroke="#00007F" stroke-width="1.125" points="0.8,32.236 12.559,32.236 14.519,28.316 	"/>
	<line fill="none" stroke="#00007F" stroke-width="1.125" x1="30.199" y1="20.475" x2="40" y2="20.475"/>
</g>
<circle fill="none" stroke="#00007F" stroke-width="1.125" cx="20.274" cy="20.476" r="7.708"/>
<circle fill="none" stroke="#00007F" stroke-width="1.125" cx="20.357" cy="20.351" r="9.75"/>
<g enable-background="new    ">
	<path d="M17.453,24.614c-0.816,0-1.392-0.647-1.392-1.512c0-0.888,0.6-1.512,1.44-1.512c0.84,0,1.417,0.624,1.417,1.512
		c0,0.864-0.552,1.512-1.44,1.512H17.453z"/>
</g>
<g enable-background="new    ">
	<path d="M24.611,16.191l-1.71,2.251v0.036l2.719-0.36v1.225l-2.719-0.324v0.036l1.729,2.16l-1.134,0.648l-1.081-2.521h-0.036
		l-1.17,2.538l-1.026-0.647l1.71-2.197V19l-2.665,0.343v-1.225l2.647,0.342v-0.036l-1.692-2.196l1.099-0.63l1.115,2.503h0.037
		l1.098-2.521L24.611,16.191z"/>
</g>
</svg>
