<?xml version="1.0" encoding="utf-8"?>
<!-- Generator: Adobe Illustrator 14.0.0, SVG Export Plug-In . SVG Version: 6.00 Build 43363)  -->
<!DOCTYPE svg PUBLIC "-//W3C//DTD SVG 1.1//EN" "http://www.w3.org/Graphics/SVG/1.1/DTD/svg11.dtd">
<svg version="1.1" id="Calque_1" xmlns="http://www.w3.org/2000/svg" xmlns:xlink="http://www.w3.org/1999/xlink" x="0px" y="0px"
	 width="40px" height="40px" viewBox="0 0 40 40" enable-background="new 0 0 40 40" xml:space="preserve">
<g>
	<polyline fill="none" stroke="#00007F" stroke-width="1.125" points="0.8,7.49 12.559,7.49 14.519,11.41 	"/>
	<polyline fill="none" stroke="#00007F" stroke-width="1.125" points="0.8,31.01 12.559,31.01 14.519,27.09 	"/>
	<line fill="none" stroke="#00007F" stroke-width="1.125" x1="30.199" y1="19.25" x2="40" y2="19.25"/>
</g>
<circle fill="none" stroke="#00007F" stroke-width="1.125" cx="20.274" cy="19.25" r="7.708"/>
<path fill="none" stroke="#00007F" stroke-width="1.125" d="M30.107,19.126c0,5.382-4.366,9.75-9.75,9.75
	c-5.385,0-9.75-4.368-9.75-9.75c0-5.386,4.365-9.75,9.75-9.75C25.741,9.375,30.107,13.74,30.107,19.126z"/>
<g enable-background="new    ">
	<path d="M21.088,14.754v4.231h4.07v1.08h-4.07v4.268h-1.152v-4.268h-4.069v-1.08h4.069v-4.231H21.088z"/>
</g>
</svg>
