<?xml version="1.0" encoding="utf-8"?>
<!-- Generator: Adobe Illustrator 14.0.0, SVG Export Plug-In . SVG Version: 6.00 Build 43363)  -->
<!DOCTYPE svg PUBLIC "-//W3C//DTD SVG 1.1//EN" "http://www.w3.org/Graphics/SVG/1.1/DTD/svg11.dtd">
<svg version="1.1" id="Calque_1" xmlns="http://www.w3.org/2000/svg" xmlns:xlink="http://www.w3.org/1999/xlink" x="0px" y="0px"
	 width="40px" height="40px" viewBox="0 0 40 40" enable-background="new 0 0 40 40" xml:space="preserve">
<g>
	<polyline fill="none" stroke="#00007F" stroke-width="1.125" points="0.8,7.49 12.559,7.49 14.519,11.41 	"/>
	<polyline fill="none" stroke="#00007F" stroke-width="1.125" points="0.8,31.01 12.559,31.01 14.519,27.09 	"/>
	<line fill="none" stroke="#00007F" stroke-width="1.125" x1="30.199" y1="19.25" x2="40" y2="19.25"/>
</g>
<circle fill="none" stroke="#00007F" stroke-width="1.125" cx="20.274" cy="19.25" r="7.708"/>
<path fill="none" stroke="#00007F" stroke-width="1.125" d="M30.107,19.126c0,5.382-4.366,9.75-9.75,9.75
	c-5.385,0-9.75-4.368-9.75-9.75c0-5.386,4.365-9.75,9.75-9.75C25.741,9.375,30.107,13.74,30.107,19.126z"/>
<g enable-background="new    ">
	<path d="M18.306,14.993l1.242,1.873c0.324,0.486,0.594,0.937,0.882,1.422h0.054c0.288-0.521,0.576-0.972,0.864-1.44l1.225-1.854
		h1.71l-2.971,4.214l3.062,4.501h-1.801l-1.279-1.963c-0.342-0.504-0.63-0.99-0.936-1.512h-0.036
		c-0.288,0.54-0.594,0.99-0.918,1.512l-1.26,1.963h-1.747l3.097-4.447l-2.953-4.268H18.306z"/>
</g>
</svg>
