<?xml version="1.0" encoding="utf-8"?>
<!-- Generator: Adobe Illustrator 14.0.0, SVG Export Plug-In . SVG Version: 6.00 Build 43363)  -->
<!DOCTYPE svg PUBLIC "-//W3C//DTD SVG 1.1//EN" "http://www.w3.org/Graphics/SVG/1.1/DTD/svg11.dtd">
<svg version="1.1" id="Calque_1" xmlns="http://www.w3.org/2000/svg" xmlns:xlink="http://www.w3.org/1999/xlink" x="0px" y="0px"
	 width="40px" height="40px" viewBox="0 0 40 40" enable-background="new 0 0 40 40" xml:space="preserve">
<title>Graphic window number 0</title>
<desc>Creator: GL2PS 1.3.2, (C) 1999-2006 Christophe Geuzaine (geuz@geuz.org)
For: Scilab
CreationDate: Fri Sep 16 15:16:47 2011</desc>
<g>
	<polygon fill="#C0C0C0" points="2.752,6.672 5.888,6.672 4.32,2.36 	"/>
	<polyline fill="none" stroke="#C0C0C0" stroke-width="0.125" points="4.32,2.36 2.752,6.672 5.888,6.672 4.32,2.36 	"/>
	<line fill="none" stroke="#C0C0C0" stroke-width="0.125" x1="4.32" y1="6.672" x2="4.32" y2="25.684"/>
	<polygon fill="#C0C0C0" points="33.721,27.252 38.032,25.684 33.721,24.116 	"/>
	<polyline fill="none" stroke="#C0C0C0" stroke-width="0.125" points="38.032,25.684 33.721,24.116 33.721,27.252 38.032,25.684 	
		"/>
	<line fill="none" stroke="#C0C0C0" stroke-width="0.125" x1="4.516" y1="25.684" x2="36.464" y2="25.684"/>
	<line fill="none" stroke="#000000" stroke-width="0.125" x1="4.516" y1="25.684" x2="28.036" y2="25.684"/>
	<polyline fill="none" stroke="#000000" stroke-width="0.125" points="17.06,24.116 20.196,25.684 17.06,27.057 	"/>
	<line fill="none" stroke="#000000" stroke-width="0.125" x1="28.036" y1="10.004" x2="28.036" y2="25.684"/>
	<polyline fill="none" stroke="#000000" stroke-width="0.125" points="26.468,19.412 28.036,15.688 29.8,19.412 	"/>
	<line fill="none" stroke="#000000" stroke-width="0.125" x1="10.396" y1="10.004" x2="35.876" y2="10.004"/>
	<polyline fill="none" stroke="#000000" stroke-width="0.125" points="19.216,8.436 16.276,10.004 19.216,11.572 	"/>
	<polyline fill="none" stroke="#000000" stroke-width="0.125" points="8.436,14.316 10.396,17.844 12.356,14.316 	"/>
	<line fill="none" stroke="#000000" stroke-width="0.125" x1="10.396" y1="10.004" x2="10.396" y2="25.684"/>
	<polyline fill="none" stroke="#C0C0C0" stroke-width="0.125" points="2.164,29.604 2.164,38.032 18.432,38.032 18.432,29.604 
		2.164,29.604 	"/>
	<line fill="none" stroke="#C0C0C0" stroke-width="0.125" x1="10.396" y1="25.684" x2="10.396" y2="29.604"/>
	<polyline fill="none" stroke="#C0C0C0" stroke-width="0.125" points="20.392,29.604 20.392,38.032 37.836,38.032 37.836,29.604 
		20.392,29.604 	"/>
	<line fill="none" stroke="#C0C0C0" stroke-width="0.125" x1="28.036" y1="25.684" x2="28.036" y2="29.604"/>
	<text transform="matrix(1 0 0 1 7 36)" fill="#C0C0C0" font-family="'ArialMT'" font-size="6">0</text>
	<text transform="matrix(1 0 0 1 27 36)" fill="#C0C0C0" font-family="'ArialMT'" font-size="6">1</text>
</g>
</svg>
