<?xml version="1.0" encoding="UTF-8" standalone="no"?>
<svg xmlns="http://www.w3.org/2000/svg"
     xmlns:xlink="http://www.w3.org/1999/xlink"
     width="40px" height="40px" viewBox="0 0 40 40"
     style="stroke:none">
<title>Graphic window number 0</title>
<desc>
Creator: GL2PS 1.3.2, (C) 1999-2006 Christophe Geuzaine (geuz@geuz.org)
For: Scilab
CreationDate: Mon Mar  7 11:40:42 2011
</desc>
<defs>
</defs>
<polygon fill="#ffffff" points="0,0 40,0 40,40 0,40"/>
<g>
<polygon fill="#ffffff" points="0.399902,39.6001 0.399902,0.399902 0.399902,0.399902"/>
<polygon fill="#ffffff" points="0.399902,39.6001 0.399902,0.399902 0.399902,39.6001"/>
<polygon fill="#ffffff" points="0.399902,39.6001 39.6001,39.6001 39.6001,39.6001"/>
<polygon fill="#ffffff" points="0.399902,39.6001 39.6001,39.6001 0.399902,39.6001"/>
<polygon fill="#ffffff" points="0.399902,39.6001 39.6001,39.6001 39.6001,0.399902"/>
<polygon fill="#ffffff" points="0.399902,39.6001 39.6001,0.399902 0.399902,0.399902"/>
<polygon fill="#0000bf" points="0,20.6611 1.32227,20 0,19.3389"/>
<polyline fill="none" stroke="#0000bf" stroke-width="0.125" points="0,20.6611 1.32227,20 0,19.3389"/>
<polygon fill="#ffffff" points="38.6777,0 38.6777,40 40,40"/>
<polygon fill="#ffffff" points="38.6777,0 40,40 40,0"/>
<polyline fill="none" stroke="#0000bf" stroke-width="0.125" points="38.6777,0 38.6777,40"/>
<polygon fill="#ffffff" points="0.399902,0.399902 0.399902,39.6001 39.6001,39.6001"/>
<polygon fill="#ffffff" points="0.399902,0.399902 39.6001,39.6001 39.6001,0.399902"/>
<polyline fill="none" stroke="#0000bf" stroke-width="0.125" points="0.399902,0.399902 0.399902,39.6001 39.6001,39.6001 39.6001,0.399902 0.399902,0.399902"/>
<polygon fill="#c0c0c0" points="2.75195,6.67188 5.88818,6.67188 4.31982,2.35986"/>
<polyline fill="none" stroke="#c0c0c0" stroke-width="0.125" points="4.31982,2.35986 2.75195,6.67188 5.88818,6.67188 4.31982,2.35986"/>
<polyline fill="none" stroke="#c0c0c0" stroke-width="0.125" points="4.31982,6.67188 4.31982,25.6841"/>
<polygon fill="#c0c0c0" points="33.7202,27.252 38.0322,25.6841 33.7202,24.1162"/>
<polyline fill="none" stroke="#c0c0c0" stroke-width="0.125" points="38.0322,25.6841 33.7202,24.1162 33.7202,27.252 38.0322,25.6841"/>
<polyline fill="none" stroke="#c0c0c0" stroke-width="0.125" points="4.51611,25.6841 36.4639,25.6841"/>
<polyline fill="none" stroke="#000000" stroke-width="0.125" points="4.51611,25.6841 28.0361,25.6841"/>
<polyline fill="none" stroke="#000000" stroke-width="0.125" points="17.0601,24.1162 20.1958,25.6841 17.0601,27.0562"/>
<polyline fill="none" stroke="#000000" stroke-width="0.125" points="28.0361,10.0039 28.0361,25.6841"/>
<polyline fill="none" stroke="#000000" stroke-width="0.125" points="26.4678,19.4121 28.0361,15.688 29.7998,19.4121"/>
<polyline fill="none" stroke="#000000" stroke-width="0.125" points="10.396,10.0039 35.876,10.0039"/>
<polyline fill="none" stroke="#000000" stroke-width="0.125" points="19.2158,8.43604 16.2759,10.0039 19.2158,11.5718"/>
<polyline fill="none" stroke="#000000" stroke-width="0.125" points="8.43604,14.3159 10.396,17.8442 12.356,14.3159"/>
<polyline fill="none" stroke="#000000" stroke-width="0.125" points="10.396,10.0039 10.396,25.6841"/>
<polyline fill="none" stroke="#c0c0c0" stroke-width="0.125" points="2.16406,29.604 2.16406,38.0322 18.4321,38.0322 18.4321,29.604 2.16406,29.604"/>
<polyline fill="none" stroke="#c0c0c0" stroke-width="0.125" points="10.396,25.6841 10.396,29.604"/>
<polyline fill="none" stroke="#c0c0c0" stroke-width="0.125" points="20.3921,29.604 20.3921,38.0322 37.8359,38.0322 37.8359,29.604 20.3921,29.604"/>
<polyline fill="none" stroke="#c0c0c0" stroke-width="0.125" points="28.0361,25.6841 28.0361,29.604"/>
<text fill="#c0c0c0" style="stroke:none" x="7" y="36" transform="rotate(0, 7, 36)" font-size="6" font-family="SansSerif" font-style="normal" font-weight="normal">0</text>
<text fill="#c0c0c0" style="stroke:none" x="27" y="36" transform="rotate(0, 27, 36)" font-size="6" font-family="SansSerif" font-style="normal" font-weight="normal">1</text>
</g>
</svg>
