<?xml version="1.0" encoding="UTF-8" standalone="no"?>
<svg xmlns="http://www.w3.org/2000/svg"
     xmlns:xlink="http://www.w3.org/1999/xlink"
     width="40px" height="40px" viewBox="0 0 40 40"
     style="stroke:none">
<title>Graphic window number 0</title>
<desc>
Creator: GL2PS 1.3.2, (C) 1999-2006 Christophe Geuzaine (geuz@geuz.org)
For: Scilab
CreationDate: Mon Mar  7 11:40:43 2011
</desc>
<defs>
</defs>
<polygon fill="#ffffff" points="0,0 40,0 40,40 0,40"/>
<g>
<polygon fill="#ffffff" points="0.399902,39.6001 0.399902,0.399902 0.399902,0.399902"/>
<polygon fill="#ffffff" points="0.399902,39.6001 0.399902,0.399902 0.399902,39.6001"/>
<polygon fill="#ffffff" points="0.399902,39.6001 39.6001,39.6001 39.6001,39.6001"/>
<polygon fill="#ffffff" points="0.399902,39.6001 39.6001,39.6001 0.399902,39.6001"/>
<polygon fill="#ffffff" points="0.399902,39.6001 39.6001,39.6001 39.6001,0.399902"/>
<polygon fill="#ffffff" points="0.399902,39.6001 39.6001,0.399902 0.399902,0.399902"/>
<polygon fill="#0000bf" points="0,20.6611 1.32227,20 0,19.3389"/>
<polyline fill="none" stroke="#0000bf" stroke-width="0.125" points="0,20.6611 1.32227,20 0,19.3389"/>
<polygon fill="#ffffff" points="38.6777,0 38.6777,40 40,40"/>
<polygon fill="#ffffff" points="38.6777,0 40,40 40,0"/>
<polyline fill="none" stroke="#0000bf" stroke-width="0.125" points="38.6777,0 38.6777,40"/>
<polygon fill="#ffffff" points="0.399902,0.399902 0.399902,39.6001 39.6001,39.6001"/>
<polygon fill="#ffffff" points="0.399902,0.399902 39.6001,39.6001 39.6001,0.399902"/>
<polyline fill="none" stroke="#0000bf" stroke-width="0.125" points="0.399902,0.399902 0.399902,39.6001 39.6001,39.6001 39.6001,0.399902 0.399902,0.399902"/>
<polyline fill="none" stroke="#c0c0c0" stroke-width="0.125" points="20,37.6401 20,6.67188"/>
<polygon fill="#c0c0c0" points="18.4321,6.67188 21.5679,6.67188 20,2.35986"/>
<polyline fill="none" stroke="#c0c0c0" stroke-width="0.125" points="20,2.35986 18.4321,6.67188 21.5679,6.67188 20,2.35986"/>
<polyline fill="none" stroke="#c0c0c0" stroke-width="0.125" points="2.35986,20 33.3281,20"/>
<polygon fill="#c0c0c0" points="33.3281,18.4321 37.6401,20 33.3281,21.5679"/>
<polyline fill="none" stroke="#c0c0c0" stroke-width="0.125" points="37.6401,20 33.3281,21.5679 33.3281,18.4321 37.6401,20"/>
<polyline fill="none" stroke="#000000" stroke-width="0.125" points="10.2002,33.7202 29.7998,6.27979"/>
</g>
</svg>
