<?xml version="1.0" encoding="utf-8"?>
<!-- Generator: Adobe Illustrator 14.0.0, SVG Export Plug-In . SVG Version: 6.00 Build 43363)  -->
<!DOCTYPE svg PUBLIC "-//W3C//DTD SVG 1.1//EN" "http://www.w3.org/Graphics/SVG/1.1/DTD/svg11.dtd">
<svg version="1.1"
	 id="Calque_1" xmlns:rdf="http://www.w3.org/1999/02/22-rdf-syntax-ns#" xmlns:svg="http://www.w3.org/2000/svg" sodipodi:docname="CBN_Hysteresis.svg" xmlns:sodipodi="http://sodipodi.sourceforge.net/DTD/sodipodi-0.dtd" xmlns:inkscape="http://www.inkscape.org/namespaces/inkscape" xmlns:dc="http://purl.org/dc/elements/1.1/" inkscape:version="0.48.2 r9819" xmlns:cc="http://creativecommons.org/ns#"
	 xmlns="http://www.w3.org/2000/svg" xmlns:xlink="http://www.w3.org/1999/xlink" x="0px" y="0px" width="40px" height="40px"
	 viewBox="0 0 40 40" enable-background="new 0 0 40 40" xml:space="preserve">
<polygon id="polygon7819" fill="#C0C0C0" stroke="#C0C0C0" points="3.82,4.735 2.252,9.047 5.388,9.047 "/>
<line id="line7823" fill="none" stroke="#C0C0C0" stroke-linecap="square" x1="3.82" y1="9.047" x2="3.82" y2="35.271"/>
<polygon id="polygon7825" fill="#C0C0C0" stroke="#C0C0C0" points="33.221,32.491 33.221,35.627 37.532,34.059 "/>
<polygon id="polygon7825_1_" stroke="#000000" points="17.033,26.481 17.033,29.617 21.344,28.049 "/>
<polygon id="polygon7825_2_" stroke="#000000" points="20.125,13.867 20.125,10.731 15.814,12.3 "/>
<polygon id="polygon7825_3_" stroke="#000000" points="25.871,22.236 29.007,22.236 27.438,17.926 "/>
<polygon id="polygon7825_4_" stroke="#000000" points="11.475,17.99 8.339,17.99 9.907,22.301 "/>
<line id="line7829" fill="none" stroke="#C0C0C0" stroke-linecap="square" x1="2.458" y1="34.059" x2="35.964" y2="34.059"/>
<line id="line7831" fill="none" stroke="#000000" stroke-linecap="square" x1="4.416" y1="28.059" x2="27.536" y2="28.059"/>
<line id="line7835" fill="none" stroke="#000000" stroke-linecap="square" x1="27.536" y1="12.379" x2="27.536" y2="28.059"/>
<line id="line7839" fill="none" stroke="#000000" stroke-linecap="square" x1="9.896" y1="12.379" x2="35.376" y2="12.379"/>
<line id="line7845" fill="none" stroke="#000000" stroke-linecap="square" x1="9.896" y1="12.379" x2="9.896" y2="28.059"/>
</svg>
