<?xml version="1.0" encoding="utf-8"?>
<!-- Generator: Adobe Illustrator 14.0.0, SVG Export Plug-In . SVG Version: 6.00 Build 43363)  -->
<!DOCTYPE svg PUBLIC "-//W3C//DTD SVG 1.1//EN" "http://www.w3.org/Graphics/SVG/1.1/DTD/svg11.dtd">
<svg version="1.1" id="Calque_1" xmlns="http://www.w3.org/2000/svg" xmlns:xlink="http://www.w3.org/1999/xlink" x="0px" y="0px"
	 width="40px" height="40px" viewBox="0 0 40 40" enable-background="new 0 0 40 40" xml:space="preserve">
<title>Graphic window number 0</title>
<desc>Creator: GL2PS 1.3.2, (C) 1999-2006 Christophe Geuzaine (geuz@geuz.org)
For: Scilab
CreationDate: Fri Sep 16 15:16:30 2011</desc>
<g>
	<line fill="#FFFFFF" x1="39.6" y1="39.6" x2="39.6" y2="39.6"/>
	<path fill="#FFFFFF" d="M39.6,39.6"/>
	<polygon fill="#FFFFFF" points="9.22,10.2 9.22,29.8 17.06,29.8 	"/>
	<polygon fill="#FFFFFF" points="9.22,10.2 17.06,29.8 17.06,10.2 	"/>
	<polyline fill="none" stroke="#00007F" stroke-width="0.125" points="9.22,10.2 9.22,29.8 17.06,29.8 17.06,10.2 9.22,10.2 	"/>
	<polygon points="8.355,20.41 9.14,20.018 8.355,19.626 	"/>
	<polyline fill="none" stroke="#00007F" stroke-width="0.125" points="8.355,19.626 8.355,20.41 9.14,20.018 8.355,19.626 	"/>
	<polyline fill="none" stroke="#00007F" stroke-width="0.125" points="12.748,19.608 15.073,17.47 17.229,17.47 	"/>
	<polyline fill="none" stroke="#00007F" stroke-width="0.125" points="12.552,19.216 15.296,12.16 17.256,12.16 	"/>
	<line fill="none" stroke="#00007F" stroke-width="0.125" x1="0.4" y1="20" x2="12.16" y2="20"/>
	<polygon fill="#00007F" points="13.127,19.939 12.151,20.031 13.131,20.031 	"/>
	<polygon fill="#00007F" points="13.113,19.849 12.151,20.031 13.127,19.939 	"/>
	<polygon fill="#00007F" points="13.089,19.761 12.151,20.031 13.113,19.849 	"/>
	<polygon fill="#00007F" points="13.057,19.675 12.151,20.031 13.089,19.761 	"/>
	<polygon fill="#00007F" points="13.016,19.592 12.151,20.031 13.057,19.675 	"/>
	<polygon fill="#00007F" points="12.966,19.514 12.151,20.031 13.016,19.592 	"/>
	<polygon fill="#00007F" points="12.909,19.44 12.151,20.031 12.966,19.514 	"/>
	<polygon fill="#00007F" points="12.844,19.373 12.151,20.031 12.909,19.44 	"/>
	<polygon fill="#00007F" points="12.773,19.311 12.151,20.031 12.844,19.373 	"/>
	<polygon fill="#00007F" points="12.696,19.257 12.151,20.031 12.773,19.311 	"/>
	<polygon fill="#00007F" points="12.613,19.21 12.151,20.031 12.696,19.257 	"/>
	<polygon fill="#00007F" points="12.526,19.171 12.151,20.031 12.613,19.21 	"/>
	<polygon fill="#00007F" points="12.436,19.14 12.151,20.031 12.526,19.171 	"/>
	<polygon fill="#00007F" points="12.343,19.118 12.151,20.031 12.436,19.14 	"/>
	<polygon fill="#00007F" points="12.248,19.104 12.151,20.031 12.343,19.118 	"/>
	<polygon fill="#00007F" points="12.151,19.1 12.151,20.031 12.248,19.104 	"/>
	<polygon fill="#00007F" points="12.055,19.104 12.151,20.031 12.151,19.1 	"/>
	<polygon fill="#00007F" points="11.96,19.118 12.151,20.031 12.055,19.104 	"/>
	<polygon fill="#00007F" points="11.867,19.14 12.151,20.031 11.96,19.118 	"/>
	<polygon fill="#00007F" points="11.776,19.171 12.151,20.031 11.867,19.14 	"/>
	<polygon fill="#00007F" points="11.689,19.21 12.151,20.031 11.776,19.171 	"/>
	<polygon fill="#00007F" points="11.607,19.257 12.151,20.031 11.689,19.21 	"/>
	<polygon fill="#00007F" points="11.53,19.311 12.151,20.031 11.607,19.257 	"/>
	<polygon fill="#00007F" points="11.458,19.373 12.151,20.031 11.53,19.311 	"/>
	<polygon fill="#00007F" points="11.394,19.44 12.151,20.031 11.458,19.373 	"/>
	<polygon fill="#00007F" points="11.336,19.514 12.151,20.031 11.394,19.44 	"/>
	<polygon fill="#00007F" points="11.287,19.592 12.151,20.031 11.336,19.514 	"/>
	<polygon fill="#00007F" points="11.246,19.675 12.151,20.031 11.287,19.592 	"/>
	<polygon fill="#00007F" points="11.214,19.761 12.151,20.031 11.246,19.675 	"/>
	<polygon fill="#00007F" points="11.19,19.849 12.151,20.031 11.214,19.761 	"/>
	<polygon fill="#00007F" points="11.176,19.939 12.151,20.031 11.19,19.849 	"/>
	<polygon fill="#00007F" points="11.171,20.031 12.151,20.031 11.176,19.939 	"/>
	<polygon fill="#00007F" points="11.176,20.122 12.151,20.031 11.171,20.031 	"/>
	<polygon fill="#00007F" points="11.19,20.212 12.151,20.031 11.176,20.122 	"/>
	<polygon fill="#00007F" points="11.214,20.301 12.151,20.031 11.19,20.212 	"/>
	<polygon fill="#00007F" points="11.246,20.387 12.151,20.031 11.214,20.301 	"/>
	<polygon fill="#00007F" points="11.287,20.47 12.151,20.031 11.246,20.387 	"/>
	<polygon fill="#00007F" points="11.336,20.549 12.151,20.031 11.287,20.47 	"/>
	<polygon fill="#00007F" points="11.394,20.621 12.151,20.031 11.336,20.549 	"/>
	<polygon fill="#00007F" points="11.458,20.689 12.151,20.031 11.394,20.621 	"/>
	<polygon fill="#00007F" points="11.53,20.75 12.151,20.031 11.458,20.689 	"/>
	<polygon fill="#00007F" points="11.607,20.805 12.151,20.031 11.53,20.75 	"/>
	<polygon fill="#00007F" points="11.689,20.852 12.151,20.031 11.607,20.805 	"/>
	<polygon fill="#00007F" points="11.776,20.891 12.151,20.031 11.689,20.852 	"/>
	<polygon fill="#00007F" points="11.867,20.922 12.151,20.031 11.776,20.891 	"/>
	<polygon fill="#00007F" points="11.96,20.943 12.151,20.031 11.867,20.922 	"/>
	<polygon fill="#00007F" points="12.055,20.957 12.151,20.031 11.96,20.943 	"/>
	<polygon fill="#00007F" points="12.151,20.962 12.151,20.031 12.055,20.957 	"/>
	<polygon fill="#00007F" points="12.248,20.957 12.151,20.031 12.151,20.962 	"/>
	<polygon fill="#00007F" points="12.343,20.943 12.151,20.031 12.248,20.957 	"/>
	<polygon fill="#00007F" points="12.436,20.922 12.151,20.031 12.343,20.943 	"/>
	<polygon fill="#00007F" points="12.526,20.891 12.151,20.031 12.436,20.922 	"/>
	<polygon fill="#00007F" points="12.613,20.852 12.151,20.031 12.526,20.891 	"/>
	<polygon fill="#00007F" points="12.696,20.805 12.151,20.031 12.613,20.852 	"/>
	<polygon fill="#00007F" points="12.773,20.75 12.151,20.031 12.696,20.805 	"/>
	<polygon fill="#00007F" points="12.844,20.689 12.151,20.031 12.773,20.75 	"/>
	<polygon fill="#00007F" points="12.909,20.621 12.151,20.031 12.844,20.689 	"/>
	<polygon fill="#00007F" points="12.966,20.549 12.151,20.031 12.909,20.621 	"/>
	<polygon fill="#00007F" points="13.016,20.47 12.151,20.031 12.966,20.549 	"/>
	<polygon fill="#00007F" points="13.057,20.387 12.151,20.031 13.016,20.47 	"/>
	<polygon fill="#00007F" points="13.089,20.301 12.151,20.031 13.057,20.387 	"/>
	<polygon fill="#00007F" points="13.113,20.212 12.151,20.031 13.089,20.301 	"/>
	<polygon fill="#00007F" points="13.127,20.122 12.151,20.031 13.113,20.212 	"/>
	<polygon fill="#00007F" points="13.131,20.031 12.151,20.031 13.127,20.122 	"/>
	<polyline fill="none" stroke="#00007F" stroke-width="0.125" points="13.131,20.031 13.126,19.938 13.112,19.846 13.088,19.756 
		13.055,19.669 13.012,19.585 12.961,19.506 12.902,19.433 12.836,19.364 12.763,19.303 12.683,19.249 12.599,19.203 12.509,19.164 
		12.417,19.135 12.322,19.114 12.225,19.103 12.127,19.1 12.03,19.107 11.934,19.123 11.839,19.148 11.749,19.182 11.662,19.225 
		11.58,19.275 11.503,19.333 11.433,19.397 11.37,19.469 11.315,19.545 11.269,19.627 11.23,19.712 11.202,19.801 11.183,19.892 
		11.173,19.984 11.173,20.077 11.183,20.169 11.202,20.261 11.23,20.349 11.269,20.435 11.315,20.516 11.37,20.593 11.433,20.664 
		11.503,20.729 11.58,20.787 11.662,20.837 11.749,20.879 11.839,20.914 11.934,20.938 12.03,20.955 12.127,20.961 12.225,20.959 
		12.322,20.947 12.417,20.928 12.509,20.897 12.599,20.859 12.683,20.812 12.763,20.759 12.836,20.697 12.902,20.629 12.961,20.555 
		13.012,20.476 13.055,20.393 13.088,20.305 13.112,20.215 13.126,20.124 13.131,20.031 	"/>
	<polyline fill="none" stroke="#00007F" stroke-width="0.125" points="12.552,20.98 15.1,27.84 17.256,27.84 	"/>
	<polyline fill="none" stroke="#00007F" stroke-width="0.125" points="12.748,20.392 15.086,22.529 17.242,22.529 	"/>
	<polygon fill="#FFFFFF" points="17.279,22.939 18.063,22.548 17.279,22.156 	"/>
	<polyline fill="none" stroke="#00007F" stroke-width="0.125" points="17.279,22.156 17.279,22.939 18.063,22.548 17.279,22.156 	
		"/>
	<polygon fill="#FFFFFF" points="17.256,12.552 18.04,12.16 17.256,11.768 	"/>
	<polyline fill="none" stroke="#00007F" stroke-width="0.125" points="17.256,11.768 17.256,12.552 18.04,12.16 17.256,11.768 	"/>
	<polygon fill="#FFFFFF" points="17.281,28.238 18.065,27.846 17.281,27.453 	"/>
	<polyline fill="none" stroke="#00007F" stroke-width="0.125" points="17.281,27.453 17.281,28.238 18.065,27.846 17.281,27.453 	
		"/>
	<polygon fill="#FFFFFF" points="17.256,17.868 18.041,17.476 17.256,17.083 	"/>
	<polyline fill="none" stroke="#00007F" stroke-width="0.125" points="17.256,17.083 17.256,17.868 18.041,17.476 17.256,17.083 	
		"/>
	<polygon fill="#EBEBEB" points="19.02,10.2 19.02,29.8 30.779,29.8 	"/>
	<polygon fill="#EBEBEB" points="19.02,10.2 30.779,29.8 30.779,10.2 	"/>
	<polyline fill="none" stroke="#00007F" stroke-width="0.125" points="19.02,10.2 19.02,29.8 30.779,29.8 30.779,10.2 19.02,10.2 	
		"/>
	<line fill="none" stroke="#00007F" stroke-width="0.125" x1="39.6" y1="20" x2="24.9" y2="20"/>
	<line fill="none" stroke="#00007F" stroke-width="0.125" x1="18.04" y1="12.16" x2="20.98" y2="12.16"/>
	<line fill="none" stroke="#00007F" stroke-width="0.125" x1="18.04" y1="17.452" x2="20.98" y2="17.452"/>
	<line fill="none" stroke="#00007F" stroke-width="0.125" x1="18.04" y1="22.548" x2="20.98" y2="22.548"/>
	<line fill="none" stroke="#00007F" stroke-width="0.125" x1="18.04" y1="27.84" x2="20.98" y2="27.84"/>
	<polyline fill="none" stroke="#00007F" stroke-width="0.125" points="24.9,20 20.98,17.452 20.98,17.452 24.9,20 24.9,20 	"/>
</g>
</svg>
