<?xml version="1.0" encoding="utf-8"?>
<!-- Generator: Adobe Illustrator 14.0.0, SVG Export Plug-In . SVG Version: 6.00 Build 43363)  -->
<!DOCTYPE svg PUBLIC "-//W3C//DTD SVG 1.1//EN" "http://www.w3.org/Graphics/SVG/1.1/DTD/svg11.dtd">
<svg version="1.1" id="Calque_1" xmlns="http://www.w3.org/2000/svg" xmlns:xlink="http://www.w3.org/1999/xlink" x="0px" y="0px"
	 width="40px" height="40px" viewBox="0 0 40 40" enable-background="new 0 0 40 40" xml:space="preserve">
<title>Graphic window number 0</title>
<desc>Creator: GL2PS 1.3.2, (C) 1999-2006 Christophe Geuzaine (geuz@geuz.org)
For: Scilab
CreationDate: Fri Sep 16 15:16:31 2011</desc>
<g>
	<line fill="none" stroke="#00007F" stroke-width="0.125" x1="0.4" y1="20" x2="18.824" y2="20"/>
	<line fill="none" stroke="#00007F" stroke-width="0.125" x1="39.6" y1="20" x2="21.96" y2="20"/>
	<line fill="none" stroke="#00007F" stroke-width="0.125" x1="20" y1="20" x2="39.6" y2="18.04"/>
	<line fill="none" stroke="#00007F" stroke-width="0.125" x1="20" y1="20" x2="39.6" y2="21.96"/>
	<polygon fill="#00007F" points="23.122,19.516 20.196,19.804 23.137,19.804 	"/>
	<polygon fill="#00007F" points="23.08,19.23 20.196,19.804 23.122,19.516 	"/>
	<polygon fill="#00007F" points="23.01,18.951 20.196,19.804 23.08,19.23 	"/>
	<polygon fill="#00007F" points="22.912,18.679 20.196,19.804 23.01,18.951 	"/>
	<polygon fill="#00007F" points="22.789,18.418 20.196,19.804 22.912,18.679 	"/>
	<polygon fill="#00007F" points="22.641,18.17 20.196,19.804 22.789,18.418 	"/>
	<polygon fill="#00007F" points="22.469,17.939 20.196,19.804 22.641,18.17 	"/>
	<polygon fill="#00007F" points="22.275,17.725 20.196,19.804 22.469,17.939 	"/>
	<polygon fill="#00007F" points="22.061,17.531 20.196,19.804 22.275,17.725 	"/>
	<polygon fill="#00007F" points="21.83,17.359 20.196,19.804 22.061,17.531 	"/>
	<polygon fill="#00007F" points="21.582,17.211 20.196,19.804 21.83,17.359 	"/>
	<polygon fill="#00007F" points="21.321,17.088 20.196,19.804 21.582,17.211 	"/>
	<polygon fill="#00007F" points="21.049,16.991 20.196,19.804 21.321,17.088 	"/>
	<polygon fill="#00007F" points="20.77,16.92 20.196,19.804 21.049,16.991 	"/>
	<polygon fill="#00007F" points="20.484,16.878 20.196,19.804 20.77,16.92 	"/>
	<polygon fill="#00007F" points="20.196,16.864 20.196,19.804 20.484,16.878 	"/>
	<polygon fill="#00007F" points="19.908,16.878 20.196,19.804 20.196,16.864 	"/>
	<polygon fill="#00007F" points="19.623,16.92 20.196,19.804 19.908,16.878 	"/>
	<polygon fill="#00007F" points="19.343,16.991 20.196,19.804 19.623,16.92 	"/>
	<polygon fill="#00007F" points="19.071,17.088 20.196,19.804 19.343,16.991 	"/>
	<polygon fill="#00007F" points="18.81,17.211 20.196,19.804 19.071,17.088 	"/>
	<polygon fill="#00007F" points="18.562,17.359 20.196,19.804 18.81,17.211 	"/>
	<polygon fill="#00007F" points="18.331,17.531 20.196,19.804 18.562,17.359 	"/>
	<polygon fill="#00007F" points="18.117,17.725 20.196,19.804 18.331,17.531 	"/>
	<polygon fill="#00007F" points="17.923,17.939 20.196,19.804 18.117,17.725 	"/>
	<polygon fill="#00007F" points="17.751,18.17 20.196,19.804 17.923,17.939 	"/>
	<polygon fill="#00007F" points="17.603,18.418 20.196,19.804 17.751,18.17 	"/>
	<polygon fill="#00007F" points="17.48,18.679 20.196,19.804 17.603,18.418 	"/>
	<polygon fill="#00007F" points="17.383,18.951 20.196,19.804 17.48,18.679 	"/>
	<polygon fill="#00007F" points="17.312,19.23 20.196,19.804 17.383,18.951 	"/>
	<polygon fill="#00007F" points="17.27,19.516 20.196,19.804 17.312,19.23 	"/>
	<polygon fill="#00007F" points="17.256,19.804 20.196,19.804 17.27,19.516 	"/>
	<polygon fill="#00007F" points="17.27,20.092 20.196,19.804 17.256,19.804 	"/>
	<polygon fill="#00007F" points="17.312,20.377 20.196,19.804 17.27,20.092 	"/>
	<polygon fill="#00007F" points="17.383,20.657 20.196,19.804 17.312,20.377 	"/>
	<polygon fill="#00007F" points="17.48,20.93 20.196,19.804 17.383,20.657 	"/>
	<polygon fill="#00007F" points="17.603,21.189 20.196,19.804 17.48,20.93 	"/>
	<polygon fill="#00007F" points="17.751,21.438 20.196,19.804 17.603,21.189 	"/>
	<polygon fill="#00007F" points="17.923,21.669 20.196,19.804 17.751,21.438 	"/>
	<polygon fill="#00007F" points="18.117,21.883 20.196,19.804 17.923,21.669 	"/>
	<polygon fill="#00007F" points="18.331,22.076 20.196,19.804 18.117,21.883 	"/>
	<polygon fill="#00007F" points="18.562,22.248 20.196,19.804 18.331,22.076 	"/>
	<polygon fill="#00007F" points="18.81,22.396 20.196,19.804 18.562,22.248 	"/>
	<polygon fill="#00007F" points="19.071,22.52 20.196,19.804 18.81,22.396 	"/>
	<polygon fill="#00007F" points="19.343,22.617 20.196,19.804 19.071,22.52 	"/>
	<polygon fill="#00007F" points="19.623,22.688 20.196,19.804 19.343,22.617 	"/>
	<polygon fill="#00007F" points="19.908,22.73 20.196,19.804 19.623,22.688 	"/>
	<polygon fill="#00007F" points="20.196,22.744 20.196,19.804 19.908,22.73 	"/>
	<polygon fill="#00007F" points="20.484,22.73 20.196,19.804 20.196,22.744 	"/>
	<polygon fill="#00007F" points="20.77,22.688 20.196,19.804 20.484,22.73 	"/>
	<polygon fill="#00007F" points="21.049,22.617 20.196,19.804 20.77,22.688 	"/>
	<polygon fill="#00007F" points="21.321,22.52 20.196,19.804 21.049,22.617 	"/>
	<polygon fill="#00007F" points="21.582,22.396 20.196,19.804 21.321,22.52 	"/>
	<polygon fill="#00007F" points="21.83,22.248 20.196,19.804 21.582,22.396 	"/>
	<polygon fill="#00007F" points="22.061,22.076 20.196,19.804 21.83,22.248 	"/>
	<polygon fill="#00007F" points="22.275,21.883 20.196,19.804 22.061,22.076 	"/>
	<polygon fill="#00007F" points="22.469,21.669 20.196,19.804 22.275,21.883 	"/>
	<polygon fill="#00007F" points="22.641,21.438 20.196,19.804 22.469,21.669 	"/>
	<polygon fill="#00007F" points="22.789,21.189 20.196,19.804 22.641,21.438 	"/>
	<polygon fill="#00007F" points="22.912,20.93 20.196,19.804 22.789,21.189 	"/>
	<polygon fill="#00007F" points="23.01,20.657 20.196,19.804 22.912,20.93 	"/>
	<polygon fill="#00007F" points="23.08,20.377 20.196,19.804 23.01,20.657 	"/>
	<polygon fill="#00007F" points="23.122,20.092 20.196,19.804 23.08,20.377 	"/>
	<polygon fill="#00007F" points="23.137,19.804 20.196,19.804 23.122,20.092 	"/>
	<polyline fill="none" stroke="#000000" stroke-width="0.125" points="23.137,19.804 23.121,19.511 23.078,19.222 23.006,18.938 
		22.905,18.662 22.777,18.398 22.625,18.148 22.448,17.914 22.249,17.699 22.029,17.505 21.791,17.334 21.537,17.188 21.27,17.067 
		20.992,16.974 20.707,16.909 20.416,16.872 20.123,16.865 19.831,16.887 19.542,16.938 19.26,17.017 18.987,17.124 18.726,17.258 
		18.48,17.417 18.25,17.6 18.041,17.804 17.853,18.029 17.688,18.271 17.547,18.528 17.433,18.798 17.347,19.079 17.289,19.366 
		17.26,19.657 17.26,19.951 17.289,20.242 17.347,20.529 17.433,20.81 17.547,21.08 17.688,21.337 17.853,21.579 18.041,21.804 
		18.25,22.008 18.48,22.191 18.726,22.35 18.987,22.484 19.26,22.591 19.542,22.67 19.831,22.721 20.123,22.743 20.416,22.736 
		20.707,22.699 20.992,22.635 21.27,22.541 21.537,22.42 21.791,22.273 22.029,22.103 22.249,21.908 22.448,21.693 22.625,21.46 
		22.777,21.21 22.905,20.945 23.006,20.67 23.078,20.387 23.121,20.097 23.137,19.804 	"/>
</g>
</svg>
