<?xml version="1.0" encoding="utf-8"?>
<!-- Generator: Adobe Illustrator 14.0.0, SVG Export Plug-In . SVG Version: 6.00 Build 43363)  -->
<!DOCTYPE svg PUBLIC "-//W3C//DTD SVG 1.1//EN" "http://www.w3.org/Graphics/SVG/1.1/DTD/svg11.dtd">
<svg version="1.1" id="Calque_2" xmlns="http://www.w3.org/2000/svg" xmlns:xlink="http://www.w3.org/1999/xlink" x="0px" y="0px"
	 width="40px" height="40px" viewBox="0 0 40 40" enable-background="new 0 0 40 40" xml:space="preserve">
<rect x="9.125" y="10.125" fill="none" stroke="#00007F" stroke-width="1.125" width="8.031" height="19.688"/>
<line fill="none" stroke="#00007F" stroke-width="1.125" x1="0.4" y1="20" x2="12.16" y2="20"/>
<polyline fill="none" stroke="#00007F" stroke-width="1.125" points="12.748,19.608 15.073,17.47 17.229,17.47 "/>
<polyline fill="none" stroke="#00007F" stroke-width="1.125" points="12.552,19.216 15.296,12.16 17.256,12.16 "/>
<polyline fill="none" stroke="#00007F" stroke-width="1.125" points="12.748,20.392 15.086,22.529 17.242,22.529 "/>
<polyline fill="none" stroke="#00007F" stroke-width="1.125" points="12.552,20.98 15.1,27.84 17.256,27.84 "/>
<rect x="19" y="10.125" fill="none" stroke="#00007F" stroke-width="1.125" width="11.781" height="19.688"/>
<polyline fill="none" stroke="#00007F" stroke-width="1.125" points="17.256,17.083 17.256,17.868 18.041,17.476 17.256,17.083 "/>
<line fill="none" stroke="#00007F" stroke-width="1.125" x1="39.6" y1="20" x2="24.9" y2="20"/>
<polyline fill="none" stroke="#00007F" stroke-width="1.125" points="17.279,22.156 17.279,22.939 18.063,22.548 17.279,22.156 "/>
<polyline fill="none" stroke="#00007F" stroke-width="1.125" points="17.256,11.768 17.256,12.552 18.04,12.16 17.256,11.768 "/>
<polyline fill="none" stroke="#00007F" stroke-width="1.125" points="17.281,27.453 17.281,28.238 18.065,27.846 17.281,27.453 "/>
<line fill="none" stroke="#00007F" stroke-width="1.125" x1="18.04" y1="12.16" x2="20.98" y2="12.16"/>
<line fill="none" stroke="#00007F" stroke-width="1.125" x1="18.04" y1="17.452" x2="20.98" y2="17.452"/>
<line fill="none" stroke="#00007F" stroke-width="1.125" x1="18.04" y1="22.548" x2="20.98" y2="22.548"/>
<line fill="none" stroke="#00007F" stroke-width="1.125" x1="18.04" y1="27.84" x2="20.98" y2="27.84"/>
<polyline fill="none" stroke="#00007F" stroke-width="1.125" stroke-linecap="round" stroke-linejoin="round" points="24.9,20 
	20.98,17.452 20.98,17.452 24.9,20 24.9,20 "/>
<circle fill="#00007F" stroke="#00007F" stroke-width="1.125" cx="12.297" cy="20.359" r="1.234"/>
</svg>
