<?xml version="1.0" encoding="UTF-8" standalone="no"?>
<svg xmlns="http://www.w3.org/2000/svg"
     xmlns:xlink="http://www.w3.org/1999/xlink"
     width="40px" height="40px" viewBox="0 0 40 40"
     style="stroke:none">
<title>Graphic window number 0</title>
<desc>
Creator: GL2PS 1.3.2, (C) 1999-2006 Christophe Geuzaine (geuz@geuz.org)
For: Scilab
CreationDate: Mon Mar  7 11:40:51 2011
</desc>
<defs>
</defs>
<polygon fill="#ffffff" points="0,0 40,0 40,40 0,40"/>
<g>
<polygon fill="#ffffff" points="0.399902,39.6001 0.399902,0.399902 0.399902,0.399902"/>
<polygon fill="#ffffff" points="0.399902,39.6001 0.399902,0.399902 0.399902,39.6001"/>
<polygon fill="#ffffff" points="0.399902,39.6001 39.6001,39.6001 39.6001,39.6001"/>
<polygon fill="#ffffff" points="0.399902,39.6001 39.6001,39.6001 0.399902,39.6001"/>
<polygon fill="#ffffff" points="0.399902,39.6001 39.6001,39.6001 39.6001,0.399902"/>
<polygon fill="#ffffff" points="0.399902,39.6001 39.6001,0.399902 0.399902,0.399902"/>
<polygon fill="#0000bf" points="0,8.90137 1.32227,8.24023 0,7.57861"/>
<polyline fill="none" stroke="#0000bf" stroke-width="0.125" points="0,8.90137 1.32227,8.24023 0,7.57861"/>
<polygon fill="#0000bf" points="0,32.4214 1.32227,31.7598 0,31.0986"/>
<polyline fill="none" stroke="#0000bf" stroke-width="0.125" points="0,32.4214 1.32227,31.7598 0,31.0986"/>
<polygon fill="#ffffff" points="38.6777,0 38.6777,40 40,40"/>
<polygon fill="#ffffff" points="38.6777,0 40,40 40,0"/>
<polyline fill="none" stroke="#0000bf" stroke-width="0.125" points="38.6777,0 38.6777,40"/>
<polygon fill="#ffffff" points="0.399902,0.399902 0.399902,39.6001 39.6001,39.6001"/>
<polygon fill="#ffffff" points="0.399902,0.399902 39.6001,39.6001 39.6001,0.399902"/>
<polyline fill="none" stroke="#0000bf" stroke-width="0.125" points="0.399902,0.399902 0.399902,39.6001 39.6001,39.6001 39.6001,0.399902 0.399902,0.399902"/>
<polyline fill="none" stroke="#000000" stroke-width="0.125" points="21.5679,20 39.9922,20"/>
<polygon fill="#0000ff" points="23.1221,19.5156 20.1958,19.8042 23.1362,19.8042"/>
<polygon fill="#0000ff" points="23.0796,19.2305 20.1958,19.8042 23.1221,19.5156"/>
<polygon fill="#0000ff" points="23.0093,18.9507 20.1958,19.8042 23.0796,19.2305"/>
<polygon fill="#0000ff" points="22.9121,18.6787 20.1958,19.8042 23.0093,18.9507"/>
<polygon fill="#0000ff" points="22.7891,18.418 20.1958,19.8042 22.9121,18.6787"/>
<polygon fill="#0000ff" points="22.6406,18.1704 20.1958,19.8042 22.7891,18.418"/>
<polygon fill="#0000ff" points="22.4688,17.939 20.1958,19.8042 22.6406,18.1704"/>
<polygon fill="#0000ff" points="22.2749,17.7251 20.1958,19.8042 22.4688,17.939"/>
<polygon fill="#0000ff" points="22.061,17.5312 20.1958,19.8042 22.2749,17.7251"/>
<polygon fill="#0000ff" points="21.8296,17.3594 20.1958,19.8042 22.061,17.5312"/>
<polygon fill="#0000ff" points="21.582,17.2109 20.1958,19.8042 21.8296,17.3594"/>
<polygon fill="#0000ff" points="21.3213,17.0879 20.1958,19.8042 21.582,17.2109"/>
<polygon fill="#0000ff" points="21.0493,16.9907 20.1958,19.8042 21.3213,17.0879"/>
<polygon fill="#0000ff" points="20.7695,16.9204 20.1958,19.8042 21.0493,16.9907"/>
<polygon fill="#0000ff" points="20.4844,16.8779 20.1958,19.8042 20.7695,16.9204"/>
<polygon fill="#0000ff" points="20.1958,16.8638 20.1958,19.8042 20.4844,16.8779"/>
<polygon fill="#0000ff" points="19.9077,16.8779 20.1958,19.8042 20.1958,16.8638"/>
<polygon fill="#0000ff" points="19.6226,16.9204 20.1958,19.8042 19.9077,16.8779"/>
<polygon fill="#0000ff" points="19.3428,16.9907 20.1958,19.8042 19.6226,16.9204"/>
<polygon fill="#0000ff" points="19.0708,17.0879 20.1958,19.8042 19.3428,16.9907"/>
<polygon fill="#0000ff" points="18.8101,17.2109 20.1958,19.8042 19.0708,17.0879"/>
<polygon fill="#0000ff" points="18.5625,17.3594 20.1958,19.8042 18.8101,17.2109"/>
<polygon fill="#0000ff" points="18.3311,17.5312 20.1958,19.8042 18.5625,17.3594"/>
<polygon fill="#0000ff" points="18.1172,17.7251 20.1958,19.8042 18.3311,17.5312"/>
<polygon fill="#0000ff" points="17.9233,17.939 20.1958,19.8042 18.1172,17.7251"/>
<polygon fill="#0000ff" points="17.7515,18.1704 20.1958,19.8042 17.9233,17.939"/>
<polygon fill="#0000ff" points="17.603,18.418 20.1958,19.8042 17.7515,18.1704"/>
<polygon fill="#0000ff" points="17.48,18.6787 20.1958,19.8042 17.603,18.418"/>
<polygon fill="#0000ff" points="17.3828,18.9507 20.1958,19.8042 17.48,18.6787"/>
<polygon fill="#0000ff" points="17.3125,19.2305 20.1958,19.8042 17.3828,18.9507"/>
<polygon fill="#0000ff" points="17.27,19.5156 20.1958,19.8042 17.3125,19.2305"/>
<polygon fill="#0000ff" points="17.2559,19.8042 20.1958,19.8042 17.27,19.5156"/>
<polygon fill="#0000ff" points="17.27,20.0923 20.1958,19.8042 17.2559,19.8042"/>
<polygon fill="#0000ff" points="17.3125,20.3774 20.1958,19.8042 17.27,20.0923"/>
<polygon fill="#0000ff" points="17.3828,20.6572 20.1958,19.8042 17.3125,20.3774"/>
<polygon fill="#0000ff" points="17.48,20.9292 20.1958,19.8042 17.3828,20.6572"/>
<polygon fill="#0000ff" points="17.603,21.1899 20.1958,19.8042 17.48,20.9292"/>
<polygon fill="#0000ff" points="17.7515,21.4375 20.1958,19.8042 17.603,21.1899"/>
<polygon fill="#0000ff" points="17.9233,21.6689 20.1958,19.8042 17.7515,21.4375"/>
<polygon fill="#0000ff" points="18.1172,21.8828 20.1958,19.8042 17.9233,21.6689"/>
<polygon fill="#0000ff" points="18.3311,22.0767 20.1958,19.8042 18.1172,21.8828"/>
<polygon fill="#0000ff" points="18.5625,22.2485 20.1958,19.8042 18.3311,22.0767"/>
<polygon fill="#0000ff" points="18.8101,22.397 20.1958,19.8042 18.5625,22.2485"/>
<polygon fill="#0000ff" points="19.0708,22.52 20.1958,19.8042 18.8101,22.397"/>
<polygon fill="#0000ff" points="19.3428,22.6172 20.1958,19.8042 19.0708,22.52"/>
<polygon fill="#0000ff" points="19.6226,22.6875 20.1958,19.8042 19.3428,22.6172"/>
<polygon fill="#0000ff" points="19.9077,22.73 20.1958,19.8042 19.6226,22.6875"/>
<polygon fill="#0000ff" points="20.1958,22.7441 20.1958,19.8042 19.9077,22.73"/>
<polygon fill="#0000ff" points="20.4844,22.73 20.1958,19.8042 20.1958,22.7441"/>
<polygon fill="#0000ff" points="20.7695,22.6875 20.1958,19.8042 20.4844,22.73"/>
<polygon fill="#0000ff" points="21.0493,22.6172 20.1958,19.8042 20.7695,22.6875"/>
<polygon fill="#0000ff" points="21.3213,22.52 20.1958,19.8042 21.0493,22.6172"/>
<polygon fill="#0000ff" points="21.582,22.397 20.1958,19.8042 21.3213,22.52"/>
<polygon fill="#0000ff" points="21.8296,22.2485 20.1958,19.8042 21.582,22.397"/>
<polygon fill="#0000ff" points="22.061,22.0767 20.1958,19.8042 21.8296,22.2485"/>
<polygon fill="#0000ff" points="22.2749,21.8828 20.1958,19.8042 22.061,22.0767"/>
<polygon fill="#0000ff" points="22.4688,21.6689 20.1958,19.8042 22.2749,21.8828"/>
<polygon fill="#0000ff" points="22.6406,21.4375 20.1958,19.8042 22.4688,21.6689"/>
<polygon fill="#0000ff" points="22.7891,21.1899 20.1958,19.8042 22.6406,21.4375"/>
<polygon fill="#0000ff" points="22.9121,20.9292 20.1958,19.8042 22.7891,21.1899"/>
<polygon fill="#0000ff" points="23.0093,20.6572 20.1958,19.8042 22.9121,20.9292"/>
<polygon fill="#0000ff" points="23.0796,20.3774 20.1958,19.8042 23.0093,20.6572"/>
<polygon fill="#0000ff" points="23.1221,20.0923 20.1958,19.8042 23.0796,20.3774"/>
<polygon fill="#0000ff" points="23.1362,19.8042 20.1958,19.8042 23.1221,20.0923"/>
<polyline fill="none" stroke="#000000" stroke-width="0.125" points="23.1362,19.8042 23.1216,19.5112 23.0776,19.2217 23.0054,18.9375 22.9053,18.6621 22.7778,18.3979 22.625,18.1479 22.4482,17.9141 22.249,17.6992 22.0293,17.5054 21.791,17.3345 21.5371,17.188 21.27,17.0674 20.9922,16.9741 20.7065,16.9087 20.4155,16.8721 20.1226,16.8647 19.8306,16.8867 19.542,16.9375 19.2598,17.0171 18.9868,17.124 18.7261,17.2578 18.48,17.417 18.2505,17.5996 18.041,17.8042 17.8525,18.0288 17.6875,18.271 17.5474,18.5283 17.4331,18.7983 17.3467,19.0786 17.2891,19.3657 17.2598,19.6572 17.2598,19.9507 17.2891,20.2422 17.3467,20.5293 17.4331,20.8096 17.5474,21.0796 17.6875,21.3369 17.8525,21.5791 18.041,21.8037 18.2505,22.0083 18.48,22.1909 18.7261,22.3501 18.9868,22.4839 19.2598,22.5908 19.542,22.6704 19.8306,22.7212 20.1226,22.7432 20.4155,22.7358 20.7065,22.6992 20.9922,22.6343 21.27,22.5405 21.5371,22.4204 21.791,22.2734 22.0293,22.1025 22.249,21.9087 22.4482,21.6938 22.625,21.46 22.7778,21.21 22.9053,20.9458 23.0054,20.6704 23.0776,20.3867 23.1216,20.0967 23.1362,19.8042"/>
<polyline fill="none" stroke="#000000" stroke-width="0.125" points="0.791992,8.24023 8.24023,8.24023 19.2158,18.8242"/>
<polyline fill="none" stroke="#000000" stroke-width="0.125" points="0.791992,31.7598 8.24023,31.7598 19.2158,20.7842"/>
</g>
</svg>
