<?xml version="1.0" encoding="utf-8"?>
<!-- Generator: Adobe Illustrator 14.0.0, SVG Export Plug-In . SVG Version: 6.00 Build 43363)  -->
<!DOCTYPE svg PUBLIC "-//W3C//DTD SVG 1.1//EN" "http://www.w3.org/Graphics/SVG/1.1/DTD/svg11.dtd">
<svg version="1.1" id="Calque_1" xmlns="http://www.w3.org/2000/svg" xmlns:xlink="http://www.w3.org/1999/xlink" x="0px" y="0px"
	 width="40px" height="40px" viewBox="0 0 40 40" enable-background="new 0 0 40 40" xml:space="preserve">
<text transform="matrix(1 0 0 1 30.5681 8.251)" font-family="'ArialMT'" font-size="4">k=1</text>
<g>
	<line fill="none" stroke="#000000" stroke-width="1.125" x1="0.968" y1="33.971" x2="12.727" y2="33.971"/>
	<line fill="none" stroke="#000000" stroke-width="1.125" x1="0.968" y1="37.891" x2="4.887" y2="33.971"/>
	<line fill="none" stroke="#000000" stroke-width="1.125" x1="4.887" y1="37.891" x2="8.807" y2="33.971"/>
	<line fill="none" stroke="#000000" stroke-width="1.125" x1="8.807" y1="37.891" x2="12.727" y2="33.971"/>
	<line fill="none" stroke="#000000" stroke-width="1.125" x1="6.847" y1="33.971" x2="6.847" y2="30.05"/>
</g>
<rect x="2.316" y="8.372" fill="#878787" width="9.751" height="21.757"/>
<g>
	<ellipse fill="none" stroke="#0000FF" stroke-width="1.125" cx="15.437" cy="19.297" rx="2.922" ry="9.672"/>
	<ellipse fill="none" stroke="#0000FF" stroke-width="1.125" cx="19.844" cy="19.359" rx="2.922" ry="9.672"/>
	<ellipse fill="none" stroke="#0000FF" stroke-width="1.125" cx="24.5" cy="19.328" rx="2.922" ry="9.672"/>
</g>
<polyline fill="none" stroke="#0000FF" stroke-width="1.125" points="24.498,28.854 24.498,34.93 20.578,34.93 20.578,36.693 
	20.578,36.891 20.578,34.93 24.484,34.93 24.484,29 "/>
<polyline fill="none" stroke="#0000FF" stroke-width="1.125" points="15.484,9.406 15.484,3.57 21.39,3.57 21.39,1.562 "/>
<rect x="17.275" y="15.232" fill="#878787" width="21.757" height="7.84"/>
</svg>
