<?xml version="1.0" encoding="utf-8"?>
<!-- Generator: Adobe Illustrator 14.0.0, SVG Export Plug-In . SVG Version: 6.00 Build 43363)  -->
<!DOCTYPE svg PUBLIC "-//W3C//DTD SVG 1.1//EN" "http://www.w3.org/Graphics/SVG/1.1/DTD/svg11.dtd">
<svg version="1.1" id="Calque_1" xmlns="http://www.w3.org/2000/svg" xmlns:xlink="http://www.w3.org/1999/xlink" x="0px" y="0px"
	 width="40px" height="40px" viewBox="0 0 40 40" enable-background="new 0 0 40 40" xml:space="preserve">
<title>Graphic window number 0</title>
<desc>Creator: GL2PS 1.3.2, (C) 1999-2006 Christophe Geuzaine (geuz@geuz.org)
For: Scilab
CreationDate: Fri Sep 16 15:14:33 2011</desc>
<g>
	<polyline fill="none" stroke="#0000FF" stroke-width="0.125" points="14.12,10.396 14.12,4.32 20,4.32 20,2.164 	"/>
	<polyline fill="none" stroke="#0000FF" stroke-width="0.125" points="23.92,29.604 23.92,35.68 20,35.68 20,37.443 20,37.641 	"/>
	<polyline fill="none" stroke="#0000FF" stroke-width="0.125" points="21.764,20 21.75,19.024 21.705,18.058 21.633,17.111 
		21.533,16.193 21.406,15.313 21.253,14.479 21.076,13.701 20.877,12.984 20.657,12.338 20.419,11.768 20.165,11.279 19.898,10.877 
		19.62,10.566 19.334,10.349 19.044,10.228 18.75,10.203 18.458,10.276 18.17,10.446 17.888,10.71 17.615,11.067 17.354,11.513 
		17.108,12.043 16.878,12.652 16.669,13.334 16.48,14.083 16.315,14.89 16.175,15.748 16.062,16.648 15.975,17.582 15.917,18.54 
		15.888,19.512 15.888,20.488 15.917,21.461 15.975,22.418 16.062,23.352 16.175,24.252 16.315,25.109 16.48,25.918 16.669,26.666 
		16.878,27.348 17.108,27.957 17.354,28.486 17.615,28.933 17.888,29.289 18.17,29.555 18.458,29.725 18.75,29.797 19.044,29.772 
		19.334,29.65 19.62,29.434 19.898,29.123 20.165,28.721 20.419,28.232 20.657,27.662 20.877,27.016 21.076,26.299 21.253,25.521 
		21.406,24.688 21.533,23.807 21.633,22.889 21.705,21.941 21.75,20.976 21.764,20 	"/>
	<polyline fill="none" stroke="#0000FF" stroke-width="0.125" points="26.271,20 26.258,19.024 26.214,18.058 26.142,17.111 
		26.041,16.193 25.914,15.313 25.762,14.479 25.584,13.701 25.385,12.984 25.165,12.338 24.928,11.768 24.674,11.279 24.406,10.877 
		24.129,10.566 23.842,10.349 23.552,10.228 23.259,10.203 22.967,10.276 22.678,10.446 22.396,10.71 22.123,11.067 21.861,11.513 
		21.615,12.043 21.387,12.652 21.177,13.334 20.988,14.083 20.823,14.89 20.684,15.748 20.569,16.648 20.483,17.582 20.425,18.54 
		20.396,19.512 20.396,20.488 20.425,21.461 20.483,22.418 20.569,23.352 20.684,24.252 20.823,25.109 20.988,25.918 21.177,26.666 
		21.387,27.348 21.615,27.957 21.861,28.486 22.123,28.933 22.396,29.289 22.678,29.555 22.967,29.725 23.259,29.797 23.552,29.772 
		23.842,29.65 24.129,29.434 24.406,29.123 24.674,28.721 24.928,28.232 25.165,27.662 25.385,27.016 25.584,26.299 25.762,25.521 
		25.914,24.688 26.041,23.807 26.142,22.889 26.214,21.941 26.258,20.976 26.271,20 	"/>
	<polyline fill="none" stroke="#0000FF" stroke-width="0.125" points="17.452,20 17.438,19.024 17.394,18.058 17.321,17.111 
		17.221,16.193 17.094,15.313 16.941,14.479 16.764,13.701 16.565,12.984 16.345,12.338 16.107,11.768 15.853,11.279 15.586,10.877 
		15.308,10.566 15.022,10.349 14.732,10.228 14.438,10.203 14.146,10.276 13.858,10.446 13.576,10.71 13.303,11.067 13.042,11.513 
		12.796,12.043 12.566,12.652 12.357,13.334 12.168,14.083 12.003,14.89 11.863,15.748 11.75,16.648 11.663,17.582 11.605,18.54 
		11.576,19.512 11.576,20.488 11.605,21.461 11.663,22.418 11.75,23.352 11.863,24.252 12.003,25.109 12.168,25.918 12.357,26.666 
		12.566,27.348 12.796,27.957 13.042,28.486 13.303,28.933 13.576,29.289 13.858,29.555 14.146,29.725 14.438,29.797 14.732,29.772 
		15.022,29.65 15.308,29.434 15.586,29.123 15.853,28.721 16.107,28.232 16.345,27.662 16.565,27.016 16.764,26.299 16.941,25.521 
		17.094,24.688 17.221,23.807 17.321,22.889 17.394,21.941 17.438,20.976 17.452,20 	"/>
	<text transform="matrix(1 0 0 1 30 9)" font-family="'ArialMT'" font-size="4">k=1</text>
</g>
<rect x="16.291" y="15.982" fill="#878787" width="21.757" height="7.84"/>
<rect x="1.332" y="9.122" fill="#878787" width="9.751" height="21.757"/>
</svg>
