<?xml version="1.0" encoding="utf-8"?>
<!-- Generator: Adobe Illustrator 14.0.0, SVG Export Plug-In . SVG Version: 6.00 Build 43363)  -->
<!DOCTYPE svg PUBLIC "-//W3C//DTD SVG 1.1//EN" "http://www.w3.org/Graphics/SVG/1.1/DTD/svg11.dtd">
<svg version="1.1" xmlns="http://www.w3.org/2000/svg" xmlns:xlink="http://www.w3.org/1999/xlink" x="0px" y="0px" width="40px"
	 height="40px" viewBox="0 0 40 40" enable-background="new 0 0 40 40" xml:space="preserve">
<g id="Calque_1">
	<circle fill="#C0C0C0" stroke="#000000" cx="31.109" cy="21.652" r="2.688"/>
	<circle fill="#C0C0C0" stroke="#000000" cx="9.89" cy="21.684" r="2.688"/>
	<line fill="none" stroke="#000000" stroke-width="1.125" stroke-linecap="square" x1="9.833" y1="21.709" x2="31.1" y2="21.709"/>
	<polyline fill="none" stroke="#000000" stroke-width="1.125" stroke-linecap="square" points="31.114,21.652 31.114,17.294 
		26.223,17.294 26.223,6.921 32.093,6.921 32.093,0.698 	"/>
	<polyline fill="none" stroke="#000000" stroke-width="1.125" stroke-linecap="square" points="8.851,0.459 8.851,6.683 
		14.72,6.683 14.72,17.056 9.83,17.056 9.83,21.412 	"/>
</g>
<g id="Calque_2">
	<path fill="none" stroke="#000000" d="M10.64,30.25c-4.703,0-8.516-3.812-8.516-8.516s3.812-8.516,8.516-8.516"/>
	<path fill="none" stroke="#000000" d="M10.625,28.281c-3.607,0-6.531-2.924-6.531-6.531s2.924-6.531,6.531-6.531"/>
	<path fill="none" stroke="#B5B6B4" d="M10.594,29.281c-4.143,0-7.5-3.372-7.5-7.531c0-4.16,3.357-7.531,7.5-7.531"/>
	<path fill="none" stroke="#000000" d="M29.719,30.188c4.703,0,8.516-3.812,8.516-8.516s-3.812-8.516-8.516-8.516"/>
	<path fill="none" stroke="#000000" d="M29.734,28.219c3.607,0,6.531-2.924,6.531-6.531s-2.924-6.531-6.531-6.531"/>
	<path fill="none" stroke="#B5B6B4" d="M29.765,29.219c4.143,0,7.5-3.372,7.5-7.531c0-4.16-3.357-7.531-7.5-7.531"/>
</g>
</svg>
