<?xml version="1.0" encoding="utf-8"?>
<!-- Generator: Adobe Illustrator 14.0.0, SVG Export Plug-In . SVG Version: 6.00 Build 43363)  -->
<!DOCTYPE svg PUBLIC "-//W3C//DTD SVG 1.1//EN" "http://www.w3.org/Graphics/SVG/1.1/DTD/svg11.dtd">
<svg version="1.1" id="Calque_1" xmlns="http://www.w3.org/2000/svg" xmlns:xlink="http://www.w3.org/1999/xlink" x="0px" y="0px"
	 width="40px" height="40px" viewBox="0 0 40 40" enable-background="new 0 0 40 40" xml:space="preserve">
<title>Graphic window number 0</title>
<desc>Creator: GL2PS 1.3.2, (C) 1999-2006 Christophe Geuzaine (geuz@geuz.org)
For: Scilab
CreationDate: Fri Sep 16 15:15:08 2011</desc>
<g>
	<polygon fill="#C0C0C0" points="17.022,19.231 9.22,20 17.06,20 	"/>
	<polygon fill="#C0C0C0" points="16.909,18.471 9.22,20 17.022,19.231 	"/>
	<polygon fill="#C0C0C0" points="16.723,17.724 9.22,20 16.909,18.471 	"/>
	<polygon fill="#C0C0C0" points="16.463,17 9.22,20 16.723,17.724 	"/>
	<polygon fill="#C0C0C0" points="16.134,16.304 9.22,20 16.463,17 	"/>
	<polygon fill="#C0C0C0" points="15.739,15.645 9.22,20 16.134,16.304 	"/>
	<polygon fill="#C0C0C0" points="15.28,15.026 9.22,20 15.739,15.645 	"/>
	<polygon fill="#C0C0C0" points="14.764,14.456 9.22,20 15.28,15.026 	"/>
	<polygon fill="#C0C0C0" points="14.194,13.939 9.22,20 14.764,14.456 	"/>
	<polygon fill="#C0C0C0" points="13.576,13.481 9.22,20 14.194,13.939 	"/>
	<polygon fill="#C0C0C0" points="12.916,13.086 9.22,20 13.576,13.481 	"/>
	<polygon fill="#C0C0C0" points="12.22,12.757 9.22,20 12.916,13.086 	"/>
	<polygon fill="#C0C0C0" points="11.496,12.498 9.22,20 12.22,12.757 	"/>
	<polygon fill="#C0C0C0" points="10.75,12.311 9.22,20 11.496,12.498 	"/>
	<polygon fill="#C0C0C0" points="9.988,12.198 9.22,20 10.75,12.311 	"/>
	<polygon fill="#C0C0C0" points="9.22,12.16 9.22,20 9.988,12.198 	"/>
	<polygon fill="#C0C0C0" points="8.452,12.198 9.22,20 9.22,12.16 	"/>
	<polygon fill="#C0C0C0" points="7.69,12.311 9.22,20 8.452,12.198 	"/>
	<polygon fill="#C0C0C0" points="6.944,12.498 9.22,20 7.69,12.311 	"/>
	<polygon fill="#C0C0C0" points="6.22,12.757 9.22,20 6.944,12.498 	"/>
	<polygon fill="#C0C0C0" points="5.524,13.086 9.22,20 6.22,12.757 	"/>
	<polygon fill="#C0C0C0" points="4.864,13.481 9.22,20 5.524,13.086 	"/>
	<polygon fill="#C0C0C0" points="4.247,13.939 9.22,20 4.864,13.481 	"/>
	<polygon fill="#C0C0C0" points="3.676,14.456 9.22,20 4.247,13.939 	"/>
	<polygon fill="#C0C0C0" points="3.16,15.026 9.22,20 3.676,14.456 	"/>
	<polygon fill="#C0C0C0" points="2.701,15.645 9.22,20 3.16,15.026 	"/>
	<polygon fill="#C0C0C0" points="2.306,16.304 9.22,20 2.701,15.645 	"/>
	<polygon fill="#C0C0C0" points="1.977,17 9.22,20 2.306,16.304 	"/>
	<polygon fill="#C0C0C0" points="1.718,17.724 9.22,20 1.977,17 	"/>
	<polygon fill="#C0C0C0" points="1.531,18.471 9.22,20 1.718,17.724 	"/>
	<polygon fill="#C0C0C0" points="1.418,19.231 9.22,20 1.531,18.471 	"/>
	<polygon fill="#C0C0C0" points="1.38,20 9.22,20 1.418,19.231 	"/>
	<polygon fill="#C0C0C0" points="1.418,20.769 9.22,20 1.38,20 	"/>
	<polygon fill="#C0C0C0" points="1.531,21.529 9.22,20 1.418,20.769 	"/>
	<polygon fill="#C0C0C0" points="1.718,22.275 9.22,20 1.531,21.529 	"/>
	<polygon fill="#C0C0C0" points="1.977,23 9.22,20 1.718,22.275 	"/>
	<polygon fill="#C0C0C0" points="2.306,23.695 9.22,20 1.977,23 	"/>
	<polygon fill="#C0C0C0" points="2.701,24.355 9.22,20 2.306,23.695 	"/>
	<polygon fill="#C0C0C0" points="3.16,24.974 9.22,20 2.701,24.355 	"/>
	<polygon fill="#C0C0C0" points="3.676,25.544 9.22,20 3.16,24.974 	"/>
	<polygon fill="#C0C0C0" points="4.247,26.061 9.22,20 3.676,25.544 	"/>
	<polygon fill="#C0C0C0" points="4.864,26.519 9.22,20 4.247,26.061 	"/>
	<polygon fill="#C0C0C0" points="5.524,26.914 9.22,20 4.864,26.519 	"/>
	<polygon fill="#C0C0C0" points="6.22,27.243 9.22,20 5.524,26.914 	"/>
	<polygon fill="#C0C0C0" points="6.944,27.502 9.22,20 6.22,27.243 	"/>
	<polygon fill="#C0C0C0" points="7.69,27.689 9.22,20 6.944,27.502 	"/>
	<polygon fill="#C0C0C0" points="8.452,27.803 9.22,20 7.69,27.689 	"/>
	<polygon fill="#C0C0C0" points="9.22,27.84 9.22,20 8.452,27.803 	"/>
	<polygon fill="#C0C0C0" points="9.988,27.803 9.22,20 9.22,27.84 	"/>
	<polygon fill="#C0C0C0" points="10.75,27.689 9.22,20 9.988,27.803 	"/>
	<polygon fill="#C0C0C0" points="11.496,27.502 9.22,20 10.75,27.689 	"/>
	<polygon fill="#C0C0C0" points="12.22,27.243 9.22,20 11.496,27.502 	"/>
	<polygon fill="#C0C0C0" points="12.916,26.914 9.22,20 12.22,27.243 	"/>
	<polygon fill="#C0C0C0" points="13.576,26.519 9.22,20 12.916,26.914 	"/>
	<polygon fill="#C0C0C0" points="14.194,26.061 9.22,20 13.576,26.519 	"/>
	<polygon fill="#C0C0C0" points="14.764,25.544 9.22,20 14.194,26.061 	"/>
	<polygon fill="#C0C0C0" points="15.28,24.974 9.22,20 14.764,25.544 	"/>
	<polygon fill="#C0C0C0" points="15.739,24.355 9.22,20 15.28,24.974 	"/>
	<polygon fill="#C0C0C0" points="16.134,23.695 9.22,20 15.739,24.355 	"/>
	<polygon fill="#C0C0C0" points="16.463,23 9.22,20 16.134,23.695 	"/>
	<polygon fill="#C0C0C0" points="16.723,22.275 9.22,20 16.463,23 	"/>
	<polygon fill="#C0C0C0" points="16.909,21.529 9.22,20 16.723,22.275 	"/>
	<polygon fill="#C0C0C0" points="17.022,20.769 9.22,20 16.909,21.529 	"/>
	<polygon fill="#C0C0C0" points="17.06,20 9.22,20 17.022,20.769 	"/>
	<polyline fill="none" stroke="#000000" stroke-width="0.125" points="17.06,20 17.021,19.219 16.905,18.447 16.712,17.689 
		16.444,16.955 16.105,16.25 15.698,15.583 15.226,14.96 14.694,14.388 14.108,13.871 13.474,13.414 12.797,13.023 12.084,12.702 
		11.343,12.453 10.582,12.279 9.806,12.182 9.024,12.163 8.245,12.221 7.476,12.356 6.723,12.568 5.996,12.854 5.3,13.21 
		4.644,13.634 4.032,14.122 3.473,14.667 2.971,15.266 2.53,15.912 2.156,16.598 1.853,17.318 1.623,18.065 1.468,18.832 
		1.39,19.609 1.39,20.391 1.468,21.168 1.623,21.935 1.853,22.682 2.156,23.402 2.53,24.088 2.971,24.734 3.473,25.332 
		4.032,25.879 4.644,26.365 5.3,26.789 5.996,27.146 6.723,27.432 7.476,27.644 8.245,27.779 9.024,27.838 9.806,27.818 
		10.582,27.721 11.343,27.547 12.084,27.298 12.797,26.977 13.474,26.586 14.108,26.129 14.694,25.612 15.226,25.039 15.698,24.416 
		16.105,23.75 16.444,23.045 16.712,22.311 16.905,21.553 17.021,20.781 17.06,20 	"/>
	<polygon fill="#FFFFFF" points="15.072,19.424 9.22,20 15.1,20 	"/>
	<polygon fill="#FFFFFF" points="14.987,18.853 9.22,20 15.072,19.424 	"/>
	<polygon fill="#FFFFFF" points="14.847,18.293 9.22,20 14.987,18.853 	"/>
	<polygon fill="#FFFFFF" points="14.652,17.75 9.22,20 14.847,18.293 	"/>
	<polygon fill="#FFFFFF" points="14.406,17.228 9.22,20 14.652,17.75 	"/>
	<polygon fill="#FFFFFF" points="14.109,16.733 9.22,20 14.406,17.228 	"/>
	<polygon fill="#FFFFFF" points="13.765,16.27 9.22,20 14.109,16.733 	"/>
	<polygon fill="#FFFFFF" points="13.378,15.842 9.22,20 13.765,16.27 	"/>
	<polygon fill="#FFFFFF" points="12.95,15.455 9.22,20 13.378,15.842 	"/>
	<polygon fill="#FFFFFF" points="12.487,15.111 9.22,20 12.95,15.455 	"/>
	<polygon fill="#FFFFFF" points="11.992,14.814 9.22,20 12.487,15.111 	"/>
	<polygon fill="#FFFFFF" points="11.47,14.567 9.22,20 11.992,14.814 	"/>
	<polygon fill="#FFFFFF" points="10.927,14.373 9.22,20 11.47,14.567 	"/>
	<polygon fill="#FFFFFF" points="10.367,14.233 9.22,20 10.927,14.373 	"/>
	<polygon fill="#FFFFFF" points="9.796,14.148 9.22,20 10.367,14.233 	"/>
	<polygon fill="#FFFFFF" points="9.22,14.12 9.22,20 9.796,14.148 	"/>
	<polygon fill="#FFFFFF" points="8.644,14.148 9.22,20 9.22,14.12 	"/>
	<polygon fill="#FFFFFF" points="8.073,14.233 9.22,20 8.644,14.148 	"/>
	<polygon fill="#FFFFFF" points="7.513,14.373 9.22,20 8.073,14.233 	"/>
	<polygon fill="#FFFFFF" points="6.97,14.567 9.22,20 7.513,14.373 	"/>
	<polygon fill="#FFFFFF" points="6.448,14.814 9.22,20 6.97,14.567 	"/>
	<polygon fill="#FFFFFF" points="5.953,15.111 9.22,20 6.448,14.814 	"/>
	<polygon fill="#FFFFFF" points="5.49,15.455 9.22,20 5.953,15.111 	"/>
	<polygon fill="#FFFFFF" points="5.062,15.842 9.22,20 5.49,15.455 	"/>
	<polygon fill="#FFFFFF" points="4.675,16.27 9.22,20 5.062,15.842 	"/>
	<polygon fill="#FFFFFF" points="4.331,16.733 9.22,20 4.675,16.27 	"/>
	<polygon fill="#FFFFFF" points="4.034,17.228 9.22,20 4.331,16.733 	"/>
	<polygon fill="#FFFFFF" points="3.788,17.75 9.22,20 4.034,17.228 	"/>
	<polygon fill="#FFFFFF" points="3.593,18.293 9.22,20 3.788,17.75 	"/>
	<polygon fill="#FFFFFF" points="3.453,18.853 9.22,20 3.593,18.293 	"/>
	<polygon fill="#FFFFFF" points="3.368,19.424 9.22,20 3.453,18.853 	"/>
	<polygon fill="#FFFFFF" points="3.34,20 9.22,20 3.368,19.424 	"/>
	<polygon fill="#FFFFFF" points="3.368,20.576 9.22,20 3.34,20 	"/>
	<polygon fill="#FFFFFF" points="3.453,21.146 9.22,20 3.368,20.576 	"/>
	<polygon fill="#FFFFFF" points="3.593,21.707 9.22,20 3.453,21.146 	"/>
	<polygon fill="#FFFFFF" points="3.788,22.25 9.22,20 3.593,21.707 	"/>
	<polygon fill="#FFFFFF" points="4.034,22.771 9.22,20 3.788,22.25 	"/>
	<polygon fill="#FFFFFF" points="4.331,23.267 9.22,20 4.034,22.771 	"/>
	<polygon fill="#FFFFFF" points="4.675,23.73 9.22,20 4.331,23.267 	"/>
	<polygon fill="#FFFFFF" points="5.062,24.158 9.22,20 4.675,23.73 	"/>
	<polygon fill="#FFFFFF" points="5.49,24.545 9.22,20 5.062,24.158 	"/>
	<polygon fill="#FFFFFF" points="5.953,24.889 9.22,20 5.49,24.545 	"/>
	<polygon fill="#FFFFFF" points="6.448,25.186 9.22,20 5.953,24.889 	"/>
	<polygon fill="#FFFFFF" points="6.97,25.433 9.22,20 6.448,25.186 	"/>
	<polygon fill="#FFFFFF" points="7.513,25.627 9.22,20 6.97,25.433 	"/>
	<polygon fill="#FFFFFF" points="8.073,25.768 9.22,20 7.513,25.627 	"/>
	<polygon fill="#FFFFFF" points="8.644,25.852 9.22,20 8.073,25.768 	"/>
	<polygon fill="#FFFFFF" points="9.22,25.88 9.22,20 8.644,25.852 	"/>
	<polygon fill="#FFFFFF" points="9.796,25.852 9.22,20 9.22,25.88 	"/>
	<polygon fill="#FFFFFF" points="10.367,25.768 9.22,20 9.796,25.852 	"/>
	<polygon fill="#FFFFFF" points="10.927,25.627 9.22,20 10.367,25.768 	"/>
	<polygon fill="#FFFFFF" points="11.47,25.433 9.22,20 10.927,25.627 	"/>
	<polygon fill="#FFFFFF" points="11.992,25.186 9.22,20 11.47,25.433 	"/>
	<polygon fill="#FFFFFF" points="12.487,24.889 9.22,20 11.992,25.186 	"/>
	<polygon fill="#FFFFFF" points="12.95,24.545 9.22,20 12.487,24.889 	"/>
	<polygon fill="#FFFFFF" points="13.378,24.158 9.22,20 12.95,24.545 	"/>
	<polygon fill="#FFFFFF" points="13.765,23.73 9.22,20 13.378,24.158 	"/>
	<polygon fill="#FFFFFF" points="14.109,23.267 9.22,20 13.765,23.73 	"/>
	<polygon fill="#FFFFFF" points="14.406,22.771 9.22,20 14.109,23.267 	"/>
	<polygon fill="#FFFFFF" points="14.652,22.25 9.22,20 14.406,22.771 	"/>
	<polygon fill="#FFFFFF" points="14.847,21.707 9.22,20 14.652,22.25 	"/>
	<polygon fill="#FFFFFF" points="14.987,21.146 9.22,20 14.847,21.707 	"/>
	<polygon fill="#FFFFFF" points="15.072,20.576 9.22,20 14.987,21.146 	"/>
	<polygon fill="#FFFFFF" points="15.1,20 9.22,20 15.072,20.576 	"/>
	<polyline fill="none" stroke="#000000" stroke-width="0.125" points="15.1,20 15.071,19.415 14.983,18.835 14.839,18.267 
		14.638,17.716 14.384,17.188 14.078,16.688 13.724,16.22 13.326,15.791 12.886,15.403 12.41,15.061 11.902,14.768 11.368,14.526 
		10.812,14.34 10.241,14.209 9.659,14.136 9.073,14.122 8.489,14.166 7.912,14.268 7.347,14.426 6.802,14.64 6.28,14.908 
		5.788,15.226 5.329,15.591 4.91,16 4.533,16.45 4.203,16.934 3.922,17.449 3.695,17.989 3.522,18.549 3.406,19.124 3.347,19.707 
		3.347,20.293 3.406,20.877 3.522,21.451 3.695,22.012 3.922,22.551 4.203,23.066 4.533,23.551 4.91,24 5.329,24.408 5.788,24.774 
		6.28,25.092 6.802,25.359 7.347,25.574 7.912,25.732 8.489,25.834 9.073,25.878 9.659,25.863 10.241,25.791 10.812,25.66 
		11.368,25.474 11.902,25.232 12.41,24.939 12.886,24.598 13.326,24.209 13.724,23.779 14.078,23.312 14.384,22.812 14.638,22.284 
		14.839,21.733 14.983,21.165 15.071,20.586 15.1,20 	"/>
	<polygon fill="#C0C0C0" points="38.582,19.231 30.779,20 38.62,20 	"/>
	<polygon fill="#C0C0C0" points="38.469,18.471 30.779,20 38.582,19.231 	"/>
	<polygon fill="#C0C0C0" points="38.282,17.724 30.779,20 38.469,18.471 	"/>
	<polygon fill="#C0C0C0" points="38.023,17 30.779,20 38.282,17.724 	"/>
	<polygon fill="#C0C0C0" points="37.694,16.304 30.779,20 38.023,17 	"/>
	<polygon fill="#C0C0C0" points="37.299,15.645 30.779,20 37.694,16.304 	"/>
	<polygon fill="#C0C0C0" points="36.84,15.026 30.779,20 37.299,15.645 	"/>
	<polygon fill="#C0C0C0" points="36.324,14.456 30.779,20 36.84,15.026 	"/>
	<polygon fill="#C0C0C0" points="35.754,13.939 30.779,20 36.324,14.456 	"/>
	<polygon fill="#C0C0C0" points="35.136,13.481 30.779,20 35.754,13.939 	"/>
	<polygon fill="#C0C0C0" points="34.476,13.086 30.779,20 35.136,13.481 	"/>
	<polygon fill="#C0C0C0" points="33.78,12.757 30.779,20 34.476,13.086 	"/>
	<polygon fill="#C0C0C0" points="33.056,12.498 30.779,20 33.78,12.757 	"/>
	<polygon fill="#C0C0C0" points="32.31,12.311 30.779,20 33.056,12.498 	"/>
	<polygon fill="#C0C0C0" points="31.549,12.198 30.779,20 32.31,12.311 	"/>
	<polygon fill="#C0C0C0" points="30.779,12.16 30.779,20 31.549,12.198 	"/>
	<polygon fill="#C0C0C0" points="30.012,12.198 30.779,20 30.779,12.16 	"/>
	<polygon fill="#C0C0C0" points="29.25,12.311 30.779,20 30.012,12.198 	"/>
	<polygon fill="#C0C0C0" points="28.504,12.498 30.779,20 29.25,12.311 	"/>
	<polygon fill="#C0C0C0" points="27.779,12.757 30.779,20 28.504,12.498 	"/>
	<polygon fill="#C0C0C0" points="27.084,13.086 30.779,20 27.779,12.757 	"/>
	<polygon fill="#C0C0C0" points="26.424,13.481 30.779,20 27.084,13.086 	"/>
	<polygon fill="#C0C0C0" points="25.807,13.939 30.779,20 26.424,13.481 	"/>
	<polygon fill="#C0C0C0" points="25.236,14.456 30.779,20 25.807,13.939 	"/>
	<polygon fill="#C0C0C0" points="24.72,15.026 30.779,20 25.236,14.456 	"/>
	<polygon fill="#C0C0C0" points="24.262,15.645 30.779,20 24.72,15.026 	"/>
	<polygon fill="#C0C0C0" points="23.865,16.304 30.779,20 24.262,15.645 	"/>
	<polygon fill="#C0C0C0" points="23.537,17 30.779,20 23.865,16.304 	"/>
	<polygon fill="#C0C0C0" points="23.277,17.724 30.779,20 23.537,17 	"/>
	<polygon fill="#C0C0C0" points="23.091,18.471 30.779,20 23.277,17.724 	"/>
	<polygon fill="#C0C0C0" points="22.978,19.231 30.779,20 23.091,18.471 	"/>
	<polygon fill="#C0C0C0" points="22.939,20 30.779,20 22.978,19.231 	"/>
	<polygon fill="#C0C0C0" points="22.978,20.769 30.779,20 22.939,20 	"/>
	<polygon fill="#C0C0C0" points="23.091,21.529 30.779,20 22.978,20.769 	"/>
	<polygon fill="#C0C0C0" points="23.277,22.275 30.779,20 23.091,21.529 	"/>
	<polygon fill="#C0C0C0" points="23.537,23 30.779,20 23.277,22.275 	"/>
	<polygon fill="#C0C0C0" points="23.865,23.695 30.779,20 23.537,23 	"/>
	<polygon fill="#C0C0C0" points="24.262,24.355 30.779,20 23.865,23.695 	"/>
	<polygon fill="#C0C0C0" points="24.72,24.974 30.779,20 24.262,24.355 	"/>
	<polygon fill="#C0C0C0" points="25.236,25.544 30.779,20 24.72,24.974 	"/>
	<polygon fill="#C0C0C0" points="25.807,26.061 30.779,20 25.236,25.544 	"/>
	<polygon fill="#C0C0C0" points="26.424,26.519 30.779,20 25.807,26.061 	"/>
	<polygon fill="#C0C0C0" points="27.084,26.914 30.779,20 26.424,26.519 	"/>
	<polygon fill="#C0C0C0" points="27.779,27.243 30.779,20 27.084,26.914 	"/>
	<polygon fill="#C0C0C0" points="28.504,27.502 30.779,20 27.779,27.243 	"/>
	<polygon fill="#C0C0C0" points="29.25,27.689 30.779,20 28.504,27.502 	"/>
	<polygon fill="#C0C0C0" points="30.012,27.803 30.779,20 29.25,27.689 	"/>
	<polygon fill="#C0C0C0" points="30.779,27.84 30.779,20 30.012,27.803 	"/>
	<polygon fill="#C0C0C0" points="31.549,27.803 30.779,20 30.779,27.84 	"/>
	<polygon fill="#C0C0C0" points="32.31,27.689 30.779,20 31.549,27.803 	"/>
	<polygon fill="#C0C0C0" points="33.056,27.502 30.779,20 32.31,27.689 	"/>
	<polygon fill="#C0C0C0" points="33.78,27.243 30.779,20 33.056,27.502 	"/>
	<polygon fill="#C0C0C0" points="34.476,26.914 30.779,20 33.78,27.243 	"/>
	<polygon fill="#C0C0C0" points="35.136,26.519 30.779,20 34.476,26.914 	"/>
	<polygon fill="#C0C0C0" points="35.754,26.061 30.779,20 35.136,26.519 	"/>
	<polygon fill="#C0C0C0" points="36.324,25.544 30.779,20 35.754,26.061 	"/>
	<polygon fill="#C0C0C0" points="36.84,24.974 30.779,20 36.324,25.544 	"/>
	<polygon fill="#C0C0C0" points="37.299,24.355 30.779,20 36.84,24.974 	"/>
	<polygon fill="#C0C0C0" points="37.694,23.695 30.779,20 37.299,24.355 	"/>
	<polygon fill="#C0C0C0" points="38.023,23 30.779,20 37.694,23.695 	"/>
	<polygon fill="#C0C0C0" points="38.282,22.275 30.779,20 38.023,23 	"/>
	<polygon fill="#C0C0C0" points="38.469,21.529 30.779,20 38.282,22.275 	"/>
	<polygon fill="#C0C0C0" points="38.582,20.769 30.779,20 38.469,21.529 	"/>
	<polygon fill="#C0C0C0" points="38.62,20 30.779,20 38.582,20.769 	"/>
	<polyline fill="none" stroke="#000000" stroke-width="0.125" points="38.62,20 38.581,19.219 38.465,18.447 38.271,17.689 
		38.004,16.955 37.665,16.25 37.258,15.583 36.785,14.96 36.254,14.388 35.668,13.871 35.033,13.414 34.356,13.023 33.645,12.702 
		32.903,12.453 32.142,12.279 31.365,12.182 30.584,12.163 29.805,12.221 29.035,12.356 28.283,12.568 27.556,12.854 26.859,13.21 
		26.203,13.634 25.592,14.122 25.033,14.667 24.53,15.266 24.09,15.912 23.717,16.598 23.412,17.318 23.183,18.065 23.027,18.832 
		22.949,19.609 22.949,20.391 23.027,21.168 23.183,21.935 23.412,22.682 23.717,23.402 24.09,24.088 24.53,24.734 25.033,25.332 
		25.592,25.879 26.203,26.365 26.859,26.789 27.556,27.146 28.283,27.432 29.035,27.644 29.805,27.779 30.584,27.838 31.365,27.818 
		32.142,27.721 32.903,27.547 33.645,27.298 34.356,26.977 35.033,26.586 35.668,26.129 36.254,25.612 36.785,25.039 37.258,24.416 
		37.665,23.75 38.004,23.045 38.271,22.311 38.465,21.553 38.581,20.781 38.62,20 	"/>
	<polygon fill="#FFFFFF" points="36.24,19.531 30.389,20.098 36.268,20.098 	"/>
	<polygon fill="#FFFFFF" points="36.154,18.97 30.389,20.098 36.24,19.531 	"/>
	<polygon fill="#FFFFFF" points="36.015,18.419 30.389,20.098 36.154,18.97 	"/>
	<polygon fill="#FFFFFF" points="35.82,17.885 30.389,20.098 36.015,18.419 	"/>
	<polygon fill="#FFFFFF" points="35.574,17.373 30.389,20.098 35.82,17.885 	"/>
	<polygon fill="#FFFFFF" points="35.277,16.886 30.389,20.098 35.574,17.373 	"/>
	<polygon fill="#FFFFFF" points="34.934,16.43 30.389,20.098 35.277,16.886 	"/>
	<polygon fill="#FFFFFF" points="34.546,16.009 30.389,20.098 34.934,16.43 	"/>
	<polygon fill="#FFFFFF" points="34.118,15.628 30.389,20.098 34.546,16.009 	"/>
	<polygon fill="#FFFFFF" points="33.654,15.291 30.389,20.098 34.118,15.628 	"/>
	<polygon fill="#FFFFFF" points="33.16,14.999 30.389,20.098 33.654,15.291 	"/>
	<polygon fill="#FFFFFF" points="32.639,14.756 30.389,20.098 33.16,14.999 	"/>
	<polygon fill="#FFFFFF" points="32.095,14.565 30.389,20.098 32.639,14.756 	"/>
	<polygon fill="#FFFFFF" points="31.535,14.427 30.389,20.098 32.095,14.565 	"/>
	<polygon fill="#FFFFFF" points="30.965,14.344 30.389,20.098 31.535,14.427 	"/>
	<polygon fill="#FFFFFF" points="30.389,14.316 30.389,20.098 30.965,14.344 	"/>
	<polygon fill="#FFFFFF" points="29.812,14.344 30.389,20.098 30.389,14.316 	"/>
	<polygon fill="#FFFFFF" points="29.24,14.427 30.389,20.098 29.812,14.344 	"/>
	<polygon fill="#FFFFFF" points="28.682,14.565 30.389,20.098 29.24,14.427 	"/>
	<polygon fill="#FFFFFF" points="28.138,14.756 30.389,20.098 28.682,14.565 	"/>
	<polygon fill="#FFFFFF" points="27.616,14.999 30.389,20.098 28.138,14.756 	"/>
	<polygon fill="#FFFFFF" points="27.121,15.291 30.389,20.098 27.616,14.999 	"/>
	<polygon fill="#FFFFFF" points="26.658,15.628 30.389,20.098 27.121,15.291 	"/>
	<polygon fill="#FFFFFF" points="26.23,16.009 30.389,20.098 26.658,15.628 	"/>
	<polygon fill="#FFFFFF" points="25.843,16.43 30.389,20.098 26.23,16.009 	"/>
	<polygon fill="#FFFFFF" points="25.499,16.886 30.389,20.098 25.843,16.43 	"/>
	<polygon fill="#FFFFFF" points="25.202,17.373 30.389,20.098 25.499,16.886 	"/>
	<polygon fill="#FFFFFF" points="24.955,17.885 30.389,20.098 25.202,17.373 	"/>
	<polygon fill="#FFFFFF" points="24.762,18.419 30.389,20.098 24.955,17.885 	"/>
	<polygon fill="#FFFFFF" points="24.621,18.97 30.389,20.098 24.762,18.419 	"/>
	<polygon fill="#FFFFFF" points="24.536,19.531 30.389,20.098 24.621,18.97 	"/>
	<polygon fill="#FFFFFF" points="24.508,20.098 30.389,20.098 24.536,19.531 	"/>
	<polygon fill="#FFFFFF" points="24.536,20.664 30.389,20.098 24.508,20.098 	"/>
	<polygon fill="#FFFFFF" points="24.621,21.227 30.389,20.098 24.536,20.664 	"/>
	<polygon fill="#FFFFFF" points="24.762,21.776 30.389,20.098 24.621,21.227 	"/>
	<polygon fill="#FFFFFF" points="24.955,22.311 30.389,20.098 24.762,21.776 	"/>
	<polygon fill="#FFFFFF" points="25.202,22.824 30.389,20.098 24.955,22.311 	"/>
	<polygon fill="#FFFFFF" points="25.499,23.311 30.389,20.098 25.202,22.824 	"/>
	<polygon fill="#FFFFFF" points="25.843,23.766 30.389,20.098 25.499,23.311 	"/>
	<polygon fill="#FFFFFF" points="26.23,24.187 30.389,20.098 25.843,23.766 	"/>
	<polygon fill="#FFFFFF" points="26.658,24.567 30.389,20.098 26.23,24.187 	"/>
	<polygon fill="#FFFFFF" points="27.121,24.906 30.389,20.098 26.658,24.567 	"/>
	<polygon fill="#FFFFFF" points="27.616,25.197 30.389,20.098 27.121,24.906 	"/>
	<polygon fill="#FFFFFF" points="28.138,25.439 30.389,20.098 27.616,25.197 	"/>
	<polygon fill="#FFFFFF" points="28.682,25.631 30.389,20.098 28.138,25.439 	"/>
	<polygon fill="#FFFFFF" points="29.24,25.77 30.389,20.098 28.682,25.631 	"/>
	<polygon fill="#FFFFFF" points="29.812,25.852 30.389,20.098 29.24,25.77 	"/>
	<polygon fill="#FFFFFF" points="30.389,25.88 30.389,20.098 29.812,25.852 	"/>
	<polygon fill="#FFFFFF" points="30.965,25.852 30.389,20.098 30.389,25.88 	"/>
	<polygon fill="#FFFFFF" points="31.535,25.77 30.389,20.098 30.965,25.852 	"/>
	<polygon fill="#FFFFFF" points="32.095,25.631 30.389,20.098 31.535,25.77 	"/>
	<polygon fill="#FFFFFF" points="32.639,25.439 30.389,20.098 32.095,25.631 	"/>
	<polygon fill="#FFFFFF" points="33.16,25.197 30.389,20.098 32.639,25.439 	"/>
	<polygon fill="#FFFFFF" points="33.654,24.906 30.389,20.098 33.16,25.197 	"/>
	<polygon fill="#FFFFFF" points="34.118,24.567 30.389,20.098 33.654,24.906 	"/>
	<polygon fill="#FFFFFF" points="34.546,24.187 30.389,20.098 34.118,24.567 	"/>
	<polygon fill="#FFFFFF" points="34.934,23.766 30.389,20.098 34.546,24.187 	"/>
	<polygon fill="#FFFFFF" points="35.277,23.311 30.389,20.098 34.934,23.766 	"/>
	<polygon fill="#FFFFFF" points="35.574,22.824 30.389,20.098 35.277,23.311 	"/>
	<polygon fill="#FFFFFF" points="35.82,22.311 30.389,20.098 35.574,22.824 	"/>
	<polygon fill="#FFFFFF" points="36.015,21.776 30.389,20.098 35.82,22.311 	"/>
	<polygon fill="#FFFFFF" points="36.154,21.227 30.389,20.098 36.015,21.776 	"/>
	<polygon fill="#FFFFFF" points="36.24,20.664 30.389,20.098 36.154,21.227 	"/>
	<polygon fill="#FFFFFF" points="36.268,20.098 30.389,20.098 36.24,20.664 	"/>
	<polyline fill="none" stroke="#808080" stroke-width="0.125" points="36.268,20.098 36.238,19.522 36.151,18.952 36.007,18.394 
		35.807,17.852 35.552,17.333 35.246,16.841 34.893,16.381 34.494,15.959 34.055,15.578 33.578,15.241 33.07,14.953 32.536,14.716 
		31.98,14.532 31.409,14.404 30.828,14.332 30.241,14.318 29.656,14.361 29.08,14.461 28.516,14.617 27.97,14.828 27.448,15.091 
		26.955,15.403 26.497,15.763 26.078,16.165 25.701,16.607 25.371,17.083 25.09,17.589 24.863,18.121 24.689,18.671 24.574,19.236 
		24.516,19.81 24.516,20.386 24.574,20.96 24.689,21.525 24.863,22.076 25.09,22.607 25.371,23.113 25.701,23.59 26.078,24.031 
		26.497,24.434 26.955,24.793 27.448,25.105 27.97,25.368 28.516,25.579 29.08,25.734 29.656,25.835 30.241,25.879 30.828,25.863 
		31.409,25.792 31.98,25.664 32.536,25.48 33.07,25.243 33.578,24.955 34.055,24.619 34.494,24.237 34.893,23.814 35.246,23.355 
		35.552,22.863 35.807,22.344 36.007,21.803 36.151,21.244 36.238,20.674 36.268,20.098 	"/>
	<polygon fill="#FFFFFF" points="12.16,11.964 12.16,27.84 28.624,27.84 	"/>
	<polygon fill="#FFFFFF" points="12.16,11.964 28.624,27.84 28.624,11.964 	"/>
	<polyline fill="none" stroke="#FFFFFF" stroke-width="0.125" points="12.16,11.964 12.16,27.84 28.624,27.84 28.624,11.964 
		12.16,11.964 	"/>
	<polygon fill="#C0C0C0" points="11.95,19.535 9.122,19.804 11.964,19.804 	"/>
	<polygon fill="#C0C0C0" points="11.909,19.269 9.122,19.804 11.95,19.535 	"/>
	<polygon fill="#C0C0C0" points="11.842,19.007 9.122,19.804 11.909,19.269 	"/>
	<polygon fill="#C0C0C0" points="11.748,18.754 9.122,19.804 11.842,19.007 	"/>
	<polygon fill="#C0C0C0" points="11.628,18.51 9.122,19.804 11.748,18.754 	"/>
	<polygon fill="#C0C0C0" points="11.485,18.279 9.122,19.804 11.628,18.51 	"/>
	<polygon fill="#C0C0C0" points="11.319,18.063 9.122,19.804 11.485,18.279 	"/>
	<polygon fill="#C0C0C0" points="11.132,17.864 9.122,19.804 11.319,18.063 	"/>
	<polygon fill="#C0C0C0" points="10.925,17.683 9.122,19.804 11.132,17.864 	"/>
	<polygon fill="#C0C0C0" points="10.701,17.522 9.122,19.804 10.925,17.683 	"/>
	<polygon fill="#C0C0C0" points="10.462,17.384 9.122,19.804 10.701,17.522 	"/>
	<polygon fill="#C0C0C0" points="10.209,17.269 9.122,19.804 10.462,17.384 	"/>
	<polygon fill="#C0C0C0" points="9.947,17.178 9.122,19.804 10.209,17.269 	"/>
	<polygon fill="#C0C0C0" points="9.676,17.113 9.122,19.804 9.947,17.178 	"/>
	<polygon fill="#C0C0C0" points="9.4,17.073 9.122,19.804 9.676,17.113 	"/>
	<polygon fill="#C0C0C0" points="9.122,17.06 9.122,19.804 9.4,17.073 	"/>
	<polygon fill="#C0C0C0" points="8.843,17.073 9.122,19.804 9.122,17.06 	"/>
	<polygon fill="#C0C0C0" points="8.567,17.113 9.122,19.804 8.843,17.073 	"/>
	<polygon fill="#C0C0C0" points="8.297,17.178 9.122,19.804 8.567,17.113 	"/>
	<polygon fill="#C0C0C0" points="8.034,17.269 9.122,19.804 8.297,17.178 	"/>
	<polygon fill="#C0C0C0" points="7.782,17.384 9.122,19.804 8.034,17.269 	"/>
	<polygon fill="#C0C0C0" points="7.543,17.522 9.122,19.804 7.782,17.384 	"/>
	<polygon fill="#C0C0C0" points="7.319,17.683 9.122,19.804 7.543,17.522 	"/>
	<polygon fill="#C0C0C0" points="7.112,17.864 9.122,19.804 7.319,17.683 	"/>
	<polygon fill="#C0C0C0" points="6.925,18.063 9.122,19.804 7.112,17.864 	"/>
	<polygon fill="#C0C0C0" points="6.759,18.279 9.122,19.804 6.925,18.063 	"/>
	<polygon fill="#C0C0C0" points="6.616,18.51 9.122,19.804 6.759,18.279 	"/>
	<polygon fill="#C0C0C0" points="6.496,18.754 9.122,19.804 6.616,18.51 	"/>
	<polygon fill="#C0C0C0" points="6.402,19.007 9.122,19.804 6.496,18.754 	"/>
	<polygon fill="#C0C0C0" points="6.334,19.269 9.122,19.804 6.402,19.007 	"/>
	<polygon fill="#C0C0C0" points="6.293,19.535 9.122,19.804 6.334,19.269 	"/>
	<polygon fill="#C0C0C0" points="6.28,19.804 9.122,19.804 6.293,19.535 	"/>
	<polygon fill="#C0C0C0" points="6.293,20.073 9.122,19.804 6.28,19.804 	"/>
	<polygon fill="#C0C0C0" points="6.334,20.339 9.122,19.804 6.293,20.073 	"/>
	<polygon fill="#C0C0C0" points="6.402,20.601 9.122,19.804 6.334,20.339 	"/>
	<polygon fill="#C0C0C0" points="6.496,20.854 9.122,19.804 6.402,20.601 	"/>
	<polygon fill="#C0C0C0" points="6.616,21.098 9.122,19.804 6.496,20.854 	"/>
	<polygon fill="#C0C0C0" points="6.759,21.328 9.122,19.804 6.616,21.098 	"/>
	<polygon fill="#C0C0C0" points="6.925,21.545 9.122,19.804 6.759,21.328 	"/>
	<polygon fill="#C0C0C0" points="7.112,21.744 9.122,19.804 6.925,21.545 	"/>
	<polygon fill="#C0C0C0" points="7.319,21.926 9.122,19.804 7.112,21.744 	"/>
	<polygon fill="#C0C0C0" points="7.543,22.086 9.122,19.804 7.319,21.926 	"/>
	<polygon fill="#C0C0C0" points="7.782,22.225 9.122,19.804 7.543,22.086 	"/>
	<polygon fill="#C0C0C0" points="8.034,22.34 9.122,19.804 7.782,22.225 	"/>
	<polygon fill="#C0C0C0" points="8.297,22.43 9.122,19.804 8.034,22.34 	"/>
	<polygon fill="#C0C0C0" points="8.567,22.495 9.122,19.804 8.297,22.43 	"/>
	<polygon fill="#C0C0C0" points="8.843,22.535 9.122,19.804 8.567,22.495 	"/>
	<polygon fill="#C0C0C0" points="9.122,22.548 9.122,19.804 8.843,22.535 	"/>
	<polygon fill="#C0C0C0" points="9.4,22.535 9.122,19.804 9.122,22.548 	"/>
	<polygon fill="#C0C0C0" points="9.676,22.495 9.122,19.804 9.4,22.535 	"/>
	<polygon fill="#C0C0C0" points="9.947,22.43 9.122,19.804 9.676,22.495 	"/>
	<polygon fill="#C0C0C0" points="10.209,22.34 9.122,19.804 9.947,22.43 	"/>
	<polygon fill="#C0C0C0" points="10.462,22.225 9.122,19.804 10.209,22.34 	"/>
	<polygon fill="#C0C0C0" points="10.701,22.086 9.122,19.804 10.462,22.225 	"/>
	<polygon fill="#C0C0C0" points="10.925,21.926 9.122,19.804 10.701,22.086 	"/>
	<polygon fill="#C0C0C0" points="11.132,21.744 9.122,19.804 10.925,21.926 	"/>
	<polygon fill="#C0C0C0" points="11.319,21.545 9.122,19.804 11.132,21.744 	"/>
	<polygon fill="#C0C0C0" points="11.485,21.328 9.122,19.804 11.319,21.545 	"/>
	<polygon fill="#C0C0C0" points="11.628,21.098 9.122,19.804 11.485,21.328 	"/>
	<polygon fill="#C0C0C0" points="11.748,20.854 9.122,19.804 11.628,21.098 	"/>
	<polygon fill="#C0C0C0" points="11.842,20.601 9.122,19.804 11.748,20.854 	"/>
	<polygon fill="#C0C0C0" points="11.909,20.339 9.122,19.804 11.842,20.601 	"/>
	<polygon fill="#C0C0C0" points="11.95,20.073 9.122,19.804 11.909,20.339 	"/>
	<polygon fill="#C0C0C0" points="11.964,19.804 9.122,19.804 11.95,20.073 	"/>
	<polyline fill="none" stroke="#000000" stroke-width="0.125" points="11.964,19.804 11.95,19.531 11.908,19.26 11.838,18.995 
		11.741,18.738 11.618,18.492 11.47,18.258 11.299,18.04 11.106,17.84 10.894,17.659 10.664,17.499 10.418,17.362 10.16,17.25 
		9.892,17.163 9.616,17.102 9.334,17.068 9.051,17.061 8.769,17.081 8.49,17.129 8.217,17.203 7.953,17.303 7.701,17.428 
		7.463,17.576 7.242,17.747 7.039,17.938 6.856,18.147 6.697,18.373 6.562,18.613 6.451,18.866 6.368,19.127 6.312,19.395 
		6.284,19.667 6.284,19.941 6.312,20.213 6.368,20.481 6.451,20.742 6.562,20.994 6.697,21.234 6.856,21.461 7.039,21.67 
		7.242,21.861 7.463,22.031 7.701,22.18 7.953,22.305 8.217,22.405 8.49,22.479 8.769,22.527 9.051,22.547 9.334,22.541 
		9.616,22.506 9.892,22.445 10.16,22.358 10.418,22.246 10.664,22.109 10.894,21.949 11.106,21.769 11.299,21.568 11.47,21.35 
		11.618,21.116 11.741,20.869 11.838,20.613 11.908,20.348 11.95,20.077 11.964,19.804 	"/>
	<polygon fill="#C0C0C0" points="33.51,19.731 30.682,20 33.523,20 	"/>
	<polygon fill="#C0C0C0" points="33.469,19.465 30.682,20 33.51,19.731 	"/>
	<polygon fill="#C0C0C0" points="33.402,19.204 30.682,20 33.469,19.465 	"/>
	<polygon fill="#C0C0C0" points="33.308,18.95 30.682,20 33.402,19.204 	"/>
	<polygon fill="#C0C0C0" points="33.188,18.707 30.682,20 33.308,18.95 	"/>
	<polygon fill="#C0C0C0" points="33.045,18.476 30.682,20 33.188,18.707 	"/>
	<polygon fill="#C0C0C0" points="32.879,18.259 30.682,20 33.045,18.476 	"/>
	<polygon fill="#C0C0C0" points="32.691,18.06 30.682,20 32.879,18.259 	"/>
	<polygon fill="#C0C0C0" points="32.484,17.879 30.682,20 32.691,18.06 	"/>
	<polygon fill="#C0C0C0" points="32.261,17.718 30.682,20 32.484,17.879 	"/>
	<polygon fill="#C0C0C0" points="32.021,17.58 30.682,20 32.261,17.718 	"/>
	<polygon fill="#C0C0C0" points="31.77,17.465 30.682,20 32.021,17.58 	"/>
	<polygon fill="#C0C0C0" points="31.507,17.374 30.682,20 31.77,17.465 	"/>
	<polygon fill="#C0C0C0" points="31.236,17.309 30.682,20 31.507,17.374 	"/>
	<polygon fill="#C0C0C0" points="30.961,17.269 30.682,20 31.236,17.309 	"/>
	<polygon fill="#C0C0C0" points="30.682,17.256 30.682,20 30.961,17.269 	"/>
	<polygon fill="#C0C0C0" points="30.403,17.269 30.682,20 30.682,17.256 	"/>
	<polygon fill="#C0C0C0" points="30.127,17.309 30.682,20 30.403,17.269 	"/>
	<polygon fill="#C0C0C0" points="29.857,17.374 30.682,20 30.127,17.309 	"/>
	<polygon fill="#C0C0C0" points="29.594,17.465 30.682,20 29.857,17.374 	"/>
	<polygon fill="#C0C0C0" points="29.342,17.58 30.682,20 29.594,17.465 	"/>
	<polygon fill="#C0C0C0" points="29.104,17.718 30.682,20 29.342,17.58 	"/>
	<polygon fill="#C0C0C0" points="28.879,17.879 30.682,20 29.104,17.718 	"/>
	<polygon fill="#C0C0C0" points="28.672,18.06 30.682,20 28.879,17.879 	"/>
	<polygon fill="#C0C0C0" points="28.484,18.259 30.682,20 28.672,18.06 	"/>
	<polygon fill="#C0C0C0" points="28.318,18.476 30.682,20 28.484,18.259 	"/>
	<polygon fill="#C0C0C0" points="28.176,18.707 30.682,20 28.318,18.476 	"/>
	<polygon fill="#C0C0C0" points="28.057,18.95 30.682,20 28.176,18.707 	"/>
	<polygon fill="#C0C0C0" points="27.963,19.204 30.682,20 28.057,18.95 	"/>
	<polygon fill="#C0C0C0" points="27.895,19.465 30.682,20 27.963,19.204 	"/>
	<polygon fill="#C0C0C0" points="27.854,19.731 30.682,20 27.895,19.465 	"/>
	<polygon fill="#C0C0C0" points="27.84,20 30.682,20 27.854,19.731 	"/>
	<polygon fill="#C0C0C0" points="27.854,20.269 30.682,20 27.84,20 	"/>
	<polygon fill="#C0C0C0" points="27.895,20.535 30.682,20 27.854,20.269 	"/>
	<polygon fill="#C0C0C0" points="27.963,20.797 30.682,20 27.895,20.535 	"/>
	<polygon fill="#C0C0C0" points="28.057,21.051 30.682,20 27.963,20.797 	"/>
	<polygon fill="#C0C0C0" points="28.176,21.293 30.682,20 28.057,21.051 	"/>
	<polygon fill="#C0C0C0" points="28.318,21.524 30.682,20 28.176,21.293 	"/>
	<polygon fill="#C0C0C0" points="28.484,21.74 30.682,20 28.318,21.524 	"/>
	<polygon fill="#C0C0C0" points="28.672,21.94 30.682,20 28.484,21.74 	"/>
	<polygon fill="#C0C0C0" points="28.879,22.121 30.682,20 28.672,21.94 	"/>
	<polygon fill="#C0C0C0" points="29.104,22.281 30.682,20 28.879,22.121 	"/>
	<polygon fill="#C0C0C0" points="29.342,22.42 30.682,20 29.104,22.281 	"/>
	<polygon fill="#C0C0C0" points="29.594,22.535 30.682,20 29.342,22.42 	"/>
	<polygon fill="#C0C0C0" points="29.857,22.626 30.682,20 29.594,22.535 	"/>
	<polygon fill="#C0C0C0" points="30.127,22.691 30.682,20 29.857,22.626 	"/>
	<polygon fill="#C0C0C0" points="30.403,22.73 30.682,20 30.127,22.691 	"/>
	<polygon fill="#C0C0C0" points="30.682,22.744 30.682,20 30.403,22.73 	"/>
	<polygon fill="#C0C0C0" points="30.961,22.73 30.682,20 30.682,22.744 	"/>
	<polygon fill="#C0C0C0" points="31.236,22.691 30.682,20 30.961,22.73 	"/>
	<polygon fill="#C0C0C0" points="31.507,22.626 30.682,20 31.236,22.691 	"/>
	<polygon fill="#C0C0C0" points="31.77,22.535 30.682,20 31.507,22.626 	"/>
	<polygon fill="#C0C0C0" points="32.021,22.42 30.682,20 31.77,22.535 	"/>
	<polygon fill="#C0C0C0" points="32.261,22.281 30.682,20 32.021,22.42 	"/>
	<polygon fill="#C0C0C0" points="32.484,22.121 30.682,20 32.261,22.281 	"/>
	<polygon fill="#C0C0C0" points="32.691,21.94 30.682,20 32.484,22.121 	"/>
	<polygon fill="#C0C0C0" points="32.879,21.74 30.682,20 32.691,21.94 	"/>
	<polygon fill="#C0C0C0" points="33.045,21.524 30.682,20 32.879,21.74 	"/>
	<polygon fill="#C0C0C0" points="33.188,21.293 30.682,20 33.045,21.524 	"/>
	<polygon fill="#C0C0C0" points="33.308,21.051 30.682,20 33.188,21.293 	"/>
	<polygon fill="#C0C0C0" points="33.402,20.797 30.682,20 33.308,21.051 	"/>
	<polygon fill="#C0C0C0" points="33.469,20.535 30.682,20 33.402,20.797 	"/>
	<polygon fill="#C0C0C0" points="33.51,20.269 30.682,20 33.469,20.535 	"/>
	<polygon fill="#C0C0C0" points="33.523,20 30.682,20 33.51,20.269 	"/>
	<polyline fill="none" stroke="#000000" stroke-width="0.125" points="33.523,20 33.51,19.727 33.468,19.456 33.398,19.191 
		33.301,18.934 33.178,18.688 33.03,18.454 32.859,18.236 32.666,18.036 32.454,17.854 32.225,17.695 31.979,17.558 31.721,17.446 
		31.451,17.358 31.176,17.298 30.895,17.264 30.611,17.257 30.328,17.277 30.05,17.325 29.777,17.399 29.514,17.499 29.262,17.624 
		29.023,17.772 28.801,17.942 28.599,18.134 28.416,18.343 28.257,18.569 28.121,18.81 28.012,19.062 27.928,19.323 27.871,19.591 
		27.844,19.863 27.844,20.137 27.871,20.409 27.928,20.678 28.012,20.938 28.121,21.19 28.257,21.431 28.416,21.656 28.599,21.866 
		28.801,22.058 29.023,22.229 29.262,22.377 29.514,22.501 29.777,22.602 30.05,22.676 30.328,22.723 30.611,22.743 30.895,22.736 
		31.176,22.702 31.451,22.642 31.721,22.555 31.979,22.441 32.225,22.305 32.454,22.146 32.666,21.965 32.859,21.764 33.03,21.546 
		33.178,21.312 33.301,21.066 33.398,20.809 33.468,20.544 33.51,20.273 33.523,20 	"/>
	<polyline fill="none" stroke="#000000" stroke-width="0.125" points="9.024,20 9.024,15.492 14.12,15.492 14.12,6.28 8.24,6.28 
		8.24,0.204 	"/>
	<polyline fill="none" stroke="#000000" stroke-width="0.125" points="30.779,20.196 30.779,16.08 25.88,16.08 25.88,6.28 
		31.76,6.28 31.76,0.4 	"/>
	<line fill="none" stroke="#000000" stroke-width="0.125" x1="9.024" y1="20" x2="30.779" y2="20.196"/>
	<polygon points="21.561,19.846 20,20 21.568,20 	"/>
	<polygon points="21.538,19.694 20,20 21.561,19.846 	"/>
	<polygon points="21.5,19.545 20,20 21.538,19.694 	"/>
	<polygon points="21.449,19.4 20,20 21.5,19.545 	"/>
	<polygon points="21.383,19.261 20,20 21.449,19.4 	"/>
	<polygon points="21.304,19.129 20,20 21.383,19.261 	"/>
	<polygon points="21.212,19.005 20,20 21.304,19.129 	"/>
	<polygon points="21.109,18.891 20,20 21.212,19.005 	"/>
	<polygon points="20.994,18.788 20,20 21.109,18.891 	"/>
	<polygon points="20.871,18.696 20,20 20.994,18.788 	"/>
	<polygon points="20.739,18.617 20,20 20.871,18.696 	"/>
	<polygon points="20.6,18.551 20,20 20.739,18.617 	"/>
	<polygon points="20.455,18.5 20,20 20.6,18.551 	"/>
	<polygon points="20.306,18.462 20,20 20.455,18.5 	"/>
	<polygon points="20.154,18.439 20,20 20.306,18.462 	"/>
	<polygon points="20,18.432 20,20 20.154,18.439 	"/>
	<polygon points="19.846,18.439 20,20 20,18.432 	"/>
	<polygon points="19.694,18.462 20,20 19.846,18.439 	"/>
	<polygon points="19.545,18.5 20,20 19.694,18.462 	"/>
	<polygon points="19.4,18.551 20,20 19.545,18.5 	"/>
	<polygon points="19.261,18.617 20,20 19.4,18.551 	"/>
	<polygon points="19.129,18.696 20,20 19.261,18.617 	"/>
	<polygon points="19.005,18.788 20,20 19.129,18.696 	"/>
	<polygon points="18.891,18.891 20,20 19.005,18.788 	"/>
	<polygon points="18.788,19.005 20,20 18.891,18.891 	"/>
	<polygon points="18.696,19.129 20,20 18.788,19.005 	"/>
	<polygon points="18.617,19.261 20,20 18.696,19.129 	"/>
	<polygon points="18.551,19.4 20,20 18.617,19.261 	"/>
	<polygon points="18.5,19.545 20,20 18.551,19.4 	"/>
	<polygon points="18.462,19.694 20,20 18.5,19.545 	"/>
	<polygon points="18.439,19.846 20,20 18.462,19.694 	"/>
	<polygon points="18.432,20 20,20 18.439,19.846 	"/>
	<polygon points="18.439,20.154 20,20 18.432,20 	"/>
	<polygon points="18.462,20.306 20,20 18.439,20.154 	"/>
	<polygon points="18.5,20.455 20,20 18.462,20.306 	"/>
	<polygon points="18.551,20.6 20,20 18.5,20.455 	"/>
	<polygon points="18.617,20.739 20,20 18.551,20.6 	"/>
	<polygon points="18.696,20.871 20,20 18.617,20.739 	"/>
	<polygon points="18.788,20.994 20,20 18.696,20.871 	"/>
	<polygon points="18.891,21.109 20,20 18.788,20.994 	"/>
	<polygon points="19.005,21.212 20,20 18.891,21.109 	"/>
	<polygon points="19.129,21.304 20,20 19.005,21.212 	"/>
	<polygon points="19.261,21.383 20,20 19.129,21.304 	"/>
	<polygon points="19.4,21.449 20,20 19.261,21.383 	"/>
	<polygon points="19.545,21.5 20,20 19.4,21.449 	"/>
	<polygon points="19.694,21.538 20,20 19.545,21.5 	"/>
	<polygon points="19.846,21.561 20,20 19.694,21.538 	"/>
	<polygon points="20,21.568 20,20 19.846,21.561 	"/>
	<polygon points="20.154,21.561 20,20 20,21.568 	"/>
	<polygon points="20.306,21.538 20,20 20.154,21.561 	"/>
	<polygon points="20.455,21.5 20,20 20.306,21.538 	"/>
	<polygon points="20.6,21.449 20,20 20.455,21.5 	"/>
	<polygon points="20.739,21.383 20,20 20.6,21.449 	"/>
	<polygon points="20.871,21.304 20,20 20.739,21.383 	"/>
	<polygon points="20.994,21.212 20,20 20.871,21.304 	"/>
	<polygon points="21.109,21.109 20,20 20.994,21.212 	"/>
	<polygon points="21.212,20.994 20,20 21.109,21.109 	"/>
	<polygon points="21.304,20.871 20,20 21.212,20.994 	"/>
	<polygon points="21.383,20.739 20,20 21.304,20.871 	"/>
	<polygon points="21.449,20.6 20,20 21.383,20.739 	"/>
	<polygon points="21.5,20.455 20,20 21.449,20.6 	"/>
	<polygon points="21.538,20.306 20,20 21.5,20.455 	"/>
	<polygon points="21.561,20.154 20,20 21.538,20.306 	"/>
	<polygon points="21.568,20 20,20 21.561,20.154 	"/>
	<polyline fill="none" stroke="#000000" stroke-width="0.125" points="21.568,20 21.561,19.844 21.537,19.689 21.498,19.538 
		21.445,19.391 21.377,19.25 21.295,19.117 21.201,18.992 21.095,18.877 20.978,18.774 20.851,18.683 20.715,18.604 20.572,18.541 
		20.425,18.491 20.272,18.456 20.117,18.437 19.961,18.433 19.805,18.444 19.651,18.471 19.5,18.514 19.355,18.571 19.216,18.642 
		19.084,18.727 18.962,18.824 18.851,18.934 18.75,19.053 18.662,19.183 18.587,19.32 18.526,19.464 18.48,19.613 18.45,19.766 
		18.434,19.922 18.434,20.078 18.45,20.234 18.48,20.387 18.526,20.536 18.587,20.68 18.662,20.817 18.75,20.947 18.851,21.066 
		18.962,21.176 19.084,21.273 19.216,21.357 19.355,21.43 19.5,21.486 19.651,21.529 19.805,21.556 19.961,21.567 20.117,21.563 
		20.272,21.544 20.425,21.51 20.572,21.459 20.715,21.396 20.851,21.317 20.978,21.227 21.095,21.123 21.201,21.008 21.295,20.883 
		21.377,20.75 21.445,20.609 21.498,20.462 21.537,20.311 21.561,20.156 21.568,20 	"/>
</g>
</svg>
