<?xml version="1.0" encoding="UTF-8" standalone="no"?>
<svg xmlns="http://www.w3.org/2000/svg"
     xmlns:xlink="http://www.w3.org/1999/xlink"
     width="124px" height="40px" viewBox="0 0 124 40"
     style="stroke:none">
<title>Graphic window number 0</title>
<desc>
Creator: GL2PS 1.3.2, (C) 1999-2006 Christophe Geuzaine (geuz@geuz.org)
For: Scilab
CreationDate: Tue Oct 18 10:33:00 2011
</desc>
<defs>
</defs>
<polygon fill="#ffffff" points="0,0 124,0 124,40 0,40"/>
<g>
<polygon fill="#ffffff" points="42.4,39.6 42.4,0.400002 42.4,0.400002"/>
<polygon fill="#ffffff" points="42.4,39.6 42.4,0.400002 42.4,39.6"/>
<polygon fill="#ffffff" points="42.4,39.6 81.6,39.6 81.6,39.6"/>
<polygon fill="#ffffff" points="42.4,39.6 81.6,39.6 42.4,39.6"/>
<polygon fill="#ffffff" points="42.4,39.6 81.6,39.6 81.6,0.400002"/>
<polygon fill="#ffffff" points="42.4,39.6 81.6,0.400002 42.4,0.400002"/>
<polygon fill="#c0c0c0" points="0,40 23.2667,40 9.26667,0"/>
<polygon fill="#c0c0c0" points="0,40 9.26667,0 0,0"/>
<polygon fill="#c0c0c0" points="9.26667,0 23.2667,40 39.7867,40"/>
<polygon fill="#c0c0c0" points="9.26667,0 39.7867,40 39.7867,0"/>
<polyline fill="none" stroke="#000000" stroke-width="0.125" points="39.7867,40 39.7867,0"/>
<polyline fill="none" stroke="#000000" stroke-width="0.125" points="84.2133,0 84.2133,40"/>
<polygon fill="#c0c0c0" points="42.4,11.964 42.4,29.8 56.12,29.8"/>
<polygon fill="#c0c0c0" points="42.4,11.964 56.12,29.8 56.12,11.964"/>
<polyline fill="none" stroke="#000000" stroke-width="0.125" points="42.4,11.964 42.4,29.8 56.12,29.8 56.12,11.964 42.4,11.964"/>
<polygon fill="#000000" points="42.4,10.2 42.4,12.16 56.12,12.16"/>
<polygon fill="#000000" points="42.4,10.2 56.12,12.16 56.12,10.2"/>
<polyline fill="none" stroke="#000000" stroke-width="0.125" points="42.4,10.2 42.4,12.16 56.12,12.16 56.12,10.2 42.4,10.2"/>
<polygon fill="#c0c0c0" points="56.12,16.08 56.12,25.88 81.6,25.88"/>
<polygon fill="#c0c0c0" points="56.12,16.08 81.6,25.88 81.6,16.08"/>
<polyline fill="none" stroke="#000000" stroke-width="0.125" points="56.12,16.08 56.12,25.88 81.6,25.88 81.6,16.08 56.12,16.08"/>
<polygon fill="#000000" points="56.12,14.12 56.12,16.08 81.6,16.08"/>
<polygon fill="#000000" points="56.12,14.12 81.6,16.08 81.6,14.12"/>
<polyline fill="none" stroke="#000000" stroke-width="0.125" points="56.12,14.12 56.12,16.08 81.6,16.08 81.6,14.12 56.12,14.12"/>
<polyline fill="none" stroke="#000000" stroke-width="0.125" points="56.12,29.8 56.12,10.2"/>
<polyline fill="none" stroke="#000000" stroke-width="0.125" points="81.6,25.88 81.6,15.884"/>
<polygon fill="#c0c0c0" points="79.64,6.28 79.64,14.12 81.6,14.12"/>
<polygon fill="#c0c0c0" points="79.64,6.28 81.6,14.12 81.6,6.28"/>
<polyline fill="none" stroke="#000000" stroke-width="0.125" points="79.64,6.28 79.64,14.12 81.6,14.12 81.6,6.28 79.64,6.28"/>
<text fill="#808080" style="stroke:none" x="76" y="22" transform="rotate(0, 76, 22)" font-size="2" font-family="SansSerif" font-style="normal" font-weight="normal">b</text>
<text fill="#808080" style="stroke:none" x="46" y="21" transform="rotate(0, 46, 21)" font-size="2" font-family="SansSerif" font-style="normal" font-weight="normal">a</text>
<text fill="#000000" style="stroke:none" x="57" y="36" transform="rotate(0, 57, 36)" font-size="3" font-family="SansSerif" font-style="normal" font-weight="normal">n=[1,0]</text>
</g>
</svg>
