<?xml version="1.0" encoding="utf-8"?>
<!-- Generator: Adobe Illustrator 14.0.0, SVG Export Plug-In . SVG Version: 6.00 Build 43363)  -->
<!DOCTYPE svg PUBLIC "-//W3C//DTD SVG 1.1//EN" "http://www.w3.org/Graphics/SVG/1.1/DTD/svg11.dtd">
<svg version="1.1" id="Calque_1" xmlns="http://www.w3.org/2000/svg" xmlns:xlink="http://www.w3.org/1999/xlink" x="0px" y="0px"
	 width="40px" height="40px" viewBox="0 0 40 40" enable-background="new 0 0 40 40" xml:space="preserve">
<title>Graphic window number 0</title>
<desc>Creator: GL2PS 1.3.2, (C) 1999-2006 Christophe Geuzaine (geuz@geuz.org)
For: Scilab
CreationDate: Fri Sep 16 15:15:08 2011</desc>
<g>
	<polygon fill="#C0C0C0" points="16.08,18.04 16.08,21.96 23.92,21.96 	"/>
	<polygon fill="#C0C0C0" points="16.08,18.04 23.92,21.96 23.92,18.04 	"/>
	<polyline fill="none" stroke="#000000" stroke-width="0.125" points="16.08,18.04 16.08,21.96 23.92,21.96 23.92,18.04 
		16.08,18.04 	"/>
	<polygon fill="#C0C0C0" points="0.4,8.24 0.4,31.76 16.08,31.76 	"/>
	<polygon fill="#C0C0C0" points="0.4,8.24 16.08,31.76 16.08,8.24 	"/>
	<polyline fill="none" stroke="#000000" stroke-width="0.125" points="0.4,8.24 0.4,31.76 16.08,31.76 16.08,8.24 0.4,8.24 	"/>
	<polygon fill="#C0C0C0" points="23.92,8.24 23.92,31.76 39.6,31.76 	"/>
	<polygon fill="#C0C0C0" points="23.92,8.24 39.6,31.76 39.6,8.24 	"/>
	<polyline fill="none" stroke="#000000" stroke-width="0.125" points="23.92,8.24 23.92,31.76 39.6,31.76 39.6,8.24 23.92,8.24 	"/>
	<polyline fill="none" stroke="#000000" stroke-width="0.125" points="23.92,8.24 23.92,31.76 39.6,31.76 39.6,8.24 23.92,8.24 	"/>
	<text transform="matrix(1 0 0 1 5 21)" fill="#808080" font-family="'ArialMT'" font-size="2">a</text>
	<text transform="matrix(1 0 0 1 33 22)" fill="#808080" font-family="'ArialMT'" font-size="2">b</text>
</g>
</svg>
