<?xml version="1.0" encoding="utf-8"?>
<!-- Generator: Adobe Illustrator 14.0.0, SVG Export Plug-In . SVG Version: 6.00 Build 43363)  -->
<!DOCTYPE svg PUBLIC "-//W3C//DTD SVG 1.1//EN" "http://www.w3.org/Graphics/SVG/1.1/DTD/svg11.dtd">
<svg version="1.1" id="Calque_1" xmlns="http://www.w3.org/2000/svg" xmlns:xlink="http://www.w3.org/1999/xlink" x="0px" y="0px"
	 width="40px" height="40px" viewBox="0 0 40 40" enable-background="new 0 0 40 40" xml:space="preserve">
<title>Graphic window number 0</title>
<desc>Creator: GL2PS 1.3.2, (C) 1999-2006 Christophe Geuzaine (geuz@geuz.org)
For: Scilab
CreationDate: Fri Sep 16 15:14:32 2011</desc>
<polyline fill="#C0C0C0" points="0.8,29.4 14.519,29.4 0.8,11.564 "/>
<polyline fill="#C0C0C0" points="0.8,11.564 14.519,29.4 14.519,11.564 0.8,11.564 "/>
<polyline fill="none" stroke="#000000" stroke-width="0.125" points="0.8,29.4 14.519,29.4 14.519,11.564 0.8,11.564 "/>
<polyline points="0.8,11.76 14.519,11.76 0.8,9.8 "/>
<polyline points="0.8,9.8 14.519,11.76 14.519,9.8 0.8,9.8 "/>
<polyline fill="none" stroke="#000000" stroke-width="0.125" points="0.8,11.76 14.519,11.76 14.519,9.8 0.8,9.8 "/>
<polyline fill="#C0C0C0" points="40,25.48 14.519,15.68 14.519,25.48 40,25.48 "/>
<polyline fill="#C0C0C0" points="40,15.68 14.519,15.68 40,25.48 "/>
<line fill="none" stroke="#000000" stroke-width="0.125" x1="40" y1="15.68" x2="14.519" y2="15.68"/>
<polyline fill="none" stroke="#000000" stroke-width="0.125" points="14.519,15.68 14.519,25.48 40,25.48 "/>
<polyline points="40,15.68 14.519,13.72 14.519,15.68 40,15.68 "/>
<polyline points="40,13.72 14.519,13.72 40,15.68 "/>
<line fill="none" stroke="#000000" stroke-width="0.125" x1="40" y1="13.72" x2="14.519" y2="13.72"/>
<polyline fill="none" stroke="#000000" stroke-width="0.125" points="14.519,13.72 14.519,15.68 40,15.68 "/>
<line fill="none" stroke="#000000" stroke-width="0.125" x1="14.519" y1="29.4" x2="14.519" y2="9.8"/>
<polyline fill="#C0C0C0" points="40,13.72 38.04,5.88 38.04,13.72 40,13.72 "/>
<polyline fill="#C0C0C0" points="40,5.88 38.04,5.88 40,13.72 "/>
<line fill="none" stroke="#000000" stroke-width="0.125" x1="40" y1="5.88" x2="38.04" y2="5.88"/>
<polyline fill="none" stroke="#000000" stroke-width="0.125" points="38.04,5.88 38.04,13.72 40,13.72 "/>
<text transform="matrix(1 0 0 1 34.4001 21.5996)" fill="#808080" font-family="'ArialMT'" font-size="2">b</text>
<text transform="matrix(1 0 0 1 4.3997 20.5996)" fill="#808080" font-family="'ArialMT'" font-size="2">a</text>
<text transform="matrix(1 0 0 1 15.3997 35.5996)" font-family="'ArialMT'" font-size="3">n=[1,0]</text>
</svg>
