<?xml version="1.0" encoding="utf-8"?>
<!-- Generator: Adobe Illustrator 14.0.0, SVG Export Plug-In . SVG Version: 6.00 Build 43363)  -->
<!DOCTYPE svg PUBLIC "-//W3C//DTD SVG 1.1//EN" "http://www.w3.org/Graphics/SVG/1.1/DTD/svg11.dtd">
<svg version="1.1" id="Calque_1" xmlns="http://www.w3.org/2000/svg" xmlns:xlink="http://www.w3.org/1999/xlink" x="0px" y="0px"
	 width="40px" height="40px" viewBox="0 0 40 40" enable-background="new 0 0 40 40" xml:space="preserve">
<rect x="18.041" y="0.4" fill="#C0C0C0" stroke="#000000" stroke-width="0.125" width="3.92" height="9.8"/>
<title>Graphic window number 0</title>
<desc>Creator: GL2PS 1.3.2, (C) 1999-2006 Christophe Geuzaine (geuz@geuz.org)
For: Scilab
CreationDate: Fri Sep 16 15:15:09 2011</desc>
<rect x="0.4" y="8.524" fill="#C0C0C0" stroke="#000000" stroke-width="0.125" width="13.72" height="23.52"/>
<rect x="25.854" y="8.524" fill="#C0C0C0" stroke="#000000" stroke-width="0.125" width="13.721" height="23.52"/>
<g>
	<path fill="#C0C0C0" d="M20,0.4"/>
	<path fill="#C0C0C0" d="M20,0.4"/>
	<path fill="#C0C0C0" d="M20,0.4"/>
	<path fill="#C0C0C0" d="M20,0.4"/>
	<path fill="none" stroke="#000000" stroke-width="0.125" d="M25.88,8.24"/>
	<line fill="none" stroke="#000000" stroke-width="0.125" x1="16.08" y1="6.28" x2="8.24" y2="6.28"/>
	<line fill="none" stroke="#000000" stroke-width="0.125" x1="16.08" y1="4.32" x2="16.08" y2="8.24"/>
	<line fill="none" stroke="#000000" stroke-width="0.125" x1="23.92" y1="4.32" x2="23.92" y2="8.24"/>
	<line fill="none" stroke="#000000" stroke-width="0.125" x1="23.92" y1="6.28" x2="28.036" y2="6.28"/>
	<line fill="none" stroke="#000000" stroke-width="0.125" x1="8.24" y1="8.24" x2="8.24" y2="2.36"/>
	<text transform="matrix(1 0 0 1 5 21)" fill="#808080" font-family="'ArialMT'" font-size="2">a</text>
	<text transform="matrix(1 0 0 1 33 22)" fill="#808080" font-family="'ArialMT'" font-size="2">b</text>
</g>
<rect x="14.12" y="17.942" fill="#C0C0C0" stroke="#000000" stroke-width="0.125" width="7.84" height="4.117"/>
<polygon fill="#C0C0C0" stroke="#000000" stroke-width="0.125" points="14.349,10.276 25.652,10.276 21.885,14.044 18.117,14.044 
	"/>
<polygon fill="#C0C0C0" stroke="#000000" stroke-width="0.125" points="25.805,10.2 25.805,29.062 22.037,25.75 22.037,13.968 "/>
</svg>
