<?xml version="1.0" encoding="utf-8"?>
<!-- Generator: Adobe Illustrator 14.0.0, SVG Export Plug-In . SVG Version: 6.00 Build 43363)  -->
<!DOCTYPE svg PUBLIC "-//W3C//DTD SVG 1.1//EN" "http://www.w3.org/Graphics/SVG/1.1/DTD/svg11.dtd">
<svg version="1.1" id="Calque_1" xmlns="http://www.w3.org/2000/svg" xmlns:xlink="http://www.w3.org/1999/xlink" x="0px" y="0px"
	 width="40px" height="40px" viewBox="0 0 40 40" enable-background="new 0 0 40 40" xml:space="preserve">
<title>Graphic window number 0</title>
<desc>Creator: GL2PS 1.3.2, (C) 1999-2006 Christophe Geuzaine (geuz@geuz.org)
For: Scilab
CreationDate: Fri Sep 16 15:15:10 2011</desc>
<g>
	<polygon fill="#FF7F00" points="0.4,11.964 0.4,29.8 14.12,29.8 	"/>
	<polygon fill="#FF7F00" points="0.4,11.964 14.12,29.8 14.12,11.964 	"/>
	<polyline fill="none" stroke="#000000" stroke-width="0.125" points="0.4,11.964 0.4,29.8 14.12,29.8 14.12,11.964 0.4,11.964 	"/>
	<polygon points="0.4,10.2 0.4,12.16 14.12,12.16 	"/>
	<polygon points="0.4,10.2 14.12,12.16 14.12,10.2 	"/>
	<polyline fill="none" stroke="#000000" stroke-width="0.125" points="0.4,10.2 0.4,12.16 14.12,12.16 14.12,10.2 0.4,10.2 	"/>
	<polygon fill="#FF7F00" points="14.12,16.08 14.12,25.88 39.6,25.88 	"/>
	<polygon fill="#FF7F00" points="14.12,16.08 39.6,25.88 39.6,16.08 	"/>
	<polyline fill="none" stroke="#000000" stroke-width="0.125" points="14.12,16.08 14.12,25.88 39.6,25.88 39.6,16.08 14.12,16.08 	
		"/>
	<polygon points="14.12,14.12 14.12,16.08 39.6,16.08 	"/>
	<polygon points="14.12,14.12 39.6,16.08 39.6,14.12 	"/>
	<polyline fill="none" stroke="#000000" stroke-width="0.125" points="14.12,14.12 14.12,16.08 39.6,16.08 39.6,14.12 14.12,14.12 	
		"/>
	<line fill="none" stroke="#000000" stroke-width="0.125" x1="14.12" y1="29.8" x2="14.12" y2="10.2"/>
	<line fill="none" stroke="#000000" stroke-width="0.125" x1="39.6" y1="25.88" x2="39.6" y2="15.884"/>
	<polygon fill="#C0C0C0" points="37.641,6.28 37.641,14.12 39.6,14.12 	"/>
	<polygon fill="#C0C0C0" points="37.641,6.28 39.6,14.12 39.6,6.28 	"/>
	<polyline fill="none" stroke="#000000" stroke-width="0.125" points="37.641,6.28 37.641,14.12 39.6,14.12 39.6,6.28 37.641,6.28 	
		"/>
	<text transform="matrix(1 0 0 1 34 22)" fill="#808080" font-family="'ArialMT'" font-size="2">b</text>
	<text transform="matrix(1 0 0 1 4 21)" fill="#808080" font-family="'ArialMT'" font-size="2">a</text>
	<text transform="matrix(1 0 0 1 12 36)" font-family="'ArialMT'" font-size="4">n=[1,0]</text>
</g>
</svg>
