<?xml version="1.0" encoding="UTF-8" standalone="no"?>
<svg xmlns="http://www.w3.org/2000/svg"
     xmlns:xlink="http://www.w3.org/1999/xlink"
     width="40px" height="40px" viewBox="0 0 40 40"
     style="stroke:none">
<title>Graphic window number 0</title>
<desc>
Creator: GL2PS 1.3.2, (C) 1999-2006 Christophe Geuzaine (geuz@geuz.org)
For: Scilab
CreationDate: Fri Sep 16 15:15:10 2011
</desc>
<defs>
</defs>
<polygon fill="#ffffff" points="0,0 40,0 40,40 0,40"/>
<g>
<polygon fill="#ffffff" points="0.399902,39.6001 0.399902,0.399902 0.399902,0.399902"/>
<polygon fill="#ffffff" points="0.399902,39.6001 0.399902,0.399902 0.399902,39.6001"/>
<polygon fill="#ffffff" points="0.399902,39.6001 39.6001,39.6001 39.6001,39.6001"/>
<polygon fill="#ffffff" points="0.399902,39.6001 39.6001,39.6001 0.399902,39.6001"/>
<polygon fill="#ffffff" points="0.399902,39.6001 39.6001,39.6001 39.6001,0.399902"/>
<polygon fill="#ffffff" points="0.399902,39.6001 39.6001,0.399902 0.399902,0.399902"/>
<polygon fill="#ff7f00" points="0.399902,11.9639 0.399902,29.7998 14.1201,29.7998"/>
<polygon fill="#ff7f00" points="0.399902,11.9639 14.1201,29.7998 14.1201,11.9639"/>
<polyline fill="none" stroke="#000000" stroke-width="0.125" points="0.399902,11.9639 0.399902,29.7998 14.1201,29.7998 14.1201,11.9639 0.399902,11.9639"/>
<polygon fill="#000000" points="0.399902,10.2002 0.399902,12.1602 14.1201,12.1602"/>
<polygon fill="#000000" points="0.399902,10.2002 14.1201,12.1602 14.1201,10.2002"/>
<polyline fill="none" stroke="#000000" stroke-width="0.125" points="0.399902,10.2002 0.399902,12.1602 14.1201,12.1602 14.1201,10.2002 0.399902,10.2002"/>
<polygon fill="#ff7f00" points="14.1201,16.0801 14.1201,25.8799 39.6001,25.8799"/>
<polygon fill="#ff7f00" points="14.1201,16.0801 39.6001,25.8799 39.6001,16.0801"/>
<polyline fill="none" stroke="#000000" stroke-width="0.125" points="14.1201,16.0801 14.1201,25.8799 39.6001,25.8799 39.6001,16.0801 14.1201,16.0801"/>
<polygon fill="#000000" points="14.1201,14.1201 14.1201,16.0801 39.6001,16.0801"/>
<polygon fill="#000000" points="14.1201,14.1201 39.6001,16.0801 39.6001,14.1201"/>
<polyline fill="none" stroke="#000000" stroke-width="0.125" points="14.1201,14.1201 14.1201,16.0801 39.6001,16.0801 39.6001,14.1201 14.1201,14.1201"/>
<polyline fill="none" stroke="#000000" stroke-width="0.125" points="14.1201,29.7998 14.1201,10.2002"/>
<polyline fill="none" stroke="#000000" stroke-width="0.125" points="39.6001,25.8799 39.6001,15.8838"/>
<text fill="#808080" style="stroke:none" x="34" y="22" transform="rotate(0, 34, 22)" font-size="2" font-family="SansSerif" font-style="normal" font-weight="normal">b</text>
<text fill="#808080" style="stroke:none" x="4" y="21" transform="rotate(0, 4, 21)" font-size="2" font-family="SansSerif" font-style="normal" font-weight="normal">a</text>
<text fill="#000000" style="stroke:none" x="11" y="6" transform="rotate(0, 11, 6)" font-size="4" font-family="SansSerif" font-style="normal" font-weight="normal">n=[1,0]</text>
</g>
</svg>
