<?xml version="1.0" encoding="utf-8"?>
<!-- Generator: Adobe Illustrator 14.0.0, SVG Export Plug-In . SVG Version: 6.00 Build 43363)  -->
<!DOCTYPE svg PUBLIC "-//W3C//DTD SVG 1.1//EN" "http://www.w3.org/Graphics/SVG/1.1/DTD/svg11.dtd">
<svg version="1.1" id="Calque_1" xmlns="http://www.w3.org/2000/svg" xmlns:xlink="http://www.w3.org/1999/xlink" x="0px" y="0px"
	 width="40px" height="40px" viewBox="0 0 40 40" enable-background="new 0 0 40 40" xml:space="preserve">
<title>Graphic window number 0</title>
<desc>Creator: GL2PS 1.3.2, (C) 1999-2006 Christophe Geuzaine (geuz@geuz.org)
For: Scilab
CreationDate: Fri Sep 16 15:15:11 2011</desc>
<rect x="0.413" y="11.524" fill="#FF7F00" stroke="#1A171B" stroke-width="0.125" width="13.72" height="23.52"/>
<rect x="25.866" y="11.524" fill="#FF7F00" stroke="#1A171B" stroke-width="0.125" width="13.721" height="23.52"/>
<path fill="none" stroke="#000000" stroke-width="0.125" d="M25.893,11.24"/>
<line fill="none" stroke="#000000" stroke-width="0.125" x1="16.093" y1="9.28" x2="8.253" y2="9.28"/>
<line fill="none" stroke="#000000" stroke-width="0.125" x1="16.093" y1="7.32" x2="16.093" y2="11.24"/>
<line fill="none" stroke="#000000" stroke-width="0.125" x1="23.933" y1="7.32" x2="23.933" y2="11.24"/>
<line fill="none" stroke="#000000" stroke-width="0.125" x1="23.933" y1="9.28" x2="28.049" y2="9.28"/>
<line fill="none" stroke="#000000" stroke-width="0.125" x1="8.253" y1="11.24" x2="8.253" y2="5.36"/>
<text transform="matrix(1 0 0 1 5.0127 24)" fill="#808080" font-family="'ArialMT'" font-size="2">a</text>
<text transform="matrix(1 0 0 1 33.0127 25)" fill="#808080" font-family="'ArialMT'" font-size="2">b</text>
<rect x="14.133" y="20.941" fill="#C0C0C0" stroke="#000000" stroke-width="0.125" width="7.84" height="4.117"/>
<polygon fill="#C0C0C0" stroke="#000000" stroke-width="0.125" points="14.362,13.276 25.665,13.276 21.897,17.044 18.13,17.044 "/>
<polygon fill="#C0C0C0" stroke="#000000" stroke-width="0.125" points="25.817,13.2 25.817,32.062 22.05,28.75 22.05,16.968 "/>
<rect x="18.129" y="3.4" fill="#C0C0C0" stroke="#000000" stroke-width="0.125" width="3.92" height="9.8"/>
</svg>
