<?xml version="1.0" encoding="utf-8"?>
<!-- Generator: Adobe Illustrator 14.0.0, SVG Export Plug-In . SVG Version: 6.00 Build 43363)  -->
<!DOCTYPE svg PUBLIC "-//W3C//DTD SVG 1.1//EN" "http://www.w3.org/Graphics/SVG/1.1/DTD/svg11.dtd">
<svg version="1.1" id="Calque_1" xmlns="http://www.w3.org/2000/svg" xmlns:xlink="http://www.w3.org/1999/xlink" x="0px" y="0px"
	 width="40px" height="40px" viewBox="0 0 40 40" enable-background="new 0 0 40 40" xml:space="preserve">
<title>Graphic window number 0</title>
<desc>Creator: GL2PS 1.3.2, (C) 1999-2006 Christophe Geuzaine (geuz@geuz.org)
For: Scilab
CreationDate: Fri Sep 16 15:15:11 2011</desc>
<g>
	<polygon points="0.4,19.02 0.4,20.784 39.6,20.784 	"/>
	<polygon points="0.4,19.02 39.6,20.784 39.6,19.02 	"/>
	<polyline fill="none" stroke="#000000" stroke-width="0.125" points="0.4,19.02 0.4,20.784 39.6,20.784 39.6,19.02 0.4,19.02 	"/>
	<line fill="none" stroke="#000000" stroke-width="0.125" x1="33.273" y1="16.08" x2="37.594" y2="13.435"/>
	<line fill="none" stroke="#000000" stroke-width="0.125" x1="33.273" y1="16.08" x2="28.766" y2="8.436"/>
	<polygon points="26.609,10.2 30.922,7.26 26.021,4.32 	"/>
	<polyline fill="none" stroke="#000000" stroke-width="0.125" points="26.021,4.32 26.609,10.2 30.922,7.26 26.021,4.32 	"/>
	<text transform="matrix(1 0 0 1 12 35)" font-family="'ArialMT'" font-size="4">r=[0,0]</text>
	<text transform="matrix(1 0 0 1 0.9688 13.9375)" fill="#808080" font-family="'ArialMT'" font-size="2">a</text>
	<text transform="matrix(1 0 0 1 37.5 29.2188)" fill="#808080" font-family="'ArialMT'" font-size="2">b</text>
</g>
</svg>
