<?xml version="1.0" encoding="utf-8"?>
<!-- Generator: Adobe Illustrator 14.0.0, SVG Export Plug-In . SVG Version: 6.00 Build 43363)  -->
<!DOCTYPE svg PUBLIC "-//W3C//DTD SVG 1.1//EN" "http://www.w3.org/Graphics/SVG/1.1/DTD/svg11.dtd">
<svg version="1.1" id="Calque_1" xmlns="http://www.w3.org/2000/svg" xmlns:xlink="http://www.w3.org/1999/xlink" x="0px" y="0px"
	 width="40px" height="40px" viewBox="0 0 40 40" enable-background="new 0 0 40 40" xml:space="preserve">
<title>Graphic window number 0</title>
<desc>Creator: GL2PS 1.3.2, (C) 1999-2006 Christophe Geuzaine (geuz@geuz.org)
For: Scilab
CreationDate: Fri Sep 16 15:14:59 2011</desc>
<g>
	<polygon fill="#C0C0C0" points="0.4,18.04 0.4,21.96 16.08,21.96 	"/>
	<polygon fill="#C0C0C0" points="0.4,18.04 16.08,21.96 16.08,18.04 	"/>
	<polyline fill="none" stroke="#000000" stroke-width="0.125" points="0.4,18.04 0.4,21.96 16.08,21.96 16.08,18.04 0.4,18.04 	"/>
	<polygon fill="#C0C0C0" points="16.08,8.24 16.08,31.76 23.92,31.76 	"/>
	<polygon fill="#C0C0C0" points="16.08,8.24 23.92,31.76 23.92,8.24 	"/>
	<polyline fill="none" stroke="#000000" stroke-width="0.125" points="16.08,8.24 16.08,31.76 23.92,31.76 23.92,8.24 16.08,8.24 	
		"/>
	<polygon fill="#C0C0C0" points="23.92,18.04 23.92,21.96 39.6,21.96 	"/>
	<polygon fill="#C0C0C0" points="23.92,18.04 39.6,21.96 39.6,18.04 	"/>
	<polyline fill="none" stroke="#000000" stroke-width="0.125" points="23.92,18.04 23.92,21.96 39.6,21.96 39.6,18.04 23.92,18.04 	
		"/>
	<polygon fill="#0000FF" points="33.721,25.88 33.721,29.8 27.84,27.84 	"/>
	<polyline fill="none" stroke="#0000FF" stroke-width="0.125" points="27.84,27.84 33.721,25.88 33.721,29.8 27.84,27.84 	"/>
	<polygon points="25.88,24.9 25.88,30.779 27.84,30.779 	"/>
	<polygon points="25.88,24.9 27.84,30.779 27.84,24.9 	"/>
	<polyline fill="none" stroke="#000000" stroke-width="0.125" points="25.88,24.9 25.88,30.779 27.84,30.779 27.84,24.9 25.88,24.9 
			"/>
	<polygon fill="#0000FF" points="6.28,29.8 12.16,27.84 6.28,25.88 	"/>
	<polyline fill="none" stroke="#0000FF" stroke-width="0.125" points="12.16,27.84 6.28,25.88 6.28,29.8 12.16,27.84 	"/>
	<polygon points="12.16,24.9 12.16,30.779 14.12,30.779 	"/>
	<polygon points="12.16,24.9 14.12,30.779 14.12,24.9 	"/>
	<polyline fill="none" stroke="#000000" stroke-width="0.125" points="12.16,24.9 12.16,30.779 14.12,30.779 14.12,24.9 12.16,24.9 
			"/>
	<polyline fill="none" stroke="#0000FF" stroke-width="0.125" points="20,2.36 35.68,6.28 35.68,27.84 33.721,27.84 	"/>
	<polyline fill="none" stroke="#0000FF" stroke-width="0.125" points="20,2.36 4.32,6.28 4.32,27.84 6.28,27.84 	"/>
</g>
</svg>
