<?xml version="1.0" encoding="utf-8"?>
<!-- Generator: Adobe Illustrator 14.0.0, SVG Export Plug-In . SVG Version: 6.00 Build 43363)  -->
<!DOCTYPE svg PUBLIC "-//W3C//DTD SVG 1.1//EN" "http://www.w3.org/Graphics/SVG/1.1/DTD/svg11.dtd">
<svg version="1.1" id="Calque_2" xmlns="http://www.w3.org/2000/svg" xmlns:xlink="http://www.w3.org/1999/xlink" x="0px" y="0px"
	 width="40px" height="40px" viewBox="0 0 40 40" enable-background="new 0 0 40 40" xml:space="preserve">
<rect x="5.208" y="3.042" fill="#A0A0A0" stroke="#000000" width="29.583" height="31.667"/>
<rect x="5.333" y="5.25" fill="#C0C0C0" stroke="#000000" width="2.75" height="27.667"/>
<rect x="8.207" y="7.292" fill="#C0C0C0" stroke="#000000" width="23.459" height="2.332"/>
<rect x="8.249" y="14.417" fill="#C0C0C0" stroke="#000000" width="23.459" height="2.332"/>
<rect x="8.416" y="21.168" fill="#C0C0C0" stroke="#000000" width="23.459" height="2.331"/>
<rect x="8.166" y="28.043" fill="#C0C0C0" stroke="#000000" width="23.459" height="2.331"/>
<rect x="31.875" y="5.167" fill="#C0C0C0" stroke="#000000" width="2.75" height="27.667"/>
<rect x="10.042" y="8.875" fill="#FFFFFF" stroke="#000000" width="19.792" height="6.333"/>
<rect x="10.083" y="22.416" fill="#FFFFFF" stroke="#000000" width="19.792" height="6.334"/>
<rect x="0.157" y="16.958" fill="#C0C0C0" stroke="#000000" width="39.686" height="4.125"/>
<line fill="none" stroke="#000000" x1="14.499" y1="39" x2="18.958" y2="34.539"/>
<line fill="none" stroke="#000000" x1="16.73" y1="39" x2="21.189" y2="34.539"/>
<line fill="none" stroke="#000000" x1="18.958" y1="39" x2="23.417" y2="34.539"/>
<line fill="none" stroke="#000000" x1="22.689" y1="37.375" x2="25.209" y2="34.853"/>
<line fill="none" stroke="#000000" x1="14.499" y1="36.77" x2="16.73" y2="34.539"/>
</svg>
