<?xml version="1.0" encoding="utf-8"?>
<!-- Generator: Adobe Illustrator 14.0.0, SVG Export Plug-In . SVG Version: 6.00 Build 43363)  -->
<!DOCTYPE svg PUBLIC "-//W3C//DTD SVG 1.1//EN" "http://www.w3.org/Graphics/SVG/1.1/DTD/svg11.dtd">
<svg version="1.1" id="Calque_1" xmlns="http://www.w3.org/2000/svg" xmlns:xlink="http://www.w3.org/1999/xlink" x="0px" y="0px"
	 width="40px" height="40px" viewBox="0 0 40 40" enable-background="new 0 0 40 40" xml:space="preserve">
<title>Graphic window number 0</title>
<desc>Creator: GL2PS 1.3.2, (C) 1999-2006 Christophe Geuzaine (geuz@geuz.org)
For: Scilab
CreationDate: Fri Sep 16 15:15:00 2011</desc>
<g>
	<path fill="#C0C0C0" d="M0.4,20"/>
	<path fill="#C0C0C0" d="M0.4,20"/>
	<path fill="#C0C0C0" d="M0.4,20"/>
	<polygon fill="#0000FF" points="8.24,14.12 14.12,12.16 8.24,10.2 	"/>
	<polyline fill="none" stroke="#0000FF" stroke-width="0.125" points="14.12,12.16 8.24,10.2 8.24,14.12 14.12,12.16 	"/>
	<polyline fill="none" stroke="#0000FF" stroke-width="0.125" points="20,2.36 2.36,6.28 2.36,12.16 14.12,12.16 	"/>
	<polyline fill="none" stroke="#0000FF" stroke-width="0.125" points="20,2.36 37.641,6.28 37.641,12.16 25.88,12.16 	"/>
	<polygon fill="#0000FF" points="31.76,10.2 31.76,14.12 25.88,12.16 	"/>
	<polyline fill="none" stroke="#0000FF" stroke-width="0.125" points="25.88,12.16 31.76,10.2 31.76,14.12 25.88,12.16 	"/>
	<polygon fill="#C0C0C0" points="21.96,8.24 21.96,31.76 25.88,31.76 	"/>
	<polygon fill="#C0C0C0" points="21.96,8.24 25.88,31.76 25.88,8.24 	"/>
	<polyline fill="none" stroke="#000000" stroke-width="0.125" points="21.96,8.24 21.96,31.76 25.88,31.76 25.88,8.24 21.96,8.24 	
		"/>
	<polygon fill="#C0C0C0" points="14.12,8.24 14.12,31.76 18.04,31.76 	"/>
	<polygon fill="#C0C0C0" points="14.12,8.24 18.04,31.76 18.04,8.24 	"/>
	<polyline fill="none" stroke="#000000" stroke-width="0.125" points="14.12,8.24 14.12,31.76 18.04,31.76 18.04,8.24 14.12,8.24 	
		"/>
	<polygon fill="#C0C0C0" points="25.88,18.04 25.88,21.96 39.6,21.96 	"/>
	<polygon fill="#C0C0C0" points="25.88,18.04 39.6,21.96 39.6,18.04 	"/>
	<polyline fill="none" stroke="#000000" stroke-width="0.125" points="25.88,18.04 25.88,21.96 39.6,21.96 39.6,18.04 25.88,18.04 	
		"/>
	<polygon fill="#C0C0C0" points="0.4,18.04 0.4,21.96 14.12,21.96 	"/>
	<polygon fill="#C0C0C0" points="0.4,18.04 14.12,21.96 14.12,18.04 	"/>
	<polyline fill="none" stroke="#000000" stroke-width="0.125" points="0.4,18.04 0.4,21.96 14.12,21.96 14.12,18.04 0.4,18.04 	"/>
	<polygon points="18.04,14.12 29.8,20 18.04,25.88 	"/>
	<polyline fill="none" stroke="#000000" stroke-width="0.125" points="18.04,14.12 29.8,20 18.04,25.88 18.04,14.12 	"/>
</g>
</svg>
