<?xml version="1.0" encoding="utf-8"?>
<!-- Generator: Adobe Illustrator 14.0.0, SVG Export Plug-In . SVG Version: 6.00 Build 43363)  -->
<!DOCTYPE svg PUBLIC "-//W3C//DTD SVG 1.1//EN" "http://www.w3.org/Graphics/SVG/1.1/DTD/svg11.dtd">
<svg version="1.1" id="Calque_1" xmlns="http://www.w3.org/2000/svg" xmlns:xlink="http://www.w3.org/1999/xlink" x="0px" y="0px"
	 width="40px" height="40px" viewBox="0 0 40 40" enable-background="new 0 0 40 40" xml:space="preserve">
<title>Graphic window number 0</title>
<desc>Creator: GL2PS 1.3.2, (C) 1999-2006 Christophe Geuzaine (geuz@geuz.org)
For: Scilab
CreationDate: Fri Sep 16 15:14:59 2011</desc>
<g>
	<path fill="#C0C0C0" d="M0.4,20"/>
	<path fill="#C0C0C0" d="M0.4,20"/>
	<path fill="#C0C0C0" d="M0.4,20"/>
	<path fill="#C0C0C0" d="M0.4,20"/>
	<polygon fill="#C0C0C0" points="0.4,18.04 0.4,21.96 39.6,21.96 	"/>
	<polygon fill="#C0C0C0" points="0.4,18.04 39.6,21.96 39.6,18.04 	"/>
	<polyline fill="none" stroke="#000000" stroke-width="0.125" points="0.4,18.04 0.4,21.96 39.6,21.96 39.6,18.04 0.4,18.04 	"/>
	<polyline fill="none" stroke="#000000" stroke-width="0.125" points="8.24,21.96 8.24,31.76 31.76,31.76 31.76,21.96 8.24,21.96 	
		"/>
	<polygon fill="#C0C0C0" points="8.24,21.96 8.24,24.9 31.76,24.9 	"/>
	<polygon fill="#C0C0C0" points="8.24,21.96 31.76,24.9 31.76,21.96 	"/>
	<polyline fill="none" stroke="#000000" stroke-width="0.125" points="8.24,21.96 8.24,24.9 31.76,24.9 31.76,21.96 8.24,21.96 	"/>
	<polygon fill="#C0C0C0" points="8.24,28.82 8.24,31.956 31.76,31.956 	"/>
	<polygon fill="#C0C0C0" points="8.24,28.82 31.76,31.956 31.76,28.82 	"/>
	<polyline fill="none" stroke="#000000" stroke-width="0.125" points="8.24,28.82 8.24,31.956 31.76,31.956 31.76,28.82 8.24,28.82 
			"/>
	<polygon fill="#FFFFFF" points="10.2,23.527 10.2,29.8 29.8,29.8 	"/>
	<polygon fill="#FFFFFF" points="10.2,23.527 29.8,29.8 29.8,23.527 	"/>
	<polyline fill="none" stroke="#000000" stroke-width="0.125" points="10.2,23.527 10.2,29.8 29.8,29.8 29.8,23.527 10.2,23.527 	
		"/>
	<polygon fill="#A0A0A0" points="8.24,33.721 8.24,31.76 31.76,31.76 	"/>
	<polygon fill="#A0A0A0" points="31.76,33.721 8.24,33.721 31.76,31.76 	"/>
	<polygon fill="#A0A0A0" points="34.7,35.68 8.24,33.721 31.76,33.721 	"/>
	<polygon fill="#A0A0A0" points="34.7,33.721 34.7,35.68 31.76,33.721 	"/>
	<polygon fill="#A0A0A0" points="8.24,33.721 5.3,35.68 5.3,33.721 	"/>
	<polygon fill="#A0A0A0" points="34.7,35.68 5.3,35.68 8.24,33.721 	"/>
	<polyline fill="none" stroke="#000000" stroke-width="0.125" points="31.76,31.76 31.76,33.721 34.7,33.721 34.7,35.68 5.3,35.68 
		5.3,33.721 8.24,33.721 8.24,31.76 31.76,31.76 	"/>
	<line fill="none" stroke="#000000" stroke-width="0.125" x1="5.3" y1="21.96" x2="5.3" y2="33.721"/>
	<line fill="none" stroke="#000000" stroke-width="0.125" x1="34.7" y1="21.96" x2="34.7" y2="33.721"/>
	<polyline fill="none" stroke="#000000" stroke-width="0.125" points="8.24,8.24 8.24,18.04 31.76,18.04 31.76,8.24 8.24,8.24 	"/>
	<polygon fill="#C0C0C0" points="8.24,8.24 8.24,11.18 31.76,11.18 	"/>
	<polygon fill="#C0C0C0" points="8.24,8.24 31.76,11.18 31.76,8.24 	"/>
	<polyline fill="none" stroke="#000000" stroke-width="0.125" points="8.24,8.24 8.24,11.18 31.76,11.18 31.76,8.24 8.24,8.24 	"/>
	<polygon fill="#C0C0C0" points="8.24,15.1 8.24,18.04 31.76,18.04 	"/>
	<polygon fill="#C0C0C0" points="8.24,15.1 31.76,18.04 31.76,15.1 	"/>
	<polyline fill="none" stroke="#000000" stroke-width="0.125" points="8.24,15.1 8.24,18.04 31.76,18.04 31.76,15.1 8.24,15.1 	"/>
	<polygon fill="#FFFFFF" points="10.2,10.004 10.2,16.276 29.8,16.276 	"/>
	<polygon fill="#FFFFFF" points="10.2,10.004 29.8,16.276 29.8,10.004 	"/>
	<polyline fill="none" stroke="#000000" stroke-width="0.125" points="10.2,10.004 10.2,16.276 29.8,16.276 29.8,10.004 
		10.2,10.004 	"/>
	<line fill="none" stroke="#000000" stroke-width="0.125" x1="5.3" y1="6.28" x2="5.3" y2="18.04"/>
	<polygon fill="#A0A0A0" points="8.24,6.28 8.24,8.24 31.76,8.24 	"/>
	<polygon fill="#A0A0A0" points="31.76,6.28 8.24,6.28 31.76,8.24 	"/>
	<polygon fill="#A0A0A0" points="34.7,4.32 8.24,6.28 31.76,6.28 	"/>
	<polygon fill="#A0A0A0" points="34.7,6.28 34.7,4.32 31.76,6.28 	"/>
	<polygon fill="#A0A0A0" points="8.24,6.28 5.3,4.32 5.3,6.28 	"/>
	<polygon fill="#A0A0A0" points="34.7,4.32 5.3,4.32 8.24,6.28 	"/>
	<polyline fill="none" stroke="#000000" stroke-width="0.125" points="31.76,8.24 31.76,6.28 34.7,6.28 34.7,4.32 5.3,4.32 
		5.3,6.28 8.24,6.28 8.24,8.24 31.76,8.24 	"/>
	<line fill="none" stroke="#000000" stroke-width="0.125" x1="34.7" y1="6.28" x2="34.7" y2="18.04"/>
	<line fill="none" stroke="#000000" stroke-width="0.125" x1="18.04" y1="37.641" x2="20" y2="35.68"/>
	<line fill="none" stroke="#000000" stroke-width="0.125" x1="19.02" y1="37.641" x2="20.98" y2="35.68"/>
	<line fill="none" stroke="#000000" stroke-width="0.125" x1="20" y1="37.641" x2="21.96" y2="35.68"/>
	<line fill="none" stroke="#000000" stroke-width="0.125" x1="20.98" y1="37.641" x2="21.96" y2="36.66"/>
	<line fill="none" stroke="#000000" stroke-width="0.125" x1="18.04" y1="36.66" x2="19.02" y2="35.68"/>
</g>
</svg>
