<?xml version="1.0" encoding="utf-8"?>
<!-- Generator: Adobe Illustrator 14.0.0, SVG Export Plug-In . SVG Version: 6.00 Build 43363)  -->
<!DOCTYPE svg PUBLIC "-//W3C//DTD SVG 1.1//EN" "http://www.w3.org/Graphics/SVG/1.1/DTD/svg11.dtd">
<svg version="1.1"
	 id="Calque_1" xmlns:cc="http://creativecommons.org/ns#" xmlns:dc="http://purl.org/dc/elements/1.1/" xmlns:rdf="http://www.w3.org/1999/02/22-rdf-syntax-ns#" xmlns:svg="http://www.w3.org/2000/svg" xmlns:sodipodi="http://sodipodi.sourceforge.net/DTD/sodipodi-0.dtd" xmlns:inkscape="http://www.inkscape.org/namespaces/inkscape" sodipodi:docname="CMRC_ElastoBacklash.svg" inkscape:version="0.48.2 r9819"
	 xmlns="http://www.w3.org/2000/svg" xmlns:xlink="http://www.w3.org/1999/xlink" x="0px" y="0px" width="40px" height="40px"
	 viewBox="0 0 40 40" enable-background="new 0 0 40 40" xml:space="preserve">
<polyline id="polyline9" fill="none" stroke="#000000" stroke-width="1.125" stroke-linecap="square" points="4.07,11.355 
	8.468,11.355 10.467,17.627 13.266,5.671 16.065,17.627 18.465,5.867 20.064,11.747 24.062,11.747 "/>
<polyline id="polyline15" fill="none" stroke="#000000" stroke-width="1.125" points="8.24,25.96 8.24,33.8 18.04,33.8 18.04,25.96 
	8.24,25.96 "/>
<line id="line17" fill="none" stroke="#000000" stroke-width="1.125" x1="8.24" y1="33.8" x2="20" y2="33.8"/>
<line id="line19" fill="none" stroke="#000000" stroke-width="1.125" x1="7.687" y1="25.96" x2="20" y2="25.96"/>
<line id="line21" fill="none" stroke="#000000" stroke-width="1.125" x1="18.04" y1="29.88" x2="23.92" y2="29.88"/>
<line id="line23" fill="none" stroke="#000000" stroke-width="1.125" stroke-linecap="square" x1="4.062" y1="29.88" x2="8.24" y2="29.88"/>
<line id="line25" fill="none" stroke="#000000" stroke-width="1.1358" x1="4.066" y1="10.969" x2="4.066" y2="30.279"/>
<line id="line27" fill="none" stroke="#000000" stroke-width="1.4204" x1="23.92" y1="11.688" x2="23.92" y2="30.436"/>
<line id="line29" fill="none" stroke="#000000" stroke-width="1.125" x1="2.36" y1="20" x2="4.32" y2="20"/>
<line id="line31" fill="none" stroke="#000000" stroke-width="1.125" stroke-linecap="square" x1="37.641" y1="20" x2="35.68" y2="20"/>
<polyline id="polyline33" fill="none" stroke="#000000" stroke-width="1.125" points="23.92,20 31.76,20 31.76,25.88 "/>
<polyline id="polyline35" fill="none" stroke="#000000" stroke-width="1.125" points="27.84,22.352 27.84,27.84 35.68,27.84 
	35.68,20 "/>
<rect x="8.75" y="26.5" fill="#C0C0C0" width="8.74" height="6.75"/>
</svg>
