<?xml version="1.0" encoding="utf-8"?>
<!-- Generator: Adobe Illustrator 14.0.0, SVG Export Plug-In . SVG Version: 6.00 Build 43363)  -->
<!DOCTYPE svg PUBLIC "-//W3C//DTD SVG 1.1//EN" "http://www.w3.org/Graphics/SVG/1.1/DTD/svg11.dtd">
<svg version="1.1" id="Calque_1" xmlns="http://www.w3.org/2000/svg" xmlns:xlink="http://www.w3.org/1999/xlink" x="0px" y="0px"
	 width="40px" height="40px" viewBox="0 0 40 40" enable-background="new 0 0 40 40" xml:space="preserve">
<title>Graphic window number 0</title>
<desc>Creator: GL2PS 1.3.2, (C) 1999-2006 Christophe Geuzaine (geuz@geuz.org)
For: Scilab
CreationDate: Fri Sep 16 15:14:59 2011</desc>
<g>
	<polyline fill="none" stroke="#000000" stroke-width="0.125" points="4.32,13.728 8.632,13.728 10.592,20 13.336,8.044 16.08,20 
		18.432,8.24 20,14.12 23.92,14.12 	"/>
	<polygon fill="#C0C0C0" points="8.24,21.96 8.24,29.8 18.04,29.8 	"/>
	<polygon fill="#C0C0C0" points="8.24,21.96 18.04,29.8 18.04,21.96 	"/>
	<polyline fill="none" stroke="#000000" stroke-width="0.125" points="8.24,21.96 8.24,29.8 18.04,29.8 18.04,21.96 8.24,21.96 	"/>
	<line fill="none" stroke="#000000" stroke-width="0.125" x1="8.24" y1="29.8" x2="20" y2="29.8"/>
	<line fill="none" stroke="#000000" stroke-width="0.125" x1="8.24" y1="21.96" x2="20" y2="21.96"/>
	<line fill="none" stroke="#000000" stroke-width="0.125" x1="18.04" y1="25.88" x2="23.92" y2="25.88"/>
	<line fill="none" stroke="#000000" stroke-width="0.125" x1="4.32" y1="25.88" x2="8.24" y2="25.88"/>
	<line fill="none" stroke="#000000" stroke-width="0.125" x1="4.32" y1="13.728" x2="4.32" y2="25.88"/>
	<line fill="none" stroke="#000000" stroke-width="0.125" x1="23.92" y1="14.12" x2="23.92" y2="25.88"/>
	<line fill="none" stroke="#000000" stroke-width="0.125" x1="2.36" y1="20" x2="4.32" y2="20"/>
	<line fill="none" stroke="#000000" stroke-width="0.125" x1="37.641" y1="20" x2="35.68" y2="20"/>
	<polyline fill="none" stroke="#000000" stroke-width="0.125" points="23.92,20 31.76,20 31.76,25.88 	"/>
	<polyline fill="none" stroke="#000000" stroke-width="0.125" points="27.84,22.352 27.84,27.84 35.68,27.84 35.68,20 	"/>
	<text transform="matrix(1 0 0 1 6 36)" font-family="'ArialMT'" font-size="4">c=100000</text>
</g>
</svg>
