<?xml version="1.0" encoding="utf-8"?>
<!-- Generator: Adobe Illustrator 14.0.0, SVG Export Plug-In . SVG Version: 6.00 Build 43363)  -->
<!DOCTYPE svg PUBLIC "-//W3C//DTD SVG 1.1//EN" "http://www.w3.org/Graphics/SVG/1.1/DTD/svg11.dtd">
<svg version="1.1" id="Calque_1" xmlns="http://www.w3.org/2000/svg" xmlns:xlink="http://www.w3.org/1999/xlink" x="0px" y="0px"
	 width="40px" height="40px" viewBox="0 0 40 40" enable-background="new 0 0 40 40" xml:space="preserve">
<title>Graphic window number 0</title>
<desc>Creator: GL2PS 1.3.2, (C) 1999-2006 Christophe Geuzaine (geuz@geuz.org)
For: Scilab
CreationDate: Fri Sep 16 15:14:58 2011</desc>
<g>
	<polygon fill="#C0C0C0" points="0.4,18.04 0.4,21.96 39.404,21.96 	"/>
	<polygon fill="#C0C0C0" points="0.4,18.04 39.404,21.96 39.404,18.04 	"/>
	<polyline fill="none" stroke="#000000" stroke-width="0.125" points="0.4,18.04 0.4,21.96 39.404,21.96 39.404,18.04 0.4,18.04 	
		"/>
	<polygon fill="#C0C0C0" points="18.04,10.2 18.04,29.8 21.96,29.8 	"/>
	<polygon fill="#C0C0C0" points="18.04,10.2 21.96,29.8 21.96,10.2 	"/>
	<polyline fill="none" stroke="#000000" stroke-width="0.125" points="18.04,10.2 18.04,29.8 21.96,29.8 21.96,10.2 18.04,10.2 	"/>
	<polygon fill="#C0C0C0" points="14.12,10.2 14.12,18.04 18.04,18.04 	"/>
	<polygon fill="#C0C0C0" points="14.12,10.2 18.04,18.04 18.04,10.2 	"/>
	<polyline fill="none" stroke="#000000" stroke-width="0.125" points="14.12,10.2 14.12,18.04 18.04,18.04 18.04,10.2 14.12,10.2 	
		"/>
	<polygon fill="#C0C0C0" points="21.96,21.96 21.96,29.8 25.88,29.8 	"/>
	<polygon fill="#C0C0C0" points="21.96,21.96 25.88,29.8 25.88,21.96 	"/>
	<polyline fill="none" stroke="#000000" stroke-width="0.125" points="21.96,21.96 21.96,29.8 25.88,29.8 25.88,21.96 21.96,21.96 	
		"/>
	<text transform="matrix(1 0 0 1 16.3438 35.4668)" font-family="'ArialMT'" font-size="2">deltaPhi = 0</text>
</g>
</svg>
