<?xml version="1.0" encoding="utf-8"?>
<!-- Generator: Adobe Illustrator 14.0.0, SVG Export Plug-In . SVG Version: 6.00 Build 43363)  -->
<!DOCTYPE svg PUBLIC "-//W3C//DTD SVG 1.1//EN" "http://www.w3.org/Graphics/SVG/1.1/DTD/svg11.dtd">
<svg version="1.1" id="Calque_1" xmlns="http://www.w3.org/2000/svg" xmlns:xlink="http://www.w3.org/1999/xlink" x="0px" y="0px"
	 width="40px" height="40px" viewBox="0 0 40 40" enable-background="new 0 0 40 40" xml:space="preserve">
<title>Graphic window number 0</title>
<desc>Creator: GL2PS 1.3.2, (C) 1999-2006 Christophe Geuzaine (geuz@geuz.org)
For: Scilab
CreationDate: Fri Sep 16 15:14:55 2011</desc>
<g>
	<line fill="none" stroke="#000000" stroke-width="0.125" x1="20.25" y1="23.762" x2="20.25" y2="37.678"/>
</g>
<g>
	<polygon points="27.502,12.566 37.105,17.858 33.186,6.49 	"/>
	<polyline fill="none" stroke="#000000" stroke-width="0.125" points="37.105,17.858 33.186,6.49 27.502,12.566 37.105,17.858 	"/>
	<line fill="none" stroke="#000000" stroke-width="0.125" x1="14.37" y1="23.738" x2="26.13" y2="23.738"/>
	<line fill="none" stroke="#000000" stroke-width="0.125" x1="14.37" y1="27.658" x2="18.29" y2="23.738"/>
	<line fill="none" stroke="#000000" stroke-width="0.125" x1="18.29" y1="27.658" x2="22.21" y2="23.738"/>
	<line fill="none" stroke="#000000" stroke-width="0.125" x1="22.21" y1="27.658" x2="26.13" y2="23.738"/>
	<polygon points="8.294,30.793 11.626,26.09 8.882,24.914 	"/>
	<polyline fill="none" stroke="#000000" stroke-width="0.125" points="8.294,30.793 11.626,26.09 8.882,24.914 8.294,30.793 	"/>
</g>
<path fill="none" stroke="#1A171B" stroke-width="0.125" d="M3.002,17.858c0,0,12.682-20.048,27.152-8.128"/>
<path fill="none" stroke="#1A171B" stroke-width="0.125" d="M32.794,29.227c0,0-8.688-16.53-22.366-3.805"/>
</svg>
