<?xml version="1.0" encoding="utf-8"?>
<!-- Generator: Adobe Illustrator 14.0.0, SVG Export Plug-In . SVG Version: 6.00 Build 43363)  -->
<!DOCTYPE svg PUBLIC "-//W3C//DTD SVG 1.1//EN" "http://www.w3.org/Graphics/SVG/1.1/DTD/svg11.dtd">
<svg version="1.1" id="Calque_1" xmlns="http://www.w3.org/2000/svg" xmlns:xlink="http://www.w3.org/1999/xlink" x="0px" y="0px"
	 width="40px" height="40px" viewBox="0 0 40 40" enable-background="new 0 0 40 40" xml:space="preserve">
<title>Graphic window number 0</title>
<desc>Creator: GL2PS 1.3.2, (C) 1999-2006 Christophe Geuzaine (geuz@geuz.org)
For: Scilab
CreationDate: Fri Sep 16 15:14:56 2011</desc>
<g>
	<line fill="none" stroke="#000000" stroke-width="0.125" x1="20" y1="32.152" x2="20" y2="39.6"/>
	<polygon points="29.8,9.808 38.424,16.864 35.68,5.496 	"/>
	<polyline fill="none" stroke="#000000" stroke-width="0.125" points="38.424,16.864 35.68,5.496 29.8,9.808 38.424,16.864 	"/>
	<polygon points="7.26,39.208 10.984,35.68 8.632,34.111 	"/>
	<polyline fill="none" stroke="#000000" stroke-width="0.125" points="7.26,39.208 10.984,35.68 8.632,34.111 7.26,39.208 	"/>
	<polyline fill="none" stroke="#0000FF" stroke-width="0.125" points="4.32,31.76 20,31.76 20,8.24 35.68,8.24 	"/>
	<text transform="matrix(1 0 0 1 26 31)" font-family="'ArialMT'" font-size="2">time</text>
</g>
<path fill="none" stroke="#1A171B" stroke-width="0.125" d="M1.968,20c0,0,12.81-30.239,30.546-12.182"/>
<path fill="none" stroke="#1A171B" stroke-width="0.125" d="M31.76,38.424c0,0-6.827-15.193-21.856-3.465"/>
</svg>
