<?xml version="1.0" encoding="utf-8"?>
<!-- Generator: Adobe Illustrator 14.0.0, SVG Export Plug-In . SVG Version: 6.00 Build 43363)  -->
<!DOCTYPE svg PUBLIC "-//W3C//DTD SVG 1.1//EN" "http://www.w3.org/Graphics/SVG/1.1/DTD/svg11.dtd">
<svg version="1.1" id="Calque_1" xmlns="http://www.w3.org/2000/svg" xmlns:xlink="http://www.w3.org/1999/xlink" x="0px" y="0px"
	 width="40px" height="40px" viewBox="0 0 40 40" enable-background="new 0 0 40 40" xml:space="preserve">
<title>Graphic window number 0</title>
<desc>Creator: GL2PS 1.3.2, (C) 1999-2006 Christophe Geuzaine (geuz@geuz.org)
For: Scilab
CreationDate: Fri Sep 16 15:14:55 2011</desc>
<g>
	<polygon points="4.712,15.296 6.476,16.668 2.556,20 	"/>
	<polyline fill="none" stroke="#000000" stroke-width="0.25" points="4.712,15.296 6.476,16.668 2.556,20 4.712,15.296 	"/>
	<polyline fill="none" stroke="#000000" stroke-width="0.25" points="5.496,16.08 6.28,15.492 7.26,14.904 8.24,14.512 
		9.024,14.316 10.2,14.12 11.964,14.12 13.14,14.316 13.924,14.512 14.904,14.904 15.884,15.492 16.668,16.08 17.452,17.06 
		18.04,18.236 	"/>
	<polyline fill="none" stroke="#000000" stroke-width="0.25" points="34.504,16.08 33.721,15.492 32.74,14.904 31.76,14.512 
		30.977,14.316 29.8,14.12 28.036,14.12 26.859,14.316 26.076,14.512 25.096,14.904 24.116,15.492 23.332,16.08 22.548,17.06 
		21.96,18.236 	"/>
	<polygon points="33.523,16.668 37.443,20 35.288,15.296 	"/>
	<polyline fill="none" stroke="#000000" stroke-width="0.125" points="37.443,20 35.288,15.296 33.523,16.668 37.443,20 	"/>
</g>
</svg>
