<?xml version="1.0" encoding="utf-8"?>
<!-- Generator: Adobe Illustrator 14.0.0, SVG Export Plug-In . SVG Version: 6.00 Build 43363)  -->
<!DOCTYPE svg PUBLIC "-//W3C//DTD SVG 1.1//EN" "http://www.w3.org/Graphics/SVG/1.1/DTD/svg11.dtd">
<svg version="1.1"
	 id="Calque_1" xmlns:cc="http://creativecommons.org/ns#" xmlns:dc="http://purl.org/dc/elements/1.1/" xmlns:rdf="http://www.w3.org/1999/02/22-rdf-syntax-ns#" xmlns:svg="http://www.w3.org/2000/svg" xmlns:sodipodi="http://sodipodi.sourceforge.net/DTD/sodipodi-0.dtd" xmlns:inkscape="http://www.inkscape.org/namespaces/inkscape" sodipodi:docname="CMRS_ImposedKinematic.svg" inkscape:version="0.48.2 r9819"
	 xmlns="http://www.w3.org/2000/svg" xmlns:xlink="http://www.w3.org/1999/xlink" x="0px" y="0px" width="40px" height="40px"
	 viewBox="0 0 40 40" enable-background="new 0 0 40 40" xml:space="preserve">
<line id="line15" fill="none" stroke="#000000" stroke-width="1.125" x1="14.12" y1="28.271" x2="25.88" y2="28.271"/>
<line id="line17" fill="none" stroke="#000000" stroke-width="1.125" x1="20" y1="11.808" x2="20" y2="15.728"/>
<line id="line19" fill="none" stroke="#000000" stroke-width="1.125" x1="14.316" y1="15.728" x2="25.88" y2="15.728"/>
<line id="line23" fill="none" stroke="#000000" stroke-width="1.125" x1="25.88" y1="30.232" x2="23.92" y2="32.191"/>
<line id="line25" fill="none" stroke="#000000" stroke-width="1.125" x1="25.88" y1="28.271" x2="21.96" y2="32.191"/>
<line id="line27" fill="none" stroke="#000000" stroke-width="1.125" x1="23.92" y1="28.271" x2="20" y2="32.191"/>
<line id="line29" fill="none" stroke="#000000" stroke-width="1.125" x1="21.96" y1="28.271" x2="18.04" y2="32.191"/>
<line id="line31" fill="none" stroke="#000000" stroke-width="1.125" x1="20" y1="28.271" x2="16.08" y2="32.191"/>
<line id="line33" fill="none" stroke="#000000" stroke-width="1.125" x1="18.04" y1="28.271" x2="14.12" y2="32.191"/>
<line id="line35" fill="none" stroke="#000000" stroke-width="1.125" x1="16.08" y1="28.271" x2="14.12" y2="30.232"/>
<path id="path3838" d="M4.17,14.667l4.295-1.986l-1.986,4.295C6.299,15.793,5.363,14.863,4.17,14.667z"/>
<rect x="0.531" y="18.052" fill="#C0C0C0" stroke="#000000" width="38.938" height="7.812"/>
</svg>
