<?xml version="1.0" encoding="utf-8"?>
<!-- Generator: Adobe Illustrator 14.0.0, SVG Export Plug-In . SVG Version: 6.00 Build 43363)  -->
<!DOCTYPE svg PUBLIC "-//W3C//DTD SVG 1.1//EN" "http://www.w3.org/Graphics/SVG/1.1/DTD/svg11.dtd">
<svg version="1.1" id="Calque_1" xmlns="http://www.w3.org/2000/svg" xmlns:xlink="http://www.w3.org/1999/xlink" x="0px" y="0px"
	 width="40px" height="40px" viewBox="0 0 40 40" enable-background="new 0 0 40 40" xml:space="preserve">
<title>Graphic window number 0</title>
<desc>Creator: GL2PS 1.3.2, (C) 1999-2006 Christophe Geuzaine (geuz@geuz.org)
For: Scilab
CreationDate: Fri Sep 16 15:14:49 2011</desc>
<g>
	<polygon fill="#FFFFFF" points="18.04,2.36 18.04,37.641 21.96,37.641 	"/>
	<polygon fill="#FFFFFF" points="18.04,2.36 21.96,37.641 21.96,2.36 	"/>
	<polyline fill="none" stroke="#000000" stroke-width="0.125" points="18.04,2.36 18.04,37.641 21.96,37.641 21.96,2.36 18.04,2.36 
			"/>
	<polygon fill="#AFAFAF" points="21.951,19.808 20,20 21.96,20 	"/>
	<polygon fill="#AFAFAF" points="21.922,19.618 20,20 21.951,19.808 	"/>
	<polygon fill="#AFAFAF" points="21.875,19.431 20,20 21.922,19.618 	"/>
	<polygon fill="#AFAFAF" points="21.811,19.25 20,20 21.875,19.431 	"/>
	<polygon fill="#AFAFAF" points="21.729,19.076 20,20 21.811,19.25 	"/>
	<polygon fill="#AFAFAF" points="21.63,18.911 20,20 21.729,19.076 	"/>
	<polygon fill="#AFAFAF" points="21.516,18.756 20,20 21.63,18.911 	"/>
	<polygon fill="#AFAFAF" points="21.386,18.614 20,20 21.516,18.756 	"/>
	<polygon fill="#AFAFAF" points="21.244,18.485 20,20 21.386,18.614 	"/>
	<polygon fill="#AFAFAF" points="21.089,18.37 20,20 21.244,18.485 	"/>
	<polygon fill="#AFAFAF" points="20.924,18.271 20,20 21.089,18.37 	"/>
	<polygon fill="#AFAFAF" points="20.75,18.189 20,20 20.924,18.271 	"/>
	<polygon fill="#AFAFAF" points="20.568,18.125 20,20 20.75,18.189 	"/>
	<polygon fill="#AFAFAF" points="20.382,18.078 20,20 20.568,18.125 	"/>
	<polygon fill="#AFAFAF" points="20.192,18.049 20,20 20.382,18.078 	"/>
	<polygon fill="#AFAFAF" points="20,18.04 20,20 20.192,18.049 	"/>
	<polygon fill="#AFAFAF" points="19.808,18.049 20,20 20,18.04 	"/>
	<polygon fill="#AFAFAF" points="19.618,18.078 20,20 19.808,18.049 	"/>
	<polygon fill="#AFAFAF" points="19.431,18.125 20,20 19.618,18.078 	"/>
	<polygon fill="#AFAFAF" points="19.25,18.189 20,20 19.431,18.125 	"/>
	<polygon fill="#AFAFAF" points="19.076,18.271 20,20 19.25,18.189 	"/>
	<polygon fill="#AFAFAF" points="18.911,18.37 20,20 19.076,18.271 	"/>
	<polygon fill="#AFAFAF" points="18.756,18.485 20,20 18.911,18.37 	"/>
	<polygon fill="#AFAFAF" points="18.614,18.614 20,20 18.756,18.485 	"/>
	<polygon fill="#AFAFAF" points="18.485,18.756 20,20 18.614,18.614 	"/>
	<polygon fill="#AFAFAF" points="18.37,18.911 20,20 18.485,18.756 	"/>
	<polygon fill="#AFAFAF" points="18.271,19.076 20,20 18.37,18.911 	"/>
	<polygon fill="#AFAFAF" points="18.189,19.25 20,20 18.271,19.076 	"/>
	<polygon fill="#AFAFAF" points="18.125,19.431 20,20 18.189,19.25 	"/>
	<polygon fill="#AFAFAF" points="18.078,19.618 20,20 18.125,19.431 	"/>
	<polygon fill="#AFAFAF" points="18.049,19.808 20,20 18.078,19.618 	"/>
	<polygon fill="#AFAFAF" points="18.04,20 20,20 18.049,19.808 	"/>
	<polygon fill="#AFAFAF" points="18.049,20.192 20,20 18.04,20 	"/>
	<polygon fill="#AFAFAF" points="18.078,20.382 20,20 18.049,20.192 	"/>
	<polygon fill="#AFAFAF" points="18.125,20.568 20,20 18.078,20.382 	"/>
	<polygon fill="#AFAFAF" points="18.189,20.75 20,20 18.125,20.568 	"/>
	<polygon fill="#AFAFAF" points="18.271,20.924 20,20 18.189,20.75 	"/>
	<polygon fill="#AFAFAF" points="18.37,21.089 20,20 18.271,20.924 	"/>
	<polygon fill="#AFAFAF" points="18.485,21.244 20,20 18.37,21.089 	"/>
	<polygon fill="#AFAFAF" points="18.614,21.386 20,20 18.485,21.244 	"/>
	<polygon fill="#AFAFAF" points="18.756,21.516 20,20 18.614,21.386 	"/>
	<polygon fill="#AFAFAF" points="18.911,21.63 20,20 18.756,21.516 	"/>
	<polygon fill="#AFAFAF" points="19.076,21.729 20,20 18.911,21.63 	"/>
	<polygon fill="#AFAFAF" points="19.25,21.811 20,20 19.076,21.729 	"/>
	<polygon fill="#AFAFAF" points="19.431,21.875 20,20 19.25,21.811 	"/>
	<polygon fill="#AFAFAF" points="19.618,21.922 20,20 19.431,21.875 	"/>
	<polygon fill="#AFAFAF" points="19.808,21.951 20,20 19.618,21.922 	"/>
	<polygon fill="#AFAFAF" points="20,21.96 20,20 19.808,21.951 	"/>
	<polygon fill="#AFAFAF" points="20.192,21.951 20,20 20,21.96 	"/>
	<polygon fill="#AFAFAF" points="20.382,21.922 20,20 20.192,21.951 	"/>
	<polygon fill="#AFAFAF" points="20.568,21.875 20,20 20.382,21.922 	"/>
	<polygon fill="#AFAFAF" points="20.75,21.811 20,20 20.568,21.875 	"/>
	<polygon fill="#AFAFAF" points="20.924,21.729 20,20 20.75,21.811 	"/>
	<polygon fill="#AFAFAF" points="21.089,21.63 20,20 20.924,21.729 	"/>
	<polygon fill="#AFAFAF" points="21.244,21.516 20,20 21.089,21.63 	"/>
	<polygon fill="#AFAFAF" points="21.386,21.386 20,20 21.244,21.516 	"/>
	<polygon fill="#AFAFAF" points="21.516,21.244 20,20 21.386,21.386 	"/>
	<polygon fill="#AFAFAF" points="21.63,21.089 20,20 21.516,21.244 	"/>
	<polygon fill="#AFAFAF" points="21.729,20.924 20,20 21.63,21.089 	"/>
	<polygon fill="#AFAFAF" points="21.811,20.75 20,20 21.729,20.924 	"/>
	<polygon fill="#AFAFAF" points="21.875,20.568 20,20 21.811,20.75 	"/>
	<polygon fill="#AFAFAF" points="21.922,20.382 20,20 21.875,20.568 	"/>
	<polygon fill="#AFAFAF" points="21.951,20.192 20,20 21.922,20.382 	"/>
	<polygon fill="#AFAFAF" points="21.96,20 20,20 21.951,20.192 	"/>
	<polyline fill="none" stroke="#000000" stroke-width="0.125" points="21.96,20 21.95,19.805 21.921,19.612 21.873,19.422 
		21.807,19.239 21.721,19.062 21.619,18.896 21.502,18.74 21.369,18.597 21.223,18.468 21.063,18.354 20.895,18.256 20.717,18.175 
		20.531,18.113 20.34,18.07 20.146,18.045 19.951,18.041 19.756,18.055 19.564,18.089 19.376,18.142 19.194,18.213 19.02,18.303 
		18.856,18.409 18.703,18.53 18.563,18.667 18.438,18.816 18.328,18.978 18.234,19.149 18.158,19.33 18.101,19.516 18.062,19.708 
		18.042,19.902 18.042,20.098 18.062,20.292 18.101,20.484 18.158,20.67 18.234,20.851 18.328,21.021 18.438,21.184 18.563,21.333 
		18.703,21.47 18.856,21.592 19.02,21.697 19.194,21.787 19.376,21.857 19.564,21.91 19.756,21.945 19.951,21.959 20.146,21.955 
		20.34,21.93 20.531,21.887 20.717,21.824 20.895,21.744 21.063,21.646 21.223,21.532 21.369,21.403 21.502,21.26 21.619,21.104 
		21.721,20.938 21.807,20.762 21.873,20.578 21.921,20.388 21.95,20.195 21.96,20 	"/>
	<polygon fill="#AFAFAF" points="21.951,2.168 20,2.36 21.96,2.36 	"/>
	<polygon fill="#AFAFAF" points="21.922,1.978 20,2.36 21.951,2.168 	"/>
	<polygon fill="#AFAFAF" points="21.875,1.791 20,2.36 21.922,1.978 	"/>
	<polygon fill="#AFAFAF" points="21.811,1.61 20,2.36 21.875,1.791 	"/>
	<polygon fill="#AFAFAF" points="21.729,1.436 20,2.36 21.811,1.61 	"/>
	<polygon fill="#AFAFAF" points="21.63,1.271 20,2.36 21.729,1.436 	"/>
	<polygon fill="#AFAFAF" points="21.516,1.117 20,2.36 21.63,1.271 	"/>
	<polygon fill="#AFAFAF" points="21.386,0.974 20,2.36 21.516,1.117 	"/>
	<polygon fill="#AFAFAF" points="21.244,0.845 20,2.36 21.386,0.974 	"/>
	<polygon fill="#AFAFAF" points="21.089,0.73 20,2.36 21.244,0.845 	"/>
	<polygon fill="#AFAFAF" points="20.924,0.631 20,2.36 21.089,0.73 	"/>
	<polygon fill="#AFAFAF" points="20.75,0.549 20,2.36 20.924,0.631 	"/>
	<polygon fill="#AFAFAF" points="20.568,0.484 20,2.36 20.75,0.549 	"/>
	<polygon fill="#AFAFAF" points="20.382,0.438 20,2.36 20.568,0.484 	"/>
	<polygon fill="#AFAFAF" points="20.192,0.41 20,2.36 20.382,0.438 	"/>
	<polygon fill="#AFAFAF" points="20,0.4 20,2.36 20.192,0.41 	"/>
	<polygon fill="#AFAFAF" points="19.808,0.41 20,2.36 20,0.4 	"/>
	<polygon fill="#AFAFAF" points="19.618,0.438 20,2.36 19.808,0.41 	"/>
	<polygon fill="#AFAFAF" points="19.431,0.484 20,2.36 19.618,0.438 	"/>
	<polygon fill="#AFAFAF" points="19.25,0.549 20,2.36 19.431,0.484 	"/>
	<polygon fill="#AFAFAF" points="19.076,0.631 20,2.36 19.25,0.549 	"/>
	<polygon fill="#AFAFAF" points="18.911,0.73 20,2.36 19.076,0.631 	"/>
	<polygon fill="#AFAFAF" points="18.756,0.845 20,2.36 18.911,0.73 	"/>
	<polygon fill="#AFAFAF" points="18.614,0.974 20,2.36 18.756,0.845 	"/>
	<polygon fill="#AFAFAF" points="18.485,1.117 20,2.36 18.614,0.974 	"/>
	<polygon fill="#AFAFAF" points="18.37,1.271 20,2.36 18.485,1.117 	"/>
	<polygon fill="#AFAFAF" points="18.271,1.436 20,2.36 18.37,1.271 	"/>
	<polygon fill="#AFAFAF" points="18.189,1.61 20,2.36 18.271,1.436 	"/>
	<polygon fill="#AFAFAF" points="18.125,1.791 20,2.36 18.189,1.61 	"/>
	<polygon fill="#AFAFAF" points="18.078,1.978 20,2.36 18.125,1.791 	"/>
	<polygon fill="#AFAFAF" points="18.049,2.168 20,2.36 18.078,1.978 	"/>
	<polygon fill="#AFAFAF" points="18.04,2.36 20,2.36 18.049,2.168 	"/>
	<polygon fill="#AFAFAF" points="18.049,2.552 20,2.36 18.04,2.36 	"/>
	<polygon fill="#AFAFAF" points="18.078,2.742 20,2.36 18.049,2.552 	"/>
	<polygon fill="#AFAFAF" points="18.125,2.929 20,2.36 18.078,2.742 	"/>
	<polygon fill="#AFAFAF" points="18.189,3.11 20,2.36 18.125,2.929 	"/>
	<polygon fill="#AFAFAF" points="18.271,3.284 20,2.36 18.189,3.11 	"/>
	<polygon fill="#AFAFAF" points="18.37,3.449 20,2.36 18.271,3.284 	"/>
	<polygon fill="#AFAFAF" points="18.485,3.604 20,2.36 18.37,3.449 	"/>
	<polygon fill="#AFAFAF" points="18.614,3.746 20,2.36 18.485,3.604 	"/>
	<polygon fill="#AFAFAF" points="18.756,3.875 20,2.36 18.614,3.746 	"/>
	<polygon fill="#AFAFAF" points="18.911,3.99 20,2.36 18.756,3.875 	"/>
	<polygon fill="#AFAFAF" points="19.076,4.088 20,2.36 18.911,3.99 	"/>
	<polygon fill="#AFAFAF" points="19.25,4.171 20,2.36 19.076,4.088 	"/>
	<polygon fill="#AFAFAF" points="19.431,4.236 20,2.36 19.25,4.171 	"/>
	<polygon fill="#AFAFAF" points="19.618,4.282 20,2.36 19.431,4.236 	"/>
	<polygon fill="#AFAFAF" points="19.808,4.311 20,2.36 19.618,4.282 	"/>
	<polygon fill="#AFAFAF" points="20,4.32 20,2.36 19.808,4.311 	"/>
	<polygon fill="#AFAFAF" points="20.192,4.311 20,2.36 20,4.32 	"/>
	<polygon fill="#AFAFAF" points="20.382,4.282 20,2.36 20.192,4.311 	"/>
	<polygon fill="#AFAFAF" points="20.568,4.236 20,2.36 20.382,4.282 	"/>
	<polygon fill="#AFAFAF" points="20.75,4.171 20,2.36 20.568,4.236 	"/>
	<polygon fill="#AFAFAF" points="20.924,4.088 20,2.36 20.75,4.171 	"/>
	<polygon fill="#AFAFAF" points="21.089,3.99 20,2.36 20.924,4.088 	"/>
	<polygon fill="#AFAFAF" points="21.244,3.875 20,2.36 21.089,3.99 	"/>
	<polygon fill="#AFAFAF" points="21.386,3.746 20,2.36 21.244,3.875 	"/>
	<polygon fill="#AFAFAF" points="21.516,3.604 20,2.36 21.386,3.746 	"/>
	<polygon fill="#AFAFAF" points="21.63,3.449 20,2.36 21.516,3.604 	"/>
	<polygon fill="#AFAFAF" points="21.729,3.284 20,2.36 21.63,3.449 	"/>
	<polygon fill="#AFAFAF" points="21.811,3.11 20,2.36 21.729,3.284 	"/>
	<polygon fill="#AFAFAF" points="21.875,2.929 20,2.36 21.811,3.11 	"/>
	<polygon fill="#AFAFAF" points="21.922,2.742 20,2.36 21.875,2.929 	"/>
	<polygon fill="#AFAFAF" points="21.951,2.552 20,2.36 21.922,2.742 	"/>
	<polygon fill="#AFAFAF" points="21.96,2.36 20,2.36 21.951,2.552 	"/>
	<polyline fill="none" stroke="#000000" stroke-width="0.125" points="21.96,2.36 21.95,2.165 21.921,1.972 21.873,1.782 
		21.807,1.599 21.721,1.423 21.619,1.256 21.502,1.1 21.369,0.957 21.223,0.828 21.063,0.713 20.895,0.616 20.717,0.536 
		20.531,0.473 20.34,0.43 20.146,0.405 19.951,0.4 19.756,0.415 19.564,0.449 19.376,0.502 19.194,0.573 19.02,0.663 18.856,0.769 
		18.703,0.891 18.563,1.027 18.438,1.177 18.328,1.338 18.234,1.51 18.158,1.689 18.101,1.876 18.062,2.068 18.042,2.262 
		18.042,2.458 18.062,2.652 18.101,2.844 18.158,3.03 18.234,3.21 18.328,3.382 18.438,3.543 18.563,3.693 18.703,3.83 
		18.856,3.951 19.02,4.058 19.194,4.146 19.376,4.218 19.564,4.271 19.756,4.305 19.951,4.319 20.146,4.314 20.34,4.29 
		20.531,4.247 20.717,4.185 20.895,4.104 21.063,4.006 21.223,3.893 21.369,3.763 21.502,3.62 21.619,3.464 21.721,3.297 
		21.807,3.121 21.873,2.938 21.921,2.749 21.95,2.555 21.96,2.36 	"/>
	<polygon fill="#AFAFAF" points="21.951,37.447 20,37.641 21.96,37.641 	"/>
	<polygon fill="#AFAFAF" points="21.922,37.258 20,37.641 21.951,37.447 	"/>
	<polygon fill="#AFAFAF" points="21.875,37.07 20,37.641 21.922,37.258 	"/>
	<polygon fill="#AFAFAF" points="21.811,36.891 20,37.641 21.875,37.07 	"/>
	<polygon fill="#AFAFAF" points="21.729,36.716 20,37.641 21.811,36.891 	"/>
	<polygon fill="#AFAFAF" points="21.63,36.551 20,37.641 21.729,36.716 	"/>
	<polygon fill="#AFAFAF" points="21.516,36.396 20,37.641 21.63,36.551 	"/>
	<polygon fill="#AFAFAF" points="21.386,36.254 20,37.641 21.516,36.396 	"/>
	<polygon fill="#AFAFAF" points="21.244,36.125 20,37.641 21.386,36.254 	"/>
	<polygon fill="#AFAFAF" points="21.089,36.01 20,37.641 21.244,36.125 	"/>
	<polygon fill="#AFAFAF" points="20.924,35.912 20,37.641 21.089,36.01 	"/>
	<polygon fill="#AFAFAF" points="20.75,35.829 20,37.641 20.924,35.912 	"/>
	<polygon fill="#AFAFAF" points="20.568,35.764 20,37.641 20.75,35.829 	"/>
	<polygon fill="#AFAFAF" points="20.382,35.718 20,37.641 20.568,35.764 	"/>
	<polygon fill="#AFAFAF" points="20.192,35.689 20,37.641 20.382,35.718 	"/>
	<polygon fill="#AFAFAF" points="20,35.68 20,37.641 20.192,35.689 	"/>
	<polygon fill="#AFAFAF" points="19.808,35.689 20,37.641 20,35.68 	"/>
	<polygon fill="#AFAFAF" points="19.618,35.718 20,37.641 19.808,35.689 	"/>
	<polygon fill="#AFAFAF" points="19.431,35.764 20,37.641 19.618,35.718 	"/>
	<polygon fill="#AFAFAF" points="19.25,35.829 20,37.641 19.431,35.764 	"/>
	<polygon fill="#AFAFAF" points="19.076,35.912 20,37.641 19.25,35.829 	"/>
	<polygon fill="#AFAFAF" points="18.911,36.01 20,37.641 19.076,35.912 	"/>
	<polygon fill="#AFAFAF" points="18.756,36.125 20,37.641 18.911,36.01 	"/>
	<polygon fill="#AFAFAF" points="18.614,36.254 20,37.641 18.756,36.125 	"/>
	<polygon fill="#AFAFAF" points="18.485,36.396 20,37.641 18.614,36.254 	"/>
	<polygon fill="#AFAFAF" points="18.37,36.551 20,37.641 18.485,36.396 	"/>
	<polygon fill="#AFAFAF" points="18.271,36.716 20,37.641 18.37,36.551 	"/>
	<polygon fill="#AFAFAF" points="18.189,36.891 20,37.641 18.271,36.716 	"/>
	<polygon fill="#AFAFAF" points="18.125,37.07 20,37.641 18.189,36.891 	"/>
	<polygon fill="#AFAFAF" points="18.078,37.258 20,37.641 18.125,37.07 	"/>
	<polygon fill="#AFAFAF" points="18.049,37.447 20,37.641 18.078,37.258 	"/>
	<polygon fill="#AFAFAF" points="18.04,37.641 20,37.641 18.049,37.447 	"/>
	<polygon fill="#AFAFAF" points="18.049,37.832 20,37.641 18.04,37.641 	"/>
	<polygon fill="#AFAFAF" points="18.078,38.022 20,37.641 18.049,37.832 	"/>
	<polygon fill="#AFAFAF" points="18.125,38.209 20,37.641 18.078,38.022 	"/>
	<polygon fill="#AFAFAF" points="18.189,38.391 20,37.641 18.125,38.209 	"/>
	<polygon fill="#AFAFAF" points="18.271,38.564 20,37.641 18.189,38.391 	"/>
	<polygon fill="#AFAFAF" points="18.37,38.729 20,37.641 18.271,38.564 	"/>
	<polygon fill="#AFAFAF" points="18.485,38.883 20,37.641 18.37,38.729 	"/>
	<polygon fill="#AFAFAF" points="18.614,39.025 20,37.641 18.485,38.883 	"/>
	<polygon fill="#AFAFAF" points="18.756,39.155 20,37.641 18.614,39.025 	"/>
	<polygon fill="#AFAFAF" points="18.911,39.27 20,37.641 18.756,39.155 	"/>
	<polygon fill="#AFAFAF" points="19.076,39.369 20,37.641 18.911,39.27 	"/>
	<polygon fill="#AFAFAF" points="19.25,39.451 20,37.641 19.076,39.369 	"/>
	<polygon fill="#AFAFAF" points="19.431,39.516 20,37.641 19.25,39.451 	"/>
	<polygon fill="#AFAFAF" points="19.618,39.562 20,37.641 19.431,39.516 	"/>
	<polygon fill="#AFAFAF" points="19.808,39.59 20,37.641 19.618,39.562 	"/>
	<polygon fill="#AFAFAF" points="20,39.6 20,37.641 19.808,39.59 	"/>
	<polygon fill="#AFAFAF" points="20.192,39.59 20,37.641 20,39.6 	"/>
	<polygon fill="#AFAFAF" points="20.382,39.562 20,37.641 20.192,39.59 	"/>
	<polygon fill="#AFAFAF" points="20.568,39.516 20,37.641 20.382,39.562 	"/>
	<polygon fill="#AFAFAF" points="20.75,39.451 20,37.641 20.568,39.516 	"/>
	<polygon fill="#AFAFAF" points="20.924,39.369 20,37.641 20.75,39.451 	"/>
	<polygon fill="#AFAFAF" points="21.089,39.27 20,37.641 20.924,39.369 	"/>
	<polygon fill="#AFAFAF" points="21.244,39.155 20,37.641 21.089,39.27 	"/>
	<polygon fill="#AFAFAF" points="21.386,39.025 20,37.641 21.244,39.155 	"/>
	<polygon fill="#AFAFAF" points="21.516,38.883 20,37.641 21.386,39.025 	"/>
	<polygon fill="#AFAFAF" points="21.63,38.729 20,37.641 21.516,38.883 	"/>
	<polygon fill="#AFAFAF" points="21.729,38.564 20,37.641 21.63,38.729 	"/>
	<polygon fill="#AFAFAF" points="21.811,38.391 20,37.641 21.729,38.564 	"/>
	<polygon fill="#AFAFAF" points="21.875,38.209 20,37.641 21.811,38.391 	"/>
	<polygon fill="#AFAFAF" points="21.922,38.022 20,37.641 21.875,38.209 	"/>
	<polygon fill="#AFAFAF" points="21.951,37.832 20,37.641 21.922,38.022 	"/>
	<polygon fill="#AFAFAF" points="21.96,37.641 20,37.641 21.951,37.832 	"/>
	<polyline fill="none" stroke="#000000" stroke-width="0.125" points="21.96,37.641 21.95,37.445 21.921,37.252 21.873,37.062 
		21.807,36.879 21.721,36.703 21.619,36.536 21.502,36.381 21.369,36.236 21.223,36.107 21.063,35.994 20.895,35.896 20.717,35.815 
		20.531,35.754 20.34,35.71 20.146,35.686 19.951,35.681 19.756,35.695 19.564,35.729 19.376,35.782 19.194,35.854 19.02,35.942 
		18.856,36.049 18.703,36.17 18.563,36.307 18.438,36.457 18.328,36.618 18.234,36.789 18.158,36.97 18.101,37.156 18.062,37.348 
		18.042,37.543 18.042,37.738 18.062,37.932 18.101,38.123 18.158,38.311 18.234,38.49 18.328,38.662 18.438,38.823 18.563,38.973 
		18.703,39.109 18.856,39.231 19.02,39.338 19.194,39.427 19.376,39.498 19.564,39.551 19.756,39.585 19.951,39.6 20.146,39.595 
		20.34,39.57 20.531,39.527 20.717,39.465 20.895,39.385 21.063,39.287 21.223,39.172 21.369,39.043 21.502,38.9 21.619,38.744 
		21.721,38.577 21.807,38.401 21.873,38.218 21.921,38.028 21.95,37.835 21.96,37.641 	"/>
	<line fill="none" stroke="#00BF00" stroke-width="0.125" x1="0.988" y1="20" x2="18.04" y2="20"/>
	<line fill="none" stroke="#000000" stroke-width="0.125" x1="21.96" y1="2.36" x2="39.012" y2="2.36"/>
	<line fill="none" stroke="#000000" stroke-width="0.125" x1="21.96" y1="37.641" x2="39.012" y2="37.641"/>
	<text transform="matrix(1 0 0 1 29 11)" fill="#AFAFAF" font-family="'ArialMT'" font-size="2">1</text>
	<text transform="matrix(1 0 0 1 29 31)" fill="#AFAFAF" font-family="'ArialMT'" font-size="2">2</text>
</g>
</svg>
