<?xml version="1.0" encoding="utf-8"?>
<!-- Generator: Adobe Illustrator 14.0.0, SVG Export Plug-In . SVG Version: 6.00 Build 43363)  -->
<!DOCTYPE svg PUBLIC "-//W3C//DTD SVG 1.1//EN" "http://www.w3.org/Graphics/SVG/1.1/DTD/svg11.dtd">
<svg version="1.1"
	 id="Calque_1" xmlns:cc="http://creativecommons.org/ns#" xmlns:dc="http://purl.org/dc/elements/1.1/" xmlns:rdf="http://www.w3.org/1999/02/22-rdf-syntax-ns#" xmlns:svg="http://www.w3.org/2000/svg" xmlns:sodipodi="http://sodipodi.sourceforge.net/DTD/sodipodi-0.dtd" xmlns:inkscape="http://www.inkscape.org/namespaces/inkscape" sodipodi:docname="CMTC_ElastoGap.svg" inkscape:version="0.48.2 r9819"
	 xmlns="http://www.w3.org/2000/svg" xmlns:xlink="http://www.w3.org/1999/xlink" x="0px" y="0px" width="40px" height="40px"
	 viewBox="0 0 40 40" enable-background="new 0 0 40 40" xml:space="preserve">
<line id="line9" fill="none" stroke="#00BF00" x1="0.792" y1="20" x2="10.592" y2="20"/>
<line id="line11" fill="none" stroke="#000000" x1="10.592" y1="13.336" x2="10.592" y2="29.016"/>
<line id="line13" fill="none" stroke="#000000" x1="21.568" y1="12.16" x2="21.568" y2="19.608"/>
<polyline id="polyline15" fill="none" stroke="#000000" points="19.608,20 27.448,20 27.448,11.376 19.608,11.376 "/>
<line id="line17" fill="none" stroke="#000000" x1="27.448" y1="15.688" x2="34.111" y2="15.688"/>
<line id="line19" fill="none" stroke="#000000" stroke-width="1.0282" x1="17.987" y1="27.875" x2="17.987" y2="15.599"/>
<line id="line21" fill="none" stroke="#000000" stroke-linecap="square" x1="17.979" y1="15.688" x2="21.568" y2="15.688"/>
<line id="line23" fill="none" stroke="#000000" x1="17.479" y1="27.447" x2="19.75" y2="27.447"/>
<line id="line25" fill="none" stroke="#00BF00" x1="34.111" y1="20" x2="39.208" y2="20"/>
<line id="line27" fill="none" stroke="#000000" x1="34.111" y1="15.188" x2="34.111" y2="27.724"/>
<polyline id="polyline35" fill="none" stroke="#000000" points="21.568,11.376 21.568,20 27.448,20 27.448,11.376 21.568,11.376 "/>
<rect x="22.031" y="11.875" fill="#C0C0C0" width="4.906" height="7.625"/>
<polyline id="polyline29" fill="none" stroke="#000000" stroke-linecap="round" points="19.608,27.447 21.687,25.375 24,29.406 
	27.062,25.188 30.031,29.469 32.544,25.488 34.111,27.84 "/>
<g>
	<g>
		<polygon fill="#1A171B" points="11.392,35.695 21.101,35.695 19.805,38.75 28.441,35.104 19.805,31.459 21.101,34.512 
			11.392,34.512 		"/>
	</g>
</g>
</svg>
