<?xml version="1.0" encoding="utf-8"?>
<!-- Generator: Adobe Illustrator 14.0.0, SVG Export Plug-In . SVG Version: 6.00 Build 43363)  -->
<!DOCTYPE svg PUBLIC "-//W3C//DTD SVG 1.1//EN" "http://www.w3.org/Graphics/SVG/1.1/DTD/svg11.dtd">
<svg version="1.1" id="Calque_1" xmlns="http://www.w3.org/2000/svg" xmlns:xlink="http://www.w3.org/1999/xlink" x="0px" y="0px"
	 width="40px" height="40px" viewBox="0 0 40 40" enable-background="new 0 0 40 40" xml:space="preserve">
<title>Graphic window number 0</title>
<desc>Creator: GL2PS 1.3.2, (C) 1999-2006 Christophe Geuzaine (geuz@geuz.org)
For: Scilab
CreationDate: Fri Sep 16 15:14:46 2011</desc>
<g>
	<line fill="none" stroke="#007F00" stroke-width="0.125" x1="0.4" y1="20" x2="9.22" y2="20"/>
	<line fill="none" stroke="#007F00" stroke-width="0.125" x1="30.779" y1="20" x2="39.6" y2="20"/>
	<polygon fill="#FFFFFF" points="9.22,14.12 9.22,25.88 30.977,25.88 	"/>
	<polygon fill="#FFFFFF" points="9.22,14.12 30.977,25.88 30.977,14.12 	"/>
	<polyline fill="none" stroke="#000000" stroke-width="0.125" points="9.22,14.12 9.22,25.88 30.977,25.88 30.977,14.12 9.22,14.12 
			"/>
	<polygon fill="#808080" points="23.92,39.6 29.8,37.641 23.92,35.68 	"/>
	<polyline fill="none" stroke="#808080" stroke-width="0.125" points="29.8,37.641 23.92,35.68 23.92,39.6 29.8,37.641 	"/>
	<line fill="none" stroke="#000000" stroke-width="0.125" x1="8.24" y1="37.641" x2="23.92" y2="37.641"/>
	<polygon fill="#D7D7D7" points="25.88,20 21.293,19.353 21.293,17.334 	"/>
	<polygon fill="#D7D7D7" points="21.293,20.646 21.293,19.353 25.88,20 	"/>
	<polygon fill="#D7D7D7" points="13.532,20.646 21.293,19.353 21.293,20.646 	"/>
	<polygon fill="#D7D7D7" points="13.532,19.353 21.293,19.353 13.532,20.646 	"/>
	<polygon fill="#D7D7D7" points="21.293,22.666 21.293,20.646 25.88,20 	"/>
	<polyline fill="none" stroke="#007F00" stroke-width="0.125" points="13.532,19.353 21.293,19.353 21.293,17.334 25.88,20 
		21.293,22.666 21.293,20.646 13.532,20.646 13.532,19.353 	"/>
	<text transform="matrix(1 0 0 1 15 33)" font-family="'ArialMT'" font-size="4">m=1</text>
</g>
</svg>
