<?xml version="1.0" encoding="utf-8"?>
<!-- Generator: Adobe Illustrator 14.0.0, SVG Export Plug-In . SVG Version: 6.00 Build 43363)  -->
<!DOCTYPE svg PUBLIC "-//W3C//DTD SVG 1.1//EN" "http://www.w3.org/Graphics/SVG/1.1/DTD/svg11.dtd">
<svg version="1.1" id="Calque_1" xmlns="http://www.w3.org/2000/svg" xmlns:xlink="http://www.w3.org/1999/xlink" x="0px" y="0px"
	 width="40px" height="40px" viewBox="0 0 40 40" enable-background="new 0 0 40 40" xml:space="preserve">
<title>Graphic window number 0</title>
<desc>Creator: GL2PS 1.3.2, (C) 1999-2006 Christophe Geuzaine (geuz@geuz.org)
For: Scilab
CreationDate: Fri Sep 16 15:14:48 2011</desc>
<g>
	<path fill="#C0C0C0" d="M20,39.6"/>
	<path fill="#C0C0C0" d="M20,39.6"/>
	<polygon fill="#FFFFFF" points="29.753,19.04 20,20 29.8,20 	"/>
	<polygon fill="#FFFFFF" points="29.611,18.088 20,20 29.753,19.04 	"/>
	<polygon fill="#FFFFFF" points="29.378,17.155 20,20 29.611,18.088 	"/>
	<polygon fill="#FFFFFF" points="29.055,16.25 20,20 29.378,17.155 	"/>
	<polygon fill="#FFFFFF" points="28.643,15.38 20,20 29.055,16.25 	"/>
	<polygon fill="#FFFFFF" points="28.148,14.555 20,20 28.643,15.38 	"/>
	<polygon fill="#FFFFFF" points="27.576,13.783 20,20 28.148,14.555 	"/>
	<polygon fill="#FFFFFF" points="26.93,13.07 20,20 27.576,13.783 	"/>
	<polygon fill="#FFFFFF" points="26.217,12.424 20,20 26.93,13.07 	"/>
	<polygon fill="#FFFFFF" points="25.445,11.852 20,20 26.217,12.424 	"/>
	<polygon fill="#FFFFFF" points="24.619,11.357 20,20 25.445,11.852 	"/>
	<polygon fill="#FFFFFF" points="23.75,10.946 20,20 24.619,11.357 	"/>
	<polygon fill="#FFFFFF" points="22.845,10.622 20,20 23.75,10.946 	"/>
	<polygon fill="#FFFFFF" points="21.912,10.388 20,20 22.845,10.622 	"/>
	<polygon fill="#FFFFFF" points="20.961,10.247 20,20 21.912,10.388 	"/>
	<polygon fill="#FFFFFF" points="20,10.2 20,20 20.961,10.247 	"/>
	<polygon fill="#FFFFFF" points="19.04,10.247 20,20 20,10.2 	"/>
	<polygon fill="#FFFFFF" points="18.088,10.388 20,20 19.04,10.247 	"/>
	<polygon fill="#FFFFFF" points="17.155,10.622 20,20 18.088,10.388 	"/>
	<polygon fill="#FFFFFF" points="16.25,10.946 20,20 17.155,10.622 	"/>
	<polygon fill="#FFFFFF" points="15.38,11.357 20,20 16.25,10.946 	"/>
	<polygon fill="#FFFFFF" points="14.555,11.852 20,20 15.38,11.357 	"/>
	<polygon fill="#FFFFFF" points="13.783,12.424 20,20 14.555,11.852 	"/>
	<polygon fill="#FFFFFF" points="13.07,13.07 20,20 13.783,12.424 	"/>
	<polygon fill="#FFFFFF" points="12.424,13.783 20,20 13.07,13.07 	"/>
	<polygon fill="#FFFFFF" points="11.852,14.555 20,20 12.424,13.783 	"/>
	<polygon fill="#FFFFFF" points="11.357,15.38 20,20 11.852,14.555 	"/>
	<polygon fill="#FFFFFF" points="10.946,16.25 20,20 11.357,15.38 	"/>
	<polygon fill="#FFFFFF" points="10.622,17.155 20,20 10.946,16.25 	"/>
	<polygon fill="#FFFFFF" points="10.388,18.088 20,20 10.622,17.155 	"/>
	<polygon fill="#FFFFFF" points="10.247,19.04 20,20 10.388,18.088 	"/>
	<polygon fill="#FFFFFF" points="10.2,20 20,20 10.247,19.04 	"/>
	<polygon fill="#FFFFFF" points="10.247,20.961 20,20 10.2,20 	"/>
	<polygon fill="#FFFFFF" points="10.388,21.912 20,20 10.247,20.961 	"/>
	<polygon fill="#FFFFFF" points="10.622,22.845 20,20 10.388,21.912 	"/>
	<polygon fill="#FFFFFF" points="10.946,23.75 20,20 10.622,22.845 	"/>
	<polygon fill="#FFFFFF" points="11.357,24.619 20,20 10.946,23.75 	"/>
	<polygon fill="#FFFFFF" points="11.852,25.445 20,20 11.357,24.619 	"/>
	<polygon fill="#FFFFFF" points="12.424,26.217 20,20 11.852,25.445 	"/>
	<polygon fill="#FFFFFF" points="13.07,26.93 20,20 12.424,26.217 	"/>
	<polygon fill="#FFFFFF" points="13.783,27.576 20,20 13.07,26.93 	"/>
	<polygon fill="#FFFFFF" points="14.555,28.148 20,20 13.783,27.576 	"/>
	<polygon fill="#FFFFFF" points="15.38,28.643 20,20 14.555,28.148 	"/>
	<polygon fill="#FFFFFF" points="16.25,29.055 20,20 15.38,28.643 	"/>
	<polygon fill="#FFFFFF" points="17.155,29.378 20,20 16.25,29.055 	"/>
	<polygon fill="#FFFFFF" points="18.088,29.611 20,20 17.155,29.378 	"/>
	<polygon fill="#FFFFFF" points="19.04,29.753 20,20 18.088,29.611 	"/>
	<polygon fill="#FFFFFF" points="20,29.8 20,20 19.04,29.753 	"/>
	<polygon fill="#FFFFFF" points="20.961,29.753 20,20 20,29.8 	"/>
	<polygon fill="#FFFFFF" points="21.912,29.611 20,20 20.961,29.753 	"/>
	<polygon fill="#FFFFFF" points="22.845,29.378 20,20 21.912,29.611 	"/>
	<polygon fill="#FFFFFF" points="23.75,29.055 20,20 22.845,29.378 	"/>
	<polygon fill="#FFFFFF" points="24.619,28.643 20,20 23.75,29.055 	"/>
	<polygon fill="#FFFFFF" points="25.445,28.148 20,20 24.619,28.643 	"/>
	<polygon fill="#FFFFFF" points="26.217,27.576 20,20 25.445,28.148 	"/>
	<polygon fill="#FFFFFF" points="26.93,26.93 20,20 26.217,27.576 	"/>
	<polygon fill="#FFFFFF" points="27.576,26.217 20,20 26.93,26.93 	"/>
	<polygon fill="#FFFFFF" points="28.148,25.445 20,20 27.576,26.217 	"/>
	<polygon fill="#FFFFFF" points="28.643,24.619 20,20 28.148,25.445 	"/>
	<polygon fill="#FFFFFF" points="29.055,23.75 20,20 28.643,24.619 	"/>
	<polygon fill="#FFFFFF" points="29.378,22.845 20,20 29.055,23.75 	"/>
	<polygon fill="#FFFFFF" points="29.611,21.912 20,20 29.378,22.845 	"/>
	<polygon fill="#FFFFFF" points="29.753,20.961 20,20 29.611,21.912 	"/>
	<polygon fill="#FFFFFF" points="29.8,20 20,20 29.753,20.961 	"/>
	<polyline fill="none" stroke="#000000" stroke-width="0.125" points="29.8,20 29.752,19.024 29.605,18.058 29.365,17.111 
		29.03,16.193 28.606,15.313 28.098,14.479 27.508,13.701 26.843,12.984 26.11,12.338 25.316,11.768 24.471,11.279 23.58,10.877 
		22.654,10.566 21.701,10.349 20.732,10.228 19.756,10.203 18.781,10.276 17.819,10.446 16.879,10.71 15.969,11.067 15.1,11.513 
		14.279,12.043 13.516,12.652 12.816,13.334 12.188,14.083 11.638,14.89 11.17,15.748 10.791,16.648 10.503,17.582 10.31,18.54 
		10.212,19.512 10.212,20.488 10.31,21.461 10.503,22.418 10.791,23.352 11.17,24.252 11.638,25.109 12.188,25.918 12.816,26.666 
		13.516,27.348 14.279,27.957 15.1,28.486 15.969,28.933 16.879,29.289 17.819,29.555 18.781,29.725 19.756,29.797 20.732,29.772 
		21.701,29.65 22.654,29.434 23.58,29.123 24.471,28.721 25.316,28.232 26.11,27.662 26.843,27.016 27.508,26.299 28.098,25.521 
		28.606,24.688 29.03,23.807 29.365,22.889 29.605,21.941 29.752,20.976 29.8,20 	"/>
	<line fill="none" stroke="#00BF00" stroke-width="0.125" x1="0.988" y1="20" x2="18.04" y2="20"/>
	<polygon points="21.951,19.808 20,20 21.96,20 	"/>
	<polygon points="21.922,19.618 20,20 21.951,19.808 	"/>
	<polygon points="21.875,19.431 20,20 21.922,19.618 	"/>
	<polygon points="21.811,19.25 20,20 21.875,19.431 	"/>
	<polygon points="21.729,19.076 20,20 21.811,19.25 	"/>
	<polygon points="21.63,18.911 20,20 21.729,19.076 	"/>
	<polygon points="21.516,18.756 20,20 21.63,18.911 	"/>
	<polygon points="21.386,18.614 20,20 21.516,18.756 	"/>
	<polygon points="21.244,18.485 20,20 21.386,18.614 	"/>
	<polygon points="21.089,18.37 20,20 21.244,18.485 	"/>
	<polygon points="20.924,18.271 20,20 21.089,18.37 	"/>
	<polygon points="20.75,18.189 20,20 20.924,18.271 	"/>
	<polygon points="20.568,18.125 20,20 20.75,18.189 	"/>
	<polygon points="20.382,18.078 20,20 20.568,18.125 	"/>
	<polygon points="20.192,18.049 20,20 20.382,18.078 	"/>
	<polygon points="20,18.04 20,20 20.192,18.049 	"/>
	<polygon points="19.808,18.049 20,20 20,18.04 	"/>
	<polygon points="19.618,18.078 20,20 19.808,18.049 	"/>
	<polygon points="19.431,18.125 20,20 19.618,18.078 	"/>
	<polygon points="19.25,18.189 20,20 19.431,18.125 	"/>
	<polygon points="19.076,18.271 20,20 19.25,18.189 	"/>
	<polygon points="18.911,18.37 20,20 19.076,18.271 	"/>
	<polygon points="18.756,18.485 20,20 18.911,18.37 	"/>
	<polygon points="18.614,18.614 20,20 18.756,18.485 	"/>
	<polygon points="18.485,18.756 20,20 18.614,18.614 	"/>
	<polygon points="18.37,18.911 20,20 18.485,18.756 	"/>
	<polygon points="18.271,19.076 20,20 18.37,18.911 	"/>
	<polygon points="18.189,19.25 20,20 18.271,19.076 	"/>
	<polygon points="18.125,19.431 20,20 18.189,19.25 	"/>
	<polygon points="18.078,19.618 20,20 18.125,19.431 	"/>
	<polygon points="18.049,19.808 20,20 18.078,19.618 	"/>
	<polygon points="18.04,20 20,20 18.049,19.808 	"/>
	<polygon points="18.049,20.192 20,20 18.04,20 	"/>
	<polygon points="18.078,20.382 20,20 18.049,20.192 	"/>
	<polygon points="18.125,20.568 20,20 18.078,20.382 	"/>
	<polygon points="18.189,20.75 20,20 18.125,20.568 	"/>
	<polygon points="18.271,20.924 20,20 18.189,20.75 	"/>
	<polygon points="18.37,21.089 20,20 18.271,20.924 	"/>
	<polygon points="18.485,21.244 20,20 18.37,21.089 	"/>
	<polygon points="18.614,21.386 20,20 18.485,21.244 	"/>
	<polygon points="18.756,21.516 20,20 18.614,21.386 	"/>
	<polygon points="18.911,21.63 20,20 18.756,21.516 	"/>
	<polygon points="19.076,21.729 20,20 18.911,21.63 	"/>
	<polygon points="19.25,21.811 20,20 19.076,21.729 	"/>
	<polygon points="19.431,21.875 20,20 19.25,21.811 	"/>
	<polygon points="19.618,21.922 20,20 19.431,21.875 	"/>
	<polygon points="19.808,21.951 20,20 19.618,21.922 	"/>
	<polygon points="20,21.96 20,20 19.808,21.951 	"/>
	<polygon points="20.192,21.951 20,20 20,21.96 	"/>
	<polygon points="20.382,21.922 20,20 20.192,21.951 	"/>
	<polygon points="20.568,21.875 20,20 20.382,21.922 	"/>
	<polygon points="20.75,21.811 20,20 20.568,21.875 	"/>
	<polygon points="20.924,21.729 20,20 20.75,21.811 	"/>
	<polygon points="21.089,21.63 20,20 20.924,21.729 	"/>
	<polygon points="21.244,21.516 20,20 21.089,21.63 	"/>
	<polygon points="21.386,21.386 20,20 21.244,21.516 	"/>
	<polygon points="21.516,21.244 20,20 21.386,21.386 	"/>
	<polygon points="21.63,21.089 20,20 21.516,21.244 	"/>
	<polygon points="21.729,20.924 20,20 21.63,21.089 	"/>
	<polygon points="21.811,20.75 20,20 21.729,20.924 	"/>
	<polygon points="21.875,20.568 20,20 21.811,20.75 	"/>
	<polygon points="21.922,20.382 20,20 21.875,20.568 	"/>
	<polygon points="21.951,20.192 20,20 21.922,20.382 	"/>
	<polygon points="21.96,20 20,20 21.951,20.192 	"/>
	<polyline fill="none" stroke="#000000" stroke-width="0.125" points="21.96,20 21.95,19.805 21.921,19.612 21.873,19.422 
		21.807,19.239 21.721,19.062 21.619,18.896 21.502,18.74 21.369,18.597 21.223,18.468 21.063,18.354 20.895,18.256 20.717,18.175 
		20.531,18.113 20.34,18.07 20.146,18.045 19.951,18.041 19.756,18.055 19.564,18.089 19.376,18.142 19.194,18.213 19.02,18.303 
		18.856,18.409 18.703,18.53 18.563,18.667 18.438,18.816 18.328,18.978 18.234,19.149 18.158,19.33 18.101,19.516 18.062,19.708 
		18.042,19.902 18.042,20.098 18.062,20.292 18.101,20.484 18.158,20.67 18.234,20.851 18.328,21.021 18.438,21.184 18.563,21.333 
		18.703,21.47 18.856,21.592 19.02,21.697 19.194,21.787 19.376,21.857 19.564,21.91 19.756,21.945 19.951,21.959 20.146,21.955 
		20.34,21.93 20.531,21.887 20.717,21.824 20.895,21.744 21.063,21.646 21.223,21.532 21.369,21.403 21.502,21.26 21.619,21.104 
		21.721,20.938 21.807,20.762 21.873,20.578 21.921,20.388 21.95,20.195 21.96,20 	"/>
	<line fill="none" stroke="#000000" stroke-width="0.125" x1="20" y1="10.2" x2="39.012" y2="10.2"/>
	<line fill="none" stroke="#000000" stroke-width="0.125" x1="20" y1="29.8" x2="39.012" y2="29.8"/>
	<polygon points="19.113,14.307 21.27,14.11 20.682,15.679 	"/>
	<polygon fill="#C0C0C0" points="18.04,29.8 18.04,39.6 21.96,39.6 	"/>
	<polygon fill="#C0C0C0" points="18.04,29.8 21.96,39.6 21.96,29.8 	"/>
	<polyline fill="none" stroke="#000000" stroke-width="0.125" points="18.04,29.8 18.04,39.6 21.96,39.6 21.96,29.8 18.04,29.8 	"/>
	<text transform="matrix(1 0 0 1 35 7)" fill="#AFAFAF" font-family="'ArialMT'" font-size="2">1</text>
	<text transform="matrix(1 0 0 1 35 35)" fill="#AFAFAF" font-family="'ArialMT'" font-size="2">2</text>
</g>
<path fill="none" stroke="#000000" stroke-width="0.125" d="M21.96,14.602"/>
<path fill="none" stroke="#000000" stroke-width="0.125" d="M20.096,25.88"/>
<path fill="none" stroke="#000000" stroke-width="0.125" d="M20.047,14.602c0,0,13.888,5.312,0,11.267"/>
</svg>
