<?xml version="1.0" encoding="UTF-8" standalone="no"?>
<svg xmlns="http://www.w3.org/2000/svg"
     xmlns:xlink="http://www.w3.org/1999/xlink"
     width="40px" height="40px" viewBox="0 0 40 40"
     style="stroke:none">
<title>Graphic window number 0</title>
<desc>
Creator: GL2PS 1.3.2, (C) 1999-2006 Christophe Geuzaine (geuz@geuz.org)
For: Scilab
CreationDate: Thu Feb 24 11:29:20 2011
</desc>
<defs>
</defs>
<polygon fill="#ffffff" points="0,0 40,0 40,40 0,40"/>
<g>
<polygon fill="#ffffff" points="0.399902,39.6001 0.399902,0.399902 0.399902,0.399902"/>
<polygon fill="#ffffff" points="0.399902,39.6001 0.399902,0.399902 0.399902,39.6001"/>
<polygon fill="#ffffff" points="0.399902,39.6001 39.6001,39.6001 39.6001,39.6001"/>
<polygon fill="#ffffff" points="0.399902,39.6001 39.6001,39.6001 0.399902,39.6001"/>
<polygon fill="#ffffff" points="0.399902,39.6001 39.6001,39.6001 39.6001,0.399902"/>
<polygon fill="#ffffff" points="0.399902,39.6001 39.6001,0.399902 0.399902,0.399902"/>
<polygon fill="#ffffff" points="6.27979,16.0801 6.27979,31.7598 33.7202,31.7598"/>
<polygon fill="#ffffff" points="6.27979,16.0801 33.7202,31.7598 33.7202,16.0801"/>
<polyline fill="none" stroke="#000000" stroke-width="0.125" points="6.27979,16.0801 6.27979,31.7598 33.7202,31.7598 33.7202,16.0801 6.27979,16.0801"/>
<polygon fill="#000000" points="18.04,23.1362 21.96,23.1362 20,27.8398"/>
<polyline fill="none" stroke="#000000" stroke-width="0.125" points="20,27.8398 18.04,23.1362 21.96,23.1362 20,27.8398"/>
<polyline fill="none" stroke="#000000" stroke-width="0.125" points="20,20 20,23.1362"/>
<polyline fill="none" stroke="#000000" stroke-width="0.125" points="6.27979,20 20,20"/>
<polyline fill="none" stroke="#000000" stroke-width="0.125" points="10.2002,27.8398 10.2002,31.7598"/>
<polyline fill="none" stroke="#000000" stroke-width="0.125" points="14.1201,27.8398 14.1201,31.7598"/>
<polyline fill="none" stroke="#000000" stroke-width="0.125" points="18.04,27.8398 18.04,31.7598"/>
<polyline fill="none" stroke="#000000" stroke-width="0.125" points="21.96,27.8398 21.96,31.7598"/>
<polyline fill="none" stroke="#000000" stroke-width="0.125" points="25.8799,27.8398 25.8799,31.7598"/>
<polyline fill="none" stroke="#000000" stroke-width="0.125" points="29.7998,27.8398 29.7998,31.7598"/>
<polyline fill="none" stroke="#000000" stroke-width="0.125" points="10.0039,13.3359 25.6841,13.3359"/>
<polygon fill="#808080" points="25.6841,15.2959 31.564,13.3359 25.6841,11.376"/>
<polyline fill="none" stroke="#000000" stroke-width="0.125" points="31.564,13.3359 25.6841,11.376 25.6841,15.2959 31.564,13.3359"/>
<polyline fill="none" stroke="#000000" stroke-width="0.125" points="6.27979,20 2.35986,20"/>
<polyline fill="none" stroke="#000000" stroke-width="0.125" points="33.7202,20 37.6401,20"/>
<polyline fill="none" stroke="#000000" stroke-width="0.125" points="6.27979,20 2.35986,20"/>
<polyline fill="none" stroke="#00007f" stroke-width="0.125" points="33.7983,20 39.6001,20"/>
<polyline fill="none" stroke="#00007f" stroke-width="0.125" points="20,39.6001 20,31.9561"/>
<text fill="#000000" style="stroke:none" x="23" y="38" transform="rotate(0, 23, 38)" font-size="5" font-family="SansSerif" font-style="normal" font-weight="normal">v</text>
</g>
</svg>
