<?xml version="1.0" encoding="utf-8"?>
<!-- Generator: Adobe Illustrator 14.0.0, SVG Export Plug-In . SVG Version: 6.00 Build 43363)  -->
<!DOCTYPE svg PUBLIC "-//W3C//DTD SVG 1.1//EN" "http://www.w3.org/Graphics/SVG/1.1/DTD/svg11.dtd">
<svg version="1.1" id="Calque_1" xmlns="http://www.w3.org/2000/svg" xmlns:xlink="http://www.w3.org/1999/xlink" x="0px" y="0px"
	 width="40px" height="40px" viewBox="0 0 40 40" enable-background="new 0 0 40 40" xml:space="preserve">
<title>Graphic window number 0</title>
<desc>Creator: GL2PS 1.3.2, (C) 1999-2006 Christophe Geuzaine (geuz@geuz.org)
For: Scilab
CreationDate: Fri Sep 16 15:14:50 2011</desc>
<g>
	<polygon fill="#FFFFFF" points="6.28,16.08 6.28,31.76 33.721,31.76 	"/>
	<polygon fill="#FFFFFF" points="6.28,16.08 33.721,31.76 33.721,16.08 	"/>
	<polyline fill="none" stroke="#000000" stroke-width="0.125" points="6.28,16.08 6.28,31.76 33.721,31.76 33.721,16.08 6.28,16.08 
			"/>
	<polygon points="18.04,23.137 21.96,23.137 20,27.84 	"/>
	<polyline fill="none" stroke="#000000" stroke-width="0.125" points="20,27.84 18.04,23.137 21.96,23.137 20,27.84 	"/>
	<line fill="none" stroke="#000000" stroke-width="0.125" x1="20" y1="20" x2="20" y2="23.137"/>
	<line fill="none" stroke="#000000" stroke-width="0.125" x1="6.28" y1="20" x2="20" y2="20"/>
	<line fill="none" stroke="#000000" stroke-width="0.125" x1="10.2" y1="27.84" x2="10.2" y2="31.76"/>
	<line fill="none" stroke="#000000" stroke-width="0.125" x1="14.12" y1="27.84" x2="14.12" y2="31.76"/>
	<line fill="none" stroke="#000000" stroke-width="0.125" x1="18.04" y1="27.84" x2="18.04" y2="31.76"/>
	<line fill="none" stroke="#000000" stroke-width="0.125" x1="21.96" y1="27.84" x2="21.96" y2="31.76"/>
	<line fill="none" stroke="#000000" stroke-width="0.125" x1="25.88" y1="27.84" x2="25.88" y2="31.76"/>
	<line fill="none" stroke="#000000" stroke-width="0.125" x1="29.8" y1="27.84" x2="29.8" y2="31.76"/>
	<line fill="none" stroke="#000000" stroke-width="0.125" x1="10.004" y1="13.336" x2="25.684" y2="13.336"/>
	<polygon fill="#808080" points="25.684,15.296 31.564,13.336 25.684,11.376 	"/>
	<polyline fill="none" stroke="#000000" stroke-width="0.125" points="31.564,13.336 25.684,11.376 25.684,15.296 31.564,13.336 	
		"/>
	<line fill="none" stroke="#000000" stroke-width="0.125" x1="6.28" y1="20" x2="2.36" y2="20"/>
	<line fill="none" stroke="#000000" stroke-width="0.125" x1="33.721" y1="20" x2="37.641" y2="20"/>
	<line fill="none" stroke="#000000" stroke-width="0.125" x1="6.28" y1="20" x2="2.36" y2="20"/>
	<line fill="none" stroke="#00007F" stroke-width="0.125" x1="33.799" y1="20" x2="39.6" y2="20"/>
	<line fill="none" stroke="#00007F" stroke-width="0.125" x1="20" y1="39.404" x2="20" y2="31.76"/>
	<text transform="matrix(1 0 0 1 23 38)" font-family="'ArialMT'" font-size="5">s</text>
</g>
</svg>
