<?xml version="1.0" encoding="UTF-8" standalone="no"?>
<svg xmlns="http://www.w3.org/2000/svg"
     xmlns:xlink="http://www.w3.org/1999/xlink"
     width="40px" height="40px" viewBox="0 0 40 40"
     style="stroke:none">
<title>Graphic window number 0</title>
<desc>
Creator: GL2PS 1.3.2, (C) 1999-2006 Christophe Geuzaine (geuz@geuz.org)
For: Scilab
CreationDate: Thu Feb 24 11:29:22 2011
</desc>
<defs>
</defs>
<polygon fill="#ffffff" points="0,0 40,0 40,40 0,40"/>
<g>
<polygon fill="#ffffff" points="0.399902,39.6001 0.399902,0.399902 0.399902,0.399902"/>
<polygon fill="#ffffff" points="0.399902,39.6001 0.399902,0.399902 0.399902,39.6001"/>
<polygon fill="#ffffff" points="0.399902,39.6001 39.6001,39.6001 39.6001,39.6001"/>
<polygon fill="#ffffff" points="0.399902,39.6001 39.6001,39.6001 0.399902,39.6001"/>
<polygon fill="#ffffff" points="0.399902,39.6001 39.6001,39.6001 39.6001,0.399902"/>
<polygon fill="#ffffff" points="0.399902,39.6001 39.6001,0.399902 0.399902,0.399902"/>
<polygon fill="#d7d7d7" points="37.6401,20 31.7598,18.04 31.7598,13.9238"/>
<polygon fill="#d7d7d7" points="31.7598,21.96 31.7598,18.04 37.6401,20"/>
<polygon fill="#d7d7d7" points="21.96,21.96 31.7598,18.04 31.7598,21.96"/>
<polygon fill="#d7d7d7" points="21.96,18.04 31.7598,18.04 21.96,21.96"/>
<polygon fill="#d7d7d7" points="31.7598,25.8799 31.7598,21.96 37.6401,20"/>
<polyline fill="none" stroke="#007f00" stroke-width="0.125" points="37.6401,20 31.7598,25.8799 31.7598,21.96 21.96,21.96 21.96,18.04 31.7598,18.04 31.7598,13.9238 37.6401,20"/>
<polygon fill="#d7d7d7" points="8.24023,25.8799 2.35986,20 8.24023,14.1201"/>
<polygon fill="#d7d7d7" points="8.24023,18.04 8.24023,25.8799 8.24023,14.1201"/>
<polygon fill="#d7d7d7" points="8.24023,21.96 8.24023,25.8799 8.24023,18.04"/>
<polygon fill="#d7d7d7" points="18.04,18.04 8.24023,21.96 8.24023,18.04"/>
<polygon fill="#d7d7d7" points="18.04,21.96 8.24023,21.96 18.04,18.04"/>
<polyline fill="none" stroke="#007f00" stroke-width="0.125" points="2.35986,20 8.24023,14.1201 8.24023,18.04 18.04,18.04 18.04,21.96 8.24023,21.96 8.24023,25.8799 2.35986,20"/>
</g>
</svg>
