<?xml version="1.0" encoding="utf-8"?>
<!-- Generator: Adobe Illustrator 14.0.0, SVG Export Plug-In . SVG Version: 6.00 Build 43363)  -->
<!DOCTYPE svg PUBLIC "-//W3C//DTD SVG 1.1//EN" "http://www.w3.org/Graphics/SVG/1.1/DTD/svg11.dtd">
<svg version="1.1" id="Calque_1" xmlns="http://www.w3.org/2000/svg" xmlns:xlink="http://www.w3.org/1999/xlink" x="0px" y="0px"
	 width="40px" height="40px" viewBox="0 0 40 40" enable-background="new 0 0 40 40" xml:space="preserve">
<g display="none">
	<polyline display="inline" fill="none" stroke="#0000FF" stroke-width="1.125" points="0.4,39.6 4.32,39.208 8.24,38.031 
		12.16,36.072 16.08,33.328 20,29.8 23.92,25.488 27.84,20.392 31.76,14.512 35.68,7.848 39.516,2.233 	"/>
</g>
<g>
	<g>
		<polygon fill="#1A171B" points="6.004,6.572 26.059,6.572 26.059,9.632 36.874,5.816 26.059,2 26.059,5.06 6.004,5.06 		"/>
	</g>
</g>
<g>
	<g>
		<polygon fill="#1A171B" points="35.166,31.34 15.111,31.34 15.111,34.4 4.296,30.585 15.111,26.768 15.111,29.828 35.166,29.828 
					"/>
	</g>
</g>
<line fill="none" stroke="#000000" stroke-width="1.125" x1="21.916" y1="30.593" x2="21.916" y2="38.433"/>
<path fill="none" stroke="#0000FF" stroke-width="1.125" d="M-0.084,41.833"/>
<path fill="none" stroke="#0000FF" stroke-width="1.125" stroke-linecap="round" d="M12.415,25.107c0,0,8.153,0,16.167-15.3"/>
</svg>
