<?xml version="1.0" encoding="utf-8"?>
<!-- Generator: Adobe Illustrator 14.0.0, SVG Export Plug-In . SVG Version: 6.00 Build 43363)  -->
<!DOCTYPE svg PUBLIC "-//W3C//DTD SVG 1.1//EN" "http://www.w3.org/Graphics/SVG/1.1/DTD/svg11.dtd">
<svg version="1.1" id="Calque_1" xmlns="http://www.w3.org/2000/svg" xmlns:xlink="http://www.w3.org/1999/xlink" x="0px" y="0px"
	 width="40px" height="40px" viewBox="0 0 40 40" enable-background="new 0 0 40 40" xml:space="preserve">
<title>Graphic window number 0</title>
<desc>Creator: GL2PS 1.3.2, (C) 1999-2006 Christophe Geuzaine (geuz@geuz.org)
For: Scilab
CreationDate: Fri Sep 16 15:14:44 2011</desc>
<g>
	<polygon fill="#D7D7D7" points="37.641,20 31.76,18.04 31.76,13.924 	"/>
	<polygon fill="#D7D7D7" points="31.76,21.96 31.76,18.04 37.641,20 	"/>
	<polygon fill="#D7D7D7" points="21.96,21.96 31.76,18.04 31.76,21.96 	"/>
	<polygon fill="#D7D7D7" points="21.96,18.04 31.76,18.04 21.96,21.96 	"/>
	<polygon fill="#D7D7D7" points="31.76,25.88 31.76,21.96 37.641,20 	"/>
	<polyline fill="none" stroke="#007F00" stroke-width="0.125" points="37.641,20 31.76,25.88 31.76,21.96 21.96,21.96 21.96,18.04 
		31.76,18.04 31.76,13.924 37.641,20 	"/>
	<polygon fill="#D7D7D7" points="8.24,25.88 2.36,20 8.24,14.12 	"/>
	<polygon fill="#D7D7D7" points="8.24,18.04 8.24,25.88 8.24,14.12 	"/>
	<polygon fill="#D7D7D7" points="8.24,21.96 8.24,25.88 8.24,18.04 	"/>
	<polygon fill="#D7D7D7" points="18.04,18.04 8.24,21.96 8.24,18.04 	"/>
	<polygon fill="#D7D7D7" points="18.04,21.96 8.24,21.96 18.04,18.04 	"/>
	<polyline fill="none" stroke="#007F00" stroke-width="0.125" points="2.36,20 8.24,14.12 8.24,18.04 18.04,18.04 18.04,21.96 
		8.24,21.96 8.24,25.88 2.36,20 	"/>
</g>
</svg>
