<?xml version="1.0" encoding="utf-8"?>
<!-- Generator: Adobe Illustrator 14.0.0, SVG Export Plug-In . SVG Version: 6.00 Build 43363)  -->
<!DOCTYPE svg PUBLIC "-//W3C//DTD SVG 1.1//EN" "http://www.w3.org/Graphics/SVG/1.1/DTD/svg11.dtd">
<svg version="1.1" id="Calque_1" xmlns="http://www.w3.org/2000/svg" xmlns:xlink="http://www.w3.org/1999/xlink" x="0px" y="0px"
	 width="40px" height="40px" viewBox="0 0 40 40" enable-background="new 0 0 40 40" xml:space="preserve">
<title>Graphic window number 0</title>
<desc>Creator: GL2PS 1.3.2, (C) 1999-2006 Christophe Geuzaine (geuz@geuz.org)
For: Scilab
CreationDate: Fri Sep 16 15:14:45 2011</desc>
<g>
	<line fill="none" stroke="#000000" stroke-width="0.125" x1="20" y1="31.76" x2="20" y2="39.6"/>
	<line fill="none" stroke="#000000" stroke-width="0.125" x1="4.712" y1="4.32" x2="29.996" y2="4.32"/>
	<polygon fill="#808080" points="29.996,6.28 35.876,4.32 29.996,2.36 	"/>
	<polyline fill="none" stroke="#000000" stroke-width="0.125" points="35.876,4.32 29.996,2.36 29.996,6.28 35.876,4.32 	"/>
	<line fill="none" stroke="#000000" stroke-width="0.125" x1="9.808" y1="31.76" x2="35.092" y2="31.76"/>
	<polygon fill="#808080" points="10.004,29.8 10.004,33.721 3.928,31.76 	"/>
	<polyline fill="none" stroke="#000000" stroke-width="0.125" points="3.928,31.76 10.004,29.8 10.004,33.721 3.928,31.76 	"/>
	<polyline fill="none" stroke="#0000FF" stroke-width="0.125" points="0.4,39.6 4.32,39.208 8.24,38.032 12.16,36.072 16.08,33.328 
		20,29.8 23.92,25.488 27.84,20.392 31.76,14.512 35.68,7.848 39.6,0.4 	"/>
</g>
</svg>
