<?xml version="1.0" encoding="utf-8"?>
<!-- Generator: Adobe Illustrator 14.0.0, SVG Export Plug-In . SVG Version: 6.00 Build 43363)  -->
<!DOCTYPE svg PUBLIC "-//W3C//DTD SVG 1.1//EN" "http://www.w3.org/Graphics/SVG/1.1/DTD/svg11.dtd">
<svg version="1.1" id="Calque_1" xmlns="http://www.w3.org/2000/svg" xmlns:xlink="http://www.w3.org/1999/xlink" x="0px" y="0px"
	 width="40px" height="40px" viewBox="0 0 40 40" enable-background="new 0 0 40 40" xml:space="preserve">
<title>Graphic window number 0</title>
<desc>Creator: GL2PS 1.3.2, (C) 1999-2006 Christophe Geuzaine (geuz@geuz.org)
For: Scilab
CreationDate: Fri Sep 16 15:14:43 2011</desc>
<g>
	<polygon fill="#D7D7D7" points="37.641,20 23.92,18.04 23.92,11.964 	"/>
	<polygon fill="#D7D7D7" points="23.92,21.96 23.92,18.04 37.641,20 	"/>
	<polygon fill="#D7D7D7" points="0.4,21.96 23.92,18.04 23.92,21.96 	"/>
	<polygon fill="#D7D7D7" points="0.4,18.04 23.92,18.04 0.4,21.96 	"/>
	<polygon fill="#D7D7D7" points="23.92,28.036 23.92,21.96 37.641,20 	"/>
	<polyline fill="none" stroke="#007F00" stroke-width="0.125" points="0.4,18.04 23.92,18.04 23.92,11.964 37.641,20 23.92,28.036 
		23.92,21.96 0.4,21.96 0.4,18.04 	"/>
	<line fill="none" stroke="#000000" stroke-width="0.125" x1="14.12" y1="31.76" x2="25.88" y2="31.76"/>
	<line fill="none" stroke="#000000" stroke-width="0.125" x1="20" y1="31.76" x2="20" y2="39.796"/>
	<line fill="none" stroke="#000000" stroke-width="0.125" x1="14.12" y1="35.68" x2="18.04" y2="31.76"/>
	<line fill="none" stroke="#000000" stroke-width="0.125" x1="18.04" y1="35.68" x2="21.96" y2="31.76"/>
	<line fill="none" stroke="#000000" stroke-width="0.125" x1="21.96" y1="35.68" x2="25.88" y2="31.76"/>
	<polygon fill="#808080" points="14.12,27.84 14.12,31.76 8.044,29.8 	"/>
	<polyline fill="none" stroke="#000000" stroke-width="0.125" points="8.044,29.8 14.12,27.84 14.12,31.76 8.044,29.8 	"/>
	<line fill="none" stroke="#000000" stroke-width="0.125" x1="13.924" y1="29.8" x2="29.8" y2="29.8"/>
	<line fill="none" stroke="#000000" stroke-width="0.125" x1="10.2" y1="35.68" x2="14.12" y2="31.76"/>
	<text transform="matrix(1 0 0 1 3 35)" font-family="'ArialMT'" font-size="8">f</text>
</g>
</svg>
