<?xml version="1.0" encoding="utf-8"?>
<!-- Generator: Adobe Illustrator 14.0.0, SVG Export Plug-In . SVG Version: 6.00 Build 43363)  -->
<!DOCTYPE svg PUBLIC "-//W3C//DTD SVG 1.1//EN" "http://www.w3.org/Graphics/SVG/1.1/DTD/svg11.dtd">
<svg version="1.1" id="Calque_1" xmlns="http://www.w3.org/2000/svg" xmlns:xlink="http://www.w3.org/1999/xlink" x="0px" y="0px"
	 width="40px" height="40px" viewBox="0 0 40 40" enable-background="new 0 0 40 40" xml:space="preserve">
<title>Graphic window number 0</title>
<desc>Creator: GL2PS 1.3.2, (C) 1999-2006 Christophe Geuzaine (geuz@geuz.org)
For: Scilab
CreationDate: Fri Sep 16 15:16:34 2011</desc>
<g>
	<polygon fill="#C0C0C0" points="18.432,6.672 21.568,6.672 20,2.36 	"/>
	<polyline fill="none" stroke="#C0C0C0" stroke-width="0.125" points="20,2.36 18.432,6.672 21.568,6.672 20,2.36 	"/>
	<polyline fill="none" stroke="#000000" stroke-width="0.125" points="4.32,4.32 4.477,5.731 4.791,6.77 5.574,8.357 7.005,10.239 
		9.514,12.689 14.081,16.139 27.33,24.861 31.27,27.996 33.465,30.329 34.739,32.191 35.209,33.23 35.68,35.68 	"/>
	<line fill="none" stroke="#C0C0C0" stroke-width="0.125" x1="20" y1="37.248" x2="20" y2="6.672"/>
	<line fill="none" stroke="#C0C0C0" stroke-width="0.125" x1="2.36" y1="35.68" x2="33.328" y2="35.68"/>
	<polygon fill="#C0C0C0" points="33.328,37.248 37.641,35.68 33.328,34.111 	"/>
	<polyline fill="none" stroke="#C0C0C0" stroke-width="0.125" points="37.641,35.68 33.328,34.111 33.328,37.248 37.641,35.68 	"/>
	<text transform="matrix(1 0 0 1 5 29)" fill="#C0C0C0" font-family="'ArialMT'" font-size="5">acos</text>
</g>
</svg>
