<?xml version="1.0" encoding="utf-8"?>
<!-- Generator: Adobe Illustrator 14.0.0, SVG Export Plug-In . SVG Version: 6.00 Build 43363)  -->
<!DOCTYPE svg PUBLIC "-//W3C//DTD SVG 1.1//EN" "http://www.w3.org/Graphics/SVG/1.1/DTD/svg11.dtd">
<svg version="1.1" id="Calque_1" xmlns="http://www.w3.org/2000/svg" xmlns:xlink="http://www.w3.org/1999/xlink" x="0px" y="0px"
	 width="40px" height="40px" viewBox="0 0 40 40" enable-background="new 0 0 40 40" xml:space="preserve">
<title>Graphic window number 0</title>
<desc>Creator: GL2PS 1.3.2, (C) 1999-2006 Christophe Geuzaine (geuz@geuz.org)
For: Scilab
CreationDate: Fri Sep 16 15:16:38 2011</desc>
<g>
	<polyline fill="none" stroke="#0000BF" stroke-width="0.125" points="0.4,8.24 12.16,8.24 14.12,12.16 	"/>
	<polyline fill="none" stroke="#0000BF" stroke-width="0.125" points="0.4,31.76 12.16,31.76 14.12,27.84 	"/>
	<line fill="none" stroke="#0000BF" stroke-width="0.125" x1="29.8" y1="20" x2="39.6" y2="20"/>
	<line fill="none" stroke="#000000" stroke-width="0.125" x1="14.12" y1="20" x2="25.88" y2="20"/>
	<line fill="none" stroke="#000000" stroke-width="0.125" x1="17.06" y1="14.906" x2="22.939" y2="25.094"/>
	<line fill="none" stroke="#000000" stroke-width="0.125" x1="17.06" y1="25.094" x2="22.939" y2="14.906"/>
	<polyline fill="none" stroke="#0000BF" stroke-width="0.125" points="29.8,20 29.752,19.024 29.605,18.058 29.365,17.111 
		29.03,16.193 28.606,15.313 28.098,14.479 27.508,13.701 26.843,12.984 26.11,12.338 25.316,11.768 24.471,11.279 23.58,10.877 
		22.654,10.566 21.701,10.349 20.732,10.228 19.756,10.203 18.781,10.276 17.819,10.446 16.879,10.71 15.969,11.067 15.1,11.513 
		14.279,12.043 13.516,12.652 12.816,13.334 12.188,14.083 11.638,14.89 11.17,15.748 10.791,16.648 10.503,17.582 10.31,18.54 
		10.212,19.512 10.212,20.488 10.31,21.461 10.503,22.418 10.791,23.352 11.17,24.252 11.638,25.109 12.188,25.918 12.816,26.666 
		13.516,27.348 14.279,27.957 15.1,28.486 15.969,28.933 16.879,29.289 17.819,29.555 18.781,29.725 19.756,29.797 20.732,29.772 
		21.701,29.65 22.654,29.434 23.58,29.123 24.471,28.721 25.316,28.232 26.11,27.662 26.843,27.016 27.508,26.299 28.098,25.521 
		28.606,24.688 29.03,23.807 29.365,22.889 29.605,21.941 29.752,20.976 29.8,20 	"/>
</g>
</svg>
