<?xml version="1.0" encoding="utf-8"?>
<!-- Generator: Adobe Illustrator 14.0.0, SVG Export Plug-In . SVG Version: 6.00 Build 43363)  -->
<!DOCTYPE svg PUBLIC "-//W3C//DTD SVG 1.1//EN" "http://www.w3.org/Graphics/SVG/1.1/DTD/svg11.dtd">
<svg version="1.1" id="Calque_1" xmlns="http://www.w3.org/2000/svg" xmlns:xlink="http://www.w3.org/1999/xlink" x="0px" y="0px"
	 width="40px" height="40px" viewBox="0 0 40 40" enable-background="new 0 0 40 40" xml:space="preserve">
<title>Graphic window number 0</title>
<desc>Creator: GL2PS 1.3.2, (C) 1999-2006 Christophe Geuzaine (geuz@geuz.org)
For: Scilab
CreationDate: Fri Sep 16 15:16:37 2011</desc>
<g>
	<polygon fill="#EBEBEB" points="23.901,19.616 20,20 23.92,20 	"/>
	<polygon fill="#EBEBEB" points="23.845,19.235 20,20 23.901,19.616 	"/>
	<polygon fill="#EBEBEB" points="23.751,18.862 20,20 23.845,19.235 	"/>
	<polygon fill="#EBEBEB" points="23.621,18.5 20,20 23.751,18.862 	"/>
	<polygon fill="#EBEBEB" points="23.457,18.152 20,20 23.621,18.5 	"/>
	<polygon fill="#EBEBEB" points="23.26,17.822 20,20 23.457,18.152 	"/>
	<polygon fill="#EBEBEB" points="23.03,17.513 20,20 23.26,17.822 	"/>
	<polygon fill="#EBEBEB" points="22.771,17.228 20,20 23.03,17.513 	"/>
	<polygon fill="#EBEBEB" points="22.486,16.97 20,20 22.771,17.228 	"/>
	<polygon fill="#EBEBEB" points="22.178,16.741 20,20 22.486,16.97 	"/>
	<polygon fill="#EBEBEB" points="21.848,16.543 20,20 22.178,16.741 	"/>
	<polygon fill="#EBEBEB" points="21.5,16.378 20,20 21.848,16.543 	"/>
	<polygon fill="#EBEBEB" points="21.138,16.249 20,20 21.5,16.378 	"/>
	<polygon fill="#EBEBEB" points="20.765,16.155 20,20 21.138,16.249 	"/>
	<polygon fill="#EBEBEB" points="20.384,16.099 20,20 20.765,16.155 	"/>
	<polygon fill="#EBEBEB" points="20,16.08 20,20 20.384,16.099 	"/>
	<polygon fill="#EBEBEB" points="19.616,16.099 20,20 20,16.08 	"/>
	<polygon fill="#EBEBEB" points="19.235,16.155 20,20 19.616,16.099 	"/>
	<polygon fill="#EBEBEB" points="18.862,16.249 20,20 19.235,16.155 	"/>
	<polygon fill="#EBEBEB" points="18.5,16.378 20,20 18.862,16.249 	"/>
	<polygon fill="#EBEBEB" points="18.152,16.543 20,20 18.5,16.378 	"/>
	<polygon fill="#EBEBEB" points="17.822,16.741 20,20 18.152,16.543 	"/>
	<polygon fill="#EBEBEB" points="17.513,16.97 20,20 17.822,16.741 	"/>
	<polygon fill="#EBEBEB" points="17.228,17.228 20,20 17.513,16.97 	"/>
	<polygon fill="#EBEBEB" points="16.97,17.513 20,20 17.228,17.228 	"/>
	<polygon fill="#EBEBEB" points="16.741,17.822 20,20 16.97,17.513 	"/>
	<polygon fill="#EBEBEB" points="16.543,18.152 20,20 16.741,17.822 	"/>
	<polygon fill="#EBEBEB" points="16.378,18.5 20,20 16.543,18.152 	"/>
	<polygon fill="#EBEBEB" points="16.249,18.862 20,20 16.378,18.5 	"/>
	<polygon fill="#EBEBEB" points="16.155,19.235 20,20 16.249,18.862 	"/>
	<polygon fill="#EBEBEB" points="16.099,19.616 20,20 16.155,19.235 	"/>
	<polygon fill="#EBEBEB" points="16.08,20 20,20 16.099,19.616 	"/>
	<polygon fill="#EBEBEB" points="16.099,20.384 20,20 16.08,20 	"/>
	<polygon fill="#EBEBEB" points="16.155,20.765 20,20 16.099,20.384 	"/>
	<polygon fill="#EBEBEB" points="16.249,21.138 20,20 16.155,20.765 	"/>
	<polygon fill="#EBEBEB" points="16.378,21.5 20,20 16.249,21.138 	"/>
	<polygon fill="#EBEBEB" points="16.543,21.848 20,20 16.378,21.5 	"/>
	<polygon fill="#EBEBEB" points="16.741,22.178 20,20 16.543,21.848 	"/>
	<polygon fill="#EBEBEB" points="16.97,22.486 20,20 16.741,22.178 	"/>
	<polygon fill="#EBEBEB" points="17.228,22.771 20,20 16.97,22.486 	"/>
	<polygon fill="#EBEBEB" points="17.513,23.03 20,20 17.228,22.771 	"/>
	<polygon fill="#EBEBEB" points="17.822,23.26 20,20 17.513,23.03 	"/>
	<polygon fill="#EBEBEB" points="18.152,23.457 20,20 17.822,23.26 	"/>
	<polygon fill="#EBEBEB" points="18.5,23.621 20,20 18.152,23.457 	"/>
	<polygon fill="#EBEBEB" points="18.862,23.751 20,20 18.5,23.621 	"/>
	<polygon fill="#EBEBEB" points="19.235,23.845 20,20 18.862,23.751 	"/>
	<polygon fill="#EBEBEB" points="19.616,23.901 20,20 19.235,23.845 	"/>
	<polygon fill="#EBEBEB" points="20,23.92 20,20 19.616,23.901 	"/>
	<polygon fill="#EBEBEB" points="20.384,23.901 20,20 20,23.92 	"/>
	<polygon fill="#EBEBEB" points="20.765,23.845 20,20 20.384,23.901 	"/>
	<polygon fill="#EBEBEB" points="21.138,23.751 20,20 20.765,23.845 	"/>
	<polygon fill="#EBEBEB" points="21.5,23.621 20,20 21.138,23.751 	"/>
	<polygon fill="#EBEBEB" points="21.848,23.457 20,20 21.5,23.621 	"/>
	<polygon fill="#EBEBEB" points="22.178,23.26 20,20 21.848,23.457 	"/>
	<polygon fill="#EBEBEB" points="22.486,23.03 20,20 22.178,23.26 	"/>
	<polygon fill="#EBEBEB" points="22.771,22.771 20,20 22.486,23.03 	"/>
	<polygon fill="#EBEBEB" points="23.03,22.486 20,20 22.771,22.771 	"/>
	<polygon fill="#EBEBEB" points="23.26,22.178 20,20 23.03,22.486 	"/>
	<polygon fill="#EBEBEB" points="23.457,21.848 20,20 23.26,22.178 	"/>
	<polygon fill="#EBEBEB" points="23.621,21.5 20,20 23.457,21.848 	"/>
	<polygon fill="#EBEBEB" points="23.751,21.138 20,20 23.621,21.5 	"/>
	<polygon fill="#EBEBEB" points="23.845,20.765 20,20 23.751,21.138 	"/>
	<polygon fill="#EBEBEB" points="23.901,20.384 20,20 23.845,20.765 	"/>
	<polygon fill="#EBEBEB" points="23.92,20 20,20 23.901,20.384 	"/>
	<polyline fill="none" stroke="#0000BF" stroke-width="0.125" points="23.92,20 23.9,19.61 23.842,19.223 23.746,18.845 
		23.612,18.478 23.443,18.125 23.238,17.792 23.003,17.48 22.737,17.194 22.443,16.935 22.127,16.707 21.789,16.512 21.432,16.351 
		21.062,16.227 20.681,16.14 20.293,16.091 19.902,16.081 19.513,16.11 19.128,16.178 18.751,16.284 18.388,16.427 18.04,16.605 
		17.712,16.817 17.406,17.061 17.126,17.333 16.875,17.633 16.655,17.956 16.468,18.299 16.316,18.659 16.201,19.033 16.124,19.416 
		16.085,19.805 16.085,20.195 16.124,20.584 16.201,20.967 16.316,21.341 16.468,21.701 16.655,22.044 16.875,22.367 17.126,22.666 
		17.406,22.939 17.712,23.183 18.04,23.395 18.388,23.573 18.751,23.716 19.128,23.822 19.513,23.89 19.902,23.919 20.293,23.909 
		20.681,23.86 21.062,23.773 21.432,23.648 21.789,23.488 22.127,23.293 22.443,23.064 22.737,22.807 23.003,22.52 23.238,22.208 
		23.443,21.875 23.612,21.522 23.746,21.155 23.842,20.777 23.9,20.39 23.92,20 	"/>
	<line fill="none" stroke="#0000BF" stroke-width="0.125" x1="8.24" y1="20" x2="16.08" y2="20"/>
	<line fill="none" stroke="#0000BF" stroke-width="0.125" x1="23.92" y1="20" x2="35.68" y2="20"/>
	<line fill="none" stroke="#0000BF" stroke-width="0.125" x1="20" y1="23.92" x2="20" y2="31.76"/>
	<text transform="matrix(1 0 0 1 10.5 26.2363)" font-family="'ArialMT'" font-size="55">-</text>
</g>
</svg>
