<?xml version="1.0" encoding="utf-8"?>
<!-- Generator: Adobe Illustrator 14.0.0, SVG Export Plug-In . SVG Version: 6.00 Build 43363)  -->
<!DOCTYPE svg PUBLIC "-//W3C//DTD SVG 1.1//EN" "http://www.w3.org/Graphics/SVG/1.1/DTD/svg11.dtd">
<svg version="1.1" id="Calque_1" xmlns="http://www.w3.org/2000/svg" xmlns:xlink="http://www.w3.org/1999/xlink" x="0px" y="0px"
	 width="40px" height="40px" viewBox="0 0 40 40" enable-background="new 0 0 40 40" xml:space="preserve">
<title>Graphic window number 0</title>
<desc>Creator: GL2PS 1.3.2, (C) 1999-2006 Christophe Geuzaine (geuz@geuz.org)
For: Scilab
CreationDate: Fri Sep 16 15:16:36 2011</desc>
<g>
	<polygon fill="#C0C0C0" points="18.432,6.672 21.568,6.672 20,2.36 	"/>
	<polyline fill="none" stroke="#C0C0C0" stroke-width="0.125" points="20,2.36 18.432,6.672 21.568,6.672 20,2.36 	"/>
	<line fill="none" stroke="#C0C0C0" stroke-width="0.125" x1="20" y1="35.68" x2="20" y2="6.672"/>
	<polyline fill="none" stroke="#000000" stroke-width="0.125" points="4.32,4.32 4.791,8.024 5.417,12.297 6.045,15.943 
		6.849,19.747 7.632,22.861 8.573,25.841 9.671,28.525 10.945,30.8 12.356,32.604 14.081,34.053 16.295,35.111 19.134,35.66 
		22.137,35.504 24.645,34.739 26.703,33.465 28.271,31.877 29.525,30.035 30.643,27.84 31.584,25.391 32.367,22.861 33.151,19.747 
		33.955,15.943 34.582,12.297 35.209,8.024 35.68,4.32 	"/>
	<line fill="none" stroke="#C0C0C0" stroke-width="0.125" x1="2.36" y1="36.872" x2="33.328" y2="36.872"/>
	<polygon fill="#C0C0C0" points="33.328,38.44 37.641,36.872 33.328,35.305 	"/>
	<polyline fill="none" stroke="#C0C0C0" stroke-width="0.125" points="37.641,36.872 33.328,35.305 33.328,38.44 37.641,36.872 	"/>
	<text transform="matrix(1 0 0 1 23 13)" fill="#C0C0C0" font-family="'ArialMT'" font-size="4">cosh</text>
</g>
</svg>
