<?xml version="1.0" encoding="utf-8"?>
<!-- Generator: Adobe Illustrator 14.0.0, SVG Export Plug-In . SVG Version: 6.00 Build 43363)  -->
<!DOCTYPE svg PUBLIC "-//W3C//DTD SVG 1.1//EN" "http://www.w3.org/Graphics/SVG/1.1/DTD/svg11.dtd">
<svg version="1.1" id="Calque_1" xmlns="http://www.w3.org/2000/svg" xmlns:xlink="http://www.w3.org/1999/xlink" x="0px" y="0px"
	 width="40px" height="40px" viewBox="0 0 40 40" enable-background="new 0 0 40 40" xml:space="preserve">
<title>Graphic window number 0</title>
<desc>Creator: GL2PS 1.3.2, (C) 1999-2006 Christophe Geuzaine (geuz@geuz.org)
For: Scilab
CreationDate: Fri Sep 16 15:16:35 2011</desc>
<g>
	<polygon fill="#C0C0C0" points="18.432,6.672 21.568,6.672 20,2.36 	"/>
	<polyline fill="none" stroke="#C0C0C0" stroke-width="0.125" points="20,2.36 18.432,6.672 21.568,6.672 20,2.36 	"/>
	<line fill="none" stroke="#C0C0C0" stroke-width="0.125" x1="20" y1="35.68" x2="20" y2="6.672"/>
	<polyline fill="none" stroke="#000000" stroke-width="0.125" points="4.32,35.68 9.671,34.739 12.669,33.661 14.728,32.348 
		16.139,30.819 17.236,28.977 18.021,27.135 18.818,24.685 19.763,20.992 21.025,15.884 21.812,13.316 22.607,11.337 23.547,9.632 
		24.802,8.083 26.547,6.75 29.212,5.574 33.622,4.594 35.68,4.32 	"/>
	<line fill="none" stroke="#C0C0C0" stroke-width="0.125" x1="2.36" y1="20" x2="33.328" y2="20"/>
	<polygon fill="#C0C0C0" points="33.328,21.568 37.641,20 33.328,18.432 	"/>
	<polyline fill="none" stroke="#C0C0C0" stroke-width="0.125" points="37.641,20 33.328,18.432 33.328,21.568 37.641,20 	"/>
	<text transform="matrix(1 0 0 1 5 13)" fill="#C0C0C0" font-family="'ArialMT'" font-size="5">atan</text>
</g>
</svg>
