<?xml version="1.0" encoding="utf-8"?>
<!-- Generator: Adobe Illustrator 14.0.0, SVG Export Plug-In . SVG Version: 6.00 Build 43363)  -->
<!DOCTYPE svg PUBLIC "-//W3C//DTD SVG 1.1//EN" "http://www.w3.org/Graphics/SVG/1.1/DTD/svg11.dtd">
<svg version="1.1" id="Calque_1" xmlns="http://www.w3.org/2000/svg" xmlns:xlink="http://www.w3.org/1999/xlink" x="0px" y="0px"
	 width="40px" height="40px" viewBox="0 0 40 40" enable-background="new 0 0 40 40" xml:space="preserve">
<g>
	<polyline fill="none" stroke="#00007F" stroke-width="1.125" points="0.8,7.365 12.559,7.365 14.519,11.285 	"/>
	<polyline fill="none" stroke="#00007F" stroke-width="1.125" points="0.8,30.885 12.559,30.885 14.519,26.965 	"/>
	<line fill="none" stroke="#00007F" stroke-width="1.125" x1="30.199" y1="19.125" x2="40" y2="19.125"/>
</g>
<path fill="none" stroke="#00007F" stroke-width="1.125" d="M30.107,19.001c0,5.382-4.366,9.75-9.75,9.75
	c-5.385,0-9.75-4.368-9.75-9.75c0-5.386,4.365-9.75,9.75-9.75C25.741,9.25,30.107,13.615,30.107,19.001z"/>
<g enable-background="new    ">
	<path d="M24.593,13.818l-3.419,4.499v0.072l5.436-0.72v2.447l-5.436-0.648v0.072l3.455,4.319l-2.268,1.296l-2.16-5.039h-0.072
		l-2.339,5.075l-2.052-1.296l3.419-4.392v-0.071l-5.327,0.684V17.67l5.291,0.684v-0.072l-3.383-4.392l2.195-1.26l2.232,5.004h0.072
		l2.196-5.04L24.593,13.818z"/>
</g>
</svg>
