<?xml version="1.0" encoding="utf-8"?>
<!-- Generator: Adobe Illustrator 14.0.0, SVG Export Plug-In . SVG Version: 6.00 Build 43363)  -->
<!DOCTYPE svg PUBLIC "-//W3C//DTD SVG 1.1//EN" "http://www.w3.org/Graphics/SVG/1.1/DTD/svg11.dtd">
<svg version="1.1" id="Calque_1" xmlns="http://www.w3.org/2000/svg" xmlns:xlink="http://www.w3.org/1999/xlink" x="0px" y="0px"
	 width="40px" height="40px" viewBox="0 0 40 40" enable-background="new 0 0 40 40" xml:space="preserve">
<title>Graphic window number 0</title>
<desc>Creator: GL2PS 1.3.2, (C) 1999-2006 Christophe Geuzaine (geuz@geuz.org)
For: Scilab
CreationDate: Fri Sep 16 15:16:40 2011</desc>
<g>
	<line fill="none" stroke="#C0C0C0" stroke-width="0.125" x1="20" y1="37.641" x2="20" y2="3.536"/>
	<line fill="none" stroke="#C0C0C0" stroke-width="0.125" x1="0.4" y1="20" x2="36.464" y2="20"/>
	<polyline fill="none" stroke="#000000" stroke-width="0.125" points="4.32,35.68 10.631,35.426 12.983,34.838 14.571,33.838 
		15.668,32.583 16.609,30.957 17.55,28.683 18.502,25.723 19.763,20.945 21.339,14.845 22.293,11.768 23.234,9.377 24.175,7.632 
		25.272,6.3 26.703,5.3 28.898,4.634 34.111,4.339 35.68,4.32 	"/>
	<polygon fill="#C0C0C0" points="18.432,6.672 21.568,6.672 20,2.36 	"/>
	<polyline fill="none" stroke="#C0C0C0" stroke-width="0.125" points="20,2.36 18.432,6.672 21.568,6.672 20,2.36 	"/>
	<polygon fill="#C0C0C0" points="33.328,21.568 37.641,20 33.328,18.432 	"/>
	<polyline fill="none" stroke="#C0C0C0" stroke-width="0.125" points="37.641,20 33.328,18.432 33.328,21.568 37.641,20 	"/>
	<text transform="matrix(1 0 0 1 5 12)" fill="#C0C0C0" font-family="'ArialMT'" font-size="4">tanh</text>
</g>
</svg>
