<?xml version="1.0" encoding="utf-8"?>
<!-- Generator: Adobe Illustrator 14.0.0, SVG Export Plug-In . SVG Version: 6.00 Build 43363)  -->
<!DOCTYPE svg PUBLIC "-//W3C//DTD SVG 1.1//EN" "http://www.w3.org/Graphics/SVG/1.1/DTD/svg11.dtd">
<svg version="1.1" id="Calque_1" xmlns="http://www.w3.org/2000/svg" xmlns:xlink="http://www.w3.org/1999/xlink" x="0px" y="0px"
	 width="40px" height="40px" viewBox="0 0 40 40" enable-background="new 0 0 40 40" xml:space="preserve">
<title>Graphic window number 0</title>
<desc>Creator: GL2PS 1.3.2, (C) 1999-2006 Christophe Geuzaine (geuz@geuz.org)
For: Scilab
CreationDate: Fri Sep 16 15:16:37 2011</desc>
<g>
	<line fill="none" stroke="#C0C0C0" stroke-width="0.125" x1="4.32" y1="35.68" x2="4.32" y2="6.672"/>
	<polygon fill="#C0C0C0" points="2.752,6.672 5.888,6.672 4.32,2.36 	"/>
	<polyline fill="none" stroke="#C0C0C0" stroke-width="0.125" points="4.32,2.36 2.752,6.672 5.888,6.672 4.32,2.36 	"/>
	<polyline fill="none" stroke="#000000" stroke-width="0.125" points="4.32,35.68 4.477,29.918 4.634,27.252 4.791,25.488 
		4.947,24.175 5.261,22.234 5.731,20.257 6.378,18.417 7.319,16.492 8.73,14.512 10.788,12.532 13.767,10.572 18.021,8.632 
		24.332,6.672 33.465,4.692 35.68,4.32 	"/>
	<line fill="none" stroke="#C0C0C0" stroke-width="0.125" x1="2.36" y1="20" x2="33.328" y2="20"/>
	<polygon fill="#C0C0C0" points="33.328,21.568 37.641,20 33.328,18.432 	"/>
	<polyline fill="none" stroke="#C0C0C0" stroke-width="0.125" points="37.641,20 33.328,18.432 33.328,21.568 37.641,20 	"/>
	<text transform="matrix(1 0 0 1 21 32)" fill="#C0C0C0" font-family="'ArialMT'" font-size="6">log</text>
</g>
</svg>
