<?xml version="1.0" encoding="utf-8"?>
<!-- Generator: Adobe Illustrator 14.0.0, SVG Export Plug-In . SVG Version: 6.00 Build 43363)  -->
<!DOCTYPE svg PUBLIC "-//W3C//DTD SVG 1.1//EN" "http://www.w3.org/Graphics/SVG/1.1/DTD/svg11.dtd">
<svg version="1.1" id="Calque_1" xmlns="http://www.w3.org/2000/svg" xmlns:xlink="http://www.w3.org/1999/xlink" x="0px" y="0px"
	 width="40px" height="40px" viewBox="0 0 40 40" enable-background="new 0 0 40 40" xml:space="preserve">
<title>Graphic window number 0</title>
<desc>Creator: GL2PS 1.3.2, (C) 1999-2006 Christophe Geuzaine (geuz@geuz.org)
For: Scilab
CreationDate: Fri Sep 16 15:16:36 2011</desc>
<line fill="none" stroke="#0000BF" stroke-width="0.125" x1="29.8" y1="20" x2="39.6" y2="20"/>
<line fill="none" stroke="#000000" stroke-width="0.125" x1="14.12" y1="20" x2="25.88" y2="20"/>
<polygon points="20.975,15.004 20,15.1 20.98,15.1 "/>
<polygon points="20.961,14.909 20,15.1 20.975,15.004 "/>
<polygon points="20.938,14.815 20,15.1 20.961,14.909 "/>
<polygon points="20.905,14.725 20,15.1 20.938,14.815 "/>
<polygon points="20.864,14.638 20,15.1 20.905,14.725 "/>
<polygon points="20.814,14.556 20,15.1 20.864,14.638 "/>
<polygon points="20.758,14.479 20,15.1 20.814,14.556 "/>
<polygon points="20.693,14.407 20,15.1 20.758,14.479 "/>
<polygon points="20.621,14.342 20,15.1 20.693,14.407 "/>
<polygon points="20.545,14.285 20,15.1 20.621,14.342 "/>
<polygon points="20.462,14.236 20,15.1 20.545,14.285 "/>
<polygon points="20.375,14.195 20,15.1 20.462,14.236 "/>
<polygon points="20.285,14.162 20,15.1 20.375,14.195 "/>
<polygon points="20.191,14.139 20,15.1 20.285,14.162 "/>
<polygon points="20.096,14.125 20,15.1 20.191,14.139 "/>
<polygon points="20,14.12 20,15.1 20.096,14.125 "/>
<polygon points="19.904,14.125 20,15.1 20,14.12 "/>
<polygon points="19.809,14.139 20,15.1 19.904,14.125 "/>
<polygon points="19.715,14.162 20,15.1 19.809,14.139 "/>
<polygon points="19.625,14.195 20,15.1 19.715,14.162 "/>
<polygon points="19.538,14.236 20,15.1 19.625,14.195 "/>
<polygon points="19.456,14.285 20,15.1 19.538,14.236 "/>
<polygon points="19.378,14.342 20,15.1 19.456,14.285 "/>
<polygon points="19.307,14.407 20,15.1 19.378,14.342 "/>
<polygon points="19.243,14.479 20,15.1 19.307,14.407 "/>
<polygon points="19.185,14.556 20,15.1 19.243,14.479 "/>
<polygon points="19.136,14.638 20,15.1 19.185,14.556 "/>
<polygon points="19.095,14.725 20,15.1 19.136,14.638 "/>
<polygon points="19.062,14.815 20,15.1 19.095,14.725 "/>
<polygon points="19.039,14.909 20,15.1 19.062,14.815 "/>
<polygon points="19.025,15.004 20,15.1 19.039,14.909 "/>
<polygon points="19.02,15.1 20,15.1 19.025,15.004 "/>
<polygon points="19.025,15.196 20,15.1 19.02,15.1 "/>
<polygon points="19.039,15.291 20,15.1 19.025,15.196 "/>
<polygon points="19.062,15.384 20,15.1 19.039,15.291 "/>
<polygon points="19.095,15.475 20,15.1 19.062,15.384 "/>
<polygon points="19.136,15.562 20,15.1 19.095,15.475 "/>
<polygon points="19.185,15.645 20,15.1 19.136,15.562 "/>
<polygon points="19.243,15.722 20,15.1 19.185,15.645 "/>
<polygon points="19.307,15.793 20,15.1 19.243,15.722 "/>
<polygon points="19.378,15.857 20,15.1 19.307,15.793 "/>
<polygon points="19.456,15.915 20,15.1 19.378,15.857 "/>
<polygon points="19.538,15.964 20,15.1 19.456,15.915 "/>
<polygon points="19.625,16.005 20,15.1 19.538,15.964 "/>
<polygon points="19.715,16.038 20,15.1 19.625,16.005 "/>
<polygon points="19.809,16.061 20,15.1 19.715,16.038 "/>
<polygon points="19.904,16.075 20,15.1 19.809,16.061 "/>
<polygon points="20,16.08 20,15.1 19.904,16.075 "/>
<polygon points="20.096,16.075 20,15.1 20,16.08 "/>
<polygon points="20.191,16.061 20,15.1 20.096,16.075 "/>
<polygon points="20.285,16.038 20,15.1 20.191,16.061 "/>
<polygon points="20.375,16.005 20,15.1 20.285,16.038 "/>
<polygon points="20.462,15.964 20,15.1 20.375,16.005 "/>
<polygon points="20.545,15.915 20,15.1 20.462,15.964 "/>
<polygon points="20.621,15.857 20,15.1 20.545,15.915 "/>
<polygon points="20.693,15.793 20,15.1 20.621,15.857 "/>
<polygon points="20.758,15.722 20,15.1 20.693,15.793 "/>
<polygon points="20.814,15.645 20,15.1 20.758,15.722 "/>
<polygon points="20.864,15.562 20,15.1 20.814,15.645 "/>
<polygon points="20.905,15.475 20,15.1 20.864,15.562 "/>
<polygon points="20.938,15.384 20,15.1 20.905,15.475 "/>
<polygon points="20.961,15.291 20,15.1 20.938,15.384 "/>
<polygon points="20.975,15.196 20,15.1 20.961,15.291 "/>
<polygon points="20.98,15.1 20,15.1 20.975,15.196 "/>
<polyline fill="none" stroke="#000000" stroke-width="0.125" points="20.98,15.1 20.975,15.002 20.961,14.906 20.937,14.811 
	20.902,14.719 20.861,14.631 20.81,14.548 20.75,14.47 20.684,14.398 20.611,14.334 20.531,14.277 20.447,14.228 20.358,14.188 
	20.266,14.157 20.17,14.135 20.073,14.123 19.976,14.12 19.878,14.127 19.782,14.145 19.688,14.171 19.597,14.207 19.51,14.251 
	19.428,14.304 19.352,14.365 19.282,14.434 19.219,14.508 19.164,14.589 19.117,14.675 19.079,14.765 19.05,14.858 19.031,14.954 
	19.021,15.051 19.021,15.149 19.031,15.246 19.05,15.342 19.079,15.435 19.117,15.525 19.164,15.611 19.219,15.692 19.282,15.767 
	19.352,15.835 19.428,15.896 19.51,15.949 19.597,15.993 19.688,16.029 19.782,16.056 19.878,16.072 19.976,16.08 20.073,16.077 
	20.17,16.065 20.266,16.043 20.358,16.012 20.447,15.972 20.531,15.923 20.611,15.866 20.684,15.802 20.75,15.73 20.81,15.652 
	20.861,15.569 20.902,15.48 20.937,15.389 20.961,15.294 20.975,15.198 20.98,15.1 "/>
<polygon points="20.975,24.804 20,24.9 20.98,24.9 "/>
<polygon points="20.961,24.709 20,24.9 20.975,24.804 "/>
<polygon points="20.938,24.615 20,24.9 20.961,24.709 "/>
<polygon points="20.905,24.525 20,24.9 20.938,24.615 "/>
<polygon points="20.864,24.438 20,24.9 20.905,24.525 "/>
<polygon points="20.814,24.355 20,24.9 20.864,24.438 "/>
<polygon points="20.758,24.278 20,24.9 20.814,24.355 "/>
<polygon points="20.693,24.207 20,24.9 20.758,24.278 "/>
<polygon points="20.621,24.143 20,24.9 20.693,24.207 "/>
<polygon points="20.545,24.085 20,24.9 20.621,24.143 "/>
<polygon points="20.462,24.035 20,24.9 20.545,24.085 "/>
<polygon points="20.375,23.994 20,24.9 20.462,24.035 "/>
<polygon points="20.285,23.963 20,24.9 20.375,23.994 "/>
<polygon points="20.191,23.939 20,24.9 20.285,23.963 "/>
<polygon points="20.096,23.925 20,24.9 20.191,23.939 "/>
<polygon points="20,23.92 20,24.9 20.096,23.925 "/>
<polygon points="19.904,23.925 20,24.9 20,23.92 "/>
<polygon points="19.809,23.939 20,24.9 19.904,23.925 "/>
<polygon points="19.715,23.963 20,24.9 19.809,23.939 "/>
<polygon points="19.625,23.994 20,24.9 19.715,23.963 "/>
<polygon points="19.538,24.035 20,24.9 19.625,23.994 "/>
<polygon points="19.456,24.085 20,24.9 19.538,24.035 "/>
<polygon points="19.378,24.143 20,24.9 19.456,24.085 "/>
<polygon points="19.307,24.207 20,24.9 19.378,24.143 "/>
<polygon points="19.243,24.278 20,24.9 19.307,24.207 "/>
<polygon points="19.185,24.355 20,24.9 19.243,24.278 "/>
<polygon points="19.136,24.438 20,24.9 19.185,24.355 "/>
<polygon points="19.095,24.525 20,24.9 19.136,24.438 "/>
<polygon points="19.062,24.615 20,24.9 19.095,24.525 "/>
<polygon points="19.039,24.709 20,24.9 19.062,24.615 "/>
<polygon points="19.025,24.804 20,24.9 19.039,24.709 "/>
<polygon points="19.02,24.9 20,24.9 19.025,24.804 "/>
<polygon points="19.025,24.996 20,24.9 19.02,24.9 "/>
<polygon points="19.039,25.092 20,24.9 19.025,24.996 "/>
<polygon points="19.062,25.185 20,24.9 19.039,25.092 "/>
<polygon points="19.095,25.275 20,24.9 19.062,25.185 "/>
<polygon points="19.136,25.361 20,24.9 19.095,25.275 "/>
<polygon points="19.185,25.444 20,24.9 19.136,25.361 "/>
<polygon points="19.243,25.521 20,24.9 19.185,25.444 "/>
<polygon points="19.307,25.593 20,24.9 19.243,25.521 "/>
<polygon points="19.378,25.658 20,24.9 19.307,25.593 "/>
<polygon points="19.456,25.715 20,24.9 19.378,25.658 "/>
<polygon points="19.538,25.764 20,24.9 19.456,25.715 "/>
<polygon points="19.625,25.805 20,24.9 19.538,25.764 "/>
<polygon points="19.715,25.838 20,24.9 19.625,25.805 "/>
<polygon points="19.809,25.861 20,24.9 19.715,25.838 "/>
<polygon points="19.904,25.875 20,24.9 19.809,25.861 "/>
<polygon points="20,25.88 20,24.9 19.904,25.875 "/>
<polygon points="20.096,25.875 20,24.9 20,25.88 "/>
<polygon points="20.191,25.861 20,24.9 20.096,25.875 "/>
<polygon points="20.285,25.838 20,24.9 20.191,25.861 "/>
<polygon points="20.375,25.805 20,24.9 20.285,25.838 "/>
<polygon points="20.462,25.764 20,24.9 20.375,25.805 "/>
<polygon points="20.545,25.715 20,24.9 20.462,25.764 "/>
<polygon points="20.621,25.658 20,24.9 20.545,25.715 "/>
<polygon points="20.693,25.593 20,24.9 20.621,25.658 "/>
<polygon points="20.758,25.521 20,24.9 20.693,25.593 "/>
<polygon points="20.814,25.444 20,24.9 20.758,25.521 "/>
<polygon points="20.864,25.361 20,24.9 20.814,25.444 "/>
<polygon points="20.905,25.275 20,24.9 20.864,25.361 "/>
<polygon points="20.938,25.185 20,24.9 20.905,25.275 "/>
<polygon points="20.961,25.092 20,24.9 20.938,25.185 "/>
<polygon points="20.975,24.996 20,24.9 20.961,25.092 "/>
<polygon points="20.98,24.9 20,24.9 20.975,24.996 "/>
<polyline fill="none" stroke="#000000" stroke-width="0.125" points="20.98,24.9 20.975,24.803 20.961,24.706 20.937,24.611 
	20.902,24.52 20.861,24.432 20.81,24.348 20.75,24.27 20.684,24.198 20.611,24.134 20.531,24.076 20.447,24.027 20.358,23.988 
	20.266,23.957 20.17,23.936 20.073,23.923 19.976,23.92 19.878,23.928 19.782,23.944 19.688,23.971 19.597,24.007 19.51,24.051 
	19.428,24.104 19.352,24.165 19.282,24.233 19.219,24.309 19.164,24.389 19.117,24.475 19.079,24.564 19.05,24.658 19.031,24.754 
	19.021,24.852 19.021,24.949 19.031,25.046 19.05,25.142 19.079,25.235 19.117,25.325 19.164,25.411 19.219,25.492 19.282,25.566 
	19.352,25.635 19.428,25.695 19.51,25.748 19.597,25.793 19.688,25.829 19.782,25.855 19.878,25.873 19.976,25.88 20.073,25.877 
	20.17,25.865 20.266,25.844 20.358,25.812 20.447,25.771 20.531,25.723 20.611,25.666 20.684,25.602 20.75,25.529 20.81,25.452 
	20.861,25.369 20.902,25.281 20.937,25.189 20.961,25.094 20.975,24.998 20.98,24.9 "/>
<polyline fill="none" stroke="#0000BF" stroke-width="0.125" points="29.8,20 29.752,19.024 29.605,18.058 29.365,17.111 
	29.03,16.193 28.606,15.313 28.098,14.479 27.508,13.701 26.843,12.984 26.11,12.338 25.316,11.768 24.471,11.279 23.58,10.877 
	22.654,10.566 21.701,10.349 20.732,10.228 19.756,10.203 18.781,10.276 17.819,10.446 16.879,10.71 15.969,11.067 15.1,11.513 
	14.279,12.043 13.516,12.652 12.816,13.334 12.188,14.083 11.638,14.89 11.17,15.748 10.791,16.648 10.503,17.582 10.31,18.54 
	10.212,19.512 10.212,20.488 10.31,21.461 10.503,22.418 10.791,23.352 11.17,24.252 11.638,25.109 12.188,25.918 12.816,26.666 
	13.516,27.348 14.279,27.957 15.1,28.486 15.969,28.933 16.879,29.289 17.819,29.555 18.781,29.725 19.756,29.797 20.732,29.772 
	21.701,29.65 22.654,29.434 23.58,29.123 24.471,28.721 25.316,28.232 26.11,27.662 26.843,27.016 27.508,26.299 28.098,25.521 
	28.606,24.688 29.03,23.807 29.365,22.889 29.605,21.941 29.752,20.976 29.8,20 "/>
<g>
	<polyline fill="none" stroke="#0000BF" stroke-width="0.125" points="0.4,8.24 7.064,8.24 12.16,14.12 	"/>
</g>
<polyline fill="none" stroke="#0000BF" stroke-width="0.125" points="12.816,26.666 7.062,31.75 0,31.75 "/>
</svg>
