<?xml version="1.0" encoding="UTF-8" standalone="no"?>
<svg xmlns="http://www.w3.org/2000/svg"
     xmlns:xlink="http://www.w3.org/1999/xlink"
     width="40px" height="40px" viewBox="0 0 40 40"
     style="stroke:none">
<title>Graphic window number 0</title>
<desc>
Creator: GL2PS 1.3.2, (C) 1999-2006 Christophe Geuzaine (geuz@geuz.org)
For: Scilab
CreationDate: Thu Feb 24 12:12:33 2011
</desc>
<defs>
</defs>
<polygon fill="#ffffff" points="0,0 40,0 40,40 0,40"/>
<g>
<polygon fill="#ffffff" points="0.399902,39.6001 0.399902,0.399902 0.399902,0.399902"/>
<polygon fill="#ffffff" points="0.399902,39.6001 0.399902,0.399902 0.399902,39.6001"/>
<polygon fill="#ffffff" points="0.399902,39.6001 39.6001,39.6001 39.6001,39.6001"/>
<polygon fill="#ffffff" points="0.399902,39.6001 39.6001,39.6001 0.399902,39.6001"/>
<polygon fill="#ffffff" points="0.399902,39.6001 39.6001,39.6001 39.6001,0.399902"/>
<polygon fill="#ffffff" points="0.399902,39.6001 39.6001,0.399902 0.399902,0.399902"/>
<polygon fill="#ffffff" points="38.6777,0 38.6777,40 40,40"/>
<polygon fill="#ffffff" points="38.6777,0 40,40 40,0"/>
<polyline fill="none" stroke="#0000bf" stroke-width="0.125" points="38.6777,0 38.6777,40"/>
<polygon fill="#ffffff" points="0.399902,0.399902 0.399902,39.6001 39.6001,39.6001"/>
<polygon fill="#ffffff" points="0.399902,0.399902 39.6001,39.6001 39.6001,0.399902"/>
<polyline fill="none" stroke="#0000bf" stroke-width="0.125" points="0.399902,0.399902 0.399902,39.6001 39.6001,39.6001 39.6001,0.399902 0.399902,0.399902"/>
<polyline fill="none" stroke="#a0a0a0" stroke-width="0.125" points="35.6802,20 35.6021,18.439 35.3691,16.8931 34.9834,15.3784 34.4487,13.9092 33.7705,12.501 32.9556,11.167 32.0117,9.9209 30.9482,8.77539 29.7764,7.74072 28.5073,6.82861 27.1533,6.04688 25.7285,5.40381 24.2466,4.90625 22.7227,4.55811 21.1719,4.36377 19.6089,4.32471 18.0503,4.44189 16.5107,4.71289 15.0063,5.13672 13.5508,5.70752 12.1602,6.4209 10.8467,7.26904 9.625,8.24365 8.50586,9.33496 7.50098,10.5322 6.62061,11.8237 5.87305,13.1968 5.26562,14.6372 4.80469,16.1309 4.49512,17.6631 4.33936,19.2183 4.33936,20.7817 4.49512,22.3369 4.80469,23.8691 5.26562,25.3628 5.87305,26.8032 6.62061,28.1763 7.50098,29.4678 8.50586,30.665 9.625,31.7563 10.8467,32.731 12.1602,33.5791 13.5508,34.2925 15.0063,34.8633 16.5107,35.2871 18.0503,35.5581 19.6089,35.6753 21.1719,35.6362 22.7227,35.4419 24.2466,35.0938 25.7285,34.5962 27.1533,33.9531 28.5073,33.1714 29.7764,32.2593 30.9482,31.2246 32.0117,30.0791 32.9556,28.833 33.7705,27.499 34.4487,26.0908 34.9834,24.6216 35.3691,23.1069 35.6021,21.561 35.6802,20"/>
<polyline fill="none" stroke="#a0a0a0" stroke-width="0.125" points="20,4.31982 20,8.24023"/>
<polyline fill="none" stroke="#a0a0a0" stroke-width="0.125" points="35.6802,20 31.7598,20"/>
<polyline fill="none" stroke="#a0a0a0" stroke-width="0.125" points="20,35.6802 20,31.7598"/>
<polyline fill="none" stroke="#a0a0a0" stroke-width="0.125" points="4.31982,20 8.24023,20"/>
<polyline fill="none" stroke="#a0a0a0" stroke-width="0.125" points="27.252,6.27979 25.0962,10.2002"/>
<polyline fill="none" stroke="#a0a0a0" stroke-width="0.125" points="33.7202,12.5518 29.604,14.9038"/>
<polyline fill="none" stroke="#a0a0a0" stroke-width="0.125" points="33.916,27.252 30.1919,25.292"/>
<polyline fill="none" stroke="#a0a0a0" stroke-width="0.125" points="27.644,33.7202 25.6841,29.9961"/>
<polyline fill="none" stroke="#a0a0a0" stroke-width="0.125" points="12.356,33.7202 14.3159,30.1919"/>
<polyline fill="none" stroke="#a0a0a0" stroke-width="0.125" points="6.08398,27.252 10.2002,25.0962"/>
<polyline fill="none" stroke="#a0a0a0" stroke-width="0.125" points="6.08398,12.748 9.41602,14.5122"/>
<polyline fill="none" stroke="#a0a0a0" stroke-width="0.125" points="12.5518,6.27979 14.5122,10.0039"/>
<polyline fill="none" stroke="#000000" stroke-width="0.25" points="20,20 10.2002,10.2002"/>
<polyline fill="none" stroke="#000000" stroke-width="0.25" points="20,20 27.8398,20"/>
</g>
</svg>
