<?xml version="1.0" encoding="utf-8"?>
<!-- Generator: Adobe Illustrator 14.0.0, SVG Export Plug-In . SVG Version: 6.00 Build 43363)  -->
<!DOCTYPE svg PUBLIC "-//W3C//DTD SVG 1.1//EN" "http://www.w3.org/Graphics/SVG/1.1/DTD/svg11.dtd">
<svg version="1.1" id="Calque_1" xmlns="http://www.w3.org/2000/svg" xmlns:xlink="http://www.w3.org/1999/xlink" x="0px" y="0px"
	 width="40px" height="40px" viewBox="0 0 40 40" enable-background="new 0 0 40 40" xml:space="preserve">
<title>Graphic window number 0</title>
<desc>Creator: GL2PS 1.3.2, (C) 1999-2006 Christophe Geuzaine (geuz@geuz.org)
For: Scilab
CreationDate: Fri Sep 16 15:16:42 2011</desc>
<g>
	<line fill="none" stroke="#C0C0C0" stroke-width="0.125" x1="4.32" y1="6.672" x2="4.32" y2="35.68"/>
	<polygon fill="#C0C0C0" points="2.752,6.672 5.888,6.672 4.32,2.36 	"/>
	<polyline fill="none" stroke="#C0C0C0" stroke-width="0.125" points="4.32,2.36 2.752,6.672 5.888,6.672 4.32,2.36 	"/>
	<line fill="none" stroke="#C0C0C0" stroke-width="0.125" x1="2.36" y1="20" x2="33.328" y2="20"/>
	<polygon fill="#C0C0C0" points="33.328,21.568 37.641,20 33.328,18.432 	"/>
	<polyline fill="none" stroke="#C0C0C0" stroke-width="0.125" points="37.641,20 33.328,18.432 33.328,21.568 37.641,20 	"/>
	<polyline fill="none" stroke="#000000" stroke-width="0.125" points="4.32,20 5.261,13.669 5.888,10.141 6.535,7.358 7.162,5.457 
		7.789,4.457 8.417,4.398 9.043,5.241 9.671,6.849 10.475,9.769 11.572,14.943 13.14,22.725 14.081,26.605 14.884,28.996 
		15.668,30.428 16.453,30.839 17.236,30.29 18.021,28.879 18.975,26.291 21.654,17.315 22.607,14.826 23.547,13.179 24.332,12.552 
		25.272,12.709 26.232,13.767 27.487,16.198 30.016,22.059 31.27,24.155 32.367,25.076 33.465,25.076 34.739,24.018 35.68,22.705 	
		"/>
</g>
</svg>
