<?xml version="1.0" encoding="utf-8"?>
<!-- Generator: Adobe Illustrator 14.0.0, SVG Export Plug-In . SVG Version: 6.00 Build 43363)  -->
<!DOCTYPE svg PUBLIC "-//W3C//DTD SVG 1.1//EN" "http://www.w3.org/Graphics/SVG/1.1/DTD/svg11.dtd">
<svg version="1.1" id="Calque_1" xmlns="http://www.w3.org/2000/svg" xmlns:xlink="http://www.w3.org/1999/xlink" x="0px" y="0px"
	 width="40px" height="40px" viewBox="0 0 40 40" enable-background="new 0 0 40 40" xml:space="preserve">
<title>Graphic window number 0</title>
<desc>Creator: GL2PS 1.3.2, (C) 1999-2006 Christophe Geuzaine (geuz@geuz.org)
For: Scilab
CreationDate: Fri Sep 16 15:16:43 2011</desc>
<g>
	<line fill="none" stroke="#C0C0C0" stroke-width="0.125" x1="4.32" y1="6.672" x2="4.32" y2="35.68"/>
	<polygon fill="#C0C0C0" points="2.752,6.672 5.888,6.672 4.32,2.36 	"/>
	<polyline fill="none" stroke="#C0C0C0" stroke-width="0.125" points="4.32,2.36 2.752,6.672 5.888,6.672 4.32,2.36 	"/>
	<line fill="none" stroke="#C0C0C0" stroke-width="0.125" x1="2.36" y1="20" x2="33.328" y2="20"/>
	<polygon fill="#C0C0C0" points="33.328,21.568 37.641,20 33.328,18.432 	"/>
	<polyline fill="none" stroke="#C0C0C0" stroke-width="0.125" points="37.641,20 33.328,18.432 33.328,21.568 37.641,20 	"/>
	<polyline fill="none" stroke="#000000" stroke-width="0.125" points="4.32,20 6.535,13.297 7.946,9.592 9.2,6.986 10.317,5.378 
		11.415,4.497 12.513,4.359 13.61,4.986 14.728,6.339 15.825,8.357 17.08,11.356 18.661,15.845 21.979,26.037 23.391,29.84 
		24.645,32.583 25.742,34.328 26.859,35.366 27.957,35.68 29.055,35.209 30.172,34.014 31.27,32.133 32.524,29.251 34.111,24.861 
		35.68,20 	"/>
</g>
</svg>
