<?xml version="1.0" encoding="UTF-8" standalone="no"?>
<svg xmlns="http://www.w3.org/2000/svg"
     xmlns:xlink="http://www.w3.org/1999/xlink"
     width="40px" height="40px" viewBox="0 0 40 40"
     style="stroke:none">
<title>Graphic window number 0</title>
<desc>
Creator: GL2PS 1.3.2, (C) 1999-2006 Christophe Geuzaine (geuz@geuz.org)
For: Scilab
CreationDate: Thu Feb 24 12:12:37 2011
</desc>
<defs>
</defs>
<polygon fill="#ffffff" points="0,0 40,0 40,40 0,40"/>
<g>
<polygon fill="#ffffff" points="0.399902,39.6001 0.399902,0.399902 0.399902,0.399902"/>
<polygon fill="#ffffff" points="0.399902,39.6001 0.399902,0.399902 0.399902,39.6001"/>
<polygon fill="#ffffff" points="0.399902,39.6001 39.6001,39.6001 39.6001,39.6001"/>
<polygon fill="#ffffff" points="0.399902,39.6001 39.6001,39.6001 0.399902,39.6001"/>
<polygon fill="#ffffff" points="0.399902,39.6001 39.6001,39.6001 39.6001,0.399902"/>
<polygon fill="#ffffff" points="0.399902,39.6001 39.6001,0.399902 0.399902,0.399902"/>
<polygon fill="#ffffff" points="38.6777,0 38.6777,40 40,40"/>
<polygon fill="#ffffff" points="38.6777,0 40,40 40,0"/>
<polyline fill="none" stroke="#0000bf" stroke-width="0.125" points="38.6777,0 38.6777,40"/>
<polygon fill="#ffffff" points="0.399902,0.399902 0.399902,39.6001 39.6001,39.6001"/>
<polygon fill="#ffffff" points="0.399902,0.399902 39.6001,39.6001 39.6001,0.399902"/>
<polyline fill="none" stroke="#0000bf" stroke-width="0.125" points="0.399902,0.399902 0.399902,39.6001 39.6001,39.6001 39.6001,0.399902 0.399902,0.399902"/>
<polyline fill="none" stroke="#c0c0c0" stroke-width="0.125" points="4.31982,6.67188 4.31982,35.6802"/>
<polygon fill="#c0c0c0" points="2.75195,6.67188 5.88818,6.67188 4.31982,2.35986"/>
<polyline fill="none" stroke="#c0c0c0" stroke-width="0.125" points="4.31982,2.35986 2.75195,6.67188 5.88818,6.67188 4.31982,2.35986"/>
<polyline fill="none" stroke="#c0c0c0" stroke-width="0.125" points="2.35986,20 33.3281,20"/>
<polygon fill="#c0c0c0" points="33.3281,21.5679 37.6401,20 33.3281,18.4321"/>
<polyline fill="none" stroke="#c0c0c0" stroke-width="0.125" points="37.6401,20 33.3281,18.4321 33.3281,21.5679 37.6401,20"/>
<polyline fill="none" stroke="#000000" stroke-width="0.125" points="4.31982,20 6.53467,13.2969 7.9458,9.59229 9.2002,6.98584 10.3174,5.37842 11.415,4.49658 12.5127,4.35938 13.6104,4.98633 14.7275,6.33887 15.8252,8.35742 17.0796,11.3564 18.6611,15.8447 21.9795,26.0366 23.3906,29.8394 24.645,32.583 25.7427,34.3276 26.8599,35.3662 27.9575,35.6802 29.0552,35.2095 30.1724,34.0142 31.27,32.1323 32.5244,29.251 34.1118,24.8608 35.6802,20"/>
</g>
</svg>
