<?xml version="1.0" encoding="UTF-8" standalone="no"?>
<svg xmlns="http://www.w3.org/2000/svg"
     xmlns:xlink="http://www.w3.org/1999/xlink"
     width="40px" height="40px" viewBox="0 0 40 40"
     style="stroke:none">
<title>Graphic window number 0</title>
<desc>
Creator: GL2PS 1.3.2, (C) 1999-2006 Christophe Geuzaine (geuz@geuz.org)
For: Scilab
CreationDate: Thu Feb 24 12:12:34 2011
</desc>
<defs>
</defs>
<polygon fill="#ffffff" points="0,0 40,0 40,40 0,40"/>
<g>
<polygon fill="#ffffff" points="0.399902,39.6001 0.399902,0.399902 0.399902,0.399902"/>
<polygon fill="#ffffff" points="0.399902,39.6001 0.399902,0.399902 0.399902,39.6001"/>
<polygon fill="#ffffff" points="0.399902,39.6001 39.6001,39.6001 39.6001,39.6001"/>
<polygon fill="#ffffff" points="0.399902,39.6001 39.6001,39.6001 0.399902,39.6001"/>
<polygon fill="#ffffff" points="0.399902,39.6001 39.6001,39.6001 39.6001,0.399902"/>
<polygon fill="#ffffff" points="0.399902,39.6001 39.6001,0.399902 0.399902,0.399902"/>
<polygon fill="#ffffff" points="38.6777,0 38.6777,40 40,40"/>
<polygon fill="#ffffff" points="38.6777,0 40,40 40,0"/>
<polyline fill="none" stroke="#0000bf" stroke-width="0.125" points="38.6777,0 38.6777,40"/>
<polygon fill="#ffffff" points="0.399902,0.399902 0.399902,39.6001 39.6001,39.6001"/>
<polygon fill="#ffffff" points="0.399902,0.399902 39.6001,39.6001 39.6001,0.399902"/>
<polyline fill="none" stroke="#0000bf" stroke-width="0.125" points="0.399902,0.399902 0.399902,39.6001 39.6001,39.6001 39.6001,0.399902 0.399902,0.399902"/>
<polyline fill="none" stroke="#c0c0c0" stroke-width="0.125" points="4.31982,6.67188 4.31982,35.6802"/>
<polygon fill="#c0c0c0" points="2.75195,6.67188 5.88818,6.67188 4.31982,2.35986"/>
<polyline fill="none" stroke="#c0c0c0" stroke-width="0.125" points="4.31982,2.35986 2.75195,6.67188 5.88818,6.67188 4.31982,2.35986"/>
<polyline fill="none" stroke="#c0c0c0" stroke-width="0.125" points="2.35986,20 33.3281,20"/>
<polygon fill="#c0c0c0" points="33.3281,21.5679 37.6401,20 33.3281,18.4321"/>
<polyline fill="none" stroke="#c0c0c0" stroke-width="0.125" points="37.6401,20 33.3281,18.4321 33.3281,21.5679 37.6401,20"/>
<polyline fill="none" stroke="#000000" stroke-width="0.125" points="4.31982,20 5.26074,13.6694 5.88818,10.1411 6.53467,7.35791 7.16211,5.45703 7.78906,4.45703 8.4165,4.39844 9.04346,5.24121 9.6709,6.84863 10.4746,9.76904 11.5718,14.9434 13.1401,22.7246 14.0806,26.605 14.8843,28.9966 15.6685,30.4272 16.4526,30.8389 17.2363,30.29 18.0205,28.8789 18.9751,26.2915 21.6543,17.3149 22.6069,14.8257 23.5474,13.1792 24.3315,12.5518 25.2725,12.709 26.2329,13.7671 27.4873,16.1978 30.0156,22.0581 31.27,24.1553 32.3677,25.0762 33.4653,25.0762 34.7393,24.0181 35.6802,22.7046"/>
</g>
</svg>
