<?xml version="1.0" encoding="utf-8"?>
<!-- Generator: Adobe Illustrator 14.0.0, SVG Export Plug-In . SVG Version: 6.00 Build 43363)  -->
<!DOCTYPE svg PUBLIC "-//W3C//DTD SVG 1.1//EN" "http://www.w3.org/Graphics/SVG/1.1/DTD/svg11.dtd">
<svg version="1.1" id="Calque_1" xmlns="http://www.w3.org/2000/svg" xmlns:xlink="http://www.w3.org/1999/xlink" x="0px" y="0px"
	 width="40px" height="40px" viewBox="0 0 40 40" enable-background="new 0 0 40 40" xml:space="preserve">
<line fill="none" stroke="#A0A0A0" stroke-width="1.125" x1="20" y1="4.32" x2="20" y2="8.24"/>
<line fill="none" stroke="#A0A0A0" stroke-width="1.125" x1="35.68" y1="20" x2="31.76" y2="20"/>
<line fill="none" stroke="#A0A0A0" stroke-width="1.125" x1="20" y1="35.68" x2="20" y2="31.76"/>
<line fill="none" stroke="#A0A0A0" stroke-width="1.125" x1="4.32" y1="20" x2="8.24" y2="20"/>
<line fill="none" stroke="#A0A0A0" stroke-width="1.125" x1="27.252" y1="6.28" x2="25.096" y2="10.2"/>
<line fill="none" stroke="#A0A0A0" stroke-width="1.125" x1="33.721" y1="12.552" x2="29.604" y2="14.904"/>
<line fill="none" stroke="#A0A0A0" stroke-width="1.125" x1="33.916" y1="27.252" x2="30.191" y2="25.292"/>
<line fill="none" stroke="#A0A0A0" stroke-width="1.125" x1="27.645" y1="33.721" x2="25.684" y2="29.996"/>
<line fill="none" stroke="#A0A0A0" stroke-width="1.125" x1="12.356" y1="33.721" x2="14.316" y2="30.191"/>
<line fill="none" stroke="#A0A0A0" stroke-width="1.125" x1="6.084" y1="27.252" x2="10.2" y2="25.096"/>
<line fill="none" stroke="#A0A0A0" stroke-width="1.125" x1="6.084" y1="12.748" x2="9.416" y2="14.512"/>
<line fill="none" stroke="#A0A0A0" stroke-width="1.125" x1="12.552" y1="6.28" x2="14.512" y2="10.004"/>
<line fill="none" stroke="#000000" stroke-linecap="round" stroke-linejoin="round" x1="20" y1="20" x2="10.2" y2="10.2"/>
<line fill="none" stroke="#000000" stroke-linecap="round" stroke-linejoin="round" x1="20" y1="20" x2="27.84" y2="20"/>
<circle fill="none" stroke="#939493" cx="19.875" cy="19.812" r="15.75"/>
</svg>
