<?xml version="1.0" encoding="UTF-8" standalone="no"?>
<svg xmlns="http://www.w3.org/2000/svg"
     xmlns:xlink="http://www.w3.org/1999/xlink"
     width="40px" height="40px" viewBox="0 0 40 40"
     style="stroke:none">
<title>Graphic window number 0</title>
<desc>
Creator: GL2PS 1.3.2, (C) 1999-2006 Christophe Geuzaine (geuz@geuz.org)
For: Scilab
CreationDate: Thu Feb 24 12:12:32 2011
</desc>
<defs>
</defs>
<polygon fill="#ffffff" points="0,0 40,0 40,40 0,40"/>
<g>
<polygon fill="#ffffff" points="0.399902,39.6001 0.399902,0.399902 0.399902,0.399902"/>
<polygon fill="#ffffff" points="0.399902,39.6001 0.399902,0.399902 0.399902,39.6001"/>
<polygon fill="#ffffff" points="0.399902,39.6001 39.6001,39.6001 39.6001,39.6001"/>
<polygon fill="#ffffff" points="0.399902,39.6001 39.6001,39.6001 0.399902,39.6001"/>
<polygon fill="#ffffff" points="0.399902,39.6001 39.6001,39.6001 39.6001,0.399902"/>
<polygon fill="#ffffff" points="0.399902,39.6001 39.6001,0.399902 0.399902,0.399902"/>
<polygon fill="#ffffff" points="38.6777,0 38.6777,40 40,40"/>
<polygon fill="#ffffff" points="38.6777,0 40,40 40,0"/>
<polyline fill="none" stroke="#0000bf" stroke-width="0.125" points="38.6777,0 38.6777,40"/>
<polygon fill="#ffffff" points="0.399902,0.399902 0.399902,39.6001 39.6001,39.6001"/>
<polygon fill="#ffffff" points="0.399902,0.399902 39.6001,39.6001 39.6001,0.399902"/>
<polyline fill="none" stroke="#0000bf" stroke-width="0.125" points="0.399902,0.399902 0.399902,39.6001 39.6001,39.6001 39.6001,0.399902 0.399902,0.399902"/>
<polyline fill="none" stroke="#c0c0c0" stroke-width="0.125" points="4.31982,6.67188 4.31982,35.6802"/>
<polygon fill="#c0c0c0" points="2.75195,6.67188 5.88818,6.67188 4.31982,2.35986"/>
<polyline fill="none" stroke="#c0c0c0" stroke-width="0.125" points="4.31982,2.35986 2.75195,6.67188 5.88818,6.67188 4.31982,2.35986"/>
<polyline fill="none" stroke="#c0c0c0" stroke-width="0.125" points="2.35986,33.7202 36.0718,33.7202"/>
<polygon fill="#c0c0c0" points="33.3281,35.2881 37.6401,33.7202 33.3281,32.1519"/>
<polyline fill="none" stroke="#c0c0c0" stroke-width="0.125" points="37.6401,33.7202 33.3281,32.1519 33.3281,35.2881 37.6401,33.7202"/>
<polyline fill="none" stroke="#000000" stroke-width="0.125" points="4.31982,20 35.6802,20"/>
</g>
</svg>
