<?xml version="1.0" encoding="utf-8"?>
<!-- Generator: Adobe Illustrator 14.0.0, SVG Export Plug-In . SVG Version: 6.00 Build 43363)  -->
<!DOCTYPE svg PUBLIC "-//W3C//DTD SVG 1.1//EN" "http://www.w3.org/Graphics/SVG/1.1/DTD/svg11.dtd">
<svg version="1.1" id="Calque_1" xmlns="http://www.w3.org/2000/svg" xmlns:xlink="http://www.w3.org/1999/xlink" x="0px" y="0px"
	 width="40px" height="40px" viewBox="0 0 40 40" enable-background="new 0 0 40 40" xml:space="preserve">
<title>Graphic window number 0</title>
<desc>Creator: GL2PS 1.3.2, (C) 1999-2006 Christophe Geuzaine (geuz@geuz.org)
For: Scilab
CreationDate: Fri Sep 16 15:14:31 2011</desc>
<g>
	<line fill="none" stroke="#0000FF" stroke-width="0.125" x1="37.641" y1="40" x2="37.641" y2="0"/>
	<line fill="none" stroke="#0000FF" stroke-width="0.125" x1="37.641" y1="40" x2="37.641" y2="0"/>
	<line fill="none" stroke="#0000FF" stroke-width="0.125" x1="2.36" y1="0" x2="2.36" y2="40"/>
	<line fill="none" stroke="#0000FF" stroke-width="0.125" x1="2.36" y1="0" x2="2.36" y2="40"/>
	<polyline fill="none" stroke="#0000FF" stroke-width="0.125" points="16.08,27.35 16.068,27.105 16.031,26.865 15.971,26.628 
		15.888,26.398 15.782,26.178 15.654,25.97 15.507,25.775 15.341,25.596 15.158,25.435 14.959,25.292 14.748,25.17 14.525,25.069 
		14.293,24.992 14.056,24.938 13.813,24.906 13.569,24.9 13.325,24.919 13.085,24.961 12.85,25.027 12.623,25.117 12.405,25.229 
		12.2,25.361 12.009,25.514 11.834,25.684 11.677,25.871 11.54,26.072 11.423,26.287 11.328,26.512 11.256,26.746 11.208,26.984 
		11.183,27.229 11.183,27.473 11.208,27.715 11.256,27.955 11.328,28.188 11.423,28.413 11.54,28.627 11.677,28.829 11.834,29.017 
		12.009,29.188 12.2,29.34 12.405,29.472 12.623,29.583 12.85,29.672 13.085,29.738 13.325,29.781 13.569,29.799 13.813,29.793 
		14.056,29.763 14.293,29.709 14.525,29.631 14.748,29.53 14.959,29.408 15.158,29.266 15.341,29.104 15.507,28.925 15.654,28.73 
		15.782,28.521 15.888,28.302 15.971,28.072 16.031,27.836 16.068,27.594 16.08,27.35 	"/>
	<polyline fill="none" stroke="#0000FF" stroke-width="0.125" points="16.08,22.45 16.068,22.206 16.031,21.965 15.971,21.729 
		15.888,21.498 15.782,21.278 15.654,21.07 15.507,20.875 15.341,20.696 15.158,20.535 14.959,20.392 14.748,20.27 14.525,20.169 
		14.293,20.092 14.056,20.037 13.813,20.007 13.569,20.001 13.325,20.019 13.085,20.062 12.85,20.127 12.623,20.217 12.405,20.328 
		12.2,20.461 12.009,20.613 11.834,20.783 11.677,20.971 11.54,21.172 11.423,21.387 11.328,21.611 11.256,21.846 11.208,22.085 
		11.183,22.328 11.183,22.572 11.208,22.814 11.256,23.055 11.328,23.288 11.423,23.514 11.54,23.728 11.677,23.93 11.834,24.116 
		12.009,24.287 12.2,24.439 12.405,24.572 12.623,24.684 12.85,24.772 13.085,24.838 13.325,24.881 13.569,24.899 13.813,24.893 
		14.056,24.863 14.293,24.809 14.525,24.73 14.748,24.631 14.959,24.508 15.158,24.365 15.341,24.204 15.507,24.025 15.654,23.83 
		15.782,23.621 15.888,23.402 15.971,23.172 16.031,22.936 16.068,22.693 16.08,22.45 	"/>
	<polyline fill="none" stroke="#0000FF" stroke-width="0.125" points="16.08,17.55 16.068,17.306 16.031,17.064 15.971,16.828 
		15.888,16.598 15.782,16.378 15.654,16.17 15.507,15.975 15.341,15.796 15.158,15.634 14.959,15.492 14.748,15.37 14.525,15.27 
		14.293,15.191 14.056,15.137 13.813,15.107 13.569,15.101 13.325,15.119 13.085,15.162 12.85,15.228 12.623,15.317 12.405,15.428 
		12.2,15.561 12.009,15.713 11.834,15.884 11.677,16.071 11.54,16.272 11.423,16.487 11.328,16.712 11.256,16.945 11.208,17.185 
		11.183,17.428 11.183,17.672 11.208,17.915 11.256,18.155 11.328,18.388 11.423,18.613 11.54,18.828 11.677,19.029 11.834,19.216 
		12.009,19.387 12.2,19.539 12.405,19.672 12.623,19.783 12.85,19.873 13.085,19.938 13.325,19.981 13.569,19.999 13.813,19.993 
		14.056,19.963 14.293,19.908 14.525,19.831 14.748,19.73 14.959,19.608 15.158,19.465 15.341,19.304 15.507,19.125 15.654,18.93 
		15.782,18.722 15.888,18.501 15.971,18.272 16.031,18.036 16.068,17.794 16.08,17.55 	"/>
	<polyline fill="none" stroke="#0000FF" stroke-width="0.125" points="16.08,12.65 16.068,12.406 16.031,12.165 15.971,11.928 
		15.888,11.698 15.782,11.479 15.654,11.27 15.507,11.075 15.341,10.896 15.158,10.734 14.959,10.592 14.748,10.47 14.525,10.369 
		14.293,10.292 14.056,10.237 13.813,10.207 13.569,10.201 13.325,10.219 13.085,10.261 12.85,10.328 12.623,10.417 12.405,10.528 
		12.2,10.661 12.009,10.813 11.834,10.983 11.677,11.171 11.54,11.373 11.423,11.587 11.328,11.812 11.256,12.045 11.208,12.285 
		11.183,12.528 11.183,12.772 11.208,13.015 11.256,13.254 11.328,13.488 11.423,13.713 11.54,13.928 11.677,14.129 11.834,14.316 
		12.009,14.487 12.2,14.639 12.405,14.772 12.623,14.883 12.85,14.973 13.085,15.039 13.325,15.081 13.569,15.099 13.813,15.093 
		14.056,15.063 14.293,15.008 14.525,14.931 14.748,14.83 14.959,14.708 15.158,14.565 15.341,14.404 15.507,14.225 15.654,14.03 
		15.782,13.822 15.888,13.602 15.971,13.372 16.031,13.135 16.068,12.894 16.08,12.65 	"/>
	<polygon fill="#FFFFFF" points="5.888,8.24 5.888,31.76 13.532,31.76 	"/>
	<polygon fill="#FFFFFF" points="5.888,8.24 13.532,31.76 13.532,8.24 	"/>
	<polyline fill="none" stroke="#FFFFFF" stroke-width="0.125" points="5.888,8.24 5.888,31.76 13.532,31.76 13.532,8.24 5.888,8.24 
			"/>
	<line fill="none" stroke="#0000FF" stroke-width="0.125" x1="2.36" y1="10.2" x2="13.728" y2="10.2"/>
	<line fill="none" stroke="#0000FF" stroke-width="0.125" x1="2.36" y1="29.8" x2="13.728" y2="29.8"/>
	<polyline fill="none" stroke="#0000FF" stroke-width="0.125" points="28.82,27.35 28.808,27.105 28.771,26.865 28.711,26.628 
		28.627,26.398 28.521,26.178 28.395,25.97 28.246,25.775 28.08,25.596 27.897,25.435 27.699,25.292 27.488,25.17 27.266,25.069 
		27.033,24.992 26.795,24.938 26.553,24.906 26.309,24.9 26.065,24.919 25.824,24.961 25.59,25.027 25.362,25.117 25.145,25.229 
		24.939,25.361 24.749,25.514 24.574,25.684 24.417,25.871 24.279,26.072 24.162,26.287 24.068,26.512 23.996,26.746 23.947,26.984 
		23.923,27.229 23.923,27.473 23.947,27.715 23.996,27.955 24.068,28.188 24.162,28.413 24.279,28.627 24.417,28.829 24.574,29.017 
		24.749,29.188 24.939,29.34 25.145,29.472 25.362,29.583 25.59,29.672 25.824,29.738 26.065,29.781 26.309,29.799 26.553,29.793 
		26.795,29.763 27.033,29.709 27.266,29.631 27.488,29.53 27.699,29.408 27.897,29.266 28.08,29.104 28.246,28.925 28.395,28.73 
		28.521,28.521 28.627,28.302 28.711,28.072 28.771,27.836 28.808,27.594 28.82,27.35 	"/>
	<polyline fill="none" stroke="#0000FF" stroke-width="0.125" points="28.82,22.45 28.808,22.206 28.771,21.965 28.711,21.729 
		28.627,21.498 28.521,21.278 28.395,21.07 28.246,20.875 28.08,20.696 27.897,20.535 27.699,20.392 27.488,20.27 27.266,20.169 
		27.033,20.092 26.795,20.037 26.553,20.007 26.309,20.001 26.065,20.019 25.824,20.062 25.59,20.127 25.362,20.217 25.145,20.328 
		24.939,20.461 24.749,20.613 24.574,20.783 24.417,20.971 24.279,21.172 24.162,21.387 24.068,21.611 23.996,21.846 23.947,22.085 
		23.923,22.328 23.923,22.572 23.947,22.814 23.996,23.055 24.068,23.288 24.162,23.514 24.279,23.728 24.417,23.93 24.574,24.116 
		24.749,24.287 24.939,24.439 25.145,24.572 25.362,24.684 25.59,24.772 25.824,24.838 26.065,24.881 26.309,24.899 26.553,24.893 
		26.795,24.863 27.033,24.809 27.266,24.73 27.488,24.631 27.699,24.508 27.897,24.365 28.08,24.204 28.246,24.025 28.395,23.83 
		28.521,23.621 28.627,23.402 28.711,23.172 28.771,22.936 28.808,22.693 28.82,22.45 	"/>
	<polyline fill="none" stroke="#0000FF" stroke-width="0.125" points="28.82,17.55 28.808,17.306 28.771,17.064 28.711,16.828 
		28.627,16.598 28.521,16.378 28.395,16.17 28.246,15.975 28.08,15.796 27.897,15.634 27.699,15.492 27.488,15.37 27.266,15.27 
		27.033,15.191 26.795,15.137 26.553,15.107 26.309,15.101 26.065,15.119 25.824,15.162 25.59,15.228 25.362,15.317 25.145,15.428 
		24.939,15.561 24.749,15.713 24.574,15.884 24.417,16.071 24.279,16.272 24.162,16.487 24.068,16.712 23.996,16.945 23.947,17.185 
		23.923,17.428 23.923,17.672 23.947,17.915 23.996,18.155 24.068,18.388 24.162,18.613 24.279,18.828 24.417,19.029 24.574,19.216 
		24.749,19.387 24.939,19.539 25.145,19.672 25.362,19.783 25.59,19.873 25.824,19.938 26.065,19.981 26.309,19.999 26.553,19.993 
		26.795,19.963 27.033,19.908 27.266,19.831 27.488,19.73 27.699,19.608 27.897,19.465 28.08,19.304 28.246,19.125 28.395,18.93 
		28.521,18.722 28.627,18.501 28.711,18.272 28.771,18.036 28.808,17.794 28.82,17.55 	"/>
	<polyline fill="none" stroke="#0000FF" stroke-width="0.125" points="28.82,12.65 28.808,12.406 28.771,12.165 28.711,11.928 
		28.627,11.698 28.521,11.479 28.395,11.27 28.246,11.075 28.08,10.896 27.897,10.734 27.699,10.592 27.488,10.47 27.266,10.369 
		27.033,10.292 26.795,10.237 26.553,10.207 26.309,10.201 26.065,10.219 25.824,10.261 25.59,10.328 25.362,10.417 25.145,10.528 
		24.939,10.661 24.749,10.813 24.574,10.983 24.417,11.171 24.279,11.373 24.162,11.587 24.068,11.812 23.996,12.045 23.947,12.285 
		23.923,12.528 23.923,12.772 23.947,13.015 23.996,13.254 24.068,13.488 24.162,13.713 24.279,13.928 24.417,14.129 24.574,14.316 
		24.749,14.487 24.939,14.639 25.145,14.772 25.362,14.883 25.59,14.973 25.824,15.039 26.065,15.081 26.309,15.099 26.553,15.093 
		26.795,15.063 27.033,15.008 27.266,14.931 27.488,14.83 27.699,14.708 27.897,14.565 28.08,14.404 28.246,14.225 28.395,14.03 
		28.521,13.822 28.627,13.602 28.711,13.372 28.771,13.135 28.808,12.894 28.82,12.65 	"/>
	<polygon fill="#FFFFFF" points="26.468,8.24 26.468,31.76 34.111,31.76 	"/>
	<polygon fill="#FFFFFF" points="26.468,8.24 34.111,31.76 34.111,8.24 	"/>
	<polyline fill="none" stroke="#FFFFFF" stroke-width="0.125" points="26.468,8.24 26.468,31.76 34.111,31.76 34.111,8.24 
		26.468,8.24 	"/>
	<line fill="none" stroke="#0000FF" stroke-width="0.125" x1="26.271" y1="10.2" x2="37.641" y2="10.2"/>
	<line fill="none" stroke="#0000FF" stroke-width="0.125" x1="26.271" y1="29.8" x2="37.641" y2="29.8"/>
	<text transform="matrix(1 0 0 1 4 21)" fill="#0000FF" font-family="'ArialMT'" font-size="2">L1</text>
	<text transform="matrix(1 0 0 1 34 20)" fill="#0000FF" font-family="'ArialMT'" font-size="2">L2</text>
	<text transform="matrix(1 0 0 1 18 37)" fill="#0000FF" font-family="'ArialMT'" font-size="4">M</text>
</g>
</svg>
