<?xml version="1.0" encoding="utf-8"?>
<!-- Generator: Adobe Illustrator 14.0.0, SVG Export Plug-In . SVG Version: 6.00 Build 43363)  -->
<!DOCTYPE svg PUBLIC "-//W3C//DTD SVG 1.1//EN" "http://www.w3.org/Graphics/SVG/1.1/DTD/svg11.dtd">
<svg version="1.1" id="Calque_1" xmlns="http://www.w3.org/2000/svg" xmlns:xlink="http://www.w3.org/1999/xlink" x="0px" y="0px"
	 width="40px" height="40px" viewBox="0 0 40 40" enable-background="new 0 0 40 40" xml:space="preserve">
<title>Graphic window number 0</title>
<desc>Creator: GL2PS 1.3.2, (C) 1999-2006 Christophe Geuzaine (geuz@geuz.org)
For: Scilab
CreationDate: Fri Sep 16 15:14:34 2011</desc>
<g>
	<line fill="none" stroke="#0000FF" stroke-width="0.125" x1="37.641" y1="40" x2="37.641" y2="0"/>
	<line fill="none" stroke="#0000FF" stroke-width="0.125" x1="37.641" y1="40" x2="37.641" y2="0"/>
	<line fill="#0000FF" x1="2.36" y1="0" x2="2.36" y2="40"/>
	<line fill="none" stroke="#0000FF" stroke-width="0.125" x1="2.36" y1="0" x2="2.36" y2="40"/>
	<line fill="none" stroke="#0000FF" stroke-width="0.125" x1="2.36" y1="0" x2="2.36" y2="40"/>
	<polygon fill="#FFFFFF" points="6.28,6.28 6.28,33.721 33.721,33.721 	"/>
	<polygon fill="#FFFFFF" points="6.28,6.28 33.721,33.721 33.721,6.28 	"/>
	<polyline fill="none" stroke="#0000FF" stroke-width="0.125" points="6.28,6.28 6.28,33.721 33.721,33.721 33.721,6.28 6.28,6.28 	
		"/>
	<polyline fill="none" stroke="#0000FF" stroke-width="0.125" points="39.6,10.2 25.88,10.2 25.88,29.8 39.6,29.8 	"/>
	<polyline fill="none" stroke="#0000FF" stroke-width="0.125" points="29.8,20 29.781,19.61 29.723,19.223 29.626,18.845 
		29.492,18.478 29.322,18.125 29.119,17.792 28.883,17.48 28.617,17.194 28.324,16.935 28.007,16.707 27.668,16.512 27.312,16.351 
		26.941,16.227 26.561,16.14 26.173,16.091 25.782,16.081 25.393,16.11 25.008,16.178 24.631,16.284 24.268,16.427 23.92,16.605 
		23.592,16.817 23.286,17.061 23.006,17.333 22.756,17.633 22.535,17.956 22.348,18.299 22.196,18.659 22.081,19.033 22.004,19.416 
		21.965,19.805 21.965,20.195 22.004,20.584 22.081,20.967 22.196,21.341 22.348,21.701 22.535,22.044 22.756,22.367 23.006,22.666 
		23.286,22.939 23.592,23.183 23.92,23.395 24.268,23.573 24.631,23.716 25.008,23.822 25.393,23.89 25.782,23.919 26.173,23.909 
		26.561,23.86 26.941,23.773 27.312,23.648 27.668,23.488 28.007,23.293 28.324,23.064 28.617,22.807 28.883,22.52 29.119,22.208 
		29.322,21.875 29.492,21.522 29.626,21.155 29.723,20.777 29.781,20.39 29.8,20 	"/>
	<line fill="none" stroke="#0000FF" stroke-width="0.125" x1="16.08" y1="8.24" x2="23.92" y2="8.24"/>
	<polygon fill="#0000FF" points="21.96,8.828 23.92,8.24 21.96,7.652 	"/>
	<polyline fill="none" stroke="#0000FF" stroke-width="0.125" points="23.92,8.24 21.96,7.652 21.96,8.828 23.92,8.24 	"/>
	<polyline fill="none" stroke="#0000FF" stroke-width="0.125" points="2.36,10.2 16.08,10.2 16.08,29.8 2.36,29.8 	"/>
</g>
</svg>
