<?xml version="1.0" encoding="utf-8"?>
<!-- Generator: Adobe Illustrator 14.0.0, SVG Export Plug-In . SVG Version: 6.00 Build 43363)  -->
<!DOCTYPE svg PUBLIC "-//W3C//DTD SVG 1.1//EN" "http://www.w3.org/Graphics/SVG/1.1/DTD/svg11.dtd">
<svg version="1.1" id="Calque_1" xmlns="http://www.w3.org/2000/svg" xmlns:xlink="http://www.w3.org/1999/xlink" x="0px" y="0px"
	 width="40px" height="40px" viewBox="0 0 40 40" enable-background="new 0 0 40 40" xml:space="preserve">
<line fill="none" stroke="#0000FF" stroke-width="1.125" x1="37.641" y1="40" x2="37.641" y2="0"/>
<line fill="none" stroke="#0000FF" stroke-width="1.125" x1="37.641" y1="40" x2="37.641" y2="0"/>
<line fill="none" stroke="#0000FF" stroke-width="1.125" x1="2.36" y1="0" x2="2.36" y2="40"/>
<line fill="none" stroke="#0000FF" stroke-width="1.125" x1="2.36" y1="0" x2="2.36" y2="40"/>
<line fill="none" stroke="#0000FF" stroke-width="1.125" x1="2.36" y1="10.2" x2="8.24" y2="10.2"/>
<line fill="none" stroke="#0000FF" stroke-width="1.125" x1="2.36" y1="29.8" x2="8.24" y2="29.8"/>
<line fill="none" stroke="#0000FF" stroke-width="1.125" x1="31.76" y1="10.2" x2="37.641" y2="10.2"/>
<line fill="none" stroke="#0000FF" stroke-width="1.125" x1="31.76" y1="29.8" x2="37.641" y2="29.8"/>
<line fill="none" stroke="#0000FF" stroke-width="0.25" x1="18.984" y1="18.185" x2="18.04" y2="21.96"/>
<line fill="none" stroke="#0000FF" stroke-width="0.25" x1="21.764" y1="18.04" x2="20.784" y2="21.764"/>
<line fill="none" stroke="#0000FF" stroke-width="0.25" x1="17.256" y1="18.236" x2="23.137" y2="18.04"/>
<text transform="matrix(1 0 0 1 17.0002 12.001)" fill="#0000FF" font-family="'ArialMT'" font-size="3">G1</text>
<text transform="matrix(1 0 0 1 17.0002 29.001)" fill="#0000FF" font-family="'ArialMT'" font-size="3">G2</text>
<rect x="8.052" y="8.083" fill="none" stroke="#0000FF" stroke-width="1.125" width="24.055" height="23.875"/>
<g>
	<line fill="none" stroke="#0000FF" stroke-width="1.125" x1="12.374" y1="14.49" x2="25.564" y2="14.49"/>
	<polygon fill="#0000FF" points="22.545,15.678 29,14.526 22.545,13.375 	"/>
</g>
<g>
	<line fill="none" stroke="#0000FF" stroke-width="1.125" x1="15.497" y1="24.656" x2="24.125" y2="24.656"/>
	<polygon fill="#0000FF" points="17.472,23.542 13.249,24.693 17.472,25.846 	"/>
</g>
</svg>
