<?xml version="1.0" encoding="utf-8"?>
<!-- Generator: Adobe Illustrator 14.0.0, SVG Export Plug-In . SVG Version: 6.00 Build 43363)  -->
<!DOCTYPE svg PUBLIC "-//W3C//DTD SVG 1.1//EN" "http://www.w3.org/Graphics/SVG/1.1/DTD/svg11.dtd">
<svg version="1.1" id="Calque_1" xmlns="http://www.w3.org/2000/svg" xmlns:xlink="http://www.w3.org/1999/xlink" x="0px" y="0px"
	 width="40px" height="40px" viewBox="0 0 40 40" enable-background="new 0 0 40 40" xml:space="preserve">
<line fill="none" stroke="#0000FF" stroke-width="1.125" x1="2.36" y1="10.2" x2="13.728" y2="10.2"/>
<line fill="none" stroke="#0000FF" stroke-width="1.125" x1="2.36" y1="29.8" x2="13.728" y2="29.8"/>
<line fill="none" stroke="#0000FF" stroke-width="1.125" x1="26.271" y1="10.2" x2="37.641" y2="10.2"/>
<line fill="none" stroke="#0000FF" stroke-width="1.125" x1="26.271" y1="29.8" x2="37.641" y2="29.8"/>
<text transform="matrix(1 0 0 1 4.0002 21.001)" fill="#0000FF" font-family="'ArialMT'" font-size="2">L1</text>
<text transform="matrix(1 0 0 1 33.9998 20.001)" fill="#0000FF" font-family="'ArialMT'" font-size="2">L2</text>
<text transform="matrix(1 0 0 1 18.0002 37.001)" fill="#0000FF" font-family="'ArialMT'" font-size="4">M</text>
<g>
	<path fill="none" stroke="#0000FF" d="M14.734,10.094c0,0,2.422,0.032,2.422,2.429c0,2.349-1.328,2.54-2.438,2.54"/>
	<path fill="none" stroke="#0000FF" d="M14.703,15.046c0,0,2.422,0.032,2.422,2.429c0,2.349-1.328,2.541-2.438,2.541"/>
	<path fill="none" stroke="#0000FF" d="M14.656,20.047c0,0,2.422,0.032,2.422,2.428c0,2.349-1.328,2.541-2.438,2.541"/>
	<path fill="none" stroke="#0000FF" d="M14.687,24.984c0,0,2.422,0.032,2.422,2.429c0,2.349-1.328,2.54-2.438,2.54"/>
</g>
<g>
	<path fill="none" stroke="#0000FF" d="M25.5,10.219c0,0-2.422,0.032-2.422,2.429c0,2.349,1.328,2.54,2.438,2.54"/>
	<path fill="none" stroke="#0000FF" d="M25.531,15.171c0,0-2.422,0.032-2.422,2.429c0,2.349,1.328,2.541,2.438,2.541"/>
	<path fill="none" stroke="#0000FF" d="M25.578,20.172c0,0-2.422,0.032-2.422,2.428c0,2.349,1.328,2.541,2.438,2.541"/>
	<path fill="none" stroke="#0000FF" d="M25.547,25.109c0,0-2.422,0.032-2.422,2.429c0,2.349,1.328,2.54,2.438,2.54"/>
</g>
</svg>
