<?xml version="1.0" encoding="utf-8"?>
<!-- Generator: Adobe Illustrator 14.0.0, SVG Export Plug-In . SVG Version: 6.00 Build 43363)  -->
<!DOCTYPE svg PUBLIC "-//W3C//DTD SVG 1.1//EN" "http://www.w3.org/Graphics/SVG/1.1/DTD/svg11.dtd">
<svg version="1.1" id="Calque_1" xmlns="http://www.w3.org/2000/svg" xmlns:xlink="http://www.w3.org/1999/xlink" x="0px" y="0px"
	 width="40px" height="40px" viewBox="0 0 40 40" enable-background="new 0 0 40 40" xml:space="preserve">
<line fill="none" stroke="#0000FF" stroke-width="1.125" x1="2.36" y1="0" x2="2.36" y2="40"/>
<polyline fill="none" stroke="#0000FF" stroke-width="1.125" points="31.76,20 8.24,6.28 8.24,33.721 31.76,20 "/>
<line fill="none" stroke="#0000FF" stroke-width="1.125" x1="20" y1="13.14" x2="20" y2="4.32"/>
<line fill="none" stroke="#0000FF" stroke-width="1.125" x1="20" y1="26.859" x2="20" y2="35.68"/>
<line fill="none" stroke="#0000FF" stroke-width="1.125" x1="2.36" y1="10.2" x2="8.24" y2="10.2"/>
<line fill="none" stroke="#0000FF" stroke-width="1.125" x1="2.36" y1="29.8" x2="8.24" y2="29.8"/>
<line fill="none" stroke="#0000FF" stroke-width="1.125" x1="31.76" y1="20" x2="37.641" y2="20"/>
<line fill="none" stroke="#0000FF" stroke-width="1.125" x1="10.592" y1="13.728" x2="14.512" y2="13.728"/>
<line fill="none" stroke="#0000FF" stroke-width="1.125" x1="12.356" y1="23.92" x2="12.356" y2="28.036"/>
<line fill="none" stroke="#0000FF" stroke-width="1.125" x1="10.2" y1="26.076" x2="14.512" y2="26.076"/>
<path fill="none" stroke="#2700FD" d="M10.177,21.511c0,0,5.51,0.802,6.338-0.261c0.594-1.141,0.438-2.938,1.078-3.438
	c0.881-0.688,4.084-0.177,5.167-0.177"/>
</svg>
