<?xml version="1.0" encoding="utf-8"?>
<!-- Generator: Adobe Illustrator 14.0.0, SVG Export Plug-In . SVG Version: 6.00 Build 43363)  -->
<!DOCTYPE svg PUBLIC "-//W3C//DTD SVG 1.1//EN" "http://www.w3.org/Graphics/SVG/1.1/DTD/svg11.dtd">
<svg version="1.1" id="Calque_1" xmlns="http://www.w3.org/2000/svg" xmlns:xlink="http://www.w3.org/1999/xlink" x="0px" y="0px"
	 width="40px" height="40px" viewBox="0 0 40 40" enable-background="new 0 0 40 40" xml:space="preserve">
<title>Graphic window number 0</title>
<desc>Creator: GL2PS 1.3.2, (C) 1999-2006 Christophe Geuzaine (geuz@geuz.org)
For: Scilab
CreationDate: Fri Sep 16 15:14:30 2011</desc>
<g>
	<line fill="none" stroke="#0000FF" stroke-width="0.125" x1="37.641" y1="40" x2="37.641" y2="0"/>
	<line fill="none" stroke="#0000FF" stroke-width="0.125" x1="2.36" y1="0" x2="2.36" y2="40"/>
	<line fill="none" stroke="#0000FF" stroke-width="0.125" x1="2.36" y1="20" x2="6.28" y2="20"/>
	<line fill="none" stroke="#0000FF" stroke-width="0.125" x1="33.721" y1="20" x2="37.641" y2="20"/>
	<polygon fill="#FFFFFF" points="6.28,14.12 6.28,25.88 33.721,25.88 	"/>
	<polygon fill="#FFFFFF" points="6.28,14.12 33.721,25.88 33.721,14.12 	"/>
	<polyline fill="none" stroke="#0000FF" stroke-width="0.125" points="6.28,14.12 6.28,25.88 33.721,25.88 33.721,14.12 6.28,14.12 
			"/>
	<line fill="none" stroke="#BF0000" stroke-width="0.125" x1="20" y1="25.88" x2="20" y2="37.836"/>
	<line fill="none" stroke="#0000FF" stroke-width="0.125" x1="9.808" y1="29.8" x2="29.408" y2="10.2"/>
	<polygon fill="#0000FF" points="29.8,11.768 30.584,9.024 27.84,9.808 	"/>
	<polyline fill="none" stroke="#0000FF" stroke-width="0.125" points="27.84,9.808 29.8,11.768 30.584,9.024 27.84,9.808 	"/>
</g>
</svg>
