<?xml version="1.0" encoding="utf-8"?>
<!-- Generator: Adobe Illustrator 14.0.0, SVG Export Plug-In . SVG Version: 6.00 Build 43363)  -->
<!DOCTYPE svg PUBLIC "-//W3C//DTD SVG 1.1//EN" "http://www.w3.org/Graphics/SVG/1.1/DTD/svg11.dtd">
<svg version="1.1" id="Calque_1" xmlns="http://www.w3.org/2000/svg" xmlns:xlink="http://www.w3.org/1999/xlink" x="0px" y="0px"
	 width="40px" height="40px" viewBox="0 0 40 40" enable-background="new 0 0 40 40" xml:space="preserve">
<title>Graphic window number 0</title>
<desc>Creator: GL2PS 1.3.2, (C) 1999-2006 Christophe Geuzaine (geuz@geuz.org)
For: Scilab
CreationDate: Fri Sep 16 15:14:35 2011</desc>
<g>
	<line fill="none" stroke="#0000FF" stroke-width="0.125" x1="37.641" y1="40" x2="37.641" y2="0"/>
	<line fill="none" stroke="#0000FF" stroke-width="0.125" x1="2.36" y1="0" x2="2.36" y2="40"/>
	<line fill="none" stroke="#0000FF" stroke-width="0.125" x1="2.36" y1="20" x2="8.24" y2="20"/>
	<line fill="none" stroke="#0000FF" stroke-width="0.125" x1="31.76" y1="20" x2="37.641" y2="20"/>
	<line fill="none" stroke="#0000FF" stroke-width="0.125" x1="20" y1="2.36" x2="20" y2="18.432"/>
	<polyline fill="none" stroke="#0000FF" stroke-width="0.125" points="14.12,20 14.105,19.707 14.062,19.417 13.989,19.133 
		13.889,18.858 13.762,18.594 13.609,18.344 13.432,18.11 13.233,17.896 13.013,17.701 12.775,17.53 12.521,17.384 12.254,17.263 
		11.976,17.17 11.69,17.104 11.4,17.068 11.107,17.061 10.814,17.083 10.526,17.134 10.244,17.213 9.971,17.32 9.71,17.454 
		9.464,17.613 9.235,17.795 9.025,18 8.836,18.225 8.671,18.467 8.531,18.725 8.417,18.995 8.331,19.274 8.273,19.562 8.244,19.854 
		8.244,20.146 8.273,20.438 8.331,20.726 8.417,21.006 8.531,21.275 8.671,21.533 8.836,21.775 9.025,22 9.235,22.205 9.464,22.387 
		9.71,22.546 9.971,22.68 10.244,22.787 10.526,22.866 10.814,22.917 11.107,22.939 11.4,22.932 11.69,22.896 11.976,22.83 
		12.254,22.736 12.521,22.616 12.775,22.47 13.013,22.299 13.233,22.104 13.432,21.89 13.609,21.656 13.762,21.406 13.889,21.143 
		13.989,20.867 14.062,20.582 14.105,20.293 14.12,20 	"/>
	<polyline fill="none" stroke="#0000FF" stroke-width="0.125" points="20,20 19.985,19.707 19.942,19.417 19.87,19.133 
		19.769,18.858 19.642,18.594 19.489,18.344 19.312,18.11 19.113,17.896 18.893,17.701 18.655,17.53 18.401,17.384 18.134,17.263 
		17.856,17.17 17.57,17.104 17.28,17.068 16.987,17.061 16.694,17.083 16.406,17.134 16.124,17.213 15.851,17.32 15.59,17.454 
		15.344,17.613 15.115,17.795 14.905,18 14.716,18.225 14.551,18.467 14.411,18.725 14.297,18.995 14.211,19.274 14.153,19.562 
		14.124,19.854 14.124,20.146 14.153,20.438 14.211,20.726 14.297,21.006 14.411,21.275 14.551,21.533 14.716,21.775 14.905,22 
		15.115,22.205 15.344,22.387 15.59,22.546 15.851,22.68 16.124,22.787 16.406,22.866 16.694,22.917 16.987,22.939 17.28,22.932 
		17.57,22.896 17.856,22.83 18.134,22.736 18.401,22.616 18.655,22.47 18.893,22.299 19.113,22.104 19.312,21.89 19.489,21.656 
		19.642,21.406 19.769,21.143 19.87,20.867 19.942,20.582 19.985,20.293 20,20 	"/>
	<polyline fill="none" stroke="#0000FF" stroke-width="0.125" points="25.88,20 25.865,19.707 25.822,19.417 25.75,19.133 
		25.648,18.858 25.521,18.594 25.369,18.344 25.192,18.11 24.992,17.896 24.773,17.701 24.535,17.53 24.281,17.384 24.014,17.263 
		23.736,17.17 23.451,17.104 23.16,17.068 22.867,17.061 22.574,17.083 22.285,17.134 22.004,17.213 21.73,17.32 21.471,17.454 
		21.224,17.613 20.994,17.795 20.785,18 20.596,18.225 20.431,18.467 20.291,18.725 20.177,18.995 20.091,19.274 20.033,19.562 
		20.003,19.854 20.003,20.146 20.033,20.438 20.091,20.726 20.177,21.006 20.291,21.275 20.431,21.533 20.596,21.775 20.785,22 
		20.994,22.205 21.224,22.387 21.471,22.546 21.73,22.68 22.004,22.787 22.285,22.866 22.574,22.917 22.867,22.939 23.16,22.932 
		23.451,22.896 23.736,22.83 24.014,22.736 24.281,22.616 24.535,22.47 24.773,22.299 24.992,22.104 25.192,21.89 25.369,21.656 
		25.521,21.406 25.648,21.143 25.75,20.867 25.822,20.582 25.865,20.293 25.88,20 	"/>
	<polyline fill="none" stroke="#0000FF" stroke-width="0.125" points="31.76,20 31.746,19.707 31.701,19.417 31.629,19.133 
		31.529,18.858 31.402,18.594 31.249,18.344 31.072,18.11 30.873,17.896 30.652,17.701 30.415,17.53 30.161,17.384 29.895,17.263 
		29.616,17.17 29.33,17.104 29.039,17.068 28.746,17.061 28.455,17.083 28.166,17.134 27.884,17.213 27.611,17.32 27.35,17.454 
		27.104,17.613 26.875,17.795 26.665,18 26.477,18.225 26.312,18.467 26.172,18.725 26.057,18.995 25.971,19.274 25.912,19.562 
		25.884,19.854 25.884,20.146 25.912,20.438 25.971,20.726 26.057,21.006 26.172,21.275 26.312,21.533 26.477,21.775 26.665,22 
		26.875,22.205 27.104,22.387 27.35,22.546 27.611,22.68 27.884,22.787 28.166,22.866 28.455,22.917 28.746,22.939 29.039,22.932 
		29.33,22.896 29.616,22.83 29.895,22.736 30.161,22.616 30.415,22.47 30.652,22.299 30.873,22.104 31.072,21.89 31.249,21.656 
		31.402,21.406 31.529,21.143 31.629,20.867 31.701,20.582 31.746,20.293 31.76,20 	"/>
	<polygon fill="#FFFFFF" points="8.24,20 8.24,25.88 31.76,25.88 	"/>
	<polygon fill="#FFFFFF" points="8.24,20 31.76,25.88 31.76,20 	"/>
	<polyline fill="none" stroke="#FFFFFF" stroke-width="0.125" points="8.24,20 8.24,25.88 31.76,25.88 31.76,20 8.24,20 	"/>
</g>
</svg>
