<?xml version="1.0" encoding="utf-8"?>
<!-- Generator: Adobe Illustrator 14.0.0, SVG Export Plug-In . SVG Version: 6.00 Build 43363)  -->
<!DOCTYPE svg PUBLIC "-//W3C//DTD SVG 1.1//EN" "http://www.w3.org/Graphics/SVG/1.1/DTD/svg11.dtd">
<svg version="1.1" id="Calque_1" xmlns="http://www.w3.org/2000/svg" xmlns:xlink="http://www.w3.org/1999/xlink" x="0px" y="0px"
	 width="40px" height="40px" viewBox="0 0 40 40" enable-background="new 0 0 40 40" xml:space="preserve">
<title>Graphic window number 0</title>
<desc>Creator: GL2PS 1.3.2, (C) 1999-2006 Christophe Geuzaine (geuz@geuz.org)
For: Scilab
CreationDate: Fri Sep 16 15:14:31 2011</desc>
<g>
	<line fill="none" stroke="#0000FF" stroke-width="0.125" x1="37.641" y1="40" x2="37.641" y2="0"/>
	<line fill="none" stroke="#0000FF" stroke-width="0.125" x1="37.641" y1="40" x2="37.641" y2="0"/>
	<line fill="none" stroke="#0000FF" stroke-width="0.125" x1="2.36" y1="0" x2="2.36" y2="40"/>
	<line fill="none" stroke="#0000FF" stroke-width="0.125" x1="2.36" y1="0" x2="2.36" y2="40"/>
	<polygon fill="#FFFFFF" points="8.24,8.24 8.24,31.76 31.76,31.76 	"/>
	<polygon fill="#FFFFFF" points="8.24,8.24 31.76,31.76 31.76,8.24 	"/>
	<polyline fill="none" stroke="#0000FF" stroke-width="0.125" points="8.24,8.24 8.24,31.76 31.76,31.76 31.76,8.24 8.24,8.24 	"/>
	<line fill="none" stroke="#0000FF" stroke-width="0.125" x1="2.36" y1="10.2" x2="8.24" y2="10.2"/>
	<line fill="none" stroke="#0000FF" stroke-width="0.125" x1="2.36" y1="29.8" x2="8.24" y2="29.8"/>
	<line fill="none" stroke="#0000FF" stroke-width="0.125" x1="31.76" y1="10.2" x2="37.641" y2="10.2"/>
	<line fill="none" stroke="#0000FF" stroke-width="0.125" x1="31.76" y1="29.8" x2="37.641" y2="29.8"/>
	<line fill="none" stroke="#0000FF" stroke-width="0.125" x1="12.16" y1="14.12" x2="27.84" y2="14.12"/>
	<line fill="none" stroke="#0000FF" stroke-width="0.125" x1="16.08" y1="23.92" x2="23.92" y2="23.92"/>
	<polygon fill="#0000FF" points="25.88,13.336 27.84,14.12 25.88,14.904 	"/>
	<polyline fill="none" stroke="#0000FF" stroke-width="0.125" points="25.88,13.336 27.84,14.12 25.88,14.904 25.88,13.336 	"/>
	<polygon fill="#0000FF" points="16.864,22.939 16.864,24.508 14.904,23.725 	"/>
	<polyline fill="none" stroke="#0000FF" stroke-width="0.125" points="14.904,23.725 16.864,22.939 16.864,24.508 14.904,23.725 	
		"/>
	<line fill="none" stroke="#0000FF" stroke-width="0.25" x1="19.02" y1="18.04" x2="18.04" y2="21.96"/>
	<line fill="none" stroke="#0000FF" stroke-width="0.25" x1="21.764" y1="18.04" x2="20.784" y2="21.764"/>
	<line fill="none" stroke="#0000FF" stroke-width="0.25" x1="17.256" y1="18.236" x2="23.137" y2="18.04"/>
	<text transform="matrix(1 0 0 1 17 12)" fill="#0000FF" font-family="'ArialMT'" font-size="3">G1</text>
	<text transform="matrix(1 0 0 1 17 29)" fill="#0000FF" font-family="'ArialMT'" font-size="3">G2</text>
</g>
</svg>
