<?xml version="1.0" encoding="utf-8"?>
<!-- Generator: Adobe Illustrator 14.0.0, SVG Export Plug-In . SVG Version: 6.00 Build 43363)  -->
<!DOCTYPE svg PUBLIC "-//W3C//DTD SVG 1.1//EN" "http://www.w3.org/Graphics/SVG/1.1/DTD/svg11.dtd">
<svg version="1.1" id="Calque_1" xmlns="http://www.w3.org/2000/svg" xmlns:xlink="http://www.w3.org/1999/xlink" x="0px" y="0px"
	 width="40px" height="40px" viewBox="0 0 40 40" enable-background="new 0 0 40 40" xml:space="preserve">
<title>Graphic window number 0</title>
<desc>Creator: GL2PS 1.3.2, (C) 1999-2006 Christophe Geuzaine (geuz@geuz.org)
For: Scilab
CreationDate: Fri Sep 16 15:14:37 2011</desc>
<g>
	<polyline fill="none" stroke="#0000FF" stroke-width="0.125" points="12.944,20 12.94,19.922 12.928,19.845 12.909,19.769 
		12.882,19.695 12.849,19.625 12.808,19.559 12.761,19.496 12.708,19.439 12.649,19.387 12.585,19.341 12.518,19.302 12.446,19.27 
		12.373,19.245 12.296,19.228 12.219,19.218 12.141,19.216 12.062,19.222 11.985,19.236 11.91,19.257 11.837,19.285 11.768,19.321 
		11.702,19.363 11.641,19.412 11.585,19.467 11.535,19.527 11.491,19.591 11.454,19.66 11.423,19.732 11.4,19.807 11.385,19.883 
		11.377,19.961 11.377,20.039 11.385,20.117 11.4,20.193 11.423,20.268 11.454,20.34 11.491,20.409 11.535,20.473 11.585,20.533 
		11.641,20.588 11.702,20.637 11.768,20.68 11.837,20.715 11.91,20.743 11.985,20.764 12.062,20.777 12.141,20.783 12.219,20.781 
		12.296,20.771 12.373,20.755 12.446,20.73 12.518,20.697 12.585,20.658 12.649,20.613 12.708,20.561 12.761,20.504 12.808,20.441 
		12.849,20.375 12.882,20.305 12.909,20.231 12.928,20.155 12.94,20.078 12.944,20 	"/>
	<line fill="none" stroke="#0000FF" stroke-width="0.125" x1="2.36" y1="20" x2="11.376" y2="20"/>
	<line fill="none" stroke="#0000FF" stroke-width="0.125" x1="12.748" y1="19.608" x2="27.84" y2="10.2"/>
	<line fill="none" stroke="#0000FF" stroke-width="0.125" x1="27.84" y1="20" x2="37.641" y2="20"/>
	<line fill="none" stroke="#0000FF" stroke-width="0.125" x1="20" y1="10.004" x2="20" y2="14.904"/>
	<line fill="none" stroke="#0000FF" stroke-width="0.125" x1="27.84" y1="16.08" x2="27.84" y2="20"/>
</g>
</svg>
