<?xml version="1.0" encoding="utf-8"?>
<!-- Generator: Adobe Illustrator 14.0.0, SVG Export Plug-In . SVG Version: 6.00 Build 43363)  -->
<!DOCTYPE svg PUBLIC "-//W3C//DTD SVG 1.1//EN" "http://www.w3.org/Graphics/SVG/1.1/DTD/svg11.dtd">
<svg version="1.1" id="Calque_1" xmlns="http://www.w3.org/2000/svg" xmlns:xlink="http://www.w3.org/1999/xlink" x="0px" y="0px"
	 width="40px" height="40px" viewBox="0 0 40 40" enable-background="new 0 0 40 40" xml:space="preserve">
<title>Graphic window number 0</title>
<desc>Creator: GL2PS 1.3.2, (C) 1999-2006 Christophe Geuzaine (geuz@geuz.org)
For: Scilab
CreationDate: Fri Sep 16 15:14:36 2011</desc>
<g>
	<line fill="none" stroke="#0000FF" stroke-width="0.125" x1="37.641" y1="40" x2="37.641" y2="0"/>
	<line fill="none" stroke="#0000FF" stroke-width="0.125" x1="37.641" y1="40" x2="37.641" y2="0"/>
	<line fill="none" stroke="#0000FF" stroke-width="0.125" x1="2.36" y1="0" x2="2.36" y2="40"/>
	<line fill="none" stroke="#0000FF" stroke-width="0.125" x1="2.36" y1="0" x2="2.36" y2="40"/>
	<polyline fill="none" stroke="#0000FF" stroke-width="0.125" points="18.04,20 18.011,19.415 17.923,18.835 17.779,18.267 
		17.578,17.716 17.324,17.188 17.018,16.688 16.665,16.22 16.266,15.791 15.826,15.403 15.35,15.061 14.842,14.768 14.308,14.526 
		13.752,14.34 13.181,14.209 12.6,14.136 12.013,14.122 11.429,14.166 10.852,14.268 10.287,14.426 9.742,14.64 9.22,14.908 
		8.728,15.226 8.27,15.591 7.85,16 7.473,16.45 7.143,16.934 6.862,17.449 6.635,17.989 6.462,18.549 6.346,19.124 6.287,19.707 
		6.287,20.293 6.346,20.877 6.462,21.451 6.635,22.012 6.862,22.551 7.143,23.066 7.473,23.551 7.85,24 8.27,24.408 8.728,24.774 
		9.22,25.092 9.742,25.359 10.287,25.574 10.852,25.732 11.429,25.834 12.013,25.878 12.6,25.863 13.181,25.791 13.752,25.66 
		14.308,25.474 14.842,25.232 15.35,24.939 15.826,24.598 16.266,24.209 16.665,23.779 17.018,23.312 17.324,22.812 17.578,22.284 
		17.779,21.733 17.923,21.165 18.011,20.586 18.04,20 	"/>
	<polygon fill="#FFFFFF" points="4.32,12.16 4.32,27.84 11.964,27.84 	"/>
	<polygon fill="#FFFFFF" points="4.32,12.16 11.964,27.84 11.964,12.16 	"/>
	<polyline fill="none" stroke="#FFFFFF" stroke-width="0.125" points="4.32,12.16 4.32,27.84 11.964,27.84 11.964,12.16 4.32,12.16 
			"/>
	<polyline fill="none" stroke="#0000FF" stroke-width="0.125" points="2.36,10.2 12.16,10.2 12.16,29.8 2.36,29.8 	"/>
	<line fill="none" stroke="#0000FF" stroke-width="0.125" x1="14.12" y1="8.24" x2="23.92" y2="8.24"/>
	<polygon fill="#0000FF" points="23.92,7.652 25.88,8.24 23.92,8.828 	"/>
	<polyline fill="none" stroke="#0000FF" stroke-width="0.125" points="23.92,7.652 25.88,8.24 23.92,8.828 23.92,7.652 	"/>
	<polyline fill="none" stroke="#0000FF" stroke-width="0.125" points="33.721,20 33.691,19.415 33.604,18.835 33.459,18.267 
		33.258,17.716 33.004,17.188 32.698,16.688 32.344,16.22 31.945,15.791 31.506,15.403 31.03,15.061 30.522,14.768 29.988,14.526 
		29.433,14.34 28.861,14.209 28.279,14.136 27.693,14.122 27.109,14.166 26.531,14.268 25.967,14.426 25.422,14.64 24.9,14.908 
		24.408,15.226 23.949,15.591 23.529,16 23.152,16.45 22.822,16.934 22.543,17.449 22.314,17.989 22.142,18.549 22.025,19.124 
		21.967,19.707 21.967,20.293 22.025,20.877 22.142,21.451 22.314,22.012 22.543,22.551 22.822,23.066 23.152,23.551 23.529,24 
		23.949,24.408 24.408,24.774 24.9,25.092 25.422,25.359 25.967,25.574 26.531,25.732 27.109,25.834 27.693,25.878 28.279,25.863 
		28.861,25.791 29.433,25.66 29.988,25.474 30.522,25.232 31.03,24.939 31.506,24.598 31.945,24.209 32.344,23.779 32.698,23.312 
		33.004,22.812 33.258,22.284 33.459,21.733 33.604,21.165 33.691,20.586 33.721,20 	"/>
	<polygon fill="#FFFFFF" points="27.84,12.16 27.84,27.84 35.68,27.84 	"/>
	<polygon fill="#FFFFFF" points="27.84,12.16 35.68,27.84 35.68,12.16 	"/>
	<polyline fill="none" stroke="#FFFFFF" stroke-width="0.125" points="27.84,12.16 27.84,27.84 35.68,27.84 35.68,12.16 
		27.84,12.16 	"/>
	<polyline fill="none" stroke="#0000FF" stroke-width="0.125" points="37.641,10.2 27.84,10.2 27.84,29.8 37.641,29.8 	"/>
</g>
</svg>
