<?xml version="1.0" encoding="utf-8"?>
<!-- Generator: Adobe Illustrator 14.0.0, SVG Export Plug-In . SVG Version: 6.00 Build 43363)  -->
<!DOCTYPE svg PUBLIC "-//W3C//DTD SVG 1.1//EN" "http://www.w3.org/Graphics/SVG/1.1/DTD/svg11.dtd">
<svg version="1.1" id="Calque_1" xmlns="http://www.w3.org/2000/svg" xmlns:xlink="http://www.w3.org/1999/xlink" x="0px" y="0px"
	 width="40px" height="40px" viewBox="0 0 40 40" enable-background="new 0 0 40 40" xml:space="preserve">
<title>Graphic window number 0</title>
<desc>Creator: GL2PS 1.3.2, (C) 1999-2006 Christophe Geuzaine (geuz@geuz.org)
For: Scilab
CreationDate: Fri Sep 16 15:14:26 2011</desc>
<g>
	<polygon fill="#FFFFFF" points="29.753,19.04 20,20 29.8,20 	"/>
	<polygon fill="#FFFFFF" points="29.611,18.088 20,20 29.753,19.04 	"/>
	<polygon fill="#FFFFFF" points="29.378,17.155 20,20 29.611,18.088 	"/>
	<polygon fill="#FFFFFF" points="29.055,16.25 20,20 29.378,17.155 	"/>
	<polygon fill="#FFFFFF" points="28.643,15.38 20,20 29.055,16.25 	"/>
	<polygon fill="#FFFFFF" points="28.148,14.555 20,20 28.643,15.38 	"/>
	<polygon fill="#FFFFFF" points="27.576,13.783 20,20 28.148,14.555 	"/>
	<polygon fill="#FFFFFF" points="26.93,13.07 20,20 27.576,13.783 	"/>
	<polygon fill="#FFFFFF" points="26.217,12.424 20,20 26.93,13.07 	"/>
	<polygon fill="#FFFFFF" points="25.445,11.852 20,20 26.217,12.424 	"/>
	<polygon fill="#FFFFFF" points="24.619,11.357 20,20 25.445,11.852 	"/>
	<polygon fill="#FFFFFF" points="23.75,10.946 20,20 24.619,11.357 	"/>
	<polygon fill="#FFFFFF" points="22.845,10.622 20,20 23.75,10.946 	"/>
	<polygon fill="#FFFFFF" points="21.912,10.388 20,20 22.845,10.622 	"/>
	<polygon fill="#FFFFFF" points="20.961,10.247 20,20 21.912,10.388 	"/>
	<polygon fill="#FFFFFF" points="20,10.2 20,20 20.961,10.247 	"/>
	<polygon fill="#FFFFFF" points="19.04,10.247 20,20 20,10.2 	"/>
	<polygon fill="#FFFFFF" points="18.088,10.388 20,20 19.04,10.247 	"/>
	<polygon fill="#FFFFFF" points="17.155,10.622 20,20 18.088,10.388 	"/>
	<polygon fill="#FFFFFF" points="16.25,10.946 20,20 17.155,10.622 	"/>
	<polygon fill="#FFFFFF" points="15.38,11.357 20,20 16.25,10.946 	"/>
	<polygon fill="#FFFFFF" points="14.555,11.852 20,20 15.38,11.357 	"/>
	<polygon fill="#FFFFFF" points="13.783,12.424 20,20 14.555,11.852 	"/>
	<polygon fill="#FFFFFF" points="13.07,13.07 20,20 13.783,12.424 	"/>
	<polygon fill="#FFFFFF" points="12.424,13.783 20,20 13.07,13.07 	"/>
	<polygon fill="#FFFFFF" points="11.852,14.555 20,20 12.424,13.783 	"/>
	<polygon fill="#FFFFFF" points="11.357,15.38 20,20 11.852,14.555 	"/>
	<polygon fill="#FFFFFF" points="10.946,16.25 20,20 11.357,15.38 	"/>
	<polygon fill="#FFFFFF" points="10.622,17.155 20,20 10.946,16.25 	"/>
	<polygon fill="#FFFFFF" points="10.388,18.088 20,20 10.622,17.155 	"/>
	<polygon fill="#FFFFFF" points="10.247,19.04 20,20 10.388,18.088 	"/>
	<polygon fill="#FFFFFF" points="10.2,20 20,20 10.247,19.04 	"/>
	<polygon fill="#FFFFFF" points="10.247,20.961 20,20 10.2,20 	"/>
	<polygon fill="#FFFFFF" points="10.388,21.912 20,20 10.247,20.961 	"/>
	<polygon fill="#FFFFFF" points="10.622,22.845 20,20 10.388,21.912 	"/>
	<polygon fill="#FFFFFF" points="10.946,23.75 20,20 10.622,22.845 	"/>
	<polygon fill="#FFFFFF" points="11.357,24.619 20,20 10.946,23.75 	"/>
	<polygon fill="#FFFFFF" points="11.852,25.445 20,20 11.357,24.619 	"/>
	<polygon fill="#FFFFFF" points="12.424,26.217 20,20 11.852,25.445 	"/>
	<polygon fill="#FFFFFF" points="13.07,26.93 20,20 12.424,26.217 	"/>
	<polygon fill="#FFFFFF" points="13.783,27.576 20,20 13.07,26.93 	"/>
	<polygon fill="#FFFFFF" points="14.555,28.148 20,20 13.783,27.576 	"/>
	<polygon fill="#FFFFFF" points="15.38,28.643 20,20 14.555,28.148 	"/>
	<polygon fill="#FFFFFF" points="16.25,29.055 20,20 15.38,28.643 	"/>
	<polygon fill="#FFFFFF" points="17.155,29.378 20,20 16.25,29.055 	"/>
	<polygon fill="#FFFFFF" points="18.088,29.611 20,20 17.155,29.378 	"/>
	<polygon fill="#FFFFFF" points="19.04,29.753 20,20 18.088,29.611 	"/>
	<polygon fill="#FFFFFF" points="20,29.8 20,20 19.04,29.753 	"/>
	<polygon fill="#FFFFFF" points="20.961,29.753 20,20 20,29.8 	"/>
	<polygon fill="#FFFFFF" points="21.912,29.611 20,20 20.961,29.753 	"/>
	<polygon fill="#FFFFFF" points="22.845,29.378 20,20 21.912,29.611 	"/>
	<polygon fill="#FFFFFF" points="23.75,29.055 20,20 22.845,29.378 	"/>
	<polygon fill="#FFFFFF" points="24.619,28.643 20,20 23.75,29.055 	"/>
	<polygon fill="#FFFFFF" points="25.445,28.148 20,20 24.619,28.643 	"/>
	<polygon fill="#FFFFFF" points="26.217,27.576 20,20 25.445,28.148 	"/>
	<polygon fill="#FFFFFF" points="26.93,26.93 20,20 26.217,27.576 	"/>
	<polygon fill="#FFFFFF" points="27.576,26.217 20,20 26.93,26.93 	"/>
	<polygon fill="#FFFFFF" points="28.148,25.445 20,20 27.576,26.217 	"/>
	<polygon fill="#FFFFFF" points="28.643,24.619 20,20 28.148,25.445 	"/>
	<polygon fill="#FFFFFF" points="29.055,23.75 20,20 28.643,24.619 	"/>
	<polygon fill="#FFFFFF" points="29.378,22.845 20,20 29.055,23.75 	"/>
	<polygon fill="#FFFFFF" points="29.611,21.912 20,20 29.378,22.845 	"/>
	<polygon fill="#FFFFFF" points="29.753,20.961 20,20 29.611,21.912 	"/>
	<polygon fill="#FFFFFF" points="29.8,20 20,20 29.753,20.961 	"/>
	<polyline fill="none" stroke="#000000" stroke-width="0.125" points="29.8,20 29.752,19.024 29.605,18.058 29.365,17.111 
		29.03,16.193 28.606,15.313 28.098,14.479 27.508,13.701 26.843,12.984 26.11,12.338 25.316,11.768 24.471,11.279 23.58,10.877 
		22.654,10.566 21.701,10.349 20.732,10.228 19.756,10.203 18.781,10.276 17.819,10.446 16.879,10.71 15.969,11.067 15.1,11.513 
		14.279,12.043 13.516,12.652 12.816,13.334 12.188,14.083 11.638,14.89 11.17,15.748 10.791,16.648 10.503,17.582 10.31,18.54 
		10.212,19.512 10.212,20.488 10.31,21.461 10.503,22.418 10.791,23.352 11.17,24.252 11.638,25.109 12.188,25.918 12.816,26.666 
		13.516,27.348 14.279,27.957 15.1,28.486 15.969,28.933 16.879,29.289 17.819,29.555 18.781,29.725 19.756,29.797 20.732,29.772 
		21.701,29.65 22.654,29.434 23.58,29.123 24.471,28.721 25.316,28.232 26.11,27.662 26.843,27.016 27.508,26.299 28.098,25.521 
		28.606,24.688 29.03,23.807 29.365,22.889 29.605,21.941 29.752,20.976 29.8,20 	"/>
	<line fill="none" stroke="#000000" stroke-width="0.125" x1="2.36" y1="20" x2="37.641" y2="20"/>
	<polyline fill="none" stroke="#C0C0C0" stroke-width="0.125" points="4.32,31.76 10.2,31.76 29.8,8.24 35.68,8.24 	"/>
</g>
<text transform="matrix(1 0 0 1 33.0215 37.958)" font-family="'MyriadPro-Regular'" font-size="9">v</text>
</svg>
