<?xml version="1.0" encoding="utf-8"?>
<!-- Generator: Adobe Illustrator 14.0.0, SVG Export Plug-In . SVG Version: 6.00 Build 43363)  -->
<!DOCTYPE svg PUBLIC "-//W3C//DTD SVG 1.1//EN" "http://www.w3.org/Graphics/SVG/1.1/DTD/svg11.dtd">
<svg version="1.1" id="Calque_1" xmlns="http://www.w3.org/2000/svg" xmlns:xlink="http://www.w3.org/1999/xlink" x="0px" y="0px"
	 width="40px" height="40px" viewBox="0 0 40 40" enable-background="new 0 0 40 40" xml:space="preserve">
<title>Graphic window number 0</title>
<desc>Creator: GL2PS 1.3.2, (C) 1999-2006 Christophe Geuzaine (geuz@geuz.org)
For: Scilab
CreationDate: Fri Sep 16 15:14:38 2011</desc>
<g>
	<line fill="none" stroke="#0000FF" stroke-width="0.125" x1="37.641" y1="40" x2="37.641" y2="0"/>
	<line fill="none" stroke="#0000FF" stroke-width="0.125" x1="2.36" y1="0" x2="2.36" y2="40"/>
	<line fill="none" stroke="#0000FF" stroke-width="0.125" x1="2.36" y1="0" x2="2.36" y2="40"/>
	<line fill="none" stroke="#0000FF" stroke-width="0.125" x1="2.36" y1="0" x2="2.36" y2="40"/>
	<polyline fill="none" stroke="#0000FF" stroke-width="0.125" points="2.36,29.8 18.04,29.8 18.04,10.2 	"/>
	<line fill="none" stroke="#0000FF" stroke-width="0.125" x1="21.96" y1="6.28" x2="21.96" y2="14.316"/>
	<line fill="none" stroke="#0000FF" stroke-width="0.125" x1="21.96" y1="16.08" x2="21.96" y2="24.116"/>
	<line fill="none" stroke="#0000FF" stroke-width="0.125" x1="21.96" y1="25.88" x2="21.96" y2="33.916"/>
	<line fill="none" stroke="#0000FF" stroke-width="0.125" x1="21.96" y1="10.2" x2="37.836" y2="10.2"/>
	<line fill="none" stroke="#0000FF" stroke-width="0.125" x1="21.96" y1="20" x2="37.641" y2="20"/>
	<line fill="none" stroke="#0000FF" stroke-width="0.125" x1="21.96" y1="29.8" x2="37.641" y2="29.8"/>
	<polygon fill="#0000FF" points="27.84,20.98 31.76,20 27.84,19.02 	"/>
	<polyline fill="none" stroke="#0000FF" stroke-width="0.125" points="31.76,20 27.84,19.02 27.84,20.98 31.76,20 	"/>
</g>
</svg>
