<?xml version="1.0" encoding="utf-8"?>
<!-- Generator: Adobe Illustrator 14.0.0, SVG Export Plug-In . SVG Version: 6.00 Build 43363)  -->
<!DOCTYPE svg PUBLIC "-//W3C//DTD SVG 1.1//EN" "http://www.w3.org/Graphics/SVG/1.1/DTD/svg11.dtd">
<svg version="1.1"
	 id="Calque_1" xmlns:cc="http://creativecommons.org/ns#" xmlns:dc="http://purl.org/dc/elements/1.1/" xmlns:rdf="http://www.w3.org/1999/02/22-rdf-syntax-ns#" xmlns:svg="http://www.w3.org/2000/svg" xmlns:sodipodi="http://sodipodi.sourceforge.net/DTD/sodipodi-0.dtd" xmlns:inkscape="http://www.inkscape.org/namespaces/inkscape" sodipodi:docname="MEAS_HeatingPMOS.svg" inkscape:version="0.48.2 r9819"
	 xmlns="http://www.w3.org/2000/svg" xmlns:xlink="http://www.w3.org/1999/xlink" x="0px" y="0px" width="40px" height="40px"
	 viewBox="0 0 40 40" enable-background="new 0 0 40 40" xml:space="preserve">
<line id="line9" fill="none" stroke="#0000FF" stroke-width="1.125" x1="37.641" y1="40" x2="37.641" y2="0"/>
<line id="line11" fill="none" stroke="#0000FF" stroke-width="1.125" x1="2.36" y1="0" x2="2.36" y2="40"/>
<line id="line13" fill="none" stroke="#0000FF" stroke-width="1.125" x1="2.36" y1="0" x2="2.36" y2="40"/>
<line id="line15" fill="none" stroke="#0000FF" stroke-width="1.125" x1="2.36" y1="0" x2="2.36" y2="40"/>
<polyline id="polyline17" fill="none" stroke="#0000FF" stroke-width="1.125" points="2.36,29.8 18.04,29.8 18.04,10.2 "/>
<line id="line19" fill="none" stroke="#0000FF" stroke-width="1.125" x1="21.96" y1="6.28" x2="21.96" y2="14.316"/>
<line id="line21" fill="none" stroke="#0000FF" stroke-width="1.125" x1="21.96" y1="16.08" x2="21.96" y2="24.116"/>
<line id="line23" fill="none" stroke="#0000FF" stroke-width="1.125" x1="21.96" y1="25.88" x2="21.96" y2="33.916"/>
<line id="line25" fill="none" stroke="#0000FF" stroke-width="1.125" x1="21.96" y1="10.2" x2="37.836" y2="10.2"/>
<line id="line27" fill="none" stroke="#0000FF" stroke-width="1.125" x1="21.96" y1="20" x2="37.641" y2="20"/>
<line id="line29" fill="none" stroke="#0000FF" stroke-width="1.125" x1="21.96" y1="29.8" x2="37.641" y2="29.8"/>
<polygon id="polygon31" fill="#0000FF" stroke="#0000FF" points="27.84,20.98 31.76,20 27.84,19.02 "/>
<line id="line23-1" fill="none" stroke="#BF0000" stroke-width="0.5" x1="20" y1="21.682" x2="20" y2="39.877"/>
</svg>
