<?xml version="1.0" encoding="utf-8"?>
<!-- Generator: Adobe Illustrator 14.0.0, SVG Export Plug-In . SVG Version: 6.00 Build 43363)  -->
<!DOCTYPE svg PUBLIC "-//W3C//DTD SVG 1.1//EN" "http://www.w3.org/Graphics/SVG/1.1/DTD/svg11.dtd">
<svg version="1.1"
	 id="Calque_1" xmlns:cc="http://creativecommons.org/ns#" xmlns:dc="http://purl.org/dc/elements/1.1/" xmlns:rdf="http://www.w3.org/1999/02/22-rdf-syntax-ns#" xmlns:svg="http://www.w3.org/2000/svg" xmlns:sodipodi="http://sodipodi.sourceforge.net/DTD/sodipodi-0.dtd" xmlns:inkscape="http://www.inkscape.org/namespaces/inkscape" sodipodi:docname="MEAS_PNP.svg" inkscape:version="0.48.2 r9819"
	 xmlns="http://www.w3.org/2000/svg" xmlns:xlink="http://www.w3.org/1999/xlink" x="0px" y="0px" width="40px" height="40px"
	 viewBox="0 0 40 40" enable-background="new 0 0 40 40" xml:space="preserve">
<line id="line15" fill="none" stroke="#0000FF" stroke-width="1.125" x1="18.111" y1="12.33" x2="18.111" y2="28.01"/>
<line id="line17" fill="none" stroke="#0000FF" stroke-width="1.125" x1="18.111" y1="20.169" x2="2.431" y2="20.169"/>
<polyline id="polyline19" fill="none" stroke="#0000FF" stroke-width="1.125" points="37.908,10.37 25.952,10.37 18.111,18.209 "/>
<polyline id="polyline21" fill="none" stroke="#0000FF" stroke-width="1.125" points="19.437,23.438 26.654,30.031 37.658,30.031 
	"/>
<path id="path3874" sodipodi:ry="12.966102" sodipodi:rx="12.627119" sodipodi:cy="20.423729" sodipodi:cx="21.101694" sodipodi:type="arc" fill="none" stroke="#0000FF" d="
	M31.782,20.339c0.001,6.937-5.469,12.56-12.218,12.56C12.816,32.9,7.344,27.277,7.343,20.342c0-0.001,0-0.002,0-0.003
	C7.342,13.403,12.813,7.78,19.561,7.779c6.749,0,12.221,5.622,12.221,12.557C31.782,20.337,31.782,20.338,31.782,20.339z"/>
<polygon fill="#0000FF" stroke="#0000FF" points="24.409,25.79 19.018,22.883 21.925,28.274 "/>
</svg>
