<?xml version="1.0" encoding="utf-8"?>
<!-- Generator: Adobe Illustrator 14.0.0, SVG Export Plug-In . SVG Version: 6.00 Build 43363)  -->
<!DOCTYPE svg PUBLIC "-//W3C//DTD SVG 1.1//EN" "http://www.w3.org/Graphics/SVG/1.1/DTD/svg11.dtd">
<svg version="1.1"
	 id="Calque_1" xmlns:cc="http://creativecommons.org/ns#" xmlns:dc="http://purl.org/dc/elements/1.1/" xmlns:rdf="http://www.w3.org/1999/02/22-rdf-syntax-ns#" xmlns:svg="http://www.w3.org/2000/svg" xmlns:sodipodi="http://sodipodi.sourceforge.net/DTD/sodipodi-0.dtd" xmlns:inkscape="http://www.inkscape.org/namespaces/inkscape" sodipodi:docname="MEAS_HeatingPNP.svg" inkscape:version="0.48.2 r9819"
	 xmlns="http://www.w3.org/2000/svg" xmlns:xlink="http://www.w3.org/1999/xlink" x="0px" y="0px" width="40px" height="40px"
	 viewBox="0 0 40 40" enable-background="new 0 0 40 40" xml:space="preserve">
<line id="line15" fill="none" stroke="#0000FF" stroke-width="1.125" x1="18.04" y1="10.16" x2="18.04" y2="25.84"/>
<line id="line17" fill="none" stroke="#0000FF" stroke-width="1.125" x1="18.04" y1="18" x2="2.36" y2="18"/>
<polyline id="polyline19" fill="none" stroke="#0000FF" stroke-width="1.125" points="37.836,8.2 25.88,8.2 18.04,16.04 "/>
<polyline id="polyline21" fill="none" stroke="#0000FF" stroke-width="1.125" points="19.083,21.167 26.51,27.8 37.836,27.8 "/>
<polygon id="polygon23" fill="#0000FF" stroke="#0000FF" points="19.912,23.4 18.54,20.46 21.48,21.832 "/>
<path id="path3874" sodipodi:ry="12.966102" sodipodi:rx="12.627119" sodipodi:cy="20.423729" sodipodi:cx="21.101694" sodipodi:type="arc" fill="none" stroke="#0000FF" d="
	M31.711,18.169c0.001,6.936-5.47,12.559-12.218,12.559c-6.749,0.002-12.22-5.621-12.221-12.556c0-0.001,0-0.002,0-0.003
	C7.271,11.234,12.742,5.611,19.49,5.61c6.749,0,12.22,5.621,12.221,12.557C31.711,18.168,31.711,18.168,31.711,18.169z"/>
<path id="path3936" inkscape:connector-curvature="0" sodipodi:nodetypes="cc" fill="none" stroke="#D20000" stroke-width="0.7497" d="
	M15.353,31.739c-3.177,2.505,5.615,3.204-1.187,6.098"/>
<path id="path3936-5" inkscape:connector-curvature="0" sodipodi:nodetypes="cc" fill="none" stroke="#D20000" stroke-width="0.7497" d="
	M19.618,31.645c-3.176,2.505,5.615,3.203-1.187,6.098"/>
<path id="path3936-2" inkscape:connector-curvature="0" sodipodi:nodetypes="cc" fill="none" stroke="#D20000" stroke-width="0.7497" d="
	M24.025,31.739c-3.177,2.505,5.615,3.204-1.187,6.098"/>
</svg>
