<?xml version="1.0" encoding="utf-8"?>
<!-- Generator: Adobe Illustrator 14.0.0, SVG Export Plug-In . SVG Version: 6.00 Build 43363)  -->
<!DOCTYPE svg PUBLIC "-//W3C//DTD SVG 1.1//EN" "http://www.w3.org/Graphics/SVG/1.1/DTD/svg11.dtd">
<svg version="1.1" id="Calque_1" xmlns="http://www.w3.org/2000/svg" xmlns:xlink="http://www.w3.org/1999/xlink" x="0px" y="0px"
	 width="40px" height="40px" viewBox="0 0 40 40" enable-background="new 0 0 40 40" xml:space="preserve">
<title>Graphic window number 0</title>
<desc>Creator: GL2PS 1.3.2, (C) 1999-2006 Christophe Geuzaine (geuz@geuz.org)
For: Scilab
CreationDate: Fri Sep 16 15:15:01 2011</desc>
<g>
	<path fill="#C0C0C0" d="M0.4,20"/>
	<path fill="#C0C0C0" d="M0.4,20"/>
	<path fill="#C0C0C0" d="M0.4,20"/>
	<path fill="#C0C0C0" d="M0.4,20"/>
	<path fill="#C0C0C0" d="M0.4,20"/>
	<path fill="#C0C0C0" d="M0.4,20"/>
	<path fill="#C0C0C0" d="M0.4,20"/>
	<path fill="#C0C0C0" d="M0.4,20"/>
	<path fill="#C0C0C0" d="M0.4,20"/>
	<path fill="#C0C0C0" d="M0.4,20"/>
	<path fill="#C0C0C0" d="M0.4,20"/>
	<path fill="#C0C0C0" d="M0.4,20"/>
	<path fill="#C0C0C0" d="M0.4,20"/>
	<path fill="#C0C0C0" d="M0.4,20"/>
	<path fill="#C0C0C0" d="M0.4,20"/>
	<path fill="#C0C0C0" d="M0.4,20"/>
	<path fill="#C0C0C0" d="M0.4,20"/>
	<path fill="#C0C0C0" d="M0.4,20"/>
	<path fill="#C0C0C0" d="M0.4,20"/>
	<path fill="#C0C0C0" d="M0.4,20"/>
	<path fill="#C0C0C0" d="M0.4,20"/>
	<path fill="#C0C0C0" d="M0.4,20"/>
	<path fill="#C0C0C0" d="M0.4,20"/>
	<path fill="#C0C0C0" d="M0.4,20"/>
	<path fill="#C0C0C0" d="M0.4,20"/>
	<path fill="#C0C0C0" d="M0.4,20"/>
	<path fill="#C0C0C0" d="M0.4,20"/>
	<path fill="#C0C0C0" d="M0.4,20"/>
	<path fill="#C0C0C0" d="M0.4,20"/>
	<polygon fill="#C0C0C0" points="12.16,16.08 12.16,23.92 16.08,23.92 	"/>
	<polygon fill="#C0C0C0" points="12.16,16.08 16.08,23.92 16.08,16.08 	"/>
	<polyline fill="none" stroke="#000000" stroke-width="0.125" points="12.16,16.08 12.16,23.92 16.08,23.92 16.08,16.08 
		12.16,16.08 	"/>
	<polygon fill="#C0C0C0" points="13.4,0 12.16,0 12.16,16.08 	"/>
	<polygon fill="#C0C0C0" points="13.4,0 12.16,16.08 16.08,16.08 	"/>
	<polygon fill="#C0C0C0" points="13.4,0 16.08,16.08 16.08,0 	"/>
	<polyline fill="none" stroke="#000000" stroke-width="0.125" points="12.16,0 12.16,16.08 16.08,16.08 16.08,0 	"/>
	<polygon fill="#C0C0C0" points="23.92,0.4 23.92,8.24 27.84,8.24 	"/>
	<polygon fill="#C0C0C0" points="23.92,0.4 27.84,8.24 27.84,0.4 	"/>
	<polyline fill="none" stroke="#000000" stroke-width="0.125" points="23.92,0.4 23.92,8.24 27.84,8.24 27.84,0.4 23.92,0.4 	"/>
	<polygon fill="#C0C0C0" points="23.92,8.24 23.92,31.76 27.84,31.76 	"/>
	<polygon fill="#C0C0C0" points="23.92,8.24 27.84,31.76 27.84,8.24 	"/>
	<polyline fill="none" stroke="#000000" stroke-width="0.125" points="23.92,8.24 23.92,31.76 27.84,31.76 27.84,8.24 23.92,8.24 	
		"/>
	<polygon fill="#C0C0C0" points="27.84,18.04 27.84,21.96 39.6,21.96 	"/>
	<polygon fill="#C0C0C0" points="27.84,18.04 39.6,21.96 39.6,18.04 	"/>
	<polyline fill="none" stroke="#000000" stroke-width="0.125" points="27.84,18.04 27.84,21.96 39.6,21.96 39.6,18.04 27.84,18.04 	
		"/>
	<polygon fill="#C0C0C0" points="16.08,2.36 16.08,6.28 23.92,6.28 	"/>
	<polygon fill="#C0C0C0" points="16.08,2.36 23.92,6.28 23.92,2.36 	"/>
	<polyline fill="none" stroke="#000000" stroke-width="0.125" points="16.08,2.36 16.08,6.28 23.92,6.28 23.92,2.36 16.08,2.36 	"/>
	<polygon fill="#C0C0C0" points="0.4,18.04 0.4,21.96 12.16,21.96 	"/>
	<polygon fill="#C0C0C0" points="0.4,18.04 12.16,21.96 12.16,18.04 	"/>
	<polyline fill="none" stroke="#000000" stroke-width="0.125" points="0.4,18.04 0.4,21.96 12.16,21.96 12.16,18.04 0.4,18.04 	"/>
	<line fill="none" stroke="#000000" stroke-width="0.125" x1="4.32" y1="16.08" x2="8.24" y2="16.08"/>
	<line fill="none" stroke="#000000" stroke-width="0.125" x1="4.32" y1="23.92" x2="8.24" y2="23.92"/>
	<line fill="none" stroke="#000000" stroke-width="0.125" x1="6.28" y1="23.92" x2="6.28" y2="33.721"/>
	<line fill="none" stroke="#000000" stroke-width="0.125" x1="20" y1="8.24" x2="20" y2="37.641"/>
	<line fill="none" stroke="#000000" stroke-width="0.125" x1="18.04" y1="8.24" x2="21.96" y2="8.24"/>
	<line fill="none" stroke="#000000" stroke-width="0.125" x1="18.04" y1="0.4" x2="21.96" y2="0.4"/>
	<line fill="none" stroke="#000000" stroke-width="0.125" x1="31.76" y1="23.92" x2="35.68" y2="23.92"/>
	<line fill="none" stroke="#000000" stroke-width="0.125" x1="31.76" y1="16.08" x2="35.68" y2="16.08"/>
	<polyline fill="none" stroke="#000000" stroke-width="0.125" points="33.721,23.92 33.721,33.721 6.28,33.721 	"/>
</g>
</svg>
