<?xml version="1.0" encoding="utf-8"?>
<!-- Generator: Adobe Illustrator 14.0.0, SVG Export Plug-In . SVG Version: 6.00 Build 43363)  -->
<!DOCTYPE svg PUBLIC "-//W3C//DTD SVG 1.1//EN" "http://www.w3.org/Graphics/SVG/1.1/DTD/svg11.dtd">
<svg version="1.1" id="Calque_1" xmlns="http://www.w3.org/2000/svg" xmlns:xlink="http://www.w3.org/1999/xlink" x="0px" y="0px"
	 width="40px" height="40px" viewBox="0 0 40 40" enable-background="new 0 0 40 40" xml:space="preserve">
<title>Graphic window number 0</title>
<desc>Creator: GL2PS 1.3.2, (C) 1999-2006 Christophe Geuzaine (geuz@geuz.org)
For: Scilab
CreationDate: Fri Sep 16 15:15:02 2011</desc>
<g>
	<polygon fill="#FFFFFF" points="21.922,19.231 14.12,20 21.96,20 	"/>
	<polygon fill="#FFFFFF" points="21.81,18.471 14.12,20 21.922,19.231 	"/>
	<polygon fill="#FFFFFF" points="21.623,17.724 14.12,20 21.81,18.471 	"/>
	<polygon fill="#FFFFFF" points="21.363,17 14.12,20 21.623,17.724 	"/>
	<polygon fill="#FFFFFF" points="21.034,16.304 14.12,20 21.363,17 	"/>
	<polygon fill="#FFFFFF" points="20.639,15.645 14.12,20 21.034,16.304 	"/>
	<polygon fill="#FFFFFF" points="20.18,15.026 14.12,20 20.639,15.645 	"/>
	<polygon fill="#FFFFFF" points="19.664,14.456 14.12,20 20.18,15.026 	"/>
	<polygon fill="#FFFFFF" points="19.094,13.939 14.12,20 19.664,14.456 	"/>
	<polygon fill="#FFFFFF" points="18.476,13.481 14.12,20 19.094,13.939 	"/>
	<polygon fill="#FFFFFF" points="17.816,13.086 14.12,20 18.476,13.481 	"/>
	<polygon fill="#FFFFFF" points="17.12,12.757 14.12,20 17.816,13.086 	"/>
	<polygon fill="#FFFFFF" points="16.396,12.498 14.12,20 17.12,12.757 	"/>
	<polygon fill="#FFFFFF" points="15.649,12.311 14.12,20 16.396,12.498 	"/>
	<polygon fill="#FFFFFF" points="14.889,12.198 14.12,20 15.649,12.311 	"/>
	<polygon fill="#FFFFFF" points="14.12,12.16 14.12,20 14.889,12.198 	"/>
	<polygon fill="#FFFFFF" points="13.352,12.198 14.12,20 14.12,12.16 	"/>
	<polygon fill="#FFFFFF" points="12.59,12.311 14.12,20 13.352,12.198 	"/>
	<polygon fill="#FFFFFF" points="11.844,12.498 14.12,20 12.59,12.311 	"/>
	<polygon fill="#FFFFFF" points="11.12,12.757 14.12,20 11.844,12.498 	"/>
	<polygon fill="#FFFFFF" points="10.424,13.086 14.12,20 11.12,12.757 	"/>
	<polygon fill="#FFFFFF" points="9.764,13.481 14.12,20 10.424,13.086 	"/>
	<polygon fill="#FFFFFF" points="9.146,13.939 14.12,20 9.764,13.481 	"/>
	<polygon fill="#FFFFFF" points="8.576,14.456 14.12,20 9.146,13.939 	"/>
	<polygon fill="#FFFFFF" points="8.06,15.026 14.12,20 8.576,14.456 	"/>
	<polygon fill="#FFFFFF" points="7.601,15.645 14.12,20 8.06,15.026 	"/>
	<polygon fill="#FFFFFF" points="7.206,16.304 14.12,20 7.601,15.645 	"/>
	<polygon fill="#FFFFFF" points="6.877,17 14.12,20 7.206,16.304 	"/>
	<polygon fill="#FFFFFF" points="6.618,17.724 14.12,20 6.877,17 	"/>
	<polygon fill="#FFFFFF" points="6.431,18.471 14.12,20 6.618,17.724 	"/>
	<polygon fill="#FFFFFF" points="6.318,19.231 14.12,20 6.431,18.471 	"/>
	<polygon fill="#FFFFFF" points="6.28,20 14.12,20 6.318,19.231 	"/>
	<polygon fill="#FFFFFF" points="6.318,20.769 14.12,20 6.28,20 	"/>
	<polygon fill="#FFFFFF" points="6.431,21.529 14.12,20 6.318,20.769 	"/>
	<polygon fill="#FFFFFF" points="6.618,22.275 14.12,20 6.431,21.529 	"/>
	<polygon fill="#FFFFFF" points="6.877,23 14.12,20 6.618,22.275 	"/>
	<polygon fill="#FFFFFF" points="7.206,23.695 14.12,20 6.877,23 	"/>
	<polygon fill="#FFFFFF" points="7.601,24.355 14.12,20 7.206,23.695 	"/>
	<polygon fill="#FFFFFF" points="8.06,24.974 14.12,20 7.601,24.355 	"/>
	<polygon fill="#FFFFFF" points="8.576,25.544 14.12,20 8.06,24.974 	"/>
	<polygon fill="#FFFFFF" points="9.146,26.061 14.12,20 8.576,25.544 	"/>
	<polygon fill="#FFFFFF" points="9.764,26.519 14.12,20 9.146,26.061 	"/>
	<polygon fill="#FFFFFF" points="10.424,26.914 14.12,20 9.764,26.519 	"/>
	<polygon fill="#FFFFFF" points="11.12,27.243 14.12,20 10.424,26.914 	"/>
	<polygon fill="#FFFFFF" points="11.844,27.502 14.12,20 11.12,27.243 	"/>
	<polygon fill="#FFFFFF" points="12.59,27.689 14.12,20 11.844,27.502 	"/>
	<polygon fill="#FFFFFF" points="13.352,27.803 14.12,20 12.59,27.689 	"/>
	<polygon fill="#FFFFFF" points="14.12,27.84 14.12,20 13.352,27.803 	"/>
	<polygon fill="#FFFFFF" points="14.889,27.803 14.12,20 14.12,27.84 	"/>
	<polygon fill="#FFFFFF" points="15.649,27.689 14.12,20 14.889,27.803 	"/>
	<polygon fill="#FFFFFF" points="16.396,27.502 14.12,20 15.649,27.689 	"/>
	<polygon fill="#FFFFFF" points="17.12,27.243 14.12,20 16.396,27.502 	"/>
	<polygon fill="#FFFFFF" points="17.816,26.914 14.12,20 17.12,27.243 	"/>
	<polygon fill="#FFFFFF" points="18.476,26.519 14.12,20 17.816,26.914 	"/>
	<polygon fill="#FFFFFF" points="19.094,26.061 14.12,20 18.476,26.519 	"/>
	<polygon fill="#FFFFFF" points="19.664,25.544 14.12,20 19.094,26.061 	"/>
	<polygon fill="#FFFFFF" points="20.18,24.974 14.12,20 19.664,25.544 	"/>
	<polygon fill="#FFFFFF" points="20.639,24.355 14.12,20 20.18,24.974 	"/>
	<polygon fill="#FFFFFF" points="21.034,23.695 14.12,20 20.639,24.355 	"/>
	<polygon fill="#FFFFFF" points="21.363,23 14.12,20 21.034,23.695 	"/>
	<polygon fill="#FFFFFF" points="21.623,22.275 14.12,20 21.363,23 	"/>
	<polygon fill="#FFFFFF" points="21.81,21.529 14.12,20 21.623,22.275 	"/>
	<polygon fill="#FFFFFF" points="21.922,20.769 14.12,20 21.81,21.529 	"/>
	<polygon fill="#FFFFFF" points="21.96,20 14.12,20 21.922,20.769 	"/>
	<polyline fill="none" stroke="#000000" stroke-width="0.125" points="21.96,20 21.921,19.219 21.805,18.447 21.611,17.689 
		21.344,16.955 21.006,16.25 20.598,15.583 20.126,14.96 19.594,14.388 19.008,13.871 18.374,13.414 17.697,13.023 16.984,12.702 
		16.243,12.453 15.481,12.279 14.706,12.182 13.924,12.163 13.145,12.221 12.375,12.356 11.623,12.568 10.896,12.854 10.2,13.21 
		9.543,13.634 8.933,14.122 8.373,14.667 7.871,15.266 7.43,15.912 7.057,16.598 6.753,17.318 6.522,18.065 6.368,18.832 
		6.29,19.609 6.29,20.391 6.368,21.168 6.522,21.935 6.753,22.682 7.057,23.402 7.43,24.088 7.871,24.734 8.373,25.332 
		8.933,25.879 9.543,26.365 10.2,26.789 10.896,27.146 11.623,27.432 12.375,27.644 13.145,27.779 13.924,27.838 14.706,27.818 
		15.481,27.721 16.243,27.547 16.984,27.298 17.697,26.977 18.374,26.586 19.008,26.129 19.594,25.612 20.126,25.039 20.598,24.416 
		21.006,23.75 21.344,23.045 21.611,22.311 21.805,21.553 21.921,20.781 21.96,20 	"/>
	<polygon points="16.071,19.808 14.12,20 16.08,20 	"/>
	<polygon points="16.042,19.618 14.12,20 16.071,19.808 	"/>
	<polygon points="15.996,19.431 14.12,20 16.042,19.618 	"/>
	<polygon points="15.931,19.25 14.12,20 15.996,19.431 	"/>
	<polygon points="15.849,19.076 14.12,20 15.931,19.25 	"/>
	<polygon points="15.75,18.911 14.12,20 15.849,19.076 	"/>
	<polygon points="15.635,18.756 14.12,20 15.75,18.911 	"/>
	<polygon points="15.506,18.614 14.12,20 15.635,18.756 	"/>
	<polygon points="15.363,18.485 14.12,20 15.506,18.614 	"/>
	<polygon points="15.209,18.37 14.12,20 15.363,18.485 	"/>
	<polygon points="15.044,18.271 14.12,20 15.209,18.37 	"/>
	<polygon points="14.87,18.189 14.12,20 15.044,18.271 	"/>
	<polygon points="14.689,18.125 14.12,20 14.87,18.189 	"/>
	<polygon points="14.502,18.078 14.12,20 14.689,18.125 	"/>
	<polygon points="14.312,18.049 14.12,20 14.502,18.078 	"/>
	<polygon points="14.12,18.04 14.12,20 14.312,18.049 	"/>
	<polygon points="13.928,18.049 14.12,20 14.12,18.04 	"/>
	<polygon points="13.738,18.078 14.12,20 13.928,18.049 	"/>
	<polygon points="13.551,18.125 14.12,20 13.738,18.078 	"/>
	<polygon points="13.37,18.189 14.12,20 13.551,18.125 	"/>
	<polygon points="13.196,18.271 14.12,20 13.37,18.189 	"/>
	<polygon points="13.031,18.37 14.12,20 13.196,18.271 	"/>
	<polygon points="12.876,18.485 14.12,20 13.031,18.37 	"/>
	<polygon points="12.734,18.614 14.12,20 12.876,18.485 	"/>
	<polygon points="12.605,18.756 14.12,20 12.734,18.614 	"/>
	<polygon points="12.49,18.911 14.12,20 12.605,18.756 	"/>
	<polygon points="12.392,19.076 14.12,20 12.49,18.911 	"/>
	<polygon points="12.309,19.25 14.12,20 12.392,19.076 	"/>
	<polygon points="12.245,19.431 14.12,20 12.309,19.25 	"/>
	<polygon points="12.198,19.618 14.12,20 12.245,19.431 	"/>
	<polygon points="12.169,19.808 14.12,20 12.198,19.618 	"/>
	<polygon points="12.16,20 14.12,20 12.169,19.808 	"/>
	<polygon points="12.169,20.192 14.12,20 12.16,20 	"/>
	<polygon points="12.198,20.382 14.12,20 12.169,20.192 	"/>
	<polygon points="12.245,20.568 14.12,20 12.198,20.382 	"/>
	<polygon points="12.309,20.75 14.12,20 12.245,20.568 	"/>
	<polygon points="12.392,20.924 14.12,20 12.309,20.75 	"/>
	<polygon points="12.49,21.089 14.12,20 12.392,20.924 	"/>
	<polygon points="12.605,21.244 14.12,20 12.49,21.089 	"/>
	<polygon points="12.734,21.386 14.12,20 12.605,21.244 	"/>
	<polygon points="12.876,21.516 14.12,20 12.734,21.386 	"/>
	<polygon points="13.031,21.63 14.12,20 12.876,21.516 	"/>
	<polygon points="13.196,21.729 14.12,20 13.031,21.63 	"/>
	<polygon points="13.37,21.811 14.12,20 13.196,21.729 	"/>
	<polygon points="13.551,21.875 14.12,20 13.37,21.811 	"/>
	<polygon points="13.738,21.922 14.12,20 13.551,21.875 	"/>
	<polygon points="13.928,21.951 14.12,20 13.738,21.922 	"/>
	<polygon points="14.12,21.96 14.12,20 13.928,21.951 	"/>
	<polygon points="14.312,21.951 14.12,20 14.12,21.96 	"/>
	<polygon points="14.502,21.922 14.12,20 14.312,21.951 	"/>
	<polygon points="14.689,21.875 14.12,20 14.502,21.922 	"/>
	<polygon points="14.87,21.811 14.12,20 14.689,21.875 	"/>
	<polygon points="15.044,21.729 14.12,20 14.87,21.811 	"/>
	<polygon points="15.209,21.63 14.12,20 15.044,21.729 	"/>
	<polygon points="15.363,21.516 14.12,20 15.209,21.63 	"/>
	<polygon points="15.506,21.386 14.12,20 15.363,21.516 	"/>
	<polygon points="15.635,21.244 14.12,20 15.506,21.386 	"/>
	<polygon points="15.75,21.089 14.12,20 15.635,21.244 	"/>
	<polygon points="15.849,20.924 14.12,20 15.75,21.089 	"/>
	<polygon points="15.931,20.75 14.12,20 15.849,20.924 	"/>
	<polygon points="15.996,20.568 14.12,20 15.931,20.75 	"/>
	<polygon points="16.042,20.382 14.12,20 15.996,20.568 	"/>
	<polygon points="16.071,20.192 14.12,20 16.042,20.382 	"/>
	<polygon points="16.08,20 14.12,20 16.071,20.192 	"/>
	<polyline fill="none" stroke="#000000" stroke-width="0.125" points="16.08,20 16.07,19.805 16.041,19.612 15.993,19.422 
		15.926,19.239 15.841,19.062 15.739,18.896 15.622,18.74 15.489,18.597 15.342,18.468 15.184,18.354 15.014,18.256 14.836,18.175 
		14.651,18.113 14.46,18.07 14.267,18.045 14.071,18.041 13.876,18.055 13.684,18.089 13.496,18.142 13.314,18.213 13.14,18.303 
		12.976,18.409 12.823,18.53 12.683,18.667 12.558,18.816 12.448,18.978 12.354,19.149 12.278,19.33 12.221,19.516 12.182,19.708 
		12.163,19.902 12.163,20.098 12.182,20.292 12.221,20.484 12.278,20.67 12.354,20.851 12.448,21.021 12.558,21.184 12.683,21.333 
		12.823,21.47 12.976,21.592 13.14,21.697 13.314,21.787 13.496,21.857 13.684,21.91 13.876,21.945 14.071,21.959 14.267,21.955 
		14.46,21.93 14.651,21.887 14.836,21.824 15.014,21.744 15.184,21.646 15.342,21.532 15.489,21.403 15.622,21.26 15.739,21.104 
		15.841,20.938 15.926,20.762 15.993,20.578 16.041,20.388 16.07,20.195 16.08,20 	"/>
	<polygon fill="#C0C0C0" points="0.4,18.04 0.4,21.96 6.28,21.96 	"/>
	<polygon fill="#C0C0C0" points="0.4,18.04 6.28,21.96 6.28,18.04 	"/>
	<polyline fill="none" stroke="#000000" stroke-width="0.125" points="0.4,18.04 0.4,21.96 6.28,21.96 6.28,18.04 0.4,18.04 	"/>
	<polygon fill="#A0A0A0" points="32.936,27.84 36.855,31.76 29.016,31.76 	"/>
	<polygon fill="#A0A0A0" points="25.096,27.84 29.016,31.76 21.176,31.76 	"/>
	<polygon fill="#A0A0A0" points="17.256,27.84 21.176,31.76 13.336,31.76 	"/>
	<polygon fill="#A0A0A0" points="9.416,27.84 13.336,31.76 5.496,31.76 	"/>
	<polyline fill="none" stroke="#000000" stroke-width="0.125" points="5.496,31.76 9.416,27.84 13.336,31.76 17.256,27.84 
		21.176,31.76 25.096,27.84 29.016,31.76 32.936,27.84 36.855,31.76 5.496,31.76 	"/>
	<polygon fill="#A0A0A0" points="40,28.232 38.62,21.96 38.62,31.76 	"/>
	<polygon fill="#A0A0A0" points="40,28.232 38.62,31.76 40,31.76 	"/>
	<polygon fill="#A0A0A0" points="40,21.96 38.62,21.96 40,28.232 	"/>
	<polyline fill="none" stroke="#000000" stroke-width="0.125" points="38.62,21.96 38.62,31.76 40,31.76 	"/>
	<line fill="none" stroke="#000000" stroke-width="0.125" x1="40" y1="21.96" x2="38.62" y2="21.96"/>
	<polygon fill="#A0A0A0" points="40,35.594 5.496,31.76 5.496,35.68 	"/>
	<polygon fill="#A0A0A0" points="40,35.594 5.496,35.68 40,35.68 	"/>
	<polygon fill="#A0A0A0" points="40,31.76 5.496,31.76 40,35.594 	"/>
	<polyline fill="none" stroke="#000000" stroke-width="0.125" points="5.496,31.76 5.496,35.68 40,35.68 	"/>
	<line fill="none" stroke="#000000" stroke-width="0.125" x1="40" y1="31.76" x2="5.496" y2="31.76"/>
	<text transform="matrix(1 0 0 1 13 8)" font-family="'ArialMT'" font-size="9">=1</text>
</g>
</svg>
