<?xml version="1.0" encoding="utf-8"?>
<!-- Generator: Adobe Illustrator 14.0.0, SVG Export Plug-In . SVG Version: 6.00 Build 43363)  -->
<!DOCTYPE svg PUBLIC "-//W3C//DTD SVG 1.1//EN" "http://www.w3.org/Graphics/SVG/1.1/DTD/svg11.dtd">
<svg version="1.1" id="Calque_1" xmlns="http://www.w3.org/2000/svg" xmlns:xlink="http://www.w3.org/1999/xlink" x="0px" y="0px"
	 width="40px" height="40px" viewBox="0 0 40 40" enable-background="new 0 0 40 40" xml:space="preserve">
<title>Graphic window number 0</title>
<desc>Creator: GL2PS 1.3.2, (C) 1999-2006 Christophe Geuzaine (geuz@geuz.org)
For: Scilab
CreationDate: Fri Sep 16 15:14:57 2011</desc>
<path fill="#FFFFFF" d="M40,40"/>
<g>
	<path fill="#C0C0C0" d="M0.4,20"/>
	<path fill="#C0C0C0" d="M0.4,20"/>
	<path fill="#C0C0C0" d="M0.4,20"/>
	<path fill="#C0C0C0" d="M0.4,20"/>
	<path fill="#C0C0C0" d="M0.4,20"/>
	<path fill="#C0C0C0" d="M0.4,20"/>
	<path fill="#C0C0C0" d="M0.4,20"/>
	<path fill="#C0C0C0" d="M0.4,20"/>
	<path fill="#C0C0C0" d="M0.4,20"/>
	<path fill="#C0C0C0" d="M0.4,20"/>
	<path fill="#C0C0C0" d="M0.4,20"/>
	<path fill="#C0C0C0" d="M0.4,20"/>
	<path fill="#C0C0C0" d="M0.4,20"/>
	<path fill="#C0C0C0" d="M0.4,20"/>
	<path fill="#C0C0C0" d="M0.4,20"/>
	<path fill="#C0C0C0" d="M0.4,20"/>
	<path fill="#C0C0C0" d="M0.4,20"/>
	<path fill="#C0C0C0" d="M0.4,20"/>
	<path fill="#C0C0C0" d="M0.4,20"/>
	<path fill="#C0C0C0" d="M0.4,20"/>
	<path fill="#C0C0C0" d="M0.4,20"/>
	<path fill="#C0C0C0" d="M0.4,20"/>
	<path fill="#C0C0C0" d="M0.4,20"/>
	<path fill="#C0C0C0" d="M0.4,20"/>
	<path fill="#C0C0C0" d="M0.4,20"/>
	<path fill="#C0C0C0" d="M0.4,20"/>
	<path fill="#C0C0C0" d="M0.4,20"/>
	<polygon fill="#C0C0C0" points="0.4,18.04 0.4,21.96 10.2,21.96 	"/>
	<polygon fill="#C0C0C0" points="0.4,18.04 10.2,21.96 10.2,18.04 	"/>
	<polyline fill="none" stroke="#000000" stroke-width="0.125" points="0.4,18.04 0.4,21.96 10.2,21.96 10.2,18.04 0.4,18.04 	"/>
	<polygon fill="#C0C0C0" points="29.8,18.04 29.8,21.96 39.6,21.96 	"/>
	<polygon fill="#C0C0C0" points="29.8,18.04 39.6,21.96 39.6,18.04 	"/>
	<polyline fill="none" stroke="#000000" stroke-width="0.125" points="29.8,18.04 29.8,21.96 39.6,21.96 39.6,18.04 29.8,18.04 	"/>
	<line fill="none" stroke="#000000" stroke-width="0.125" x1="4.32" y1="24.9" x2="8.24" y2="24.9"/>
	<line fill="none" stroke="#000000" stroke-width="0.125" x1="31.76" y1="24.9" x2="35.68" y2="24.9"/>
	<line fill="none" stroke="#000000" stroke-width="0.125" x1="6.28" y1="24.9" x2="6.28" y2="33.721"/>
	<line fill="none" stroke="#000000" stroke-width="0.125" x1="33.721" y1="24.9" x2="33.721" y2="33.721"/>
	<line fill="none" stroke="#000000" stroke-width="0.125" x1="4.32" y1="15.1" x2="8.24" y2="15.1"/>
	<line fill="none" stroke="#000000" stroke-width="0.125" x1="31.76" y1="15.1" x2="35.68" y2="15.1"/>
	<line fill="none" stroke="#000000" stroke-width="0.125" x1="6.28" y1="11.18" x2="6.28" y2="15.1"/>
	<line fill="none" stroke="#000000" stroke-width="0.125" x1="33.721" y1="11.18" x2="33.721" y2="15.1"/>
	<line fill="none" stroke="#000000" stroke-width="0.125" x1="6.28" y1="33.721" x2="33.721" y2="33.721"/>
	<polygon fill="#C0C0C0" points="10.2,10.2 10.2,29.8 29.8,29.8 	"/>
	<polygon fill="#C0C0C0" points="10.2,10.2 29.8,29.8 29.8,10.2 	"/>
	<polyline fill="none" stroke="#000000" stroke-width="0.125" points="10.2,10.2 10.2,29.8 29.8,29.8 29.8,10.2 10.2,10.2 	"/>
</g>
</svg>
