<?xml version="1.0" encoding="utf-8"?>
<!-- Generator: Adobe Illustrator 14.0.0, SVG Export Plug-In . SVG Version: 6.00 Build 43363)  -->
<!DOCTYPE svg PUBLIC "-//W3C//DTD SVG 1.1//EN" "http://www.w3.org/Graphics/SVG/1.1/DTD/svg11.dtd">
<svg version="1.1" id="Calque_1" xmlns="http://www.w3.org/2000/svg" xmlns:xlink="http://www.w3.org/1999/xlink" x="0px" y="0px"
	 width="40px" height="40px" viewBox="0 0 40 40" enable-background="new 0 0 40 40" xml:space="preserve">
<title>Graphic window number 0</title>
<desc>Creator: GL2PS 1.3.2, (C) 1999-2006 Christophe Geuzaine (geuz@geuz.org)
For: Scilab
CreationDate: Fri Sep 16 15:14:58 2011</desc>
<g>
	<polyline fill="none" stroke="#000000" stroke-width="0.125" points="4.32,12.16 8.24,12.16 11.18,18.04 17.06,6.28 22.939,18.04 
		28.82,6.28 31.76,12.16 35.68,12.16 	"/>
	<polyline fill="none" stroke="#000000" stroke-width="0.125" points="4.32,12.16 4.32,33.721 9.808,33.721 	"/>
	<polygon fill="#C0C0C0" points="9.808,27.84 9.808,39.6 27.448,39.6 	"/>
	<polygon fill="#C0C0C0" points="9.808,27.84 27.448,39.6 27.448,27.84 	"/>
	<polyline fill="none" stroke="#000000" stroke-width="0.125" points="9.808,27.84 9.808,39.6 27.448,39.6 27.448,27.84 
		9.808,27.84 33.328,27.84 	"/>
	<line fill="none" stroke="#000000" stroke-width="0.125" x1="9.808" y1="39.6" x2="33.328" y2="39.6"/>
	<line fill="none" stroke="#000000" stroke-width="0.125" x1="27.448" y1="33.721" x2="35.68" y2="33.721"/>
	<line fill="none" stroke="#000000" stroke-width="0.125" x1="35.68" y1="12.16" x2="35.68" y2="33.721"/>
	<line fill="none" stroke="#000000" stroke-width="0.125" x1="2.36" y1="20" x2="4.32" y2="20"/>
	<line fill="none" stroke="#000000" stroke-width="0.125" x1="35.68" y1="20" x2="37.641" y2="20"/>
	<text transform="matrix(1 0 0 1 14.4375 7.1875)" font-family="'ArialMT'" font-size="9">=1</text>
</g>
</svg>
