<?xml version="1.0" encoding="utf-8"?>
<!-- Generator: Adobe Illustrator 14.0.0, SVG Export Plug-In . SVG Version: 6.00 Build 43363)  -->
<!DOCTYPE svg PUBLIC "-//W3C//DTD SVG 1.1//EN" "http://www.w3.org/Graphics/SVG/1.1/DTD/svg11.dtd">
<svg version="1.1" id="Calque_1" xmlns="http://www.w3.org/2000/svg" xmlns:xlink="http://www.w3.org/1999/xlink" x="0px" y="0px"
	 width="40px" height="40px" viewBox="0 0 40 40" enable-background="new 0 0 40 40" xml:space="preserve">
<line fill="none" stroke="#000000" stroke-width="1.125" x1="5.74" y1="18.036" x2="9.295" y2="18.036"/>
<line fill="none" stroke="#000000" stroke-width="1.125" x1="5.74" y1="25.147" x2="9.295" y2="25.147"/>
<line fill="none" stroke="#000000" stroke-width="1.125" stroke-linecap="square" x1="7.518" y1="25.147" x2="7.518" y2="34.037"/>
<line fill="none" stroke="#000000" stroke-width="1.125" x1="19.962" y1="10.925" x2="19.962" y2="37.592"/>
<line fill="none" stroke="#000000" stroke-width="1.125" x1="18.184" y1="10.925" x2="21.739" y2="10.925"/>
<line fill="none" stroke="#000000" stroke-width="1.125" x1="18.184" y1="3.814" x2="21.739" y2="3.814"/>
<line fill="none" stroke="#000000" stroke-width="1.125" x1="30.628" y1="25.147" x2="34.184" y2="25.147"/>
<line fill="none" stroke="#000000" stroke-width="1.125" x1="30.628" y1="18.036" x2="34.184" y2="18.036"/>
<polyline fill="none" stroke="#000000" stroke-width="1.125" points="32.407,25.147 32.407,34.037 7.518,34.037 "/>
<rect x="27.144" y="19.862" fill="#C0C0C0" stroke="#000000" width="10.729" height="3.553"/>
<rect x="16.311" y="5.578" fill="#C0C0C0" stroke="#000000" width="7.206" height="3.552"/>
<rect x="23.545" y="10.894" fill="#C0C0C0" stroke="#000000" width="3.551" height="21.378"/>
<rect x="23.545" y="3.853" fill="#C0C0C0" stroke="#000000" width="3.551" height="7.199"/>
<rect x="12.812" y="17.85" fill="#C0C0C0" stroke="#000000" width="3.551" height="7.661"/>
<rect x="12.813" y="2.461" fill="#C0C0C0" stroke="#000000" width="3.551" height="15.426"/>
<rect x="2.106" y="19.862" fill="#C0C0C0" stroke="#000000" width="10.67" height="3.553"/>
</svg>
