<?xml version="1.0" encoding="utf-8"?>
<!-- Generator: Adobe Illustrator 14.0.0, SVG Export Plug-In . SVG Version: 6.00 Build 43363)  -->
<!DOCTYPE svg PUBLIC "-//W3C//DTD SVG 1.1//EN" "http://www.w3.org/Graphics/SVG/1.1/DTD/svg11.dtd">
<svg version="1.1" id="Calque_1" xmlns="http://www.w3.org/2000/svg" xmlns:xlink="http://www.w3.org/1999/xlink" x="0px" y="0px"
	 width="40px" height="40px" viewBox="0 0 40 40" enable-background="new 0 0 40 40" xml:space="preserve">
<line fill="none" stroke="#000000" stroke-width="1.125" x1="4.32" y1="16.08" x2="8.24" y2="16.08"/>
<line fill="none" stroke="#000000" stroke-width="1.125" x1="4.32" y1="23.92" x2="8.24" y2="23.92"/>
<line fill="none" stroke="#000000" stroke-width="1.125" stroke-linecap="square" x1="6.28" y1="23.92" x2="6.28" y2="33.721"/>
<line fill="none" stroke="#000000" stroke-width="1.125" x1="20" y1="8.24" x2="20" y2="37.641"/>
<line fill="none" stroke="#000000" stroke-width="1.125" x1="18.04" y1="8.24" x2="21.96" y2="8.24"/>
<line fill="none" stroke="#000000" stroke-width="1.125" x1="18.04" y1="0.4" x2="21.96" y2="0.4"/>
<line fill="none" stroke="#000000" stroke-width="1.125" x1="31.76" y1="23.92" x2="35.68" y2="23.92"/>
<line fill="none" stroke="#000000" stroke-width="1.125" x1="31.76" y1="16.08" x2="35.68" y2="16.08"/>
<polyline fill="none" stroke="#000000" stroke-width="1.125" points="33.721,23.92 33.721,33.721 6.28,33.721 "/>
<rect x="27.919" y="18.094" fill="#C0C0C0" stroke="#000000" width="11.829" height="3.916"/>
<rect x="15.975" y="2.344" fill="#C0C0C0" stroke="#000000" width="7.945" height="3.916"/>
<rect x="23.95" y="8.206" fill="#C0C0C0" stroke="#000000" width="3.915" height="23.57"/>
<rect x="23.95" y="0.443" fill="#C0C0C0" stroke="#000000" width="3.915" height="7.937"/>
<rect x="12.117" y="15.875" fill="#C0C0C0" stroke="#000000" width="3.915" height="8.445"/>
<rect x="12.118" y="-1.092" fill="#C0C0C0" stroke="#000000" width="3.915" height="17.008"/>
<rect x="0.313" y="18.094" fill="#C0C0C0" stroke="#000000" width="11.764" height="3.916"/>
</svg>
