<?xml version="1.0" encoding="utf-8"?>
<!-- Generator: Adobe Illustrator 14.0.0, SVG Export Plug-In . SVG Version: 6.00 Build 43363)  -->
<!DOCTYPE svg PUBLIC "-//W3C//DTD SVG 1.1//EN" "http://www.w3.org/Graphics/SVG/1.1/DTD/svg11.dtd">
<svg version="1.1" id="Calque_1" xmlns="http://www.w3.org/2000/svg" xmlns:xlink="http://www.w3.org/1999/xlink" x="0px" y="0px"
	 width="40px" height="40px" viewBox="0 0 40 40" enable-background="new 0 0 40 40" xml:space="preserve">
<title>Graphic window number 0</title>
<desc>Creator: GL2PS 1.3.2, (C) 1999-2006 Christophe Geuzaine (geuz@geuz.org)
For: Scilab
CreationDate: Fri Sep 16 15:15:03 2011</desc>
<g>
	<polygon fill="#FFFFFF" points="33.654,18.655 20,20 33.721,20 	"/>
	<polygon fill="#FFFFFF" points="33.457,17.323 20,20 33.654,18.655 	"/>
	<polygon fill="#FFFFFF" points="33.129,16.017 20,20 33.457,17.323 	"/>
	<polygon fill="#FFFFFF" points="32.676,14.75 20,20 33.129,16.017 	"/>
	<polygon fill="#FFFFFF" points="32.1,13.532 20,20 32.676,14.75 	"/>
	<polygon fill="#FFFFFF" points="31.408,12.377 20,20 32.1,13.532 	"/>
	<polygon fill="#FFFFFF" points="30.605,11.296 20,20 31.408,12.377 	"/>
	<polygon fill="#FFFFFF" points="29.701,10.298 20,20 30.605,11.296 	"/>
	<polygon fill="#FFFFFF" points="28.704,9.395 20,20 29.701,10.298 	"/>
	<polygon fill="#FFFFFF" points="27.623,8.592 20,20 28.704,9.395 	"/>
	<polygon fill="#FFFFFF" points="26.468,7.9 20,20 27.623,8.592 	"/>
	<polygon fill="#FFFFFF" points="25.25,7.324 20,20 26.468,7.9 	"/>
	<polygon fill="#FFFFFF" points="23.982,6.871 20,20 25.25,7.324 	"/>
	<polygon fill="#FFFFFF" points="22.677,6.543 20,20 23.982,6.871 	"/>
	<polygon fill="#FFFFFF" points="21.345,6.346 20,20 22.677,6.543 	"/>
	<polygon fill="#FFFFFF" points="20,6.28 20,20 21.345,6.346 	"/>
	<polygon fill="#FFFFFF" points="18.655,6.346 20,20 20,6.28 	"/>
	<polygon fill="#FFFFFF" points="17.323,6.543 20,20 18.655,6.346 	"/>
	<polygon fill="#FFFFFF" points="16.017,6.871 20,20 17.323,6.543 	"/>
	<polygon fill="#FFFFFF" points="14.75,7.324 20,20 16.017,6.871 	"/>
	<polygon fill="#FFFFFF" points="13.532,7.9 20,20 14.75,7.324 	"/>
	<polygon fill="#FFFFFF" points="12.377,8.592 20,20 13.532,7.9 	"/>
	<polygon fill="#FFFFFF" points="11.296,9.395 20,20 12.377,8.592 	"/>
	<polygon fill="#FFFFFF" points="10.298,10.298 20,20 11.296,9.395 	"/>
	<polygon fill="#FFFFFF" points="9.395,11.296 20,20 10.298,10.298 	"/>
	<polygon fill="#FFFFFF" points="8.592,12.377 20,20 9.395,11.296 	"/>
	<polygon fill="#FFFFFF" points="7.9,13.532 20,20 8.592,12.377 	"/>
	<polygon fill="#FFFFFF" points="7.324,14.75 20,20 7.9,13.532 	"/>
	<polygon fill="#FFFFFF" points="6.871,16.017 20,20 7.324,14.75 	"/>
	<polygon fill="#FFFFFF" points="6.543,17.323 20,20 6.871,16.017 	"/>
	<polygon fill="#FFFFFF" points="6.346,18.655 20,20 6.543,17.323 	"/>
	<polygon fill="#FFFFFF" points="6.28,20 20,20 6.346,18.655 	"/>
	<polygon fill="#FFFFFF" points="6.346,21.345 20,20 6.28,20 	"/>
	<polygon fill="#FFFFFF" points="6.543,22.677 20,20 6.346,21.345 	"/>
	<polygon fill="#FFFFFF" points="6.871,23.982 20,20 6.543,22.677 	"/>
	<polygon fill="#FFFFFF" points="7.324,25.25 20,20 6.871,23.982 	"/>
	<polygon fill="#FFFFFF" points="7.9,26.468 20,20 7.324,25.25 	"/>
	<polygon fill="#FFFFFF" points="8.592,27.623 20,20 7.9,26.468 	"/>
	<polygon fill="#FFFFFF" points="9.395,28.704 20,20 8.592,27.623 	"/>
	<polygon fill="#FFFFFF" points="10.298,29.701 20,20 9.395,28.704 	"/>
	<polygon fill="#FFFFFF" points="11.296,30.605 20,20 10.298,29.701 	"/>
	<polygon fill="#FFFFFF" points="12.377,31.408 20,20 11.296,30.605 	"/>
	<polygon fill="#FFFFFF" points="13.532,32.1 20,20 12.377,31.408 	"/>
	<polygon fill="#FFFFFF" points="14.75,32.676 20,20 13.532,32.1 	"/>
	<polygon fill="#FFFFFF" points="16.017,33.129 20,20 14.75,32.676 	"/>
	<polygon fill="#FFFFFF" points="17.323,33.457 20,20 16.017,33.129 	"/>
	<polygon fill="#FFFFFF" points="18.655,33.654 20,20 17.323,33.457 	"/>
	<polygon fill="#FFFFFF" points="20,33.721 20,20 18.655,33.654 	"/>
	<polygon fill="#FFFFFF" points="21.345,33.654 20,20 20,33.721 	"/>
	<polygon fill="#FFFFFF" points="22.677,33.457 20,20 21.345,33.654 	"/>
	<polygon fill="#FFFFFF" points="23.982,33.129 20,20 22.677,33.457 	"/>
	<polygon fill="#FFFFFF" points="25.25,32.676 20,20 23.982,33.129 	"/>
	<polygon fill="#FFFFFF" points="26.468,32.1 20,20 25.25,32.676 	"/>
	<polygon fill="#FFFFFF" points="27.623,31.408 20,20 26.468,32.1 	"/>
	<polygon fill="#FFFFFF" points="28.704,30.605 20,20 27.623,31.408 	"/>
	<polygon fill="#FFFFFF" points="29.701,29.701 20,20 28.704,30.605 	"/>
	<polygon fill="#FFFFFF" points="30.605,28.704 20,20 29.701,29.701 	"/>
	<polygon fill="#FFFFFF" points="31.408,27.623 20,20 30.605,28.704 	"/>
	<polygon fill="#FFFFFF" points="32.1,26.468 20,20 31.408,27.623 	"/>
	<polygon fill="#FFFFFF" points="32.676,25.25 20,20 32.1,26.468 	"/>
	<polygon fill="#FFFFFF" points="33.129,23.982 20,20 32.676,25.25 	"/>
	<polygon fill="#FFFFFF" points="33.457,22.677 20,20 33.129,23.982 	"/>
	<polygon fill="#FFFFFF" points="33.654,21.345 20,20 33.457,22.677 	"/>
	<polygon fill="#FFFFFF" points="33.721,20 20,20 33.654,21.345 	"/>
	<polyline fill="none" stroke="#000000" stroke-width="0.125" points="33.721,20 33.652,18.634 33.447,17.281 33.11,15.956 
		32.643,14.671 32.049,13.438 31.336,12.271 30.51,11.181 29.58,10.178 28.555,9.273 27.443,8.475 26.26,7.791 25.013,7.229 
		23.716,6.793 22.383,6.488 21.025,6.318 19.658,6.284 18.294,6.387 16.947,6.624 15.63,6.995 14.357,7.494 13.14,8.118 
		11.991,8.86 10.922,9.713 9.942,10.668 9.063,11.716 8.293,12.846 7.639,14.047 7.107,15.308 6.704,16.614 6.433,17.955 
		6.297,19.316 6.297,20.684 6.433,22.045 6.704,23.386 7.107,24.692 7.639,25.953 8.293,27.154 9.063,28.284 9.942,29.332 
		10.922,30.287 11.991,31.14 13.14,31.882 14.357,32.506 15.63,33.006 16.947,33.376 18.294,33.613 19.658,33.716 21.025,33.682 
		22.383,33.512 23.716,33.207 25.013,32.771 26.26,32.209 27.443,31.525 28.555,30.727 29.58,29.822 30.51,28.818 31.336,27.729 
		32.049,26.562 32.643,25.329 33.11,24.044 33.447,22.719 33.652,21.366 33.721,20 	"/>
	<line fill="none" stroke="#000000" stroke-width="0.125" x1="20" y1="6.28" x2="20" y2="12.16"/>
	<line fill="none" stroke="#000000" stroke-width="0.125" x1="24.488" y1="13.571" x2="27.879" y2="8.769"/>
	<line fill="none" stroke="#000000" stroke-width="0.125" x1="15.512" y1="13.571" x2="12.121" y2="8.769"/>
	<line fill="none" stroke="#000000" stroke-width="0.125" x1="27.369" y1="17.315" x2="32.896" y2="15.315"/>
	<line fill="none" stroke="#000000" stroke-width="0.125" x1="12.63" y1="17.315" x2="7.103" y2="15.315"/>
	<line fill="none" stroke="#000000" stroke-width="0.125" x1="20" y1="20" x2="21.768" y2="14.395"/>
	<polygon points="23.527,14.904 23.527,8.789 19.906,13.807 	"/>
	<polyline fill="none" stroke="#000000" stroke-width="0.125" points="19.906,13.807 23.527,14.904 23.527,8.789 19.906,13.807 	"/>
	<polygon points="20.975,19.904 20,20 20.98,20 	"/>
	<polygon points="20.961,19.809 20,20 20.975,19.904 	"/>
	<polygon points="20.938,19.715 20,20 20.961,19.809 	"/>
	<polygon points="20.905,19.625 20,20 20.938,19.715 	"/>
	<polygon points="20.864,19.538 20,20 20.905,19.625 	"/>
	<polygon points="20.814,19.456 20,20 20.864,19.538 	"/>
	<polygon points="20.758,19.378 20,20 20.814,19.456 	"/>
	<polygon points="20.693,19.307 20,20 20.758,19.378 	"/>
	<polygon points="20.621,19.243 20,20 20.693,19.307 	"/>
	<polygon points="20.545,19.185 20,20 20.621,19.243 	"/>
	<polygon points="20.462,19.136 20,20 20.545,19.185 	"/>
	<polygon points="20.375,19.095 20,20 20.462,19.136 	"/>
	<polygon points="20.285,19.062 20,20 20.375,19.095 	"/>
	<polygon points="20.191,19.039 20,20 20.285,19.062 	"/>
	<polygon points="20.096,19.025 20,20 20.191,19.039 	"/>
	<polygon points="20,19.02 20,20 20.096,19.025 	"/>
	<polygon points="19.904,19.025 20,20 20,19.02 	"/>
	<polygon points="19.809,19.039 20,20 19.904,19.025 	"/>
	<polygon points="19.715,19.062 20,20 19.809,19.039 	"/>
	<polygon points="19.625,19.095 20,20 19.715,19.062 	"/>
	<polygon points="19.538,19.136 20,20 19.625,19.095 	"/>
	<polygon points="19.456,19.185 20,20 19.538,19.136 	"/>
	<polygon points="19.378,19.243 20,20 19.456,19.185 	"/>
	<polygon points="19.307,19.307 20,20 19.378,19.243 	"/>
	<polygon points="19.243,19.378 20,20 19.307,19.307 	"/>
	<polygon points="19.185,19.456 20,20 19.243,19.378 	"/>
	<polygon points="19.136,19.538 20,20 19.185,19.456 	"/>
	<polygon points="19.095,19.625 20,20 19.136,19.538 	"/>
	<polygon points="19.062,19.715 20,20 19.095,19.625 	"/>
	<polygon points="19.039,19.809 20,20 19.062,19.715 	"/>
	<polygon points="19.025,19.904 20,20 19.039,19.809 	"/>
	<polygon points="19.02,20 20,20 19.025,19.904 	"/>
	<polygon points="19.025,20.096 20,20 19.02,20 	"/>
	<polygon points="19.039,20.191 20,20 19.025,20.096 	"/>
	<polygon points="19.062,20.285 20,20 19.039,20.191 	"/>
	<polygon points="19.095,20.375 20,20 19.062,20.285 	"/>
	<polygon points="19.136,20.462 20,20 19.095,20.375 	"/>
	<polygon points="19.185,20.545 20,20 19.136,20.462 	"/>
	<polygon points="19.243,20.621 20,20 19.185,20.545 	"/>
	<polygon points="19.307,20.693 20,20 19.243,20.621 	"/>
	<polygon points="19.378,20.758 20,20 19.307,20.693 	"/>
	<polygon points="19.456,20.814 20,20 19.378,20.758 	"/>
	<polygon points="19.538,20.864 20,20 19.456,20.814 	"/>
	<polygon points="19.625,20.905 20,20 19.538,20.864 	"/>
	<polygon points="19.715,20.938 20,20 19.625,20.905 	"/>
	<polygon points="19.809,20.961 20,20 19.715,20.938 	"/>
	<polygon points="19.904,20.975 20,20 19.809,20.961 	"/>
	<polygon points="20,20.98 20,20 19.904,20.975 	"/>
	<polygon points="20.096,20.975 20,20 20,20.98 	"/>
	<polygon points="20.191,20.961 20,20 20.096,20.975 	"/>
	<polygon points="20.285,20.938 20,20 20.191,20.961 	"/>
	<polygon points="20.375,20.905 20,20 20.285,20.938 	"/>
	<polygon points="20.462,20.864 20,20 20.375,20.905 	"/>
	<polygon points="20.545,20.814 20,20 20.462,20.864 	"/>
	<polygon points="20.621,20.758 20,20 20.545,20.814 	"/>
	<polygon points="20.693,20.693 20,20 20.621,20.758 	"/>
	<polygon points="20.758,20.621 20,20 20.693,20.693 	"/>
	<polygon points="20.814,20.545 20,20 20.758,20.621 	"/>
	<polygon points="20.864,20.462 20,20 20.814,20.545 	"/>
	<polygon points="20.905,20.375 20,20 20.864,20.462 	"/>
	<polygon points="20.938,20.285 20,20 20.905,20.375 	"/>
	<polygon points="20.961,20.191 20,20 20.938,20.285 	"/>
	<polygon points="20.975,20.096 20,20 20.961,20.191 	"/>
	<polygon points="20.98,20 20,20 20.975,20.096 	"/>
	<polyline fill="none" stroke="#000000" stroke-width="0.125" points="20.98,20 20.975,19.902 20.961,19.806 20.937,19.711 
		20.902,19.619 20.861,19.531 20.81,19.448 20.75,19.37 20.684,19.298 20.611,19.234 20.531,19.177 20.447,19.128 20.358,19.088 
		20.266,19.057 20.17,19.035 20.073,19.023 19.976,19.021 19.878,19.028 19.782,19.044 19.688,19.071 19.597,19.107 19.51,19.151 
		19.428,19.204 19.352,19.265 19.282,19.333 19.219,19.408 19.164,19.489 19.117,19.575 19.079,19.665 19.05,19.758 19.031,19.854 
		19.021,19.951 19.021,20.049 19.031,20.146 19.05,20.242 19.079,20.335 19.117,20.425 19.164,20.512 19.219,20.592 19.282,20.666 
		19.352,20.734 19.428,20.796 19.51,20.849 19.597,20.893 19.688,20.93 19.782,20.955 19.878,20.973 19.976,20.979 20.073,20.977 
		20.17,20.965 20.266,20.943 20.358,20.912 20.447,20.872 20.531,20.823 20.611,20.766 20.684,20.701 20.75,20.63 20.81,20.553 
		20.861,20.469 20.902,20.381 20.937,20.289 20.961,20.194 20.975,20.098 20.98,20 	"/>
	<line fill="none" stroke="#000000" stroke-width="0.125" x1="6.28" y1="20" x2="2.36" y2="20"/>
	<line fill="none" stroke="#0000FF" stroke-width="0.125" x1="33.721" y1="20" x2="39.6" y2="20"/>
	<text transform="matrix(1 0 0 1 31.75 38.3125)" font-family="'ArialMT'" font-size="11">a</text>
</g>
</svg>
