<?xml version="1.0" encoding="UTF-8" standalone="no"?>
<svg xmlns="http://www.w3.org/2000/svg"
     xmlns:xlink="http://www.w3.org/1999/xlink"
     width="40px" height="40px" viewBox="0 0 40 40"
     style="stroke:none">
<title>Graphic window number 0</title>
<desc>
Creator: GL2PS 1.3.2, (C) 1999-2006 Christophe Geuzaine (geuz@geuz.org)
For: Scilab
CreationDate: Thu Feb 24 11:29:21 2011
</desc>
<defs>
</defs>
<polygon fill="#ffffff" points="0,0 40,0 40,40 0,40"/>
<g>
<polygon fill="#ffffff" points="0.399902,39.6001 0.399902,0.399902 0.399902,0.399902"/>
<polygon fill="#ffffff" points="0.399902,39.6001 0.399902,0.399902 0.399902,39.6001"/>
<polygon fill="#ffffff" points="0.399902,39.6001 39.6001,39.6001 39.6001,39.6001"/>
<polygon fill="#ffffff" points="0.399902,39.6001 39.6001,39.6001 0.399902,39.6001"/>
<polygon fill="#ffffff" points="0.399902,39.6001 39.6001,39.6001 39.6001,0.399902"/>
<polygon fill="#ffffff" points="0.399902,39.6001 39.6001,0.399902 0.399902,0.399902"/>
<polyline fill="none" stroke="#000000" stroke-width="0.125" points="2.35986,20 8.24023,20"/>
<polyline fill="none" stroke="#000000" stroke-width="0.125" points="8.24023,25.8799 8.24023,14.1201"/>
<polyline fill="none" stroke="#000000" stroke-width="0.125" points="8.24023,25.8799 31.7598,25.8799"/>
<polyline fill="none" stroke="#000000" stroke-width="0.125" points="8.24023,14.1201 31.7598,14.1201"/>
<polygon fill="#c0c0c0" points="8.24023,14.1201 8.24023,25.8799 25.8799,25.8799"/>
<polygon fill="#c0c0c0" points="8.24023,14.1201 25.8799,25.8799 25.8799,14.1201"/>
<polyline fill="none" stroke="#000000" stroke-width="0.125" points="8.24023,14.1201 8.24023,25.8799 25.8799,25.8799 25.8799,14.1201 8.24023,14.1201"/>
<polyline fill="none" stroke="#000000" stroke-width="0.125" points="25.8799,20 37.6401,20"/>
<polygon fill="#808080" points="23.9199,39.6001 29.7998,37.6401 23.9199,35.6802"/>
<polyline fill="none" stroke="#808080" stroke-width="0.125" points="29.7998,37.6401 23.9199,35.6802 23.9199,39.6001 29.7998,37.6401"/>
<polyline fill="none" stroke="#000000" stroke-width="0.125" points="8.24023,37.6401 23.9199,37.6401"/>
</g>
</svg>
