<?xml version="1.0" encoding="utf-8"?>
<!-- Generator: Adobe Illustrator 14.0.0, SVG Export Plug-In . SVG Version: 6.00 Build 43363)  -->
<!DOCTYPE svg PUBLIC "-//W3C//DTD SVG 1.1//EN" "http://www.w3.org/Graphics/SVG/1.1/DTD/svg11.dtd">
<svg version="1.1" id="Calque_1" xmlns="http://www.w3.org/2000/svg" xmlns:xlink="http://www.w3.org/1999/xlink" x="0px" y="0px"
	 width="40px" height="40px" viewBox="0 0 40 40" enable-background="new 0 0 40 40" xml:space="preserve">
<polyline fill="none" stroke="#000000" stroke-width="1.125" points="4.32,12.16 8.24,12.16 11.18,18.04 17.06,6.28 22.939,18.04 
	28.82,6.28 31.76,12.16 35.68,12.16 "/>
<polyline fill="none" stroke="#000000" stroke-width="1.125" stroke-linecap="square" points="4.32,12.16 4.32,33.721 9.808,33.721 
	"/>
<line fill="none" stroke="#000000" stroke-width="1.125" x1="27.448" y1="33.721" x2="35.68" y2="33.721"/>
<line fill="none" stroke="#000000" stroke-width="1.125" x1="27.104" y1="29.581" x2="33.322" y2="29.581"/>
<line fill="none" stroke="#000000" stroke-width="1.125" x1="27.026" y1="37.856" x2="33.312" y2="37.856"/>
<line fill="none" stroke="#000000" stroke-width="1.125" stroke-linecap="square" x1="35.68" y1="12.16" x2="35.68" y2="33.721"/>
<line fill="none" stroke="#000000" stroke-width="1.125" x1="2.36" y1="20" x2="4.32" y2="20"/>
<line fill="none" stroke="#000000" stroke-width="1.125" x1="35.68" y1="20" x2="37.641" y2="20"/>
<line fill="none" stroke="#000000" stroke-width="1.125" x1="8.828" y1="23.527" x2="24.508" y2="23.527"/>
<polygon fill="#808080" stroke="#808080" points="24.508,25.488 30.389,23.527 24.508,21.568 "/>
<rect x="10.167" y="29.521" fill="#C0C0C0" stroke="#000000" width="17.667" height="8.396"/>
</svg>
