<?xml version="1.0" encoding="UTF-8" standalone="no"?>
<svg xmlns="http://www.w3.org/2000/svg"
     xmlns:xlink="http://www.w3.org/1999/xlink"
     width="40px" height="40px" viewBox="0 0 40 40"
     style="stroke:none">
<title>Graphic window number 0</title>
<desc>
Creator: GL2PS 1.3.2, (C) 1999-2006 Christophe Geuzaine (geuz@geuz.org)
For: Scilab
CreationDate: Thu Feb 24 11:29:18 2011
</desc>
<defs>
</defs>
<polygon fill="#ffffff" points="0,0 40,0 40,40 0,40"/>
<g>
<polygon fill="#ffffff" points="0.399902,39.6001 0.399902,0.399902 0.399902,0.399902"/>
<polygon fill="#ffffff" points="0.399902,39.6001 0.399902,0.399902 0.399902,39.6001"/>
<polygon fill="#ffffff" points="0.399902,39.6001 39.6001,39.6001 39.6001,39.6001"/>
<polygon fill="#ffffff" points="0.399902,39.6001 39.6001,39.6001 0.399902,39.6001"/>
<polygon fill="#ffffff" points="0.399902,39.6001 39.6001,39.6001 39.6001,0.399902"/>
<polygon fill="#ffffff" points="0.399902,39.6001 39.6001,0.399902 0.399902,0.399902"/>
<polyline fill="none" stroke="#000000" stroke-width="0.125" points="4.31982,27.8398 35.6802,27.8398 27.8398,35.6802"/>
<polyline fill="none" stroke="#000000" stroke-width="0.125" points="27.8398,27.8398 20,35.6802"/>
<polyline fill="none" stroke="#000000" stroke-width="0.125" points="20,27.8398 12.1602,35.6802"/>
<polyline fill="none" stroke="#000000" stroke-width="0.125" points="12.1602,27.8398 4.31982,35.6802"/>
<polyline fill="none" stroke="#000000" stroke-width="0.125" points="20,27.8398 20,21.96"/>
</g>
</svg>
