<?xml version="1.0" encoding="UTF-8" standalone="no"?>
<svg xmlns="http://www.w3.org/2000/svg"
     xmlns:xlink="http://www.w3.org/1999/xlink"
     width="40px" height="40px" viewBox="0 0 40 40"
     style="stroke:none">
<title>Graphic window number 0</title>
<desc>
Creator: GL2PS 1.3.2, (C) 1999-2006 Christophe Geuzaine (geuz@geuz.org)
For: Scilab
CreationDate: Thu Feb 24 11:29:19 2011
</desc>
<defs>
</defs>
<polygon fill="#ffffff" points="0,0 40,0 40,40 0,40"/>
<g>
<polygon fill="#ffffff" points="0.399902,39.6001 0.399902,0.399902 0.399902,0.399902"/>
<polygon fill="#ffffff" points="0.399902,39.6001 0.399902,0.399902 0.399902,39.6001"/>
<polygon fill="#ffffff" points="0.399902,39.6001 39.6001,39.6001 39.6001,39.6001"/>
<polygon fill="#ffffff" points="0.399902,39.6001 39.6001,39.6001 0.399902,39.6001"/>
<polygon fill="#ffffff" points="0.399902,39.6001 39.6001,39.6001 39.6001,0.399902"/>
<polygon fill="#ffffff" points="0.399902,39.6001 39.6001,0.399902 0.399902,0.399902"/>
<polyline fill="none" stroke="#00bf00" stroke-width="0.125" points="0.791992,20 10.5918,20"/>
<polyline fill="none" stroke="#000000" stroke-width="0.5" points="10.5918,13.3359 10.5918,29.0161"/>
<polyline fill="none" stroke="#000000" stroke-width="0.125" points="21.5679,12.1602 21.5679,19.6079"/>
<polyline fill="none" stroke="#000000" stroke-width="0.125" points="19.6079,20 27.4482,20 27.4482,11.376 19.6079,11.376"/>
<polyline fill="none" stroke="#000000" stroke-width="0.125" points="27.4482,15.688 34.1118,15.688"/>
<polyline fill="none" stroke="#000000" stroke-width="0.5" points="17.6479,27.4482 17.6479,16.0801"/>
<polyline fill="none" stroke="#000000" stroke-width="0.125" points="17.6479,15.688 21.5679,15.688"/>
<polyline fill="none" stroke="#000000" stroke-width="0.125" points="17.6479,27.4482 19.6079,27.4482"/>
<polyline fill="none" stroke="#00bf00" stroke-width="0.125" points="34.1118,20 39.208,20"/>
<polyline fill="none" stroke="#000000" stroke-width="0.125" points="34.1118,15.688 34.1118,28.2319"/>
<polyline fill="none" stroke="#000000" stroke-width="0.125" points="19.6079,27.4482 21.96,25.4878 24.312,29.4082 27.4482,25.4878 29.7998,29.4082 32.5439,25.4878 34.1118,27.8398"/>
<polygon fill="#c0c0c0" points="21.5679,11.376 21.5679,20 27.4482,20"/>
<polygon fill="#c0c0c0" points="21.5679,11.376 27.4482,20 27.4482,11.376"/>
<polyline fill="none" stroke="#000000" stroke-width="0.125" points="21.5679,11.376 21.5679,20 27.4482,20 27.4482,11.376 21.5679,11.376"/>
<polyline fill="none" stroke="#000000" stroke-width="0.125" points="8.24023,37.6401 23.9199,37.6401"/>
<polygon fill="#808080" points="23.9199,39.6001 29.7998,37.6401 23.9199,35.6802"/>
<polyline fill="none" stroke="#808080" stroke-width="0.125" points="29.7998,37.6401 23.9199,35.6802 23.9199,39.6001 29.7998,37.6401"/>
</g>
</svg>
