<?xml version="1.0" encoding="UTF-8" standalone="no"?>
<svg xmlns="http://www.w3.org/2000/svg"
     xmlns:xlink="http://www.w3.org/1999/xlink"
     width="40px" height="40px" viewBox="0 0 40 40"
     style="stroke:none">
<title>Graphic window number 0</title>
<desc>
Creator: GL2PS 1.3.2, (C) 1999-2006 Christophe Geuzaine (geuz@geuz.org)
For: Scilab
CreationDate: Thu Feb 24 11:29:17 2011
</desc>
<defs>
</defs>
<polygon fill="#ffffff" points="0,0 40,0 40,40 0,40"/>
<g>
<polygon fill="#ffffff" points="0.399902,39.6001 0.399902,0.399902 0.399902,0.399902"/>
<polygon fill="#ffffff" points="0.399902,39.6001 0.399902,0.399902 0.399902,39.6001"/>
<polygon fill="#ffffff" points="0.399902,39.6001 39.6001,39.6001 39.6001,39.6001"/>
<polygon fill="#ffffff" points="0.399902,39.6001 39.6001,39.6001 0.399902,39.6001"/>
<polygon fill="#ffffff" points="0.399902,39.6001 39.6001,39.6001 39.6001,0.399902"/>
<polygon fill="#ffffff" points="0.399902,39.6001 39.6001,0.399902 0.399902,0.399902"/>
<polyline fill="none" stroke="#00bf00" stroke-width="0.125" points="0.399902,20 9.22021,20"/>
<polyline fill="none" stroke="#00bf00" stroke-width="0.125" points="30.7798,20 39.6001,20"/>
<polygon fill="#ffffff" points="9.22021,14.1201 9.22021,25.8799 30.9761,25.8799"/>
<polygon fill="#ffffff" points="9.22021,14.1201 30.9761,25.8799 30.9761,14.1201"/>
<polyline fill="none" stroke="#000000" stroke-width="0.125" points="9.22021,14.1201 9.22021,25.8799 30.9761,25.8799 30.9761,14.1201 9.22021,14.1201"/>
<polygon fill="#808080" points="23.9199,39.6001 29.7998,37.6401 23.9199,35.6802"/>
<polyline fill="none" stroke="#808080" stroke-width="0.125" points="29.7998,37.6401 23.9199,35.6802 23.9199,39.6001 29.7998,37.6401"/>
<polyline fill="none" stroke="#000000" stroke-width="0.125" points="8.24023,37.6401 23.9199,37.6401"/>
</g>
</svg>
