<?xml version="1.0" encoding="UTF-8" standalone="no"?>
<svg xmlns="http://www.w3.org/2000/svg"
     xmlns:xlink="http://www.w3.org/1999/xlink"
     width="40px" height="40px" viewBox="0 0 40 40"
     style="stroke:none">
<title>Graphic window number 0</title>
<desc>
Creator: GL2PS 1.3.2, (C) 1999-2006 Christophe Geuzaine (geuz@geuz.org)
For: Scilab
CreationDate: Thu Feb 24 11:29:21 2011
</desc>
<defs>
</defs>
<polygon fill="#ffffff" points="0,0 40,0 40,40 0,40"/>
<g>
<polygon fill="#ffffff" points="0.399902,39.6001 0.399902,0.399902 0.399902,0.399902"/>
<polygon fill="#ffffff" points="0.399902,39.6001 0.399902,0.399902 0.399902,39.6001"/>
<polygon fill="#ffffff" points="0.399902,39.6001 39.6001,39.6001 39.6001,39.6001"/>
<polygon fill="#ffffff" points="0.399902,39.6001 39.6001,39.6001 0.399902,39.6001"/>
<polygon fill="#ffffff" points="0.399902,39.6001 39.6001,39.6001 39.6001,0.399902"/>
<polygon fill="#ffffff" points="0.399902,39.6001 39.6001,0.399902 0.399902,0.399902"/>
<polygon fill="#00bf00" points="37.6401,20 23.9199,18.04 23.9199,11.9639"/>
<polygon fill="#00bf00" points="23.9199,21.96 23.9199,18.04 37.6401,20"/>
<polygon fill="#00bf00" points="0.399902,21.96 23.9199,18.04 23.9199,21.96"/>
<polygon fill="#00bf00" points="0.399902,18.04 23.9199,18.04 0.399902,21.96"/>
<polygon fill="#00bf00" points="23.9199,28.0361 23.9199,21.96 37.6401,20"/>
<polyline fill="none" stroke="#00bf00" stroke-width="0.125" points="0.399902,18.04 23.9199,18.04 23.9199,11.9639 37.6401,20 23.9199,28.0361 23.9199,21.96 0.399902,21.96 0.399902,18.04"/>
<text fill="#000000" style="stroke:none" x="3" y="35" transform="rotate(0, 3, 35)" font-size="8" font-family="SansSerif" font-style="normal" font-weight="normal">f</text>
</g>
</svg>
