<?xml version="1.0" encoding="UTF-8" standalone="no"?>
<svg xmlns="http://www.w3.org/2000/svg"
     xmlns:xlink="http://www.w3.org/1999/xlink"
     width="40px" height="40px" viewBox="0 0 40 40"
     style="stroke:none">
<title>Graphic window number 0</title>
<desc>
Creator: GL2PS 1.3.2, (C) 1999-2006 Christophe Geuzaine (geuz@geuz.org)
For: Scilab
CreationDate: Thu Feb 24 11:29:18 2011
</desc>
<defs>
</defs>
<polygon fill="#ffffff" points="0,0 40,0 40,40 0,40"/>
<g>
<polygon fill="#ffffff" points="0.399902,39.6001 0.399902,0.399902 0.399902,0.399902"/>
<polygon fill="#ffffff" points="0.399902,39.6001 0.399902,0.399902 0.399902,39.6001"/>
<polygon fill="#ffffff" points="0.399902,39.6001 39.6001,39.6001 39.6001,39.6001"/>
<polygon fill="#ffffff" points="0.399902,39.6001 39.6001,39.6001 0.399902,39.6001"/>
<polygon fill="#ffffff" points="0.399902,39.6001 39.6001,39.6001 39.6001,0.399902"/>
<polygon fill="#ffffff" points="0.399902,39.6001 39.6001,0.399902 0.399902,0.399902"/>
<polyline fill="none" stroke="#000000" stroke-width="0.125" points="4.31982,12.1602 8.24023,12.1602 11.1802,18.04 17.0601,6.27979 22.9399,18.04 28.8198,6.27979 31.7598,12.1602 35.6802,12.1602"/>
<polyline fill="none" stroke="#000000" stroke-width="0.125" points="4.31982,12.1602 4.31982,33.7202 9.80811,33.7202"/>
<polygon fill="#c0c0c0" points="9.80811,29.604 9.80811,37.8359 27.4482,37.8359"/>
<polygon fill="#c0c0c0" points="9.80811,29.604 27.4482,37.8359 27.4482,29.604"/>
<polyline fill="none" stroke="#000000" stroke-width="0.125" points="9.80811,29.604 9.80811,37.8359 27.4482,37.8359 27.4482,29.604 9.80811,29.604 33.3281,29.604"/>
<polyline fill="none" stroke="#000000" stroke-width="0.125" points="10.0039,37.8359 33.5239,37.8359"/>
<polyline fill="none" stroke="#000000" stroke-width="0.125" points="27.4482,33.7202 35.6802,33.7202"/>
<polyline fill="none" stroke="#000000" stroke-width="0.125" points="35.6802,12.1602 35.6802,33.7202"/>
<polyline fill="none" stroke="#000000" stroke-width="0.125" points="2.35986,20 4.31982,20"/>
<polyline fill="none" stroke="#000000" stroke-width="0.125" points="35.6802,20 37.6401,20"/>
<polygon fill="#808080" points="24.5078,25.4878 30.3882,23.5278 24.5078,21.5679"/>
<polyline fill="none" stroke="#808080" stroke-width="0.125" points="30.3882,23.5278 24.5078,21.5679 24.5078,25.4878 30.3882,23.5278"/>
<polyline fill="none" stroke="#000000" stroke-width="0.125" points="8.82812,23.5278 24.5078,23.5278"/>
</g>
</svg>
