<?xml version="1.0" encoding="utf-8"?>
<!-- Generator: Adobe Illustrator 14.0.0, SVG Export Plug-In . SVG Version: 6.00 Build 43363)  -->
<!DOCTYPE svg PUBLIC "-//W3C//DTD SVG 1.1//EN" "http://www.w3.org/Graphics/SVG/1.1/DTD/svg11.dtd">
<svg version="1.1" id="Calque_2" xmlns="http://www.w3.org/2000/svg" xmlns:xlink="http://www.w3.org/1999/xlink" x="0px" y="0px"
	 width="40px" height="40px" viewBox="0 0 40 40" enable-background="new 0 0 40 40" xml:space="preserve">
<path opacity="0.35" fill="#A0A0A0" d="M13.959,7.668c0,0,3.625-1.833,7.75-1.875c4.126-0.042,3.958-0.125,5.667,0.792
	s2.209,2.083,3.292,3.583s2.251,2.125,3.292,3s1.792,1.625,2.25,3.542c0.458,1.917,1,4.125,0.708,5.625s-1.124,3.459-1.208,4.875
	s-0.459,2.957-1.167,3.916s-0.834,1.541-2.167,2.375s-1.75,1.293-3.375,1.834s-4.25,1.5-6.708,0.75
	c-2.458-0.75-4.833-0.709-6.958-0.917s-4.625-0.667-6.042-1.625s-2.792-3.126-2.792-5.042s-0.708-7.999,0.167-10.208
	c0.875-2.208,0.916-3.75,1.958-5.125S11.709,8.751,13.959,7.668z"/>
<path fill="#A0A0A0" stroke="#333333" stroke-width="1.125" d="M12.5,6.292c0,0,3.625-1.833,7.75-1.875s3.958-0.125,5.667,0.792
	s2.209,2.083,3.292,3.583s2.251,2.125,3.292,3s1.792,1.625,2.25,3.542s1,4.125,0.708,5.625s-1.124,3.459-1.208,4.875
	s-0.459,2.957-1.167,3.916s-0.834,1.541-2.167,2.375s-1.75,1.293-3.375,1.834s-4.25,1.5-6.708,0.75
	C18.375,33.959,16,34,13.875,33.792s-4.625-0.667-6.042-1.625s-2.792-3.126-2.792-5.042s-0.708-7.999,0.167-10.208
	c0.875-2.208,0.916-3.75,1.958-5.125S10.25,7.375,12.5,6.292z"/>
<path fill="#A0A0A0" stroke="#333333" stroke-width="1.125" d="M10.917,7.375c-0.333,2.792-1.375,2.5-0.5,6.958
	s-0.375,3.375,1.708,6.167s0.958,2.084,3.042,4.334s5.917,7.875,8.042,8.333s1.751,0.667,3.042,0.792s2.123-0.234,2.75-0.604"/>
</svg>
