<?xml version="1.0" encoding="utf-8"?>
<!-- Generator: Adobe Illustrator 14.0.0, SVG Export Plug-In . SVG Version: 6.00 Build 43363)  -->
<!DOCTYPE svg PUBLIC "-//W3C//DTD SVG 1.1//EN" "http://www.w3.org/Graphics/SVG/1.1/DTD/svg11.dtd">
<svg version="1.1" id="Calque_1" xmlns="http://www.w3.org/2000/svg" xmlns:xlink="http://www.w3.org/1999/xlink" x="0px" y="0px"
	 width="40px" height="40px" viewBox="0 0 40 40" enable-background="new 0 0 40 40" xml:space="preserve">
<line fill="none" stroke="#BF0000" x1="0.4" y1="23.92" x2="29.408" y2="23.92"/>
<g enable-background="new    ">
	<path d="M6.817,36.399c0.284,0.203,0.592,0.364,0.926,0.484L7.317,37.7c-0.174-0.052-0.345-0.124-0.512-0.215
		c-0.037-0.019-0.293-0.188-0.77-0.508c-0.375,0.164-0.791,0.246-1.246,0.246c-0.88,0-1.57-0.259-2.068-0.777
		S1.973,35.2,1.973,34.263c0-0.935,0.25-1.662,0.75-2.182s1.178-0.779,2.035-0.779c0.849,0,1.522,0.26,2.02,0.779
		s0.746,1.247,0.746,2.182c0,0.495-0.069,0.93-0.207,1.305C7.213,35.854,7.046,36.131,6.817,36.399z M5.887,35.747
		c0.148-0.175,0.26-0.386,0.334-0.633s0.111-0.531,0.111-0.852c0-0.661-0.146-1.155-0.438-1.482s-0.673-0.49-1.145-0.49
		s-0.854,0.164-1.146,0.492s-0.439,0.821-0.439,1.48c0,0.669,0.146,1.17,0.439,1.502s0.664,0.498,1.111,0.498
		c0.167,0,0.324-0.027,0.473-0.082c-0.234-0.153-0.473-0.273-0.715-0.359l0.324-0.66C5.177,35.291,5.541,35.486,5.887,35.747z"/>
	<path d="M7.774,38.708v-0.711h4.562v0.711H7.774z"/>
	<path d="M12.391,32.978H13v-0.312c0-0.349,0.037-0.609,0.111-0.781s0.211-0.312,0.41-0.42s0.451-0.162,0.756-0.162
		c0.312,0,0.619,0.047,0.918,0.141l-0.148,0.766c-0.174-0.042-0.342-0.062-0.504-0.062c-0.159,0-0.273,0.037-0.342,0.111
		s-0.104,0.217-0.104,0.428v0.293h0.82v0.863h-0.82v3.285H13v-3.285h-0.609V32.978z"/>
	<path d="M15.535,37.126v-5.727h1.098v5.727H15.535z"/>
	<path d="M17.504,34.993c0-0.364,0.09-0.718,0.27-1.059s0.434-0.602,0.764-0.781s0.697-0.27,1.104-0.27
		c0.627,0,1.142,0.204,1.542,0.611c0.401,0.407,0.602,0.923,0.602,1.545c0,0.628-0.202,1.147-0.607,1.561
		c-0.404,0.413-0.914,0.619-1.529,0.619c-0.38,0-0.743-0.086-1.088-0.258s-0.607-0.424-0.787-0.756S17.504,35.47,17.504,34.993z
		 M18.629,35.052c0,0.411,0.098,0.727,0.293,0.945s0.436,0.328,0.723,0.328s0.527-0.109,0.721-0.328s0.291-0.536,0.291-0.953
		c0-0.406-0.097-0.719-0.291-0.938s-0.434-0.328-0.721-0.328s-0.527,0.109-0.723,0.328S18.629,34.641,18.629,35.052z"/>
	<path d="M23.418,37.126l-1.312-4.148h1.066l0.777,2.719l0.715-2.719h1.059l0.691,2.719l0.793-2.719h1.082l-1.332,4.148h-1.055
		l-0.715-2.668l-0.703,2.668H23.418z"/>
	<path d="M28.625,33.938v-1.008h4.004v1.008H28.625z M28.625,35.673v-1.012h4.004v1.012H28.625z"/>
	<path d="M36.113,37.126h-1.098v-4.137c-0.4,0.375-0.873,0.652-1.418,0.832v-0.996c0.287-0.094,0.598-0.271,0.934-0.533
		s0.566-0.567,0.691-0.916h0.891V37.126z"/>
</g>
<g>
	<line fill="none" stroke="#BF0000" x1="0.4" y1="16.08" x2="29.016" y2="16.08"/>
	<polygon fill="#BF0000" points="28.007,11.91 33.888,15.83 28.007,19.75 	"/>
</g>
<polygon fill="#BF0000" points="28.007,19.75 33.888,23.67 28.007,27.59 "/>
<rect x="33.354" y="11.375" fill="#BF0000" width="5" height="16.75"/>
</svg>
