<?xml version="1.0" encoding="utf-8"?>
<!-- Generator: Adobe Illustrator 14.0.0, SVG Export Plug-In . SVG Version: 6.00 Build 43363)  -->
<!DOCTYPE svg PUBLIC "-//W3C//DTD SVG 1.1//EN" "http://www.w3.org/Graphics/SVG/1.1/DTD/svg11.dtd">
<svg version="1.1" id="Calque_1" xmlns="http://www.w3.org/2000/svg" xmlns:xlink="http://www.w3.org/1999/xlink" x="0px" y="0px"
	 width="40px" height="40px" viewBox="0 0 40 40" enable-background="new 0 0 40 40" xml:space="preserve">
<title>Graphic window number 0</title>
<desc>Creator: GL2PS 1.3.2, (C) 1999-2006 Christophe Geuzaine (geuz@geuz.org)
For: Scilab
CreationDate: Fri Sep 16 15:16:24 2011</desc>
<g>
	<line fill="#BF0000" x1="40" y1="40" x2="40" y2="0"/>
	<path fill="#BF0000" d="M40,40"/>
	<polygon fill="#C0C0C0" points="6.28,32.74 6.672,15.1 5.888,17.452 	"/>
	<polygon fill="#C0C0C0" points="5.104,20.196 6.28,32.74 5.888,17.452 	"/>
	<polygon fill="#C0C0C0" points="5.104,26.076 6.28,32.74 5.104,20.196 	"/>
	<polygon fill="#C0C0C0" points="4.712,22.939 5.104,26.076 5.104,20.196 	"/>
	<polygon fill="#C0C0C0" points="34.504,17.06 33.721,29.996 34.111,26.859 	"/>
	<polygon fill="#C0C0C0" points="34.896,24.116 34.504,17.06 34.111,26.859 	"/>
	<polygon fill="#C0C0C0" points="35.288,19.412 34.504,17.06 34.896,24.116 	"/>
	<polygon fill="#C0C0C0" points="35.288,22.548 35.288,19.412 34.896,24.116 	"/>
	<polygon fill="#C0C0C0" points="32.936,15.1 30.977,34.309 32.936,31.956 	"/>
	<polygon fill="#C0C0C0" points="33.328,30.389 32.936,15.1 32.936,31.956 	"/>
	<polygon fill="#C0C0C0" points="34.504,17.06 32.936,15.1 33.328,30.389 	"/>
	<polygon fill="#C0C0C0" points="33.721,29.996 34.504,17.06 33.328,30.389 	"/>
	<polygon fill="#C0C0C0" points="25.096,7.26 21.568,37.443 24.312,37.443 	"/>
	<polygon fill="#C0C0C0" points="26.271,37.052 25.096,7.26 24.312,37.443 	"/>
	<polygon fill="#C0C0C0" points="27.057,8.828 25.096,7.26 26.271,37.052 	"/>
	<polygon fill="#C0C0C0" points="28.232,35.876 27.057,8.828 26.271,37.052 	"/>
	<polygon fill="#C0C0C0" points="28.624,11.964 27.057,8.828 28.232,35.876 	"/>
	<polygon fill="#C0C0C0" points="30.584,34.7 28.624,11.964 28.232,35.876 	"/>
	<polygon fill="#C0C0C0" points="30.584,13.532 28.624,11.964 30.584,34.7 	"/>
	<polygon fill="#C0C0C0" points="30.977,34.309 30.584,13.532 30.584,34.7 	"/>
	<polygon fill="#C0C0C0" points="32.936,15.1 30.584,13.532 30.977,34.309 	"/>
	<polygon fill="#C0C0C0" points="16.472,36.268 20,6.868 16.08,7.652 	"/>
	<polygon fill="#C0C0C0" points="19.608,36.66 20,6.868 16.472,36.268 	"/>
	<polygon fill="#C0C0C0" points="21.568,37.443 20,6.868 19.608,36.66 	"/>
	<polygon fill="#C0C0C0" points="25.096,7.26 20,6.868 21.568,37.443 	"/>
	<polygon fill="#C0C0C0" points="14.12,36.268 16.472,36.268 16.08,7.652 	"/>
	<polygon fill="#C0C0C0" points="12.16,8.828 14.12,36.268 16.08,7.652 	"/>
	<polygon fill="#C0C0C0" points="10.592,35.092 14.12,36.268 12.16,8.828 	"/>
	<polygon fill="#C0C0C0" points="9.808,11.572 10.592,35.092 12.16,8.828 	"/>
	<polygon fill="#C0C0C0" points="8.632,13.14 10.592,35.092 9.808,11.572 	"/>
	<polygon fill="#C0C0C0" points="8.632,13.14 7.456,34.309 10.592,35.092 	"/>
	<polygon fill="#C0C0C0" points="6.672,15.1 7.456,34.309 8.632,13.14 	"/>
	<polygon fill="#C0C0C0" points="6.28,32.74 7.456,34.309 6.672,15.1 	"/>
	<polygon fill="#C0C0C0" points="6.28,32.74 5.104,28.428 5.104,30.389 	"/>
	<polygon fill="#C0C0C0" points="5.104,26.076 5.104,28.428 6.28,32.74 	"/>
	<polyline fill="none" stroke="#A0A0A0" stroke-width="0.125" points="20,6.868 16.08,7.652 12.16,8.828 9.808,11.572 8.632,13.14 
		6.672,15.1 5.888,17.452 5.104,20.196 4.712,22.939 5.104,26.076 5.104,28.428 5.104,30.389 6.28,32.74 7.456,34.309 
		10.592,35.092 14.12,36.268 16.472,36.268 19.608,36.66 21.568,37.443 24.312,37.443 26.271,37.052 28.232,35.876 30.584,34.7 
		30.977,34.309 32.936,31.956 33.328,30.389 33.721,29.996 34.111,26.859 34.896,24.116 35.288,22.548 35.288,19.412 34.504,17.06 
		32.936,15.1 30.584,13.532 28.624,11.964 27.057,8.828 25.096,7.26 20,6.868 	"/>
	<polygon fill="#A0A0A0" points="8.24,18.628 8.632,13.14 6.672,15.1 	"/>
	<polygon fill="#A0A0A0" points="7.456,34.309 8.24,18.628 6.672,15.1 	"/>
	<polygon fill="#A0A0A0" points="8.24,22.548 8.24,18.628 7.456,34.309 	"/>
	<polygon fill="#A0A0A0" points="8.632,26.859 8.24,22.548 7.456,34.309 	"/>
	<polygon fill="#A0A0A0" points="8.632,24.9 8.24,22.548 8.632,26.859 	"/>
	<polygon fill="#A0A0A0" points="28.232,35.876 30.584,34.7 28.232,35.092 	"/>
	<polygon fill="#A0A0A0" points="27.84,35.092 28.232,35.876 28.232,35.092 	"/>
	<polygon fill="#A0A0A0" points="26.271,37.052 28.232,35.876 27.84,35.092 	"/>
	<polygon fill="#A0A0A0" points="25.88,35.484 26.271,37.052 27.84,35.092 	"/>
	<polygon fill="#A0A0A0" points="24.312,37.443 26.271,37.052 25.88,35.484 	"/>
	<polygon fill="#A0A0A0" points="23.92,35.876 24.312,37.443 25.88,35.484 	"/>
	<polygon fill="#A0A0A0" points="23.527,35.876 24.312,37.443 23.92,35.876 	"/>
	<polygon fill="#A0A0A0" points="17.648,34.309 15.688,34.309 16.472,36.268 	"/>
	<polygon fill="#A0A0A0" points="19.608,36.66 17.648,34.309 16.472,36.268 	"/>
	<polygon fill="#A0A0A0" points="20.392,35.092 17.648,34.309 19.608,36.66 	"/>
	<polygon fill="#A0A0A0" points="21.568,37.443 20.392,35.092 19.608,36.66 	"/>
	<polygon fill="#A0A0A0" points="21.96,35.876 20.392,35.092 21.568,37.443 	"/>
	<polygon fill="#A0A0A0" points="24.312,37.443 21.96,35.876 21.568,37.443 	"/>
	<polygon fill="#A0A0A0" points="23.527,35.876 21.96,35.876 24.312,37.443 	"/>
	<polygon fill="#A0A0A0" points="12.16,32.74 10.2,30.779 10.592,35.092 	"/>
	<polygon fill="#A0A0A0" points="14.12,36.268 12.16,32.74 10.592,35.092 	"/>
	<polygon fill="#A0A0A0" points="14.12,33.916 12.16,32.74 14.12,36.268 	"/>
	<polygon fill="#A0A0A0" points="16.472,36.268 14.12,33.916 14.12,36.268 	"/>
	<polygon fill="#A0A0A0" points="15.688,34.309 14.12,33.916 16.472,36.268 	"/>
	<polygon fill="#A0A0A0" points="9.024,28.428 10.592,35.092 10.2,30.779 	"/>
	<polygon fill="#A0A0A0" points="8.632,26.859 10.592,35.092 9.024,28.428 	"/>
	<polygon fill="#A0A0A0" points="7.456,34.309 10.592,35.092 8.632,26.859 	"/>
	<polygon fill="#A0A0A0" points="6.28,32.74 6.672,15.1 5.888,17.452 	"/>
	<polygon fill="#A0A0A0" points="5.104,20.196 6.28,32.74 5.888,17.452 	"/>
	<polygon fill="#A0A0A0" points="5.104,26.076 6.28,32.74 5.104,20.196 	"/>
	<polygon fill="#A0A0A0" points="4.712,22.939 5.104,26.076 5.104,20.196 	"/>
	<polygon fill="#A0A0A0" points="9.024,16.276 12.16,8.828 8.632,13.14 	"/>
	<polygon fill="#A0A0A0" points="9.808,14.708 12.16,8.828 9.024,16.276 	"/>
	<polygon fill="#A0A0A0" points="10.592,13.14 12.16,8.828 9.808,14.708 	"/>
	<polygon fill="#A0A0A0" points="11.376,11.18 12.16,8.828 10.592,13.14 	"/>
	<polygon fill="#A0A0A0" points="8.632,16.668 8.632,13.14 8.24,18.628 	"/>
	<polygon fill="#A0A0A0" points="9.024,16.276 8.632,13.14 8.632,16.668 	"/>
	<polygon fill="#A0A0A0" points="6.28,32.74 5.104,28.428 5.104,30.389 	"/>
	<polygon fill="#A0A0A0" points="5.104,26.076 5.104,28.428 6.28,32.74 	"/>
	<polygon fill="#A0A0A0" points="7.456,34.309 6.672,15.1 6.28,32.74 	"/>
	<polygon fill="#A0A0A0" points="8.24,20.98 8.24,18.628 8.24,22.548 	"/>
	<polyline fill="none" stroke="#000000" stroke-width="0.125" points="8.632,13.14 6.672,15.1 5.888,17.452 5.104,20.196 
		4.712,22.939 5.104,26.076 5.104,28.428 5.104,30.389 6.28,32.74 7.456,34.309 10.592,35.092 14.12,36.268 16.472,36.268 
		19.608,36.66 21.568,37.443 24.312,37.443 26.271,37.052 28.232,35.876 30.584,34.7 28.232,35.092 27.84,35.092 25.88,35.484 
		23.92,35.876 23.527,35.876 21.96,35.876 20.392,35.092 17.648,34.309 15.688,34.309 14.12,33.916 12.16,32.74 10.2,30.779 
		9.024,28.428 8.632,26.859 8.632,24.9 8.24,22.548 8.24,20.98 8.24,18.628 8.632,16.668 9.024,16.276 9.808,14.708 10.592,13.14 
		11.376,11.18 12.16,8.828 8.632,13.14 	"/>
	<text transform="matrix(1 0 0 1 18 23)" font-family="'ArialMT'" font-size="4">1</text>
</g>
</svg>
