<?xml version="1.0" encoding="utf-8"?>
<!-- Generator: Adobe Illustrator 14.0.0, SVG Export Plug-In . SVG Version: 6.00 Build 43363)  -->
<!DOCTYPE svg PUBLIC "-//W3C//DTD SVG 1.1//EN" "http://www.w3.org/Graphics/SVG/1.1/DTD/svg11.dtd">
<svg version="1.1" id="Calque_1" xmlns="http://www.w3.org/2000/svg" xmlns:xlink="http://www.w3.org/1999/xlink" x="0px" y="0px"
	 width="40px" height="40px" viewBox="0 0 40 40" enable-background="new 0 0 40 40" xml:space="preserve">
<line fill="none" stroke="#0000FF" stroke-width="1.125" x1="22.352" y1="20" x2="37.641" y2="20"/>
<line fill="none" stroke="#BF0000" stroke-width="1.125" x1="2.36" y1="20" x2="17.648" y2="20"/>
<polyline fill="none" stroke="#000000" stroke-width="0.25" points="17.648,12.16 17.648,4.32 18.04,3.144 18.824,2.752 20,2.36 
	21.176,2.752 21.96,3.144 22.352,4.32 22.352,12.16 17.648,12.16 17.648,32.544 "/>
<line fill="none" stroke="#000000" stroke-width="0.25" x1="22.352" y1="12.16" x2="22.352" y2="32.544"/>
<line fill="none" stroke="#000000" stroke-width="1.125" x1="12.16" y1="23.92" x2="17.648" y2="23.92"/>
<line fill="none" stroke="#000000" stroke-width="1.125" x1="12.16" y1="16.08" x2="17.648" y2="16.08"/>
<line fill="none" stroke="#000000" stroke-width="1.125" x1="12.16" y1="8.24" x2="17.648" y2="8.24"/>
<g enable-background="new    ">
	<path d="M27.432,37.925V25.04h2.602v5.722l5.256-5.722h3.498l-4.852,5.019l5.115,7.866h-3.366l-3.542-6.047l-2.109,2.153v3.894
		H27.432z"/>
</g>
<circle fill="#BF0000" stroke="#000000" stroke-width="0.25" cx="19.953" cy="35.593" r="3.859"/>
<path fill="#BF0000" d="M17.75,32.281l0.031-20.016h4.5l-0.062,20.062C22.219,32.328,20.219,30.812,17.75,32.281z"/>
</svg>
