<?xml version="1.0" encoding="utf-8"?>
<!-- Generator: Adobe Illustrator 14.0.0, SVG Export Plug-In . SVG Version: 6.00 Build 43363)  -->
<!DOCTYPE svg PUBLIC "-//W3C//DTD SVG 1.1//EN" "http://www.w3.org/Graphics/SVG/1.1/DTD/svg11.dtd">
<svg version="1.1" id="Calque_2" xmlns="http://www.w3.org/2000/svg" xmlns:xlink="http://www.w3.org/1999/xlink" x="0px" y="0px"
	 width="40px" height="40px" viewBox="0 0 40 40" enable-background="new 0 0 40 40" xml:space="preserve">
<g>
	<line fill="#007FFF" stroke="#007FFF" x1="35.273" y1="5.78" x2="35.273" y2="31.355"/>
	<polygon fill="#007FFF" points="39,30.453 35.497,35.709 31.994,30.453 	"/>
</g>
<rect x="2.25" y="4.188" fill="#C0C0C0" stroke="#000000" width="5.875" height="31.5"/>
<g>
	<line fill="none" stroke="#BF0000" x1="8.291" y1="14.512" x2="33.866" y2="14.512"/>
	<polygon fill="#BF0000" points="32.964,10.785 38.22,14.288 32.964,17.792 	"/>
</g>
<g>
	<line fill="none" stroke="#BF0000" x1="8.209" y1="22.138" x2="33.784" y2="22.138"/>
	<polygon fill="#BF0000" points="32.882,18.41 38.138,21.913 32.882,25.417 	"/>
</g>
<g>
	<line fill="#007FFF" stroke="#007FFF" x1="13.154" y1="5.698" x2="13.154" y2="31.273"/>
	<polygon fill="#007FFF" points="16.88,30.371 13.377,35.627 9.874,30.371 	"/>
</g>
<g>
	<line fill="#007FFF" stroke="#007FFF" x1="20.653" y1="5.697" x2="20.653" y2="31.272"/>
	<polygon fill="#007FFF" points="24.38,30.37 20.877,35.626 17.374,30.37 	"/>
</g>
<g>
	<line fill="#007FFF" stroke="#007FFF" x1="27.987" y1="5.78" x2="27.987" y2="31.355"/>
	<polygon fill="#007FFF" points="31.714,30.453 28.211,35.709 24.708,30.453 	"/>
</g>
</svg>
