<?xml version="1.0" encoding="utf-8"?>
<!-- Generator: Adobe Illustrator 14.0.0, SVG Export Plug-In . SVG Version: 6.00 Build 43363)  -->
<!DOCTYPE svg PUBLIC "-//W3C//DTD SVG 1.1//EN" "http://www.w3.org/Graphics/SVG/1.1/DTD/svg11.dtd">
<svg version="1.1" id="Calque_1" xmlns="http://www.w3.org/2000/svg" xmlns:xlink="http://www.w3.org/1999/xlink" x="0px" y="0px"
	 width="40px" height="40px" viewBox="0 0 40 40" enable-background="new 0 0 40 40" xml:space="preserve">
<title>Graphic window number 0</title>
<desc>Creator: GL2PS 1.3.2, (C) 1999-2006 Christophe Geuzaine (geuz@geuz.org)
For: Scilab
CreationDate: Fri Sep 16 15:16:23 2011</desc>
<g>
	<line fill="none" stroke="#BF0000" stroke-width="0.25" x1="0.4" y1="23.92" x2="29.408" y2="23.92"/>
	<line fill="none" stroke="#BF0000" stroke-width="0.25" x1="0.4" y1="16.08" x2="29.016" y2="16.08"/>
	<polygon fill="#BF0000" points="27.84,12.16 33.721,16.08 27.84,20 	"/>
	<polyline fill="none" stroke="#BF0000" stroke-width="0.125" points="27.84,20 27.84,12.16 33.721,16.08 27.84,20 	"/>
	<polygon fill="#BF0000" points="27.84,20 33.721,23.92 27.84,27.84 	"/>
	<polyline fill="none" stroke="#BF0000" stroke-width="0.125" points="27.84,27.84 27.84,20 33.721,23.92 27.84,27.84 	"/>
	<polygon fill="#BF0000" points="33.721,12.16 33.721,27.84 37.641,27.84 	"/>
	<polygon fill="#BF0000" points="33.721,12.16 37.641,27.84 37.641,12.16 	"/>
	<polyline fill="none" stroke="#BF0000" stroke-width="0.125" points="33.721,12.16 33.721,27.84 37.641,27.84 37.641,12.16 
		33.721,12.16 	"/>
	<text transform="matrix(1 0 0 1 8 38)" font-family="'ArialMT'" font-size="5">Q_flow=1</text>
</g>
</svg>
