<?xml version="1.0" encoding="utf-8"?>
<!-- Generator: Adobe Illustrator 14.0.0, SVG Export Plug-In . SVG Version: 6.00 Build 43363)  -->
<!DOCTYPE svg PUBLIC "-//W3C//DTD SVG 1.1//EN" "http://www.w3.org/Graphics/SVG/1.1/DTD/svg11.dtd">
<svg version="1.1" id="Calque_1" xmlns="http://www.w3.org/2000/svg" xmlns:xlink="http://www.w3.org/1999/xlink" x="0px" y="0px"
	 width="40px" height="40px" viewBox="0 0 40 40" enable-background="new 0 0 40 40" xml:space="preserve">
<rect x="6.156" y="16.25" fill="none" stroke="#000000" width="27.531" height="15.719"/>
<polyline fill="none" stroke="#000000" stroke-width="1.125" points="20,27.84 18.04,23.137 21.96,23.137 20,27.84 "/>
<line fill="none" stroke="#000000" stroke-width="1.125" x1="20" y1="20" x2="20" y2="23.137"/>
<line fill="none" stroke="#000000" stroke-width="1.125" stroke-linecap="square" x1="6.28" y1="20" x2="20" y2="20"/>
<line fill="none" stroke="#000000" stroke-width="1.125" x1="10.2" y1="27.84" x2="10.2" y2="31.76"/>
<line fill="none" stroke="#000000" stroke-width="1.125" x1="14.12" y1="27.84" x2="14.12" y2="31.76"/>
<line fill="none" stroke="#000000" stroke-width="1.125" x1="18.04" y1="27.84" x2="18.04" y2="31.76"/>
<line fill="none" stroke="#000000" stroke-width="1.125" x1="21.96" y1="27.84" x2="21.96" y2="31.76"/>
<line fill="none" stroke="#000000" stroke-width="1.125" x1="25.88" y1="27.84" x2="25.88" y2="31.76"/>
<line fill="none" stroke="#000000" stroke-width="1.125" x1="29.8" y1="27.84" x2="29.8" y2="31.76"/>
<polyline fill="none" stroke="#BF0000" stroke-width="1.125" points="2.36,20 6.28,20 6.28,20 "/>
<polyline fill="none" stroke="#BF0000" stroke-width="1.125" points="2.36,20 6.28,20 6.28,20 "/>
<polyline fill="none" stroke="#BF0000" stroke-width="1.125" points="33.721,20 37.641,20 37.641,20 "/>
<line fill="none" stroke="#0000FF" stroke-width="1.125" x1="20" y1="25.88" x2="20" y2="35.68"/>
<polygon points="18.04,23.137 21.96,23.137 20,27.84 "/>
</svg>
