<?xml version="1.0" encoding="utf-8"?>
<!-- Generator: Adobe Illustrator 14.0.0, SVG Export Plug-In . SVG Version: 6.00 Build 43363)  -->
<!DOCTYPE svg PUBLIC "-//W3C//DTD SVG 1.1//EN" "http://www.w3.org/Graphics/SVG/1.1/DTD/svg11.dtd">
<svg version="1.1" id="Calque_1" xmlns="http://www.w3.org/2000/svg" xmlns:xlink="http://www.w3.org/1999/xlink" x="0px" y="0px"
	 width="40px" height="40px" viewBox="0 0 40 40" enable-background="new 0 0 40 40" xml:space="preserve">
<polygon fill="#BF0000" stroke="#BF0000" points="30.191,16.08 37.641,20 30.191,23.92 "/>
<line fill="none" stroke="#BF0000" stroke-width="2" x1="11.768" y1="20" x2="32.936" y2="20"/>
<g enable-background="new    ">
	<path d="M5.588,27.989c0-0.606,0.213-1.121,0.639-1.545s0.94-0.636,1.542-0.636s1.115,0.213,1.542,0.64
		c0.426,0.426,0.639,0.939,0.639,1.541S9.737,29.104,9.31,29.53c-0.426,0.427-0.94,0.64-1.542,0.64s-1.115-0.213-1.542-0.64
		C5.801,29.104,5.588,28.591,5.588,27.989z M6.723,27.989c0,0.287,0.103,0.533,0.308,0.738s0.451,0.308,0.738,0.308
		s0.533-0.103,0.738-0.308s0.308-0.451,0.308-0.738s-0.103-0.533-0.308-0.738s-0.451-0.308-0.738-0.308s-0.533,0.103-0.738,0.308
		S6.723,27.702,6.723,27.989z"/>
	<path d="M18.03,32.316l1.962,0.622c-0.301,1.094-0.801,1.906-1.5,2.438c-0.7,0.53-1.587,0.796-2.663,0.796
		c-1.331,0-2.424-0.454-3.281-1.364c-0.857-0.908-1.285-2.151-1.285-3.729c0-1.668,0.431-2.963,1.292-3.887
		c0.861-0.922,1.994-1.384,3.397-1.384c1.226,0,2.222,0.362,2.987,1.087c0.456,0.429,0.797,1.044,1.025,1.846l-2.003,0.479
		c-0.119-0.52-0.366-0.93-0.742-1.23s-0.833-0.451-1.371-0.451c-0.743,0-1.346,0.267-1.808,0.8s-0.694,1.396-0.694,2.591
		c0,1.267,0.228,2.169,0.684,2.707s1.048,0.807,1.777,0.807c0.538,0,1-0.171,1.388-0.513S17.861,33.05,18.03,32.316z"/>
</g>
</svg>
