<?xml version="1.0" encoding="utf-8"?>
<!-- Generator: Adobe Illustrator 14.0.0, SVG Export Plug-In . SVG Version: 6.00 Build 43363)  -->
<!DOCTYPE svg PUBLIC "-//W3C//DTD SVG 1.1//EN" "http://www.w3.org/Graphics/SVG/1.1/DTD/svg11.dtd">
<svg version="1.1" id="Calque_1" xmlns="http://www.w3.org/2000/svg" xmlns:xlink="http://www.w3.org/1999/xlink" x="0px" y="0px"
	 width="40px" height="40px" viewBox="0 0 40 40" enable-background="new 0 0 40 40" xml:space="preserve">
<line fill="none" stroke="#0000FF" stroke-width="1.125" x1="22.352" y1="20" x2="37.641" y2="20"/>
<line fill="none" stroke="#BF0000" stroke-width="1.125" x1="2.36" y1="20" x2="17.648" y2="20"/>
<polyline fill="none" stroke="#000000" stroke-width="0.25" points="17.648,12.16 17.648,4.32 18.04,3.144 18.824,2.752 20,2.36 
	21.176,2.752 21.96,3.144 22.352,4.32 22.352,12.16 17.648,12.16 17.648,32.544 "/>
<line fill="none" stroke="#000000" stroke-width="0.25" x1="22.352" y1="12.16" x2="22.352" y2="32.544"/>
<line fill="none" stroke="#000000" stroke-width="1.125" x1="12.16" y1="23.92" x2="17.648" y2="23.92"/>
<line fill="none" stroke="#000000" stroke-width="1.125" x1="12.16" y1="16.08" x2="17.648" y2="16.08"/>
<line fill="none" stroke="#000000" stroke-width="1.125" x1="12.16" y1="8.24" x2="17.648" y2="8.24"/>
<g enable-background="new    ">
	<path d="M25.047,31.143c0-0.562,0.197-1.041,0.594-1.435c0.395-0.394,0.872-0.591,1.431-0.591s1.036,0.198,1.431,0.594
		c0.396,0.396,0.594,0.873,0.594,1.432s-0.197,1.036-0.594,1.432c-0.395,0.396-0.872,0.594-1.431,0.594s-1.036-0.198-1.431-0.594
		C25.244,32.179,25.047,31.701,25.047,31.143z M26.099,31.143c0,0.267,0.096,0.495,0.286,0.686s0.419,0.285,0.686,0.285
		s0.495-0.095,0.686-0.285s0.286-0.419,0.286-0.686s-0.096-0.495-0.286-0.686s-0.419-0.285-0.686-0.285s-0.495,0.095-0.686,0.285
		S26.099,30.876,26.099,31.143z"/>
	<path d="M36.599,35.16l1.821,0.578c-0.279,1.016-0.743,1.77-1.394,2.263c-0.649,0.493-1.474,0.739-2.473,0.739
		c-1.235,0-2.251-0.422-3.047-1.266c-0.795-0.845-1.193-1.999-1.193-3.463c0-1.549,0.4-2.752,1.2-3.608
		c0.8-0.857,1.852-1.286,3.155-1.286c1.138,0,2.062,0.337,2.773,1.01c0.424,0.397,0.74,0.969,0.952,1.714l-1.86,0.444
		c-0.109-0.482-0.339-0.863-0.688-1.143c-0.349-0.279-0.772-0.419-1.272-0.419c-0.689,0-1.25,0.247-1.679,0.743
		c-0.43,0.494-0.645,1.297-0.645,2.405c0,1.177,0.212,2.015,0.635,2.514s0.974,0.749,1.65,0.749c0.499,0,0.929-0.158,1.288-0.477
		C36.184,36.342,36.442,35.842,36.599,35.16z"/>
</g>
<circle fill="#BF0000" stroke="#000000" stroke-width="0.25" cx="19.953" cy="35.519" r="3.859"/>
<path fill="#BF0000" d="M17.75,32.207l0.031-20.016h4.5l-0.062,20.062C22.219,32.254,20.219,30.738,17.75,32.207z"/>
</svg>
