<?xml version="1.0" encoding="utf-8"?>
<!-- Generator: Adobe Illustrator 14.0.0, SVG Export Plug-In . SVG Version: 6.00 Build 43363)  -->
<!DOCTYPE svg PUBLIC "-//W3C//DTD SVG 1.1//EN" "http://www.w3.org/Graphics/SVG/1.1/DTD/svg11.dtd">
<svg version="1.1" id="Calque_1" xmlns="http://www.w3.org/2000/svg" xmlns:xlink="http://www.w3.org/1999/xlink" x="0px" y="0px"
	 width="40px" height="40px" viewBox="0 0 40 40" enable-background="new 0 0 40 40" xml:space="preserve">
<line fill="none" stroke="#0000FF" stroke-width="1.125" x1="12.16" y1="20" x2="0.4" y2="20"/>
<line fill="none" stroke="#0000FF" stroke-width="1.125" x1="27.84" y1="20" x2="39.6" y2="20"/>
<g enable-background="new    ">
	<path d="M26.376,31.86c0-0.477,0.167-0.881,0.502-1.214s0.739-0.499,1.212-0.499s0.876,0.167,1.211,0.502
		c0.334,0.335,0.502,0.738,0.502,1.211s-0.168,0.876-0.502,1.211c-0.335,0.335-0.738,0.502-1.211,0.502s-0.877-0.167-1.212-0.502
		S26.376,32.333,26.376,31.86z M27.267,31.86c0,0.226,0.08,0.419,0.242,0.58c0.16,0.161,0.354,0.242,0.58,0.242
		c0.225,0,0.418-0.081,0.58-0.242c0.16-0.161,0.241-0.354,0.241-0.58s-0.081-0.419-0.241-0.58c-0.162-0.161-0.355-0.242-0.58-0.242
		c-0.227,0-0.42,0.081-0.58,0.242C27.347,31.441,27.267,31.635,27.267,31.86z"/>
	<path d="M36.151,35.261l1.542,0.488c-0.236,0.859-0.63,1.498-1.18,1.915c-0.549,0.417-1.246,0.626-2.092,0.626
		c-1.045,0-1.904-0.357-2.578-1.072c-0.674-0.714-1.01-1.69-1.01-2.93c0-1.311,0.338-2.328,1.016-3.054
		c0.676-0.725,1.566-1.087,2.669-1.087c0.964,0,1.745,0.284,2.347,0.854c0.358,0.337,0.627,0.82,0.807,1.45l-1.574,0.376
		c-0.094-0.408-0.287-0.73-0.582-0.967c-0.297-0.236-0.655-0.354-1.078-0.354c-0.583,0-1.057,0.21-1.42,0.628
		c-0.363,0.42-0.545,1.098-0.545,2.036c0,0.995,0.179,1.704,0.537,2.127c0.357,0.423,0.823,0.634,1.396,0.634
		c0.422,0,0.785-0.135,1.09-0.402C35.801,36.259,36.019,35.837,36.151,35.261z"/>
</g>
<circle fill="#FFFFFF" stroke="#000000" cx="19.875" cy="19.792" r="8.375"/>
</svg>
