<?xml version="1.0" encoding="utf-8"?>
<!-- Generator: Adobe Illustrator 14.0.0, SVG Export Plug-In . SVG Version: 6.00 Build 43363)  -->
<!DOCTYPE svg PUBLIC "-//W3C//DTD SVG 1.1//EN" "http://www.w3.org/Graphics/SVG/1.1/DTD/svg11.dtd">
<svg version="1.1" id="Calque_1" xmlns="http://www.w3.org/2000/svg" xmlns:xlink="http://www.w3.org/1999/xlink" x="0px" y="0px"
	 width="40px" height="40px" viewBox="0 0 40 40" enable-background="new 0 0 40 40" xml:space="preserve">
<title>Graphic window number 0</title>
<desc>Creator: GL2PS 1.3.2, (C) 1999-2006 Christophe Geuzaine (geuz@geuz.org)
For: Scilab
CreationDate: Fri Sep 16 15:16:26 2011</desc>
<g>
	<polygon fill="#FFFFFF" points="27.803,19.231 20,20 27.84,20 	"/>
	<polygon fill="#FFFFFF" points="27.689,18.471 20,20 27.803,19.231 	"/>
	<polygon fill="#FFFFFF" points="27.502,17.724 20,20 27.689,18.471 	"/>
	<polygon fill="#FFFFFF" points="27.243,17 20,20 27.502,17.724 	"/>
	<polygon fill="#FFFFFF" points="26.914,16.304 20,20 27.243,17 	"/>
	<polygon fill="#FFFFFF" points="26.519,15.645 20,20 26.914,16.304 	"/>
	<polygon fill="#FFFFFF" points="26.061,15.026 20,20 26.519,15.645 	"/>
	<polygon fill="#FFFFFF" points="25.544,14.456 20,20 26.061,15.026 	"/>
	<polygon fill="#FFFFFF" points="24.974,13.939 20,20 25.544,14.456 	"/>
	<polygon fill="#FFFFFF" points="24.355,13.481 20,20 24.974,13.939 	"/>
	<polygon fill="#FFFFFF" points="23.695,13.086 20,20 24.355,13.481 	"/>
	<polygon fill="#FFFFFF" points="23,12.757 20,20 23.695,13.086 	"/>
	<polygon fill="#FFFFFF" points="22.275,12.498 20,20 23,12.757 	"/>
	<polygon fill="#FFFFFF" points="21.529,12.311 20,20 22.275,12.498 	"/>
	<polygon fill="#FFFFFF" points="20.769,12.198 20,20 21.529,12.311 	"/>
	<polygon fill="#FFFFFF" points="20,12.16 20,20 20.769,12.198 	"/>
	<polygon fill="#FFFFFF" points="19.231,12.198 20,20 20,12.16 	"/>
	<polygon fill="#FFFFFF" points="18.471,12.311 20,20 19.231,12.198 	"/>
	<polygon fill="#FFFFFF" points="17.724,12.498 20,20 18.471,12.311 	"/>
	<polygon fill="#FFFFFF" points="17,12.757 20,20 17.724,12.498 	"/>
	<polygon fill="#FFFFFF" points="16.304,13.086 20,20 17,12.757 	"/>
	<polygon fill="#FFFFFF" points="15.645,13.481 20,20 16.304,13.086 	"/>
	<polygon fill="#FFFFFF" points="15.026,13.939 20,20 15.645,13.481 	"/>
	<polygon fill="#FFFFFF" points="14.456,14.456 20,20 15.026,13.939 	"/>
	<polygon fill="#FFFFFF" points="13.939,15.026 20,20 14.456,14.456 	"/>
	<polygon fill="#FFFFFF" points="13.481,15.645 20,20 13.939,15.026 	"/>
	<polygon fill="#FFFFFF" points="13.086,16.304 20,20 13.481,15.645 	"/>
	<polygon fill="#FFFFFF" points="12.757,17 20,20 13.086,16.304 	"/>
	<polygon fill="#FFFFFF" points="12.498,17.724 20,20 12.757,17 	"/>
	<polygon fill="#FFFFFF" points="12.311,18.471 20,20 12.498,17.724 	"/>
	<polygon fill="#FFFFFF" points="12.198,19.231 20,20 12.311,18.471 	"/>
	<polygon fill="#FFFFFF" points="12.16,20 20,20 12.198,19.231 	"/>
	<polygon fill="#FFFFFF" points="12.198,20.769 20,20 12.16,20 	"/>
	<polygon fill="#FFFFFF" points="12.311,21.529 20,20 12.198,20.769 	"/>
	<polygon fill="#FFFFFF" points="12.498,22.275 20,20 12.311,21.529 	"/>
	<polygon fill="#FFFFFF" points="12.757,23 20,20 12.498,22.275 	"/>
	<polygon fill="#FFFFFF" points="13.086,23.695 20,20 12.757,23 	"/>
	<polygon fill="#FFFFFF" points="13.481,24.355 20,20 13.086,23.695 	"/>
	<polygon fill="#FFFFFF" points="13.939,24.974 20,20 13.481,24.355 	"/>
	<polygon fill="#FFFFFF" points="14.456,25.544 20,20 13.939,24.974 	"/>
	<polygon fill="#FFFFFF" points="15.026,26.061 20,20 14.456,25.544 	"/>
	<polygon fill="#FFFFFF" points="15.645,26.519 20,20 15.026,26.061 	"/>
	<polygon fill="#FFFFFF" points="16.304,26.914 20,20 15.645,26.519 	"/>
	<polygon fill="#FFFFFF" points="17,27.243 20,20 16.304,26.914 	"/>
	<polygon fill="#FFFFFF" points="17.724,27.502 20,20 17,27.243 	"/>
	<polygon fill="#FFFFFF" points="18.471,27.689 20,20 17.724,27.502 	"/>
	<polygon fill="#FFFFFF" points="19.231,27.803 20,20 18.471,27.689 	"/>
	<polygon fill="#FFFFFF" points="20,27.84 20,20 19.231,27.803 	"/>
	<polygon fill="#FFFFFF" points="20.769,27.803 20,20 20,27.84 	"/>
	<polygon fill="#FFFFFF" points="21.529,27.689 20,20 20.769,27.803 	"/>
	<polygon fill="#FFFFFF" points="22.275,27.502 20,20 21.529,27.689 	"/>
	<polygon fill="#FFFFFF" points="23,27.243 20,20 22.275,27.502 	"/>
	<polygon fill="#FFFFFF" points="23.695,26.914 20,20 23,27.243 	"/>
	<polygon fill="#FFFFFF" points="24.355,26.519 20,20 23.695,26.914 	"/>
	<polygon fill="#FFFFFF" points="24.974,26.061 20,20 24.355,26.519 	"/>
	<polygon fill="#FFFFFF" points="25.544,25.544 20,20 24.974,26.061 	"/>
	<polygon fill="#FFFFFF" points="26.061,24.974 20,20 25.544,25.544 	"/>
	<polygon fill="#FFFFFF" points="26.519,24.355 20,20 26.061,24.974 	"/>
	<polygon fill="#FFFFFF" points="26.914,23.695 20,20 26.519,24.355 	"/>
	<polygon fill="#FFFFFF" points="27.243,23 20,20 26.914,23.695 	"/>
	<polygon fill="#FFFFFF" points="27.502,22.275 20,20 27.243,23 	"/>
	<polygon fill="#FFFFFF" points="27.689,21.529 20,20 27.502,22.275 	"/>
	<polygon fill="#FFFFFF" points="27.803,20.769 20,20 27.689,21.529 	"/>
	<polygon fill="#FFFFFF" points="27.84,20 20,20 27.803,20.769 	"/>
	<polyline fill="none" stroke="#000000" stroke-width="0.25" points="27.84,20 27.801,19.219 27.685,18.447 27.492,17.689 
		27.225,16.955 26.885,16.25 26.478,15.583 26.006,14.96 25.475,14.388 24.889,13.871 24.254,13.414 23.576,13.023 22.864,12.702 
		22.123,12.453 21.361,12.279 20.586,12.182 19.805,12.163 19.025,12.221 18.255,12.356 17.503,12.568 16.775,12.854 16.08,13.21 
		15.423,13.634 14.812,14.122 14.253,14.667 13.75,15.266 13.31,15.912 12.937,16.598 12.633,17.318 12.402,18.065 12.248,18.832 
		12.17,19.609 12.17,20.391 12.248,21.168 12.402,21.935 12.633,22.682 12.937,23.402 13.31,24.088 13.75,24.734 14.253,25.332 
		14.812,25.879 15.423,26.365 16.08,26.789 16.775,27.146 17.503,27.432 18.255,27.644 19.025,27.779 19.805,27.838 20.586,27.818 
		21.361,27.721 22.123,27.547 22.864,27.298 23.576,26.977 24.254,26.586 24.889,26.129 25.475,25.612 26.006,25.039 26.478,24.416 
		26.885,23.75 27.225,23.045 27.492,22.311 27.685,21.553 27.801,20.781 27.84,20 	"/>
	<line fill="none" stroke="#0000FF" stroke-width="0.125" x1="12.16" y1="20" x2="0.4" y2="20"/>
	<line fill="none" stroke="#0000FF" stroke-width="0.125" x1="27.84" y1="20" x2="39.6" y2="20"/>
	<text transform="matrix(1 0 0 1 26.9141 38.1553)" font-family="'ArialMT'" font-size="11">°C</text>
</g>
</svg>
