<?xml version="1.0" encoding="utf-8"?>
<!-- Generator: Adobe Illustrator 14.0.0, SVG Export Plug-In . SVG Version: 6.00 Build 43363)  -->
<!DOCTYPE svg PUBLIC "-//W3C//DTD SVG 1.1//EN" "http://www.w3.org/Graphics/SVG/1.1/DTD/svg11.dtd">
<svg version="1.1" id="Calque_1" xmlns="http://www.w3.org/2000/svg" xmlns:xlink="http://www.w3.org/1999/xlink" x="0px" y="0px"
	 width="40px" height="40px" viewBox="0 0 40 40" enable-background="new 0 0 40 40" xml:space="preserve">
<line fill="none" stroke="#0000FF" stroke-width="1.125" x1="11.964" y1="20" x2="0.4" y2="20"/>
<line fill="none" stroke="#0000FF" stroke-width="1.125" x1="39.6" y1="20" x2="27.437" y2="20"/>
<g enable-background="new    ">
	<path d="M2.42,32.278c0-0.433,0.152-0.801,0.457-1.104s0.671-0.454,1.101-0.454s0.797,0.152,1.101,0.456
		c0.304,0.305,0.457,0.672,0.457,1.102s-0.152,0.797-0.457,1.102c-0.304,0.304-0.671,0.456-1.101,0.456s-0.797-0.152-1.101-0.456
		C2.573,33.075,2.42,32.708,2.42,32.278z M3.231,32.278c0,0.205,0.073,0.381,0.22,0.527s0.322,0.22,0.527,0.22
		s0.381-0.073,0.527-0.22s0.22-0.322,0.22-0.527s-0.073-0.381-0.22-0.527s-0.322-0.22-0.527-0.22s-0.381,0.073-0.527,0.22
		S3.231,32.073,3.231,32.278z"/>
	<path d="M11.307,35.369l1.401,0.444c-0.215,0.781-0.572,1.361-1.072,1.74c-0.5,0.38-1.134,0.569-1.902,0.569
		c-0.951,0-1.732-0.325-2.344-0.974c-0.612-0.65-0.918-1.538-0.918-2.664c0-1.191,0.308-2.117,0.923-2.775
		c0.615-0.66,1.424-0.989,2.427-0.989c0.875,0,1.587,0.259,2.134,0.776c0.326,0.306,0.57,0.745,0.732,1.318l-1.431,0.342
		c-0.084-0.371-0.261-0.664-0.53-0.879s-0.595-0.322-0.979-0.322c-0.531,0-0.961,0.19-1.292,0.571s-0.496,0.998-0.496,1.851
		c0,0.905,0.163,1.55,0.488,1.934s0.749,0.576,1.27,0.576c0.384,0,0.714-0.122,0.991-0.366S11.186,35.894,11.307,35.369z"/>
</g>
<circle fill="#FFFFFF" stroke="#000000" cx="19.687" cy="19.875" r="7.562"/>
</svg>
